<?xml version="1.0" encoding="utf-8"?>
<!-- Generator: Adobe Illustrator 21.1.0, SVG Export Plug-In . SVG Version: 6.00 Build 0)  -->
<svg version="1.1" xmlns="http://www.w3.org/2000/svg" xmlns:xlink="http://www.w3.org/1999/xlink" x="0px" y="0px"
	 viewBox="0 0 199 223.9" style="enable-background:new 0 0 199 223.9;" xml:space="preserve">
<style type="text/css">
	.st0{display:none;}
	.st1{display:inline;}
	.st2{fill:none;}
	.st3{font-family:'JustLovelySlantedWide';}
	.st4{font-size:20px;}
	.st5{display:inline;fill:none;stroke:#000000;stroke-miterlimit:10;}
</style>
<g id="Layer_1">
</g>
<g id="BOTTOM_BODY" class="st0">
</g>
<g id="BRAZILLIAN_CUT">
	<g id="front">
		<g class="st0">
			<g class="st1">
				<path d="M59.7,160.1c0.9,0.1,1.7,0.3,2.6,0.3c0.8,0.1,1.6,0.2,2.4,0.2c0.8,0,1.6,0,2.4-0.1c0.8-0.1,1.6-0.2,2.5-0.4l0.1,0.1
					c-1.5,0.9-3.2,1.4-5,1.4c-0.9,0-1.7-0.1-2.6-0.4C61.2,161,60.4,160.6,59.7,160.1L59.7,160.1z"/>
			</g>
			<g class="st1">
				<path d="M41,130.3c1.9,0.8,3.8,1.6,5.8,2.2c1.9,0.7,3.9,1.2,5.9,1.7c4,0.9,8,1.5,12.1,1.6c2,0.1,4.1,0,6.1-0.2c2-0.2,4-0.6,6-1
					c2-0.5,3.9-1,5.8-1.8c1.9-0.7,3.8-1.6,5.7-2.5l0.1,0.1c-3.5,2.1-7.4,3.8-11.4,4.9c-2,0.6-4,0.9-6.1,1.2
					c-2.1,0.2-4.1,0.3-6.2,0.3c-4.1-0.1-8.3-0.7-12.2-1.8C48.4,133.9,44.5,132.4,41,130.3L41,130.3z"/>
			</g>
		</g>
	</g>
	<g>
		<g>
			<g>
				<g>
					<path d="M50.2,194.6c-1.1-1.6-2.2-3.1-3.2-4.7c-1-1.6-2-3.2-3-4.9c-0.9-1.7-1.8-3.4-2.6-5.1c-0.9-1.7-1.6-3.5-2.3-5.2
						c-2.8-7.1-4.6-14.8-4.8-22.5c0-3.9,0.3-7.8,1.2-11.6c0.4-1.9,1-3.8,1.6-5.6c0.7-1.8,1.5-3.6,2.4-5.3c0.9-1.7,2-3.3,3.1-4.9
						c0.6-0.8,1.2-1.5,1.8-2.2c0.3-0.4,0.7-0.7,1-1l0.3-0.2c0.1-0.1,0.2-0.1,0.2-0.2l0.5-0.5c1.2-1.4,2.4-2.9,3.2-4.5
						c0.8-1.6,1.3-3.6,0.5-5.3l0.1-0.1c0.4,0.9,0.6,1.8,0.5,2.8c-0.1,1-0.4,1.9-0.7,2.8c-0.8,1.7-1.9,3.3-3.1,4.8
						c-2.7,2.7-4.8,5.8-6.5,9.2c-3.4,6.8-4.8,14.4-4.7,21.9c0.1,7.6,1.8,15,4.4,22.1c2.6,7.1,6.1,13.9,10.1,20.3L50.2,194.6z"/>
				</g>
				<g class="st0">
					<path class="st1" d="M81.7,121.7c1.3,1.1,2.4,2.3,3.4,3.6c1,1.3,2,2.7,2.8,4.1c1.7,2.9,2.9,6,3.9,9.2c1,3.2,1.4,6.5,1.7,9.9
						c0.2,3.3,0.1,6.7-0.3,10c-0.5,3.3-1.1,6.6-2.1,9.8c-0.2,0.8-0.4,1.6-0.7,2.4l-0.8,2.4c-0.5,1.6-1.2,3.1-1.9,4.6
						c-0.7,1.5-1.4,3-2.1,4.5c-0.8,1.4-1.5,2.9-2.4,4.3l-2.6,4.2c-0.9,1.4-1.9,2.7-2.8,4l-0.1-0.1c3.4-5.5,6.6-11.3,9-17.4
						c2.4-6.1,4.3-12.4,5.1-18.9c0.9-6.5,0.6-13.1-1-19.4c-0.8-3.2-1.9-6.2-3.4-9.1c-0.7-1.5-1.6-2.9-2.5-4.2
						c-0.9-1.3-1.9-2.6-3.1-3.8L81.7,121.7z"/>
				</g>
				<g>
					<path d="M59.1,160.1c1.6,2.4,2.2,5.3,2.8,8c0.5,2.8,0.7,5.6,0.9,8.4c0,2.8,0,5.6-0.2,8.4c-0.1,1.4-0.2,2.8-0.4,4.2
						c-0.2,1.4-0.4,2.8-0.6,4.2l-0.1,0c0.2-2.8,0.3-5.6,0.3-8.4c0.1-2.8,0-5.6,0-8.4c-0.1-2.8-0.3-5.6-0.6-8.4
						c-0.2-1.4-0.4-2.8-0.7-4.1C60,162.8,59.7,161.4,59.1,160.1L59.1,160.1z"/>
				</g>
				<g>
					<path d="M69,160.2c-0.5,1.3-0.8,2.7-1,4c-0.2,1.4-0.4,2.7-0.5,4.1c-0.2,2.8-0.4,5.5-0.5,8.3c-0.1,1.4-0.1,2.8-0.1,4.2
						c0,1.4,0,2.8-0.1,4.2c-0.1,2.8-0.1,5.6-0.3,8.4l-0.1,0c-0.2-2.8-0.3-5.6-0.4-8.4c-0.1-2.8-0.1-5.6,0-8.4
						c0.1-2.8,0.3-5.6,0.7-8.4c0.2-1.4,0.4-2.8,0.8-4.1C67.8,162.8,68.2,161.4,69,160.2L69,160.2z"/>
				</g>
				<g>
					<path d="M78.9,194.6c0.7-1.5,1.5-2.9,2.3-4.4l2.1-4.4l2-4.4c0.6-1.5,1.2-3,1.8-4.5c2.1-6.1,4.1-12.3,4.7-18.7
						c0.7-6.3,0.6-12.8-0.9-19c-0.8-3.1-1.8-6.1-3.2-9c-1.4-2.9-3.1-5.6-5.2-8l-0.1-0.1c-0.6-0.9-1.1-1.7-1.5-2.6
						c-0.5-0.9-0.9-1.8-1.2-2.8c-0.7-1.9-1.1-3.9-0.8-5.9l0.1,0c-0.2,2,0.4,3.9,1.1,5.8c0.8,1.8,1.7,3.6,2.9,5.2l0,0
						c1.2,1.2,2.2,2.5,3.1,3.8c0.9,1.3,1.8,2.8,2.5,4.2c1.5,2.9,2.7,6,3.5,9.2c1.6,6.4,1.9,13,1.1,19.5c-0.8,6.5-2.7,12.8-5.1,18.9
						c-2.5,6.1-5.6,11.8-9.1,17.4L78.9,194.6z"/>
				</g>
			</g>
			<path class="st0" d="M88.8,132.3c0,0-1.7-1.4-3.3,0c-1.6,1.4-16.5,9.1-17.2,26.6l-0.1,0.1c-3.6-3.9-8.4-0.1-8.4-0.1
				c-0.7-17.4-15.6-25.2-17.2-26.6c-1.6-1.4-3.3,0-3.3,0l1.4-2.4c0,0,20.3-5.3,46,0L88.8,132.3z"/>
			<g id="body_lines">
				<g>
					<path d="M79.4,131.1c-0.7,0.7-1.3,1.4-1.9,2.2c-0.6,0.8-1.1,1.5-1.6,2.4c-0.5,0.8-1,1.6-1.4,2.5c-0.4,0.9-0.8,1.8-1.1,2.7l0,0
						c0.5-1.9,1.3-3.7,2.3-5.3C76.7,133.8,77.9,132.3,79.4,131.1L79.4,131.1z"/>
				</g>
				<g>
					<path d="M47.3,131c0.8,0.6,1.5,1.2,2.1,2c0.6,0.7,1.2,1.5,1.7,2.3c0.5,0.8,1,1.7,1.3,2.6c0.4,0.9,0.6,1.8,0.8,2.8l0,0
						c-0.5-1.9-1.3-3.6-2.3-5.3C49.9,133.8,48.7,132.3,47.3,131L47.3,131z"/>
				</g>
				<g>
					<path d="M72,158.5c-0.3,0.8-0.5,1.6-0.7,2.4c-0.2,0.8-0.5,1.5-0.6,2.3c-0.2,0.8-0.4,1.6-0.5,2.4c-0.2,0.8-0.3,1.6-0.5,2.4l0,0
						c0-1.7,0.2-3.3,0.6-4.9C70.6,161.5,71.1,159.9,72,158.5L72,158.5z"/>
				</g>
				<g>
					<path d="M37.9,147.7c0,0.9,0,1.7,0,2.6c0,0.9,0,1.7,0.1,2.6c0.1,1.7,0.2,3.4,0.5,5.1c0.2,1.7,0.4,3.4,0.7,5.1
						c0.3,1.7,0.6,3.4,0.9,5.1l0,0c-0.5-1.7-0.9-3.3-1.3-5c-0.4-1.7-0.6-3.4-0.9-5.1c-0.2-1.7-0.3-3.4-0.4-5.1
						C37.6,151.1,37.6,149.4,37.9,147.7L37.9,147.7z"/>
				</g>
			</g>
		</g>
		<path d="M59,159.3c-0.1-4.8-7.5-19.1-7.5-19.1c-0.8-2.7-12.2-8-12.2-8l0.9-1.9c0,0,24,14.3,47.3,0l0.9,1.9c0,0-11.3,5.3-12.2,8
			c0,0-7.4,14.3-7.5,19.1v0.8c0,0-4.4,3-9.9,0V159.3z"/>
		<g id="bottom_8_">
			<g>
				<g>
					<path d="M123,121.8c-2.1,2.5-3.8,5.3-5,8.3c-1.4,2.9-2.4,6-3.1,9.1c-1.4,6.2-1.7,12.7-0.7,19c0.7,6.4,2.5,12.6,4.7,18.7
						c0.6,1.5,1.2,3,1.8,4.5l2,4.4l2.1,4.4c0.8,1.4,1.5,2.9,2.2,4.4l-0.1,0.1c-3.5-5.5-6.6-11.3-9.1-17.4
						c-2.4-6.1-4.3-12.4-5.1-18.9c-0.8-6.5-0.5-13.2,1.1-19.5c0.8-3.2,2-6.3,3.5-9.2c0.7-1.5,1.6-2.9,2.5-4.2
						c0.9-1.3,1.9-2.6,3.1-3.8L123,121.8z"/>
				</g>
				<g>
					<path d="M158.4,121.7c1.3,1.1,2.4,2.3,3.4,3.6c1,1.3,2,2.7,2.8,4.1c1.7,2.9,2.9,6,3.9,9.2c1,3.2,1.4,6.5,1.7,9.9
						c0.2,3.3,0.1,6.7-0.3,10c-0.5,3.3-1.1,6.6-2.1,9.8c-0.2,0.8-0.4,1.6-0.7,2.4l-0.8,2.4c-0.5,1.6-1.2,3.1-1.9,4.6
						c-0.7,1.5-1.4,3-2.1,4.5c-0.8,1.4-1.5,2.9-2.4,4.3l-2.6,4.2c-0.9,1.4-1.9,2.7-2.8,4l-0.1-0.1c3.4-5.5,6.6-11.3,9-17.4
						c2.4-6.1,4.3-12.4,5.1-18.9c0.9-6.5,0.6-13.1-1-19.4c-0.8-3.2-1.9-6.2-3.4-9.1c-0.7-1.5-1.6-2.9-2.5-4.2
						c-0.9-1.3-1.9-2.6-3.1-3.8L158.4,121.7z"/>
				</g>
				<g>
					<path d="M135.8,160.1c1.6,2.4,2.2,5.3,2.8,8c0.5,2.8,0.7,5.6,0.9,8.4c0,2.8,0,5.6-0.2,8.4c-0.1,1.4-0.2,2.8-0.4,4.2
						c-0.2,1.4-0.4,2.8-0.6,4.2l-0.1,0c0.2-2.8,0.3-5.6,0.3-8.4c0.1-2.8,0-5.6,0-8.4c-0.1-2.8-0.3-5.6-0.6-8.4
						c-0.2-1.4-0.4-2.8-0.7-4.1C136.7,162.8,136.4,161.4,135.8,160.1L135.8,160.1z"/>
				</g>
				<g>
					<path d="M145.7,160.2c-0.5,1.3-0.8,2.7-1,4c-0.2,1.4-0.4,2.7-0.5,4.1c-0.2,2.8-0.4,5.5-0.5,8.3c-0.1,1.4-0.1,2.8-0.1,4.2
						c0,1.4,0,2.8-0.1,4.2c-0.1,2.8-0.1,5.6-0.3,8.4l-0.1,0c-0.2-2.8-0.3-5.6-0.4-8.4c-0.1-2.8-0.1-5.6,0-8.4
						c0.1-2.8,0.3-5.6,0.7-8.4c0.2-1.4,0.4-2.8,0.8-4.1C144.5,162.8,144.9,161.4,145.7,160.2L145.7,160.2z"/>
				</g>
			</g>
			<g>
				<path d="M155.2,163.1c-1.9,0.2-4-0.2-5.8-0.9c-1.8-0.8-3.5-2-4.9-3.4c-2.8-3-4.3-7-4.3-11.1c0.1-4.1,1.5-8.2,4.3-11.1
					c1.4-1.5,3.1-2.7,4.9-3.4c1.9-0.7,3.9-1.1,5.8-0.9v0.1c-3.9,0-7.6,1.8-10.2,4.7c-2.6,2.9-3.9,6.7-3.9,10.6
					c0,3.8,1.4,7.7,3.9,10.6c2.5,2.9,6.3,4.8,10.2,4.7V163.1z"/>
			</g>
			<g>
				<path d="M126.9,163c1.9-0.2,3.8-0.7,5.4-1.6c1.7-0.9,3.1-2.1,4.3-3.5c2.3-2.8,3.6-6.5,3.6-10.2c0.1-3.7-1.2-7.3-3.6-10.2
					c-1.2-1.4-2.6-2.6-4.3-3.5c-1.6-0.9-3.5-1.4-5.4-1.6v-0.1c3.9,0,7.7,1.8,10.3,4.7c2.6,2.9,4,6.8,4,10.7c0,3.9-1.4,7.8-4,10.7
					c-2.6,2.9-6.4,4.8-10.3,4.7V163z"/>
			</g>
			<path d="M165.5,132.3c0,0-1.7-1.4-3.3,0c-1.6,1.4-16.5,9.1-17.2,26.6l-0.1,0.1c-3.6-3.9-8.4-0.1-8.4-0.1
				c-0.7-17.4-15.6-25.2-17.2-26.6c-1.6-1.4-3.3,0-3.3,0l1.4-2.4c0,0,20.3-5.3,46,0L165.5,132.3z"/>
			<g class="st0">
				<g class="st1">
					<path d="M117.5,129.9c1.9-0.6,3.8-1,5.6-1.3c1.9-0.3,3.8-0.6,5.7-0.9c3.9-0.4,7.7-0.7,11.6-0.7c3.9,0.1,7.8,0.2,11.6,0.7
						c1.9,0.2,3.8,0.6,5.7,0.9c1.9,0.4,3.8,0.8,5.7,1.3c-3.8-0.5-7.6-1.1-11.5-1.4c-3.8-0.3-7.7-0.5-11.5-0.5
						c-3.8-0.1-7.7,0.1-11.5,0.4C125.1,128.7,121.3,129.2,117.5,129.9z"/>
				</g>
				<g class="st1">
					<path d="M137.2,158.2c0.3-0.6,0.8-1.2,1.4-1.6c0.6-0.4,1.3-0.7,2.1-0.7c0.8,0,1.5,0.2,2.1,0.6c0.3,0.2,0.5,0.5,0.8,0.7
						c0.2,0.3,0.4,0.6,0.6,0.9c-0.3-0.2-0.6-0.3-0.9-0.5c-0.3-0.1-0.6-0.3-0.9-0.4c-0.6-0.2-1.2-0.3-1.7-0.3
						C139.5,157,138.4,157.5,137.2,158.2z"/>
				</g>
			</g>
		</g>
		<g>
			<path d="M31.8,95.9L31.8,95.9c0.1-0.4,0.2-0.7,0.3-1.1c0.2-0.4,0.3-0.7,0.4-1.1l0.4-1.1c0.1-0.4,0.2-0.7,0.4-1
				c0.1-0.3,0.1-0.5,0.2-0.7c0.1,0,0.1-0.1,0.1-0.1l0-0.1c0.2-0.2,0.2-0.4,0.3-0.7c0.2-0.4,0.3-0.8,0.5-1.3c0.1-0.1,0.2-0.1,0.3-0.1
				c0,0,0,0,0.1,0c0.3,0,0.3,0.2,0.3,0.3c0,0.1,0,0.1,0,0.1l0,0.1c0,0.1-0.1,0.2-0.1,0.2c-0.2,0.6-0.3,1.2-0.6,1.8l0,0.1
				c0,0,0,0.1,0,0.1c0,0,0.1,0,0.1,0l0.2-0.2c0.2-0.3,0.5-0.4,0.7-0.7c0.4-0.4,0.9-0.8,1.4-1.2c0.3-0.3,0.7-0.4,1.1-0.6
				c0.2-0.1,0.4-0.2,0.6-0.3c0.2-0.1,0.4-0.1,0.5-0.2c0.1,0,0.2,0,0.3,0c0.4,0,0.6,0.1,0.9,0.3c0.2,0.2,0.3,0.5,0.3,0.7
				c0,0.1,0,0.2,0,0.2c-0.2,0.8-0.7,1.5-1.2,2.2c-0.6,0.7-1.3,1.4-1.9,2.1c-0.2,0.2-0.4,0.4-0.6,0.5c-0.1,0.1-0.1,0.1-0.2,0.2
				c0,0,0,0,0,0l0,0c0.1,0,0.2,0,0.3-0.1l0.6,0c0.5,0,1,0.1,1.3,0.3c0.5,0.2,0.7,0.6,0.8,1c0.1,0.3,0.1,0.5,0.1,0.8
				c0,0.1,0,0.2-0.1,0.2c0,0.5-0.2,1-0.4,1.5c-0.2,0.4-0.5,0.8-0.8,1.2c-0.4,0.5-0.9,1-1.4,1.4c-0.4,0.4-0.8,0.7-1.3,1l-1,0.4
				c-0.2,0-0.4,0.1-0.5,0.1c-0.2,0-0.3,0-0.5,0c-0.7-0.2-1.1-0.6-1.3-1.1c0-0.3-0.1-0.5,0-0.8c0-0.3,0.1-0.6,0.2-0.8
				c0.2-0.5,0.5-1,0.9-1.5c0.4-0.4,0.7-0.6,1.1-0.9c0.1,0,0.1-0.1,0.2-0.1c0,0,0.1,0,0.2,0c0,0,0.1,0,0.1,0c0.1,0,0.1,0,0.1,0.1
				c0,0,0,0,0,0c0,0,0.1,0,0.1,0c0,0,0,0,0,0c0,0,0,0,0,0c0,0-0.1,0.1-0.1,0.1c-0.2,0.1-0.5,0.4-0.8,0.6c-0.3,0.3-0.5,0.6-0.7,0.9
				c-0.1,0.1-0.1,0.2-0.1,0.3c-0.2,0.4-0.3,0.8-0.3,1.2c0,0.3,0,0.6,0.2,0.9c0.1,0.1,0.1,0.2,0.2,0.3c0,0,0.1,0,0.2,0l0.1,0
				c0.4-0.1,0.7-0.3,1-0.5c0.3-0.2,0.6-0.4,0.9-0.6c0.5-0.4,1-0.8,1.4-1.3c0.2-0.2,0.4-0.4,0.6-0.7c0.3-0.4,0.6-0.8,0.7-1.3
				c0,0,0,0,0-0.1c0.2-0.3,0.2-0.5,0.2-0.7c0-0.3,0-0.6,0-0.9c-0.1-0.4-0.2-0.5-0.6-0.5c-0.1,0-0.3,0-0.4,0c-0.4,0-0.7,0.1-1,0.3
				c-0.6,0.2-1.1,0.5-1.7,0.8c-0.2,0.1-0.2,0.1-0.3,0.2c-0.1,0-0.2,0.1-0.2,0.1c-0.1,0-0.1,0-0.1,0c0,0-0.1-0.1-0.1-0.1
				c0-0.1-0.1-0.2-0.2-0.2c0,0-0.1-0.1-0.1-0.1s0-0.1,0.1-0.1l0.3-0.3c0.4-0.4,0.8-0.7,1.2-1.1c0.2-0.2,0.4-0.4,0.6-0.6
				c0.7-0.6,1.3-1.3,2-2c0.4-0.5,0.9-1.1,1.2-1.6c0.2-0.3,0.3-0.5,0.4-0.8l0-0.4c0-0.1-0.1-0.1-0.2-0.1l0,0c-0.2,0-0.4,0.1-0.6,0.1
				c-0.5,0.2-0.9,0.5-1.4,0.8c-0.3,0.2-0.5,0.4-0.7,0.6c-0.4,0.3-0.8,0.7-1.2,1.1c-0.2,0.1-0.4,0.3-0.5,0.5
				c-0.4,0.4-0.8,0.9-1.2,1.3c-0.1,0.2-0.3,0.3-0.3,0.5c-0.1,0.2-0.1,0.4-0.1,0.6c-0.1,0.2-0.2,0.4-0.2,0.6l-0.5,1.5
				c-0.1,0.1-0.1,0.3-0.1,0.4c0,0.1-0.1,0.2-0.1,0.2c-0.2,0.6-0.4,1.2-0.6,1.8c0,0.1,0,0.2-0.1,0.3l-0.2,0.5
				c-0.1,0.3-0.3,0.6-0.2,0.9l0,0c0,0.1,0,0.2-0.1,0.3c-0.1,0.2-0.2,0.4-0.2,0.6l0,0c-0.1,0.4-0.2,0.7-0.3,1.1c0,0.1,0,0.2-0.1,0.3
				c0,0.1-0.1,0.1-0.1,0.2c0,0-0.1,0.1-0.1,0.1l0,0c0,0-0.1,0-0.1-0.1c0,0,0,0,0,0c0,0-0.1,0-0.1,0c-0.1,0-0.1,0-0.1-0.1
				c0,0-0.1-0.1-0.1,0l-0.1,0c-0.1,0-0.2,0-0.2-0.1c0-0.1,0-0.2,0.1-0.3l0.2-1c0,0,0,0,0-0.1c0.1-0.3,0.2-0.7,0.3-1l0-0.1
				c0-0.1,0-0.2,0-0.3c0.1-0.1,0-0.2,0.1-0.3c0-0.1,0.1-0.3,0.1-0.4c0,0,0-0.1,0-0.1c0-0.1,0.2-0.3,0.2-0.4c0.1-0.2,0.1-0.4,0.1-0.5
				c0-0.2,0.1-0.4,0.2-0.6c0.1-0.2,0.1-0.4,0.2-0.6c0-0.2,0.2-0.4,0.2-0.7C31.6,96.5,31.8,96.2,31.8,95.9z M32.1,96.6
				C32.1,96.6,32.1,96.6,32.1,96.6c-0.1,0.1-0.1,0.1,0,0.2c0,0,0,0,0,0L32.1,96.6z M33.3,98.9c-0.1,0-0.1,0.1-0.1,0.1l0,0.1l0,0
				c0,0,0,0,0,0c0.2-0.2,0.3-0.4,0.5-0.7l0.1-0.2c-0.1,0-0.1,0.1-0.1,0.1C33.6,98.5,33.5,98.7,33.3,98.9z M33.7,98.7L33.7,98.7
				c0,0,0.1-0.1,0.1-0.1C33.8,98.6,33.8,98.7,33.7,98.7C33.7,98.7,33.7,98.7,33.7,98.7z M33.9,98.5c-0.1,0.1-0.2,0.1-0.1,0.2
				C33.9,98.6,33.9,98.5,33.9,98.5z M33.9,98.2c0,0,0.1-0.1,0.1-0.1C34,98.1,33.9,98.1,33.9,98.2z M34.1,98.2
				C34,98.3,34,98.4,34,98.4C34,98.4,34.1,98.3,34.1,98.2z M34.2,92.3L34.2,92.3L34.2,92.3L34.2,92.3L34.2,92.3z M34.2,92.3
				c0.2-0.1,0.2-0.2,0.3-0.3c-0.1,0-0.2,0.1-0.2,0.1C34.3,92.2,34.3,92.2,34.2,92.3z M34.6,91.9c-0.1,0-0.1,0-0.1,0.1
				C34.6,92,34.6,91.9,34.6,91.9z M34.7,91.7c0,0-0.1,0.1,0,0.2L34.7,91.7l0.8-0.7c0,0,0-0.1,0.1-0.1c0.2-0.1,0.4-0.3,0.5-0.4
				c0.1,0,0.2-0.1,0.2-0.2c0.2-0.1,0.3-0.2,0.5-0.4c0,0,0.1,0,0.1,0c0.1-0.1,0.3-0.1,0.4-0.3l0,0c-0.2,0.1-0.3,0.2-0.4,0.3
				c0,0-0.1,0-0.1,0c-0.1,0-0.2,0.1-0.2,0.1c-0.1,0.1-0.1,0.1-0.2,0.2c-0.1,0-0.1,0.1-0.1,0.1l-0.2,0.1c0,0,0,0.1,0,0.1
				c0,0-0.1,0-0.1,0.1c0,0,0,0,0,0c0,0-0.1,0-0.1,0l0.1,0c-0.1,0.1-0.1,0.1-0.2,0.2c0,0.1-0.1,0.1-0.1,0.2c0,0,0,0,0,0
				c0,0,0,0-0.1,0l0.1,0c0,0,0,0.1,0,0.1l-0.1,0.1c0,0-0.1,0.1-0.1,0.1l-0.1,0.2c0,0,0,0,0,0l0,0c-0.1,0-0.1,0-0.1,0.1
				c0,0.1-0.1,0.1-0.1,0.1c0,0,0-0.1,0-0.1l-0.1,0.1c0,0,0.1,0,0.1,0.1c-0.1,0-0.1,0-0.1,0.1C34.7,91.6,34.7,91.7,34.7,91.7z
				 M34.8,91.5C34.8,91.5,34.7,91.5,34.8,91.5c-0.1,0.1,0,0.1,0,0.1C34.8,91.6,34.8,91.5,34.8,91.5z M35,91.3L35,91.3
				C35,91.3,35,91.3,35,91.3C35,91.3,35,91.3,35,91.3z M36.8,93.6c0,0,0-0.1,0-0.1C36.8,93.5,36.8,93.6,36.8,93.6
				C36.8,93.6,36.8,93.6,36.8,93.6c0,0.1-0.1,0.1-0.2,0.2c0,0-0.1,0-0.1,0L36.4,94c0,0,0-0.1,0-0.1c0,0,0,0.1-0.1,0.1l0.1,0
				c-0.1,0.1-0.1,0.1-0.2,0.2l-0.1,0.1l0,0L36,94.4l0-0.1l0,0.1l0,0l-0.1,0.2c0,0-0.1,0-0.2,0.1c-0.1,0.1-0.1,0.2-0.3,0.3
				c0,0-0.1,0-0.1,0.1l0,0.1c0,0,0,0,0,0l0.1,0c0.2-0.2,0.4-0.3,0.5-0.5c0.2-0.1,0.3-0.3,0.4-0.4c0.2-0.1,0.3-0.2,0.4-0.4
				c0.3-0.2,0.5-0.5,0.8-0.7l0-0.1c0.2-0.1,0.2-0.1,0.2-0.2c-0.1,0-0.2,0.1-0.3,0.2c0,0,0,0.1,0,0.1c0,0-0.1,0.1-0.2,0.1
				c0,0,0,0.1-0.1,0.1c0,0-0.1,0.1-0.1,0.1c0,0-0.1,0.1-0.1,0.1L36.8,93.6z M35.1,91.3C35.1,91.3,35.2,91.2,35.1,91.3
				C35.1,91.2,35.1,91.2,35.1,91.3L35.1,91.3z M36.1,94.2C36.1,94.2,36.1,94.2,36.1,94.2C36,94.2,36.1,94.2,36.1,94.2z M36.2,94.6
				C36.1,94.6,36.1,94.6,36.2,94.6L36.2,94.6z M36.2,94.6c0.1,0,0.1-0.1,0.1-0.1C36.2,94.5,36.2,94.5,36.2,94.6z M36.4,94.3
				c-0.1,0-0.1,0.1-0.2,0.1C36.4,94.4,36.4,94.3,36.4,94.3L36.4,94.3z M36.1,90.3L36.1,90.3C36.1,90.3,36.1,90.3,36.1,90.3
				L36.1,90.3z M36.5,93.9C36.5,93.9,36.5,93.8,36.5,93.9c0,0-0.1,0-0.1,0C36.4,93.9,36.5,93.9,36.5,93.9z M36.6,94.2
				c0,0,0.1,0,0.1-0.1C36.6,94.1,36.6,94.1,36.6,94.2z M36.3,90.2C36.3,90.2,36.3,90.1,36.3,90.2C36.3,90.1,36.3,90.2,36.3,90.2
				L36.3,90.2z M36.3,90.5c0.1,0,0.1,0,0.1-0.1L36.3,90.5z M37.6,99.6c0.3-0.3,0.7-0.8,0.9-1.1c0,0,0-0.1,0-0.1l0,0l-0.1,0
				c-0.1,0.1-0.1,0.1-0.1,0.1c-0.4,0.5-0.8,1-1.2,1.4c0,0-0.1,0.1-0.1,0.2c0.1,0,0.1,0,0.2-0.1C37.4,99.8,37.5,99.8,37.6,99.6z
				 M37.3,100.3c0,0,0,0.1-0.1,0.1C37.3,100.4,37.3,100.3,37.3,100.3z M36.7,94C36.8,94,36.8,94,36.7,94L36.7,94z M36.5,90
				C36.5,90,36.5,90,36.5,90C36.5,90,36.5,90,36.5,90L36.5,90z M38.4,99.1C38.5,99.1,38.5,99.1,38.4,99.1l0.1-0.1c0,0,0,0,0,0
				s0,0-0.1,0C38.4,99,38.4,99,38.4,99.1c-0.3,0.3-0.6,0.7-0.9,1c-0.1,0.1-0.1,0.1-0.1,0.2c0.1,0,0.1,0,0.1-0.1
				C37.8,99.9,38.2,99.5,38.4,99.1z M36.6,90.3C36.6,90.3,36.5,90.3,36.6,90.3L36.6,90.3z M36.8,93.5L36.8,93.5
				c0.1,0,0.1-0.1,0.1-0.1L36.8,93.5z M36.9,93.9c0,0,0.1-0.1,0.1-0.1C36.9,93.8,36.9,93.9,36.9,93.9z M37,93.4
				C37,93.4,37,93.4,37,93.4C37,93.4,37,93.4,37,93.4z M37,90c-0.2,0-0.2,0.1-0.3,0.2C36.8,90.1,37,90.1,37,90z M37,93.8
				c0,0,0.1-0.1,0.1-0.1C37.1,93.7,37,93.7,37,93.8z M37.1,93.7C37.1,93.7,37.1,93.6,37.1,93.7C37.1,93.6,37.1,93.7,37.1,93.7z
				 M37.3,93.5c0.1,0,0.1-0.1,0.1-0.1L37.3,93.5z M37.8,99.2L37.8,99.2C37.8,99.1,37.8,99.1,37.8,99.2z M38,98.9
				c-0.1,0-0.2,0.1-0.1,0.2C37.9,99,38,99,38,98.9z M37.5,89.7c-0.1,0-0.3,0.1-0.2,0.2C37.3,89.8,37.4,89.8,37.5,89.7z M37.2,89.5
				C37.3,89.5,37.3,89.5,37.2,89.5c0.3-0.1,0.4-0.2,0.6-0.4C37.6,89.2,37.4,89.4,37.2,89.5C37.3,89.5,37.2,89.5,37.2,89.5z M38,98.9
				c0.1,0,0.1-0.1,0.1-0.2C38,98.8,38,98.9,38,98.9z M38.2,98.7L38.2,98.7C38.2,98.6,38.2,98.7,38.2,98.7
				C38.1,98.7,38.1,98.7,38.2,98.7L38.2,98.7z M37.8,92.6c-0.1,0-0.1,0.1-0.1,0.1C37.7,92.7,37.8,92.7,37.8,92.6z M37.9,92.5
				c-0.1,0-0.1,0-0.1,0.1C37.9,92.6,37.9,92.6,37.9,92.5z M38,92.4c0,0-0.1,0.1-0.1,0.1C38,92.5,38,92.5,38,92.4z M38,92.4
				c0.1,0,0.1-0.1,0.1-0.1C38.1,92.3,38,92.4,38,92.4z M38.2,92.2c-0.1,0-0.1,0.1-0.1,0.1C38.2,92.3,38.2,92.2,38.2,92.2z
				 M38.2,92.2C38.3,92.1,38.3,92.1,38.2,92.2C38.2,92.1,38.2,92.1,38.2,92.2z M38.3,92.1c0.1-0.1,0.1-0.1,0.1-0.2
				C38.4,92,38.4,92,38.3,92.1z"/>
			<path d="M46.2,94C46.2,94,46.2,94,46.2,94c-0.1,0.1-0.1,0.1-0.2,0.1c-0.3,0.1-0.5,0.2-0.8,0.4c-0.3,0.2-0.6,0.5-0.8,0.7
				c-0.6,0.6-1.1,1.3-1.6,2l-0.6,1c-0.1,0.2-0.2,0.4-0.3,0.7c-0.1,0.3-0.2,0.5-0.3,0.7c0,0.1-0.1,0.1-0.2,0.2c0,0-0.1,0-0.1,0
				c0,0-0.1,0-0.1,0c0,0,0-0.1,0-0.1c0,0,0,0-0.1,0c-0.1,0-0.2,0-0.1-0.1c0,0,0,0,0-0.1c0,0,0-0.1,0-0.1l0,0l0,0
				c0,0.1-0.1,0.1-0.1,0.1c0,0,0,0,0-0.1c0,0,0-0.1-0.1-0.1c-0.1,0-0.1,0-0.1-0.1c0,0,0-0.1,0-0.2c0-0.2,0.1-0.5,0.1-0.7
				c0.1-0.5,0.3-0.9,0.3-1.3c0.1-0.4,0.2-0.7,0.3-1.1c0-0.1,0-0.2,0.1-0.3c0-0.2,0.1-0.4,0.2-0.6c0.2-0.5,0.4-1,0.5-1.5
				c0.1-0.1,0.1-0.1,0.2-0.2c0,0,0,0,0,0c0,0,0,0,0,0l0.3,0.1c0,0,0.1,0.1,0.1,0.1c0,0,0,0,0.1,0c0,0,0.1,0,0.1,0
				c0,0.1,0.1,0.2,0.1,0.2c0.1,0,0.1,0.1,0.1,0.1c0,0.1,0,0.2-0.1,0.2c-0.1,0.4-0.5,1.3-0.7,1.8c0,0.1,0,0.1,0,0.2c0,0,0,0,0,0
				l0.1,0l0.2-0.1l1.1-1.5c0.3-0.3,0.7-0.6,1.1-0.8c0.2-0.1,0.3-0.1,0.5-0.1c0.1,0,0.2,0,0.3,0C46,93.7,46.1,93.8,46.2,94L46.2,94z
				 M44,95.4c-0.1,0.2-0.3,0.3-0.4,0.5c0,0,0,0,0,0.1c-0.1,0-0.2,0.2-0.3,0.3c-0.1,0.1-0.2,0.2-0.3,0.3c-0.1,0.1-0.2,0.2-0.2,0.3
				c-0.2,0.2-0.3,0.4-0.4,0.7l0,0.1l0.1,0c0.1-0.2,0.2-0.4,0.3-0.7c0.1-0.1,0.2-0.2,0.2-0.3c0.1-0.1,0.2-0.2,0.3-0.4
				c0.1-0.1,0.2-0.2,0.2-0.3c0,0,0,0,0-0.1c0.2-0.1,0.3-0.3,0.4-0.4C44,95.5,44,95.5,44,95.4z M42.7,96.8
				C42.7,96.8,42.7,96.8,42.7,96.8C42.7,96.8,42.7,96.7,42.7,96.8c0.3-0.4,0.5-0.7,0.8-1l0.1-0.2c0.2-0.2,0.4-0.4,0.6-0.6l0.1-0.1
				c-0.2,0.2-0.4,0.4-0.6,0.7c0,0,0,0,0,0.1c-0.3,0.2-0.4,0.5-0.6,0.8C42.8,96.5,42.7,96.6,42.7,96.8C42.6,96.8,42.6,96.8,42.7,96.8
				z M44.1,95.3C44.1,95.3,44.1,95.3,44.1,95.3L44.1,95.3z M44.3,95.1C44.2,95.2,44.2,95.2,44.3,95.1C44.3,95.2,44.3,95.2,44.3,95.1
				z M44.2,94.8C44.3,94.8,44.3,94.8,44.2,94.8C44.3,94.7,44.2,94.8,44.2,94.8z M44.3,95C44.3,95.1,44.3,95.1,44.3,95
				C44.3,95.1,44.3,95.1,44.3,95L44.3,95z M44.5,94.9C44.4,94.9,44.4,94.9,44.5,94.9C44.4,94.9,44.5,94.9,44.5,94.9z"/>
			<path d="M53.9,94.9c0.1,0,0.1,0.1,0.2,0.1c0,0,0,0,0,0.1c-0.1,0.1-0.1,0.2-0.2,0.4c-0.5,0.7-1,1.4-1.5,2
				c-0.2,0.3-0.5,0.5-0.7,0.8l-0.7,0.5c-0.3,0.2-0.5,0.3-0.7,0.3c-0.2,0-0.3,0-0.5-0.1c-0.4-0.1-0.6-0.3-0.9-0.6
				c-0.1-0.2-0.2-0.4-0.2-0.6c0-0.1,0-0.2,0-0.3c0-0.1,0-0.1,0-0.2c0.1-0.7,0.3-1.4,0.5-2c0.1-0.1,0.2-0.3,0.2-0.4l0,0
				c-0.2,0.1-0.2,0.2-0.2,0.3l-0.9,1.4c-0.3,0.4-0.5,0.8-0.8,1.2c-0.2,0.2-0.4,0.4-0.6,0.6c-0.1,0.2-0.3,0.2-0.5,0.3
				c-0.1,0-0.1,0-0.1,0c-0.1,0-0.2,0-0.3,0c-0.3-0.1-0.4-0.2-0.7-0.4c-0.1-0.1-0.2-0.3-0.2-0.4c0,0,0-0.1,0-0.1c0-0.1,0-0.2,0-0.3
				c0-0.4,0.1-0.8,0.3-1.1c0.1-0.3,0.3-0.7,0.4-1c0.2-0.4,0.5-0.8,0.8-1.1c0-0.1,0.1-0.1,0.1-0.2c0.2-0.2,0.3-0.3,0.5-0.4
				c0.1,0,0.1-0.1,0.2-0.1c0,0,0.1,0,0.2,0c0.3,0,0.8,0.1,1,0.3c0.1,0.1,0.1,0.2,0.2,0.3c0,0,0,0.1,0,0.1c0,0.1-0.1,0.1-0.1,0.1
				c0,0,0,0-0.1,0c0,0-0.1,0-0.1,0l-0.4-0.2c0,0,0,0-0.1,0c0,0,0,0-0.1,0L48,94.4c-0.2,0.2-0.4,0.5-0.6,0.7
				c-0.3,0.5-0.6,1.1-0.8,1.7c-0.1,0.2-0.2,0.5-0.2,0.7c0,0.1,0,0.2,0,0.2c0,0,0,0.1,0,0.1l0,0c0,0,0.1,0,0.1,0
				c0.4-0.4,0.8-0.8,1.1-1.2c0.5-0.6,1-1.3,1.5-1.9c0.3-0.4,0.7-0.9,1.1-1.3l0.5-0.6c0.1-0.1,0.1-0.1,0.1-0.1c0,0,0.1,0,0.2,0
				c0.1,0,0.2,0.1,0.3,0.1c0.1,0.1,0.2,0.1,0.2,0.2c0,0,0,0.1,0,0.1L51,93.7c-0.3,0.7-0.6,1.5-0.8,2.3c-0.1,0.3-0.2,0.7-0.2,1
				c0,0.2-0.1,0.4-0.1,0.6c0,0.2,0,0.3,0,0.5c0,0.2,0,0.3,0.1,0.4c0.1,0.1,0.2,0.1,0.3,0.1l0.1,0c0.1,0,0.2,0,0.2-0.1
				c0.1-0.2,0.4-0.3,0.5-0.4c0.4-0.4,0.9-0.9,1.3-1.4c0.3-0.4,0.7-0.9,1-1.3c0.1-0.1,0.1-0.3,0.2-0.4l0.2-0.1c0,0,0,0,0.1,0
				c0,0,0,0,0.1,0C53.9,94.8,53.8,94.9,53.9,94.9C53.9,94.9,53.9,94.9,53.9,94.9z M46.9,94.8l-0.1,0.1c-0.4,0.5-0.7,1.1-0.9,1.7
				c-0.1,0.1-0.1,0.1-0.1,0.2c0,0,0,0.1,0,0.1c-0.1,0-0.1,0.1-0.1,0.1c0,0,0,0,0,0.1c0,0,0,0,0,0c0,0,0,0,0,0c0,0,0,0,0-0.1
				c0.1,0,0.1-0.1,0.1-0.2c0.1,0,0.1-0.1,0.1-0.2c0.2-0.6,0.5-1.1,0.8-1.6C46.8,95,46.8,94.9,46.9,94.8c0.1,0,0.2-0.1,0.2-0.2
				C47,94.6,46.9,94.7,46.9,94.8z M45.9,96.3C45.9,96.3,45.9,96.4,45.9,96.3C45.9,96.4,45.9,96.3,45.9,96.3z M46,96
				C46,96,46,96,46,96C46,96,46,96,46,96L46,96z M46.5,96.1C46.5,96.1,46.5,96.1,46.5,96.1L46.5,96.1z M46.6,95.8c0,0,0,0.1,0,0.1
				C46.6,95.9,46.6,95.9,46.6,95.8z M46.7,95.8L46.7,95.8C46.6,95.8,46.6,95.8,46.7,95.8C46.7,95.8,46.7,95.8,46.7,95.8z M46.8,95.6
				c-0.1,0-0.2,0.1-0.1,0.2C46.8,95.7,46.8,95.6,46.8,95.6z M46.9,95.4c-0.1,0-0.1,0.1-0.1,0.1C46.9,95.5,46.9,95.5,46.9,95.4z
				 M47,95.1c-0.1,0-0.2,0.1-0.1,0.2l0,0.1C47,95.4,47,95.3,47,95.1z M47,95.1c0.1,0,0.1-0.1,0.1-0.1l0-0.1c0.1,0,0.1-0.1,0.1-0.2
				c-0.1,0-0.1,0.1-0.1,0.2C47.1,95,47,95.1,47,95.1z M47.2,94.4c0,0-0.1,0.1-0.1,0.1l0,0C47.1,94.5,47.2,94.5,47.2,94.4z
				 M47.5,94.5c-0.1,0-0.1,0.1-0.1,0.2C47.4,94.7,47.5,94.6,47.5,94.5z M52.8,96.4C52.8,96.5,52.7,96.5,52.8,96.4L52.8,96.4z
				 M53.3,95.9C53.2,95.9,53.2,95.9,53.3,95.9C53.2,95.9,53.2,95.9,53.3,95.9L53.3,95.9z M53.5,95.4C53.6,95.4,53.6,95.4,53.5,95.4
				C53.6,95.4,53.5,95.4,53.5,95.4L53.5,95.4z M53.7,95.3C53.7,95.3,53.6,95.3,53.7,95.3C53.6,95.3,53.6,95.3,53.7,95.3L53.7,95.3z
				 M53.8,95L53.8,95C53.8,95,53.8,95,53.8,95L53.8,95z"/>
			<path d="M61.1,93.7c0,0,0,0.1-0.1,0.1c-0.3,0.3-0.6,0.7-0.9,1c-0.5,0.5-0.9,1-1.4,1.5l-1.1,1.3c-0.1,0.1-0.2,0.2-0.3,0.4
				c0,0,0,0.1-0.1,0.1c0,0,0,0,0.1,0.1c0,0.2,0.1,0.4,0.1,0.7c0,0.1,0,0.2,0,0.3c0,0.2-0.1,0.4-0.1,0.6c-0.3,0.9-0.7,1.7-1.4,2.4
				l-0.6,0.7c-0.2,0.2-0.5,0.5-0.8,0.7c-0.3,0.2-0.6,0.4-1,0.5c-0.1,0-0.2,0-0.3,0c-0.2,0-0.5,0-0.6-0.2l-0.2-0.2
				c-0.1-0.1-0.2-0.2-0.2-0.4c0,0,0-0.1,0-0.1c0-0.1,0-0.2,0.1-0.3c0-0.2,0.1-0.4,0.2-0.5c0.2-0.5,0.5-0.9,0.8-1.3
				c0.2-0.2,0.3-0.3,0.5-0.5c0.2-0.3,0.5-0.6,0.7-0.8c0.3-0.3,0.6-0.6,0.9-0.8c0.2-0.2,0.4-0.4,0.6-0.6l0.4-0.3l0,0c0,0,0,0,0,0
				c0,0-0.1,0-0.2,0c-0.1,0-0.2,0-0.2,0c-0.2,0-0.3,0-0.5,0.1c-0.6,0.1-1.2,0.3-1.8,0.6l-0.3,0.1c-0.1,0-0.1,0-0.1,0
				c0,0-0.1-0.1-0.1-0.1l0-0.1c0,0,0-0.1-0.1-0.1c0,0-0.1-0.1-0.1-0.1c0,0,0,0,0-0.1c0,0,0-0.1,0.1-0.1l0.4-0.4
				c0.3-0.3,0.7-0.6,1.1-1c0.4-0.3,0.6-0.6,0.9-0.9c0.3-0.3,0.5-0.6,0.8-1c0.2-0.3,0.3-0.5,0.4-0.8c0-0.1,0.1-0.2,0.1-0.4
				c0,0,0,0,0,0c0.1,0,0.1-0.1,0.1-0.1c0-0.1,0-0.1-0.1-0.1c0,0-0.1,0-0.1,0c-0.1,0-0.2,0.1-0.3,0.1c-0.4,0.2-1,0.7-1.4,1.1
				l-0.7,0.5c0,0-0.1,0.1-0.1,0.1c0,0,0,0-0.1-0.1c0-0.1-0.1-0.1-0.2-0.2c-0.1-0.1-0.1-0.2-0.1-0.2c0-0.1,0.1-0.1,0.1-0.2
				c0.2-0.2,0.4-0.5,0.6-0.6c0.2-0.2,0.7-0.6,0.9-0.7c0.2-0.1,0.5-0.2,0.7-0.3c0.2-0.1,0.3-0.1,0.5-0.1c0.1,0,0.2,0,0.4,0
				c0.1,0,0.2,0.1,0.3,0.2c0.2,0.1,0.3,0.3,0.3,0.6c0,0.2,0,0.4-0.1,0.6c-0.1,0.5-0.3,0.9-0.7,1.4c-0.3,0.4-0.6,0.8-1,1.2
				c-0.2,0.2-0.4,0.5-0.7,0.7c0,0,0,0,0,0c0,0,0,0,0,0c0,0,0,0,0,0c0,0,0.1,0,0.1,0c0.1,0,0.3,0,0.4-0.1c0,0,0.1,0,0.1,0
				c0.4,0,0.8,0,1.2,0.2c0,0,0,0,0,0c0.1,0,0.1,0.2,0.1,0.2c0,0,0,0,0.1-0.1c0.5-0.6,1-1.1,1.5-1.7l2-2c0.1-0.1,0.2-0.2,0.3-0.2
				c0,0,0.2-0.1,0.2-0.1C61,93.6,61,93.6,61.1,93.7C61.1,93.6,61.1,93.6,61.1,93.7z M53.4,101.2c0,0,0.1-0.1,0.1-0.1
				c0.2-0.1,0.3-0.2,0.3-0.4c0.1,0,0.2-0.2,0.2-0.3c-0.1,0.1-0.2,0.2-0.2,0.2c-0.1,0.1-0.2,0.2-0.3,0.4L53.4,101.2l-0.1,0l-0.1,0.1
				l0,0c0,0,0,0.1-0.1,0.1l-0.1,0.1l0,0c-0.1,0.1-0.1,0.2-0.2,0.2c0,0.1,0,0.1-0.1,0.1c0,0,0,0.1,0,0.2c-0.1,0.1-0.1,0.1-0.1,0.2
				c-0.1,0-0.1,0-0.1,0s0,0,0,0l0,0l0.1-0.1L53.4,101.2z M56.5,99.4c0.1-0.2,0.1-0.4,0.1-0.6c0,0,0-0.1,0-0.2c0-0.1,0-0.1,0-0.2l0,0
				c0,0-0.1,0-0.1,0c-0.3,0.3-0.7,0.6-1,0.9l-0.8,0.8c-0.4,0.5-0.8,0.9-1.2,1.4c-0.2,0.3-0.4,0.6-0.6,0.9c-0.1,0.3-0.1,0.5-0.2,0.7
				c0,0,0,0,0,0.1c0,0,0,0.1,0,0.1c0,0,0,0.1,0.1,0.1c0.1,0,0.3-0.1,0.4-0.2c0.4-0.2,0.7-0.4,1-0.7c0.5-0.3,0.8-0.7,1.1-1.1
				c0.5-0.6,0.9-1.2,1.1-1.9L56.5,99.4z M52.8,101.8L52.8,101.8L52.8,101.8C52.8,101.8,52.8,101.8,52.8,101.8z M53,102L53,102
				L53,102L53,102z M53.1,101.8c0.1-0.1,0.2-0.2,0.2-0.3C53.3,101.6,53.1,101.6,53.1,101.8z M53.7,101C53.7,101,53.7,101,53.7,101
				c-0.1,0.2-0.3,0.3-0.3,0.4l0.1,0C53.6,101.3,53.7,101.1,53.7,101z M53.7,101c0.1,0,0.1-0.1,0.1-0.1C53.8,100.9,53.8,101,53.7,101
				z M53.8,100.9l0.1-0.1C53.9,100.8,53.8,100.8,53.8,100.9z M54.1,97.3c0.4-0.4,0.8-0.7,1.2-1.1c0.1-0.1,0.2-0.2,0.2-0.3
				c-0.1,0-0.1,0.1-0.1,0.2c-0.1,0.1-0.1,0.2-0.2,0.2l0-0.1c-0.1,0-0.1,0.1-0.1,0.1c0,0,0.1,0,0.1,0c-0.1,0.1-0.1,0.1-0.2,0.1
				c0,0,0-0.1,0.1-0.1c-0.1,0-0.2,0.1-0.2,0.2l0.1-0.1c-0.1,0.1-0.2,0.3-0.4,0.3l0-0.1c-0.1,0-0.1,0.1-0.1,0.2l0.1-0.1l-0.1,0.1
				c-0.1,0.1-0.2,0.2-0.3,0.3l-0.6,0.5c0,0,0,0,0,0c0,0-0.1,0-0.1,0.1l0,0c0,0,0.1,0,0.1,0C53.9,97.5,54,97.5,54.1,97.3z
				 M53.9,100.8c0.1,0,0.1-0.1,0.2-0.1C54,100.7,53.9,100.7,53.9,100.8z M54,100.4C54.1,100.4,54.1,100.4,54,100.4
				C54,100.4,54,100.4,54,100.4z M54.1,100.6c0,0,0.1-0.1,0.1-0.1C54.1,100.6,54.1,100.6,54.1,100.6z M54.9,102.3
				c0,0.1-0.1,0.2-0.2,0.2c0,0.1-0.1,0.1-0.1,0.2c-0.1,0.1-0.2,0.1-0.2,0.2l0,0c0,0,0,0,0,0l0,0c0,0,0,0,0,0l0.1-0.1
				c0.1-0.1,0.2-0.2,0.3-0.2c0.3-0.3,0.7-0.6,0.9-1c0.1-0.1,0.2-0.2,0.2-0.3c-0.2,0.1-0.2,0.2-0.3,0.3l-0.1,0.2c0,0-0.1,0-0.2,0.1
				c0,0,0.1-0.1,0.1-0.1c-0.1,0-0.1,0.1-0.1,0.1l0,0c0,0.1-0.1,0.2-0.2,0.2C55.1,102.2,55,102.3,54.9,102.3z M54.1,100.3
				c0.1,0,0.1-0.1,0.1-0.2C54.1,100.2,54.1,100.3,54.1,100.3z M54.1,100.5c0.1,0,0.1-0.1,0.2-0.1C54.2,100.4,54.1,100.5,54.1,100.5z
				 M55.2,102.4c-0.2,0.1-0.3,0.2-0.4,0.4c-0.1,0-0.1,0.1-0.2,0.1c-0.1,0-0.2,0.1-0.2,0.2c0,0,0,0,0,0c0,0,0.1,0,0.2-0.1l0.1-0.2
				C54.9,102.7,55.1,102.6,55.2,102.4z M54.2,100.2c0.1,0,0.1-0.1,0.1-0.1C54.3,100.1,54.2,100.1,54.2,100.2z M54.3,100.4
				c0.1,0,0.1-0.1,0.1-0.1C54.3,100.3,54.3,100.4,54.3,100.4z M54.4,100.3c0.1,0,0.1-0.1,0.1-0.2C54.4,100.2,54.4,100.2,54.4,100.3z
				 M54.4,100.1c0,0,0-0.1,0.1-0.1C54.4,100,54.4,100,54.4,100.1z M54.7,102.5C54.7,102.5,54.7,102.5,54.7,102.5L54.7,102.5
				L54.7,102.5z M54.6,94L54.6,94l0.1-0.1c0,0,0,0,0.1,0c0.1,0,0.1-0.1,0.1-0.1l-0.2,0.1C54.6,93.9,54.6,93.9,54.6,94l-0.4,0.1
				c0,0,0,0,0,0l0,0l0,0c0,0,0,0,0,0c-0.1,0.1-0.1,0.1-0.1,0.1c0,0,0,0.1-0.1,0.1C54.2,94.4,54.4,94.2,54.6,94z M54,94.3L54,94.3
				L54,94.3C54,94.3,54,94.3,54,94.3z M55.1,96.7c-0.1,0.1-0.2,0.1-0.2,0.2c-0.2,0.2-0.4,0.4-0.6,0.5c0,0,0,0,0,0c0,0,0,0,0,0
				c0.2-0.1,0.3-0.2,0.4-0.3c0.1-0.1,0.2-0.1,0.2-0.2C55,96.9,55.1,96.8,55.1,96.7z M54.5,100.1c0.1,0,0.1-0.1,0.1-0.2
				C54.6,100,54.5,100.1,54.5,100.1z M54.3,94.5L54.3,94.5c-0.1,0-0.1,0.1-0.2,0.1C54.2,94.6,54.3,94.6,54.3,94.5z M54.2,94.1
				C54.2,94.1,54.2,94.1,54.2,94.1L54.2,94.1C54.2,94.1,54.2,94.1,54.2,94.1z M54.9,102.2L54.9,102.2L54.9,102.2L54.9,102.2z
				 M54.7,99.9L54.7,99.9C54.7,100,54.7,100,54.7,99.9z M54.7,99.7C54.7,99.7,54.7,99.7,54.7,99.7C54.7,99.7,54.7,99.7,54.7,99.7z
				 M54.8,99.8c0.1,0,0.1-0.1,0.2-0.2C54.9,99.7,54.8,99.8,54.8,99.8z M55.2,102c-0.1,0-0.2,0.1-0.2,0.2l0.1,0
				C55.1,102.1,55.1,102,55.2,102z M55,94c-0.3,0.1-0.4,0.2-0.5,0.4C54.7,94.3,54.8,94.1,55,94z M55.2,102.4c0.1,0,0.2-0.1,0.2-0.1
				C55.3,102.3,55.2,102.3,55.2,102.4z M55.2,101.9C55.1,101.9,55.2,102,55.2,101.9C55.2,102,55.2,102,55.2,101.9z M54.8,96.6
				c0.1,0,0.1,0,0.1-0.1C54.8,96.5,54.8,96.5,54.8,96.6z M55.1,99.5c0.1,0,0.2-0.1,0.2-0.1C55.1,99.4,55.1,99.5,55.1,99.5z
				 M55.5,102.1c-0.1,0-0.2,0.1-0.1,0.2C55.4,102.2,55.4,102.2,55.5,102.1z M55.4,101.7C55.4,101.7,55.4,101.7,55.4,101.7
				C55.4,101.8,55.4,101.7,55.4,101.7z M55.5,101.6C55.5,101.6,55.4,101.6,55.5,101.6L55.5,101.6z M55.1,96.7c0.1,0,0.1-0.1,0.1-0.1
				C55.2,96.6,55.1,96.6,55.1,96.7z M55.2,96.1c0,0,0.1-0.1,0.1-0.1C55.3,96,55.2,96.1,55.2,96.1z M55.4,96.4
				c-0.1,0-0.1,0.1-0.2,0.2C55.3,96.5,55.4,96.5,55.4,96.4z M55.6,96.3c-0.1,0-0.1,0.1-0.1,0.2C55.5,96.4,55.5,96.3,55.6,96.3z
				 M55.6,95.9c0.1,0,0.1-0.1,0.1-0.1C55.7,95.8,55.6,95.8,55.6,95.9z M55.8,95.7l-0.1,0.1C55.7,95.7,55.7,95.7,55.8,95.7z"/>
			<path d="M61.1,93.4l0-0.1C61.1,93.3,61,93.4,61.1,93.4C61.1,93.4,61.1,93.4,61.1,93.4C61.1,93.4,61.1,93.4,61.1,93.4
				c0,0.1,0,0.1,0,0.2c-0.3,0.5-0.5,0.9-0.7,1.4c0,0.1-0.1,0.3-0.1,0.5c0.1,0,0.1-0.1,0.1-0.2c0.2-0.4,0.3-0.8,0.5-1.2
				c0.1-0.2,0.4-0.5,0.5-0.8c0.1-0.1,0.1-0.1,0.1-0.2c0-0.1,0-0.1,0.1-0.1c0.1,0,0.1,0.1,0.2,0.1l0,0c0,0,0,0,0,0c0,0,0,0,0,0
				c0.1,0,0.1,0,0.1,0c0,0.1,0,0.1-0.1,0.2c-0.1,0.3-0.2,0.6-0.4,0.9c-0.2,0.5-0.4,1-0.5,1.5c-0.1,0.4-0.2,0.7-0.2,1.1l0,0.3
				c0,0,0,0,0.1,0c0.1,0,0.2-0.1,0.2-0.1c0.3-0.3,0.6-0.5,0.9-0.8c0.3-0.3,0.7-0.7,1-1c0.3-0.3,0.6-0.6,0.9-0.9
				c0.4-0.4,0.7-0.7,1-1.1l0.1-0.1c0,0.1,0.1,0.1,0.1,0.2l0,0c0,0,0,0.1,0,0.1c0,0.2-0.2,0.4-0.4,0.7c-0.1,0-0.2,0.1-0.2,0.2l0,0
				c-0.3,0.3-0.5,0.5-0.8,0.8c-0.4,0.4-0.9,0.9-1.2,1.3c-0.1,0.2-0.3,0.4-0.5,0.6c-0.1,0.1-0.2,0.2-0.3,0.4l-0.4,0.3
				c-0.1,0-0.2,0.1-0.3,0.1c-0.1,0-0.2,0-0.2,0c-0.1,0-0.2,0-0.3-0.1c-0.1,0-0.2-0.1-0.3-0.1c-0.1-0.1-0.2-0.2-0.2-0.3
				c-0.1-0.2-0.2-0.4-0.1-0.6c0-0.5,0.1-0.9,0.3-1.4c0-0.3,0.1-0.6,0.3-0.9l0.5-0.8c0.1-0.2,0.3-0.4,0.5-0.6c0-0.1,0.2-0.1,0.2-0.1
				c0,0.1,0,0.1,0,0.1c0,0,0,0,0,0.1c0,0,0,0.1,0,0.1l0,0l0,0c0,0,0,0,0,0C61.3,93.3,61.2,93.3,61.1,93.4z M60.1,95.3
				C60.1,95.3,60.1,95.3,60.1,95.3C60.1,95.3,60.1,95.3,60.1,95.3L60.1,95.3z M60.2,95.1C60.1,95.2,60.1,95.2,60.2,95.1
				c0,0.1,0,0.1,0,0.1C60.2,95.3,60.2,95.2,60.2,95.1C60.2,95.2,60.2,95.2,60.2,95.1z M60.2,95C60.2,95.1,60.2,95.1,60.2,95
				C60.2,95.1,60.2,95.1,60.2,95z M60.3,95.4C60.2,95.4,60.2,95.5,60.3,95.4l0,0.1C60.3,95.5,60.2,95.5,60.3,95.4L60.3,95.4z
				 M60.3,94.9c0,0-0.1,0,0,0.1C60.3,95,60.3,94.9,60.3,94.9z M60.3,94.8C60.3,94.8,60.3,94.8,60.3,94.8l0,0.1
				C60.3,94.9,60.3,94.8,60.3,94.8C60.3,94.8,60.3,94.8,60.3,94.8z M60.5,94.3c-0.1,0.1-0.2,0.3-0.2,0.5
				C60.4,94.6,60.5,94.5,60.5,94.3z M60.6,94.2C60.5,94.2,60.6,94.3,60.6,94.2C60.6,94.3,60.6,94.3,60.6,94.2z M60.6,94.1L60.6,94.1
				C60.6,94.2,60.6,94.2,60.6,94.1C60.6,94.2,60.6,94.2,60.6,94.1z M60.9,93.7c-0.2,0.1-0.2,0.3-0.3,0.5
				C60.8,94,60.8,93.9,60.9,93.7z M61,93.6c0,0-0.1,0-0.1,0.1C60.9,93.7,61,93.6,61,93.6z M61,93.4C61,93.5,61,93.5,61,93.4
				C61,93.5,61,93.5,61,93.6C61,93.5,61,93.5,61,93.4z M61.4,97.2C61.4,97.2,61.4,97.2,61.4,97.2c0,0-0.1,0.1-0.1,0.1
				C61.4,97.2,61.4,97.2,61.4,97.2C61.4,97.2,61.4,97.2,61.4,97.2z M61.3,93.1c-0.1,0-0.1,0.1-0.1,0.2
				C61.2,93.2,61.3,93.2,61.3,93.1C61.3,93.2,61.3,93.2,61.3,93.1z M61.7,97c-0.1,0-0.1,0.1-0.2,0.2C61.5,97.1,61.6,97.1,61.7,97z
				 M61.4,93C61.4,93,61.4,93,61.4,93C61.4,93.1,61.4,93.1,61.4,93C61.4,93.1,61.4,93.1,61.4,93C61.4,93,61.4,93,61.4,93L61.4,93
				L61.4,93C61.4,93,61.4,93,61.4,93z M61.9,96.7c-0.1,0-0.1,0-0.1,0.2C61.8,96.8,61.9,96.8,61.9,96.7L61.9,96.7z M61.8,96.5
				C61.8,96.5,61.9,96.5,61.8,96.5L61.8,96.5C61.9,96.5,61.9,96.5,61.8,96.5C61.9,96.5,61.8,96.5,61.8,96.5z M61.9,96.7
				C61.9,96.7,61.9,96.7,61.9,96.7L61.9,96.7C61.9,96.7,61.9,96.7,61.9,96.7z M62,96.5c-0.1,0-0.1,0-0.1,0.1
				C62,96.6,62,96.6,62,96.5z M61.9,96.4c0,0,0.1,0,0.1-0.1c0,0,0,0,0,0C62,96.3,62,96.4,61.9,96.4z M62.1,96.3
				C62.1,96.2,62.1,96.2,62.1,96.3C62.1,96.2,62.1,96.2,62.1,96.3L62.1,96.3L62.1,96.3z M62.2,96.3l-0.1,0.2
				C62.2,96.4,62.2,96.4,62.2,96.3z M62.7,91.3c-0.1,0-0.2,0.1-0.2,0.2c0,0-0.1,0.1,0,0.1c0,0,0,0.1,0,0.1c-0.1,0.1-0.1,0.1-0.1,0.2
				c-0.1,0-0.1,0-0.1,0c0,0,0-0.1-0.1-0.1l0-0.1c0,0-0.1,0-0.2-0.1c0-0.1-0.1-0.1-0.1-0.1c-0.1,0-0.1-0.1-0.1-0.1
				c0.1-0.2,0.1-0.4,0.3-0.6c0,0,0.1,0,0.1-0.1c0,0,0.1,0,0.1,0c0.1,0,0.2,0,0.3,0.1c0.1,0,0.2,0.1,0.2,0.2
				C62.8,91.2,62.8,91.3,62.7,91.3z M62.3,96.2L62.3,96.2L62.3,96.2C62.3,96.3,62.3,96.3,62.3,96.2z M62.4,96.1
				c-0.1,0-0.1,0.1-0.2,0.1C62.4,96.2,62.4,96.2,62.4,96.1z M62.3,96.1C62.3,96,62.3,96,62.3,96.1L62.3,96.1L62.3,96.1
				C62.3,96,62.3,96,62.3,96.1z M62.4,95.9C62.4,95.9,62.4,95.9,62.4,95.9L62.4,95.9C62.4,95.9,62.4,95.9,62.4,95.9z M62.5,96.1
				L62.5,96.1C62.5,96.1,62.4,96.1,62.5,96.1L62.5,96.1C62.4,96.1,62.5,96.1,62.5,96.1z M62.4,95.9C62.4,95.9,62.5,95.9,62.4,95.9
				c0.1,0,0.1-0.1,0.1-0.1C62.5,95.8,62.5,95.8,62.4,95.9C62.4,95.8,62.4,95.9,62.4,95.9L62.4,95.9z M62.6,95.9
				c-0.1,0-0.1,0.1-0.1,0.2C62.6,96,62.6,96,62.6,95.9z M62.1,91.2L62.1,91.2C62.2,91.2,62.2,91.1,62.1,91.2
				C62.2,91.1,62.1,91.1,62.1,91.2L62.1,91.2z M62.5,95.8c0.1,0,0.1-0.1,0.2-0.2C62.7,95.6,62.6,95.7,62.5,95.8z M62.4,91.1
				L62.4,91.1L62.4,91.1L62.4,91.1l-0.1,0c-0.1,0-0.1,0-0.1,0l0.1,0c-0.1,0-0.1,0.1-0.1,0.1c0,0,0,0,0,0.1
				C62.4,91.2,62.4,91.2,62.4,91.1z M62.7,95.8C62.7,95.8,62.7,95.9,62.7,95.8c-0.1,0.1-0.1,0.1-0.1,0.1c0,0,0,0,0,0
				C62.7,95.9,62.7,95.8,62.7,95.8L62.7,95.8z M62.8,95.6C62.8,95.7,62.8,95.7,62.8,95.6C62.8,95.7,62.8,95.7,62.8,95.6z M63.1,95.4
				L63.1,95.4C63.1,95.4,63.1,95.4,63.1,95.4C63.1,95.4,63.1,95.4,63.1,95.4L63.1,95.4z M63.3,95C63.3,95,63.3,95,63.3,95L63.3,95
				L63.3,95L63.3,95z M63.6,94.7c-0.1,0-0.1,0.1-0.1,0.1l-0.1,0.1C63.5,94.8,63.6,94.8,63.6,94.7z M63.6,95C63.5,95,63.5,95,63.6,95
				c-0.1,0.1-0.1,0.1-0.1,0.1C63.5,95.1,63.5,95,63.6,95L63.6,95z M63.6,94.9C63.6,94.9,63.6,94.9,63.6,94.9L63.6,94.9z M63.7,94.8
				C63.7,94.8,63.7,94.8,63.7,94.8C63.7,94.8,63.7,94.8,63.7,94.8z M63.7,94.6L63.7,94.6C63.7,94.6,63.7,94.6,63.7,94.6z M63.9,94.6
				c-0.1,0-0.1,0.1-0.2,0.2C63.9,94.7,63.9,94.7,63.9,94.6z M63.8,94.4L63.8,94.4l-0.1,0.1C63.8,94.5,63.8,94.5,63.8,94.4
				C63.8,94.5,63.8,94.5,63.8,94.4z M64.2,94.1c-0.1,0-0.1,0.1-0.2,0.2C64.1,94.3,64.1,94.3,64.2,94.1z M64.4,94.1
				c-0.1,0-0.1,0.1-0.2,0.1C64.4,94.2,64.4,94.2,64.4,94.1L64.4,94.1z M64.4,93.9c-0.1,0-0.1,0.1-0.1,0.1c-0.1,0-0.1,0-0.1,0
				C64.4,94,64.4,94,64.4,93.9z M64.7,93.6c-0.1,0-0.1,0.1-0.1,0.2C64.6,93.8,64.6,93.7,64.7,93.6z M64.6,93.9
				C64.6,93.9,64.6,93.9,64.6,93.9L64.6,93.9z M64.7,93.8C64.7,93.8,64.6,93.8,64.7,93.8C64.7,93.8,64.7,93.8,64.7,93.8L64.7,93.8z
				 M64.8,93.4c-0.1,0-0.1,0-0.1,0.1l0,0.1C64.8,93.6,64.8,93.5,64.8,93.4z"/>
			<path d="M70.6,98.2c-0.3,0-0.6,0-0.7-0.1c-0.3-0.1-0.4-0.1-0.6-0.4c-0.1-0.1-0.3-0.2-0.3-0.5c0-0.1,0-0.2,0-0.3
				c0-0.1,0-0.1-0.1-0.2c0,0,0-0.1,0-0.1c0-0.1,0-0.1,0-0.2c0-0.2-0.1-0.9-0.1-1.1c0,0,0-0.1,0-0.1c0-0.1,0-0.3-0.1-0.5
				c-0.6,1.1-1.2,1.6-2.1,2.6c-0.3,0.3-1.3,0.9-1.7,1l0,0c0,0,0,0,0,0l-0.1,0c-0.3-0.1-0.5-0.2-0.7-0.7c-0.2-0.4-0.2-0.7-0.2-1.2
				c0.1-1.6,0.5-3,0.9-4.7c0.3-1,1.7-5.1,2.9-5.2l0,0c0,0,0.1,0,0.2,0c0.1,0,0.2,0,0.3,0.1c0,0,0.1-0.1,0.1-0.1c0,0,0,0.1,0,0.2
				l0,0.2c0,0.4-0.2,1.1-0.2,1.2L67.3,89c0,0-0.4,1.2-0.5,1.3c0,0-0.6,1.5-0.6,1.6s-0.9,2.3-0.9,2.3l-0.2,0.3c0,0,0,0.1,0,0.1
				c-0.1,0.5-0.3,0.9-0.4,1.5c-0.1,0.2-0.1,0.4-0.1,0.6c0,0.5,0,0.8,0.1,0.8c0,0,0,0.1,0,0.1c0,0,0.1,0,0.1,0c0.4-0.1,0.9-0.4,1.4-1
				c0.5-0.5,1.1-1.2,1.5-1.8l0.7-0.9l0-0.1c0-0.1,0-0.3,0.1-0.5l0-0.1c0-0.5,0.2-1,0.3-1.5c0-0.2,0.1-0.3,0.2-0.5
				c0.1-0.5,0.2-1.1,0.4-1.6c0.3-0.8,0.5-1.7,1-2.5c0.2-0.6,0.5-1.1,0.8-1.6c0.3-0.4,0.5-0.9,0.8-1.2c0.2-0.2,0.5-0.4,0.6-0.6
				c0.1-0.1,0.3-0.1,0.4-0.1c0.1,0,0.2,0,0.2,0c0.1,0,0.1,0,0.2,0c0.4,0.1,0.5,0.4,0.6,0.9c0,0.3-0.1,0.6-0.2,0.9
				c-0.1,0.5-0.3,0.9-0.4,1.4c-0.1,0.3-0.3,0.6-0.4,0.9l-0.7,1.5l-0.1,0.1c-0.2,0.5-0.5,1.1-0.8,1.6c-0.1,0.3-0.3,0.6-0.5,0.9
				c-0.4,0.7-0.8,1.5-1.2,2.2c0,0.1-0.1,0.2-0.1,0.3c-0.1,0.2-0.3,0.6-0.3,0.8c0,0.2-0.1,0.3-0.1,0.5c0,0.1,0,0.2,0,0.4
				c0,0.2,0,0.6,0.1,0.9c0.1,0.3,0.5,0.7,0.9,0.7c0,0,0.1,0,0.2-0.1c0.3-0.1,0.3-0.1,0.6-0.3c0.1-0.1,0.2-0.1,0.2-0.1
				c0.1,0,0.2,0.1,0.2,0.2c0,0.2-0.1,0.4-0.5,0.6C71,98.1,70.8,98.1,70.6,98.2z M64.8,92.1c-0.3,1-0.5,2.2-0.7,3.2
				c0,0.1,0,0.3-0.1,0.4c0,0,0.1,0,0,0.1c0,0,0,0,0,0c0-0.1,0.3-1.7,0.4-1.9C64.6,93.1,64.7,92.8,64.8,92.1c0.3-0.8,0.4-1.2,0.7-2.2
				c0-0.1,0.2-0.1,0.1-0.2l0-0.1c-0.1,0-0.2,0.2-0.2,0.3L64.8,92.1z M67.6,87.5c0,0,0.1-0.2,0.1-0.3c0,0-0.1-0.1-0.2-0.1
				c-0.4,0-2,4.5-2.1,5.4c0,0.1,0,0.1,0,0.1L65,93.9C65,93.9,67.6,87.5,67.6,87.5z M65.8,89.5c0.1-0.1,0.4-1,0.4-1.1
				C66.1,88.5,65.8,89.3,65.8,89.5L65.8,89.5z M72.1,86.1c-0.1,0.2-0.3,0.5-0.4,0.7c-0.3,0.6-0.6,1.4-0.9,2.2l-0.5,1.7
				c-0.1,0.5-0.2,0.9-0.3,1.3c0,0.2-0.4,1-0.4,1.2c0,0,0,0,0,0l0,0l0.1-0.1c0.2-0.4,0.8-1.4,1-1.8c0.4-0.9,0.9-1.8,1.3-2.7
				c0.3-0.5,0.4-1.1,0.7-1.6c0.2-0.5,0.3-1,0.4-1.4l0.3-0.9l0-0.2c0,0-0.1-0.1-0.1-0.1c0,0,0,0,0,0c-0.1,0-0.1,0-0.1,0.1
				C72.7,85.1,72.4,85.6,72.1,86.1z M69.7,90.3c-0.1,0.2-0.1,0.4-0.2,0.5l0,0C69.6,90.7,69.7,90.5,69.7,90.3z M69.9,93.5
				C69.9,93.5,69.8,93.5,69.9,93.5C69.9,93.5,69.9,93.5,69.9,93.5z M69.7,89.8c0,0,0,0.1-0.1,0.2C69.6,90,69.7,89.9,69.7,89.8z
				 M69.7,89.8c0,0,0.1-0.1,0.1-0.1L69.7,89.8z M69.9,93.3L69.9,93.3L69.9,93.3C70,93.3,70,93.3,69.9,93.3
				C70,93.3,70,93.3,69.9,93.3z M70.9,87.1c0.4-0.6,0.7-1.2,1-1.8c0,0,0.1-0.1,0.1-0.2l0,0l0,0c-0.1,0-0.2,0.2-0.2,0.3
				c-0.1,0.2-0.2,0.4-0.3,0.6c-0.4,0.7-0.7,1.4-1,2.1c-0.3,0.6-0.4,1.3-0.7,1.9c0,0.1,0,0.2,0,0.3l0,0.1c0-0.1,0-0.2,0.1-0.3
				C70.2,88.9,70.6,88,70.9,87.1z M70.1,93.1C70.1,93.2,70.1,93.2,70.1,93.1C70,93.2,70.1,93.2,70.1,93.1z M70.1,93
				C70.1,93,70.1,93,70.1,93C70.1,93,70.1,93,70.1,93z M70,88.9C70,89,70,89,70,88.9c0,0.1,0.1,0,0.1-0.2l0-0.1
				C70,88.8,70,88.9,70,88.9z M70.1,88.7C70.1,88.6,70.1,88.6,70.1,88.7C70.1,88.6,70.1,88.6,70.1,88.7z M70.2,88.5
				C70.2,88.5,70.2,88.5,70.2,88.5c0,0,0,0,0.1-0.1C70.2,88.4,70.2,88.4,70.2,88.5z M70.2,88.4c0,0,0-0.1,0-0.1
				C70.2,88.2,70.2,88.3,70.2,88.4z M70.6,92.5C70.6,92.5,70.6,92.5,70.6,92.5C70.6,92.5,70.6,92.5,70.6,92.5z M70.2,88.2
				c0.1,0,0.1-0.1,0.1-0.1C70.3,88.1,70.3,88.1,70.2,88.2z M70.3,88L70.3,88C70.3,88,70.3,88,70.3,88L70.3,88
				C70.3,88.1,70.3,88,70.3,88z M70.7,92.4c0.1,0,0.1-0.1,0.1-0.2C70.7,92.3,70.7,92.3,70.7,92.4z M70.3,88c0,0,0.1-0.1,0.1-0.1
				C70.3,87.8,70.3,87.8,70.3,88z M70.9,91.7c-0.1,0-0.1,0-0.1,0.1C70.8,91.8,70.9,91.8,70.9,91.7z M70.4,87.8
				c0.1,0,0.1-0.1,0.1-0.1C70.5,87.7,70.4,87.7,70.4,87.8z M70.5,87.6c0.1,0,0.1-0.1,0.1-0.1C70.5,87.5,70.5,87.6,70.5,87.6z
				 M70.9,91.5c0,0,0,0.1,0,0.1C70.9,91.6,70.9,91.5,70.9,91.5z M71,91.8C70.9,91.8,70.9,91.8,71,91.8L71,91.8z M70.6,87.4
				C70.7,87.3,70.7,87.3,70.6,87.4C70.6,87.3,70.6,87.3,70.6,87.4z M71.1,91.3c-0.1,0-0.1,0.1-0.1,0.2C71,91.4,71.1,91.4,71.1,91.3z
				 M70.7,87.2C70.7,87.2,70.7,87.2,70.7,87.2l0.1-0.1C70.7,87.1,70.7,87.2,70.7,87.2z M70.7,87.1C70.7,87.1,70.8,87.1,70.7,87.1
				C70.7,87.1,70.7,87.1,70.7,87.1z M71.1,91.2L71.1,91.2C71.1,91.2,71.1,91.2,71.1,91.2C71.1,91.2,71.1,91.2,71.1,91.2z M70.8,87
				L70.8,87C70.8,87,70.8,87,70.8,87C70.8,87,70.8,87,70.8,87z M71.3,90.9c-0.1,0.1-0.1,0.2-0.1,0.2C71.2,91.1,71.3,91,71.3,90.9z
				 M70.9,87.7c0,0.1-0.1,0.1,0,0.2C70.9,87.9,70.9,87.8,70.9,87.7z M71,87.5c-0.1,0-0.1,0.1-0.1,0.1C71,87.7,71,87.6,71,87.5z
				 M70.9,86.8c0-0.1,0.1-0.1,0-0.1C70.9,86.7,70.9,86.7,70.9,86.8z M71.3,90.8c0,0.1,0,0.1,0,0.1C71.3,90.9,71.3,90.9,71.3,90.8z
				 M71.1,87.5C71.1,87.5,71,87.5,71.1,87.5C71.1,87.5,71.1,87.5,71.1,87.5z M71.4,90.6c-0.1,0-0.1,0.1-0.1,0.2
				C71.4,90.7,71.4,90.6,71.4,90.6z M71.2,87.3c0,0,0,0-0.1,0.2C71.2,87.4,71.2,87.3,71.2,87.3z M71.4,90.4c0,0,0,0.1,0,0.1
				C71.4,90.5,71.4,90.5,71.4,90.4z M71.2,87.2c0,0-0.1,0-0.1,0.1C71.2,87.3,71.2,87.2,71.2,87.2z M71.5,90.3L71.5,90.3
				c0,0,0,0-0.1,0.1C71.5,90.4,71.5,90.4,71.5,90.3z M71.5,90.7L71.5,90.7l-0.1,0.1C71.5,90.8,71.5,90.7,71.5,90.7
				C71.5,90.7,71.5,90.7,71.5,90.7z M72.1,85.6c-0.1,0.1-0.1,0.2-0.2,0.3c-0.2,0.2-0.3,0.4-0.3,0.6c-0.1,0.1-0.1,0.2-0.2,0.4
				c-0.1,0.1-0.2,0.2-0.2,0.3l0,0.1c0.1-0.1,0.1-0.2,0.2-0.4c0.1-0.1,0.1-0.2,0.2-0.4c0.1-0.2,0.2-0.4,0.3-0.6
				C72,85.8,72,85.7,72.1,85.6c0.1,0,0.2-0.1,0.2-0.3l0,0C72.2,85.3,72.1,85.4,72.1,85.6z M71.6,90.1c-0.1,0.1-0.1,0.1-0.1,0.2
				C71.6,90.2,71.6,90.2,71.6,90.1z M71.6,90.5L71.6,90.5C71.6,90.5,71.6,90.5,71.6,90.5L71.6,90.5z M71.2,86.1
				C71.3,86.1,71.3,86.1,71.2,86.1C71.3,86,71.2,86.1,71.2,86.1z M71.6,90.1C71.6,90,71.7,90,71.6,90.1C71.6,90,71.6,90,71.6,90.1z
				 M71.7,89.8c0,0,0,0.1,0,0.1C71.7,89.9,71.7,89.8,71.7,89.8z M71.8,89.7C71.8,89.7,71.8,89.7,71.8,89.7
				C71.8,89.7,71.8,89.7,71.8,89.7z M71.9,90L71.9,90L71.9,90L71.9,90z M71.9,89.5L71.9,89.5L71.9,89.5c-0.1,0-0.1,0-0.1,0.1
				C71.9,89.6,71.9,89.6,71.9,89.5z M72.1,89.3c-0.1,0-0.1,0.1-0.1,0.1C72,89.5,72,89.4,72.1,89.3z M72.1,89.3c0,0,0-0.1,0-0.1
				C72.1,89.2,72.1,89.3,72.1,89.3z M72.1,89.1c0,0,0,0.1,0,0.1C72.1,89.2,72.1,89.1,72.1,89.1z M72.2,89c0,0-0.1,0.1-0.1,0.1
				C72.2,89,72.2,89,72.2,89z M72.2,89c0,0,0-0.1,0-0.2C72.2,88.8,72.2,88.9,72.2,89z M72.3,88.7L72.3,88.7
				C72.3,88.7,72.3,88.7,72.3,88.7L72.3,88.7C72.3,88.7,72.3,88.7,72.3,88.7z M72.5,88.3c-0.1,0.1-0.1,0.2-0.2,0.4
				C72.4,88.5,72.4,88.4,72.5,88.3z M72.7,87.6C72.7,87.6,72.7,87.6,72.7,87.6c0,0,0,0.1,0,0.1L72.7,87.6z"/>
			<path d="M73.5,92.4l0-0.1C73.5,92.3,73.4,92.4,73.5,92.4C73.5,92.4,73.5,92.4,73.5,92.4C73.5,92.4,73.5,92.4,73.5,92.4
				c0,0.1,0,0.1,0,0.2c-0.3,0.5-0.5,0.9-0.7,1.4c0,0.1-0.1,0.3-0.1,0.5c0.1,0,0.1-0.1,0.1-0.2c0.2-0.4,0.3-0.8,0.5-1.2
				c0.1-0.2,0.4-0.5,0.5-0.8c0.1-0.1,0.1-0.1,0.1-0.2c0-0.1,0-0.1,0.1-0.1c0.1,0,0.1,0.1,0.2,0.1l0,0c0,0,0,0,0,0c0,0,0,0,0,0
				c0.1,0,0.1,0,0.1,0c0,0.1,0,0.1-0.1,0.2c-0.1,0.3-0.2,0.6-0.4,0.9c-0.2,0.5-0.4,1-0.5,1.5c-0.1,0.4-0.2,0.7-0.2,1.1l0,0.3
				c0,0,0,0,0.1,0c0.1,0,0.2-0.1,0.2-0.1c0.3-0.3,0.6-0.5,0.9-0.8c0.3-0.3,0.7-0.7,1-1c0.3-0.3,0.6-0.6,0.9-0.9
				c0.4-0.4,0.7-0.7,1-1.1l0.1-0.1c0,0.1,0.1,0.1,0.1,0.2l0,0c0,0,0,0.1,0,0.1c0,0.2-0.2,0.4-0.4,0.7c-0.1,0-0.2,0.1-0.2,0.2l0,0
				c-0.3,0.3-0.5,0.5-0.8,0.8c-0.4,0.4-0.9,0.9-1.2,1.3c-0.1,0.2-0.3,0.4-0.5,0.6c-0.1,0.1-0.2,0.2-0.3,0.4l-0.4,0.3
				c-0.1,0-0.2,0.1-0.3,0.1c-0.1,0-0.2,0-0.2,0c-0.1,0-0.2,0-0.3-0.1c-0.1,0-0.2-0.1-0.3-0.1c-0.1-0.1-0.2-0.2-0.2-0.3
				c-0.1-0.2-0.2-0.4-0.1-0.6c0-0.5,0.1-0.9,0.3-1.4c0-0.3,0.1-0.6,0.3-0.9l0.5-0.8c0.1-0.2,0.3-0.4,0.5-0.6c0-0.1,0.2-0.1,0.2-0.1
				c0,0.1,0,0.1,0,0.1c0,0,0,0,0,0.1c0,0,0,0.1,0,0.1l0,0l0,0c0,0,0,0,0,0C73.7,92.3,73.6,92.4,73.5,92.4z M72.5,94.3
				C72.5,94.3,72.5,94.3,72.5,94.3C72.5,94.3,72.5,94.3,72.5,94.3L72.5,94.3z M72.5,94.1C72.5,94.2,72.5,94.2,72.5,94.1
				c0,0.1,0,0.1,0,0.1C72.6,94.3,72.6,94.2,72.5,94.1C72.6,94.2,72.6,94.2,72.5,94.1z M72.6,94C72.6,94.1,72.6,94.1,72.6,94
				C72.6,94.1,72.6,94.1,72.6,94z M72.6,94.4C72.6,94.4,72.6,94.5,72.6,94.4l0,0.1C72.6,94.5,72.6,94.5,72.6,94.4L72.6,94.4z
				 M72.7,93.9c0,0-0.1,0,0,0.1C72.6,94,72.6,93.9,72.7,93.9z M72.7,93.8C72.7,93.8,72.7,93.8,72.7,93.8l0,0.1
				C72.7,93.9,72.7,93.8,72.7,93.8C72.7,93.8,72.7,93.8,72.7,93.8z M72.9,93.3c-0.1,0.1-0.2,0.3-0.2,0.5
				C72.8,93.6,72.9,93.5,72.9,93.3z M73,93.2C72.9,93.2,72.9,93.3,73,93.2C73,93.3,73,93.3,73,93.2z M73,93.1L73,93.1
				C73,93.2,73,93.2,73,93.1C73,93.2,73,93.2,73,93.1z M73.3,92.7c-0.2,0.1-0.2,0.3-0.3,0.5C73.2,93,73.2,92.9,73.3,92.7z
				 M73.4,92.6c0,0-0.1,0-0.1,0.1C73.3,92.7,73.4,92.6,73.4,92.6z M73.4,92.4C73.4,92.5,73.3,92.5,73.4,92.4
				c-0.1,0.1-0.1,0.1-0.1,0.1C73.4,92.5,73.4,92.5,73.4,92.4z M73.8,96.2C73.8,96.2,73.8,96.2,73.8,96.2c0,0-0.1,0.1-0.1,0.1
				C73.8,96.3,73.8,96.2,73.8,96.2C73.8,96.2,73.8,96.2,73.8,96.2z M73.6,92.1c-0.1,0-0.1,0.1-0.1,0.2
				C73.6,92.2,73.6,92.2,73.6,92.1C73.7,92.2,73.7,92.2,73.6,92.1z M74,96c-0.1,0-0.1,0.1-0.2,0.2C73.9,96.1,74,96.1,74,96z
				 M73.8,92C73.8,92,73.8,92,73.8,92C73.8,92.1,73.7,92.1,73.8,92C73.7,92.1,73.7,92.1,73.8,92C73.8,92,73.8,92,73.8,92L73.8,92
				L73.8,92C73.8,92,73.8,92,73.8,92z M74.2,95.7c-0.1,0-0.1,0-0.1,0.2C74.2,95.8,74.2,95.8,74.2,95.7L74.2,95.7z M74.2,95.6
				C74.2,95.5,74.2,95.5,74.2,95.6L74.2,95.6C74.3,95.5,74.3,95.5,74.2,95.6C74.3,95.5,74.2,95.5,74.2,95.6z M74.3,95.7
				C74.3,95.7,74.3,95.7,74.3,95.7L74.3,95.7C74.3,95.7,74.3,95.7,74.3,95.7z M74.4,95.5c-0.1,0-0.1,0-0.1,0.1
				C74.4,95.6,74.4,95.6,74.4,95.5z M74.3,95.4c0,0,0.1,0,0.1-0.1c0,0,0,0,0,0C74.3,95.3,74.3,95.4,74.3,95.4z M74.4,95.3
				C74.5,95.3,74.5,95.3,74.4,95.3C74.5,95.2,74.5,95.2,74.4,95.3L74.4,95.3L74.4,95.3z M74.6,95.3l-0.1,0.2
				C74.5,95.4,74.6,95.4,74.6,95.3z M75.1,90.3c-0.1,0-0.2,0.1-0.2,0.2c0,0-0.1,0.1,0,0.1c0,0,0,0.1,0,0.1c-0.1,0.1-0.1,0.1-0.1,0.2
				c-0.1,0-0.1,0-0.1,0c0,0,0-0.1-0.1-0.1l0-0.1c0,0-0.1,0-0.2-0.1c0-0.1-0.1-0.1-0.1-0.1c-0.1,0-0.1-0.1-0.1-0.1
				c0.1-0.2,0.1-0.4,0.3-0.6c0,0,0.1,0,0.1-0.1c0,0,0.1,0,0.1,0c0.1,0,0.2,0,0.3,0.1c0.1,0,0.2,0.1,0.2,0.2
				C75.2,90.2,75.1,90.3,75.1,90.3z M74.7,95.2L74.7,95.2L74.7,95.2C74.6,95.3,74.7,95.3,74.7,95.2z M74.8,95.1
				c-0.1,0-0.1,0.1-0.2,0.1C74.7,95.2,74.8,95.2,74.8,95.1z M74.7,95.1C74.7,95,74.7,95,74.7,95.1L74.7,95.1L74.7,95.1
				C74.7,95,74.7,95,74.7,95.1z M74.8,94.9C74.8,94.9,74.8,94.9,74.8,94.9L74.8,94.9C74.8,94.9,74.8,94.9,74.8,94.9z M74.9,95.1
				L74.9,95.1C74.8,95.1,74.8,95.1,74.9,95.1L74.9,95.1C74.8,95.1,74.8,95.1,74.9,95.1z M74.8,94.9C74.8,94.9,74.9,94.9,74.8,94.9
				c0.1,0,0.1-0.1,0.1-0.1C74.9,94.8,74.9,94.8,74.8,94.9C74.8,94.8,74.8,94.9,74.8,94.9L74.8,94.9z M75,94.9
				c-0.1,0-0.1,0.1-0.1,0.2C75,95.1,75,95,75,94.9z M74.5,90.2L74.5,90.2C74.5,90.2,74.6,90.1,74.5,90.2
				C74.5,90.1,74.5,90.2,74.5,90.2L74.5,90.2z M74.9,94.8c0.1,0,0.1-0.1,0.2-0.2C75,94.6,75,94.7,74.9,94.8z M74.8,90.1L74.8,90.1
				L74.8,90.1L74.8,90.1l-0.1,0c-0.1,0-0.1,0-0.1,0l0.1,0c-0.1,0-0.1,0.1-0.1,0.1c0,0,0,0,0,0.1C74.7,90.2,74.7,90.2,74.8,90.1z
				 M75.1,94.8C75.1,94.8,75.1,94.9,75.1,94.8c-0.1,0.1-0.1,0.1-0.1,0.1c0,0,0,0,0,0C75.1,94.9,75.1,94.8,75.1,94.8L75.1,94.8z
				 M75.2,94.6C75.2,94.7,75.2,94.7,75.2,94.6C75.2,94.7,75.2,94.7,75.2,94.6z M75.5,94.4L75.5,94.4C75.5,94.4,75.5,94.4,75.5,94.4
				C75.5,94.4,75.5,94.4,75.5,94.4L75.5,94.4z M75.7,94.1C75.7,94,75.7,94,75.7,94.1L75.7,94.1L75.7,94.1L75.7,94.1z M76,93.7
				c-0.1,0-0.1,0.1-0.1,0.1l-0.1,0.1C75.9,93.9,75.9,93.8,76,93.7z M75.9,94C75.9,94,75.9,94,75.9,94c-0.1,0.1-0.1,0.1-0.1,0.1
				C75.8,94.1,75.9,94,75.9,94L75.9,94z M76,93.9C75.9,93.9,76,93.9,76,93.9L76,93.9z M76.1,93.8C76.1,93.8,76.1,93.8,76.1,93.8
				C76.1,93.8,76.1,93.8,76.1,93.8z M76.1,93.6L76.1,93.6C76.1,93.6,76.1,93.6,76.1,93.6z M76.3,93.6c-0.1,0-0.1,0.1-0.2,0.2
				C76.3,93.7,76.3,93.7,76.3,93.6z M76.2,93.4L76.2,93.4l-0.1,0.1C76.2,93.5,76.2,93.5,76.2,93.4C76.2,93.5,76.2,93.5,76.2,93.4z
				 M76.6,93.2c-0.1,0-0.1,0.1-0.2,0.2C76.5,93.3,76.5,93.3,76.6,93.2z M76.8,93.1c-0.1,0-0.1,0.1-0.2,0.1
				C76.8,93.2,76.8,93.2,76.8,93.1L76.8,93.1z M76.8,92.9c-0.1,0-0.1,0.1-0.1,0.1c-0.1,0-0.1,0-0.1,0C76.7,93,76.8,93,76.8,92.9z
				 M77,92.6c-0.1,0-0.1,0.1-0.1,0.2C77,92.8,77,92.7,77,92.6z M77,92.9C77,92.9,77,92.9,77,92.9L77,92.9z M77.1,92.8
				C77.1,92.8,77,92.8,77.1,92.8C77,92.8,77.1,92.8,77.1,92.8L77.1,92.8z M77.2,92.4c-0.1,0-0.1,0-0.1,0.1l0,0.1
				C77.2,92.6,77.2,92.5,77.2,92.4z"/>
			<path d="M84.4,92.4c0.1,0,0.1,0.1,0.2,0.1c0,0,0,0,0,0.1c-0.1,0.1-0.1,0.2-0.2,0.4c-0.5,0.7-1,1.4-1.5,2
				c-0.2,0.3-0.5,0.5-0.7,0.8l-0.7,0.5c-0.3,0.2-0.5,0.3-0.7,0.3c-0.2,0-0.3,0-0.5-0.1c-0.4-0.1-0.6-0.3-0.9-0.6
				c-0.1-0.2-0.2-0.4-0.2-0.6c0-0.1,0-0.2,0-0.3c0-0.1,0-0.1,0-0.2c0.1-0.7,0.3-1.4,0.5-2c0.1-0.1,0.2-0.3,0.2-0.4l0,0
				c-0.2,0.1-0.2,0.2-0.2,0.3L78.8,94c-0.3,0.4-0.5,0.8-0.8,1.2c-0.2,0.2-0.4,0.4-0.6,0.6c-0.1,0.2-0.3,0.2-0.5,0.3
				c-0.1,0-0.1,0-0.1,0c-0.1,0-0.2,0-0.3,0c-0.3-0.1-0.4-0.2-0.7-0.4c-0.1-0.1-0.2-0.3-0.2-0.4c0,0,0-0.1,0-0.1c0-0.1,0-0.2,0-0.3
				c0-0.4,0.1-0.8,0.3-1.1c0.1-0.3,0.3-0.7,0.4-1c0.2-0.4,0.5-0.8,0.8-1.1c0-0.1,0.1-0.1,0.1-0.2c0.2-0.2,0.3-0.3,0.5-0.4
				c0.1,0,0.1-0.1,0.2-0.1c0,0,0.1,0,0.2,0c0.3,0,0.8,0.1,1,0.3c0.1,0.1,0.1,0.2,0.2,0.3c0,0,0,0.1,0,0.1c0,0.1-0.1,0.1-0.1,0.1
				c0,0,0,0-0.1,0c0,0-0.1,0-0.1,0l-0.4-0.2c0,0,0,0-0.1,0c0,0,0,0-0.1,0L78.4,92c-0.2,0.2-0.4,0.5-0.6,0.7
				c-0.3,0.5-0.6,1.1-0.8,1.7c-0.1,0.2-0.2,0.5-0.2,0.7c0,0.1,0,0.2,0,0.2c0,0,0,0.1,0,0.1l0,0c0,0,0.1,0,0.1,0
				c0.4-0.4,0.8-0.8,1.1-1.2c0.5-0.6,1-1.3,1.5-1.9c0.3-0.4,0.7-0.9,1.1-1.3l0.5-0.6c0.1-0.1,0.1-0.1,0.1-0.1c0,0,0.1,0,0.2,0
				c0.1,0,0.2,0.1,0.3,0.1c0.1,0.1,0.2,0.1,0.2,0.2c0,0,0,0.1,0,0.1l-0.3,0.7c-0.3,0.7-0.6,1.5-0.8,2.3c-0.1,0.3-0.2,0.7-0.2,1
				c0,0.2-0.1,0.4-0.1,0.6c0,0.2,0,0.3,0,0.5s0,0.3,0.1,0.4c0.1,0.1,0.2,0.1,0.3,0.1l0.1,0c0.1,0,0.2,0,0.2-0.1
				c0.1-0.2,0.4-0.3,0.5-0.4c0.4-0.4,0.9-0.9,1.3-1.4c0.3-0.4,0.7-0.9,1-1.3c0.1-0.1,0.1-0.3,0.2-0.4l0.2-0.1c0,0,0,0,0.1,0
				c0,0,0,0,0.1,0C84.3,92.4,84.3,92.4,84.4,92.4C84.3,92.4,84.3,92.4,84.4,92.4z M77.3,92.4l-0.1,0.1c-0.4,0.5-0.7,1.1-0.9,1.7
				c-0.1,0.1-0.1,0.1-0.1,0.2c0,0,0,0.1,0,0.1c-0.1,0-0.1,0.1-0.1,0.1c0,0,0,0,0,0.1c0,0,0,0,0,0c0,0,0,0,0,0c0,0,0,0,0-0.1
				c0.1,0,0.1-0.1,0.1-0.2c0.1,0,0.1-0.1,0.1-0.2c0.2-0.6,0.5-1.1,0.8-1.6C77.2,92.6,77.3,92.5,77.3,92.4c0.1,0,0.2-0.1,0.2-0.2
				C77.4,92.2,77.3,92.3,77.3,92.4z M76.3,93.9C76.3,93.9,76.3,93.9,76.3,93.9C76.3,93.9,76.3,93.9,76.3,93.9z M76.4,93.6
				C76.4,93.6,76.4,93.5,76.4,93.6C76.4,93.5,76.4,93.5,76.4,93.6L76.4,93.6z M76.9,93.7C76.9,93.7,76.9,93.7,76.9,93.7L76.9,93.7z
				 M77,93.4c0,0,0,0.1,0,0.1C77,93.5,77,93.5,77,93.4z M77.1,93.3L77.1,93.3C77,93.3,77.1,93.4,77.1,93.3
				C77.1,93.4,77.1,93.4,77.1,93.3z M77.2,93.1c-0.1,0-0.2,0.1-0.1,0.2C77.2,93.2,77.2,93.2,77.2,93.1z M77.3,93
				c-0.1,0-0.1,0.1-0.1,0.1C77.3,93.1,77.3,93,77.3,93z M77.4,92.7c-0.1,0-0.2,0.1-0.1,0.2l0,0.1C77.4,92.9,77.4,92.8,77.4,92.7z
				 M77.4,92.7c0.1,0,0.1-0.1,0.1-0.1l0-0.1c0.1,0,0.1-0.1,0.1-0.2c-0.1,0-0.1,0.1-0.1,0.2C77.5,92.5,77.4,92.6,77.4,92.7z M77.6,92
				c0,0-0.1,0.1-0.1,0.1l0,0C77.6,92.1,77.6,92.1,77.6,92z M77.9,92.1c-0.1,0-0.1,0.1-0.1,0.2C77.8,92.2,77.9,92.2,77.9,92.1z
				 M83.2,94C83.2,94,83.1,94.1,83.2,94L83.2,94z M83.7,93.4C83.6,93.4,83.6,93.5,83.7,93.4C83.6,93.5,83.6,93.5,83.7,93.4
				L83.7,93.4z M83.9,93C84,92.9,84,92.9,83.9,93C84,92.9,84,92.9,83.9,93L83.9,93z M84.1,92.8C84.1,92.9,84.1,92.9,84.1,92.8
				C84.1,92.9,84.1,92.9,84.1,92.8L84.1,92.8z M84.2,92.5L84.2,92.5C84.2,92.5,84.2,92.5,84.2,92.5L84.2,92.5z"/>
			<path d="M92.4,91.5L92.4,91.5c0,0.1-0.1,0.1-0.1,0.2c-0.2,0.2-0.3,0.3-0.5,0.6c-0.2,0.2-0.3,0.4-0.5,0.6
				c-0.3,0.4-0.5,0.8-0.8,1.2c-0.4,0.6-0.9,1.2-1.3,1.8c-0.2,0-0.4,0.3-0.6,0.5c-0.2,0.1-0.3,0.2-0.4,0.3c-0.1,0-0.2,0.1-0.2,0.1
				c-0.1,0-0.2,0-0.3-0.1c-0.2,0-0.1,0-0.3-0.1c0-0.1-0.1-0.1-0.2-0.2C87.1,96.3,87,96.1,87,96c0-0.2-0.1-0.4-0.1-0.6
				c0-0.3,0.1-0.6,0.2-0.9l0.3-1c0-0.1,0.1-0.2,0.1-0.4l0.1-0.2c0.1-0.3,0.3-0.6,0.4-0.9l0.3-0.7l0-0.1l0,0c0,0,0,0-0.1,0
				c-0.2,0.1-0.3,0.2-0.4,0.3c-0.2,0.2-0.4,0.4-0.6,0.7c-0.2,0.3-0.4,0.5-0.6,0.8c-0.5,0.7-0.9,1.4-1.5,2.1
				c-0.1,0.1-0.2,0.2-0.3,0.3c-0.1,0.1-0.2,0.1-0.3,0.1c-0.1,0-0.1,0-0.2,0c-0.1-0.1-0.2-0.1-0.3-0.2c-0.1-0.1-0.1-0.1-0.2-0.1
				c-0.1-0.1-0.2-0.2-0.2-0.3c-0.1-0.2-0.1-0.4-0.1-0.5c0-0.1,0-0.2,0-0.3c0-0.1,0-0.2,0.1-0.3c0-0.1,0-0.1-0.1-0.2c0,0,0-0.1,0-0.1
				c0-0.4,0.3-1,0.5-1.5c0.1-0.2,0.2-0.4,0.3-0.6c0-0.1,0.1-0.1,0.1-0.2l0.1-0.1c0.1-0.1,0.2-0.1,0.2-0.1c0.1,0,0.1,0,0.1,0
				c0,0,0.1,0,0,0c0,0,0,0,0,0.1c0,0,0,0,0,0l0,0c0,0,0,0,0,0c0,0,0.1,0,0.1-0.1l0.1,0l0,0c0,0-0.1,0.1-0.1,0.1c0,0,0,0,0,0l0.1-0.1
				c0,0,0-0.1,0.1-0.1l0,0l0,0l0,0.1l0,0c0,0,0.1,0,0.1,0c0,0-0.1,0.1-0.1,0.1c0,0.1-0.1,0.1-0.1,0.2c0,0,0,0,0,0l0,0
				c0-0.1,0.1-0.1,0.1-0.2c0,0,0.1,0,0.1,0c0.1,0,0.1,0,0.1,0.1l0,0.2c0,0-0.1,0.1-0.1,0.1c-0.2,0.4-0.4,0.8-0.5,1.2
				c-0.1,0.2-0.1,0.4-0.1,0.7c0,0.2-0.1,0.4-0.2,0.6c0,0.1,0,0.1,0,0.2c0,0,0,0.1,0,0.1c0.1,0,0.1,0,0.1-0.1c0-0.1,0.1-0.1,0.1-0.1
				c0.2-0.3,0.4-0.6,0.7-0.9c0.2-0.3,0.5-0.6,0.7-0.9c0.3-0.4,0.6-0.7,1-1l0.6-0.6c0.1-0.1,0.2-0.1,0.2-0.2c0.1,0,0.1-0.1,0.2-0.1
				c0.1,0,0.1,0,0.1,0l0.1,0c0.2,0,0.3,0,0.5,0.1c0.1,0.1,0.1,0.2,0.1,0.4c0,0.1,0,0.3,0,0.4c-0.1,0.4-0.2,0.8-0.3,1.2
				c-0.1,0.3-0.2,0.6-0.3,0.8c-0.1,0.2-0.2,0.6-0.3,0.8c-0.1,0.3-0.2,0.6-0.3,1c-0.1,0.2-0.1,0.4-0.1,0.7l0,0.1c0,0,0,0,0,0
				c0,0,0,0,0,0c0.1,0,0.2-0.1,0.2-0.1c0.2,0,0.3-0.2,0.4-0.3c0.3-0.4,0.7-0.8,1-1.2c0.5-0.6,1-1.3,1.5-1.9c0.2-0.2,0.4-0.5,0.6-0.7
				c0.2-0.1,0.3-0.3,0.4-0.4c0,0,0.1,0,0.1,0c0,0,0,0,0,0c0.1,0,0.1,0.1,0.1,0.1l0,0l0,0.1L92.4,91.5C92.4,91.5,92.4,91.5,92.4,91.5
				L92.4,91.5L92.4,91.5z M84.8,94.8L84.8,94.8C84.8,94.7,84.7,94.8,84.8,94.8L84.8,94.8z M84.8,94.7L84.8,94.7
				c0.2-0.1,0.2-0.2,0.3-0.2c0.4-0.4,0.6-0.8,0.9-1.1c0.2-0.4,0.5-0.7,0.7-1l0-0.1c-0.1,0-0.1,0.1-0.2,0.2c-0.1,0.1-0.2,0.3-0.4,0.5
				L86.1,93c0,0-0.1,0.1-0.1,0.1c-0.3,0.4-0.6,0.9-0.9,1.3C85,94.5,84.9,94.5,84.8,94.7L84.8,94.7z M86.4,92.9
				c-0.2,0.1-0.3,0.3-0.4,0.5c-0.1,0-0.1,0.1-0.1,0.2l0,0c-0.3,0.4-0.7,0.9-0.9,1.3L84.8,95c0.2-0.1,0.2-0.1,0.3-0.2
				c0.2-0.3,0.5-0.6,0.6-0.9c0.1-0.1,0.1-0.2,0.2-0.3c0,0,0.1-0.1,0.1-0.1c0.1-0.1,0.2-0.3,0.3-0.4C86.4,93,86.4,92.9,86.4,92.9z
				 M86.9,92.2c-0.1,0-0.1,0.1-0.2,0.2c0,0-0.1,0.1-0.1,0.2c-0.1,0-0.1,0.1-0.1,0.2c0,0-0.1,0.1-0.1,0.1c0,0,0.1-0.1,0.1-0.1
				c0,0,0.1-0.1,0.1-0.1c0.1,0,0.1-0.1,0.1-0.2C86.8,92.4,86.9,92.3,86.9,92.2z M86.8,92.1c0.1,0,0.1-0.1,0.2-0.2
				C86.8,92,86.8,92.1,86.8,92.1z M87.1,91.9C87.1,92,87,92.1,87,92.1C87,92.1,87.1,92,87.1,91.9z M87.1,91.8L87.1,91.8
				C87.1,91.7,87.1,91.7,87.1,91.8L87.1,91.8L87.1,91.8C87.1,91.7,87.1,91.7,87.1,91.8C87.1,91.7,87.1,91.7,87.1,91.8z M89.5,95.2
				c-0.1,0.1-0.2,0.1-0.2,0.2c-0.1,0-0.1,0.1-0.1,0.2c-0.1,0.1-0.2,0.2-0.3,0.2c-0.1,0-0.1,0.1-0.2,0.1l-0.1,0.1l0,0l0.3-0.3
				c0.1,0,0.3-0.1,0.3-0.2c0.1,0,0.1-0.1,0.2-0.2C89.4,95.4,89.4,95.3,89.5,95.2z M88.6,95.9c0.1,0,0.2-0.1,0.2-0.2
				c0.3-0.3,0.6-0.7,0.9-1.1l0.8-1.1c0.1-0.1,0.2-0.3,0.3-0.4c0.1-0.1,0.2-0.3,0.3-0.4c0.1-0.1,0.1-0.2,0.2-0.3
				c0.1-0.1,0.3-0.3,0.3-0.4c0,0,0.1-0.1,0.1-0.1c0,0-0.1,0.1-0.1,0.1c-0.1,0-0.1,0-0.1,0.1l-0.1,0.2c0,0-0.1,0.1-0.1,0.1
				c0,0,0,0,0,0l-0.1,0.1l0,0c0,0,0,0,0,0.1c0,0,0,0,0,0.1l-0.1,0l0,0l0,0l0,0c0,0,0,0,0,0c0,0,0,0.1,0,0.1l0,0l-0.1,0.1
				c0,0,0,0.1-0.1,0.1c0,0,0,0-0.1,0c0,0,0,0,0,0.1l0,0l0,0l0,0c-0.1,0.1-0.1,0.1-0.1,0.1c0,0-0.1,0.1-0.1,0.1c0,0,0,0.1-0.1,0.1
				l0,0l0,0c-0.1,0-0.1,0.1-0.1,0.1c0,0,0,0,0,0c0,0,0,0,0,0l-0.1,0.1c0,0,0,0.1-0.1,0.1c0,0,0,0.1-0.1,0.1l0,0c0,0,0,0-0.1,0
				c0,0,0,0-0.1,0l0,0l0,0c0,0,0,0.1-0.1,0.1L90,94.1l-0.1,0l0,0c0,0,0,0.1,0,0.1c0,0,0,0.1-0.1,0.1c0,0,0,0,0,0c0,0,0,0.1-0.1,0.1
				l0,0l-0.1,0.1c0,0,0,0.1,0,0.1l0,0l0,0c0,0,0,0.1-0.1,0.1c0,0,0,0,0,0s0,0,0,0c0,0,0,0,0,0.1l0,0c-0.1,0-0.1,0.1-0.2,0.1l0,0l0,0
				c0,0,0,0.1-0.1,0.1c0,0,0,0,0,0l0,0c0,0-0.1,0.1-0.1,0.1c-0.1,0.1-0.1,0.1-0.2,0.1c0,0-0.1,0.1-0.1,0.1c0,0.1,0,0.1-0.1,0.2
				c0,0-0.1,0.1-0.1,0.1C88.7,95.8,88.7,95.9,88.6,95.9z M88.8,95.6C88.8,95.6,88.8,95.6,88.8,95.6L88.8,95.6z M89.6,95
				c-0.1,0-0.1,0.1-0.2,0.2C89.6,95.1,89.6,95.1,89.6,95z M89.7,94.9C89.7,94.9,89.7,94.9,89.7,94.9C89.7,94.9,89.7,94.9,89.7,94.9z
				 M89.9,94.6c-0.1,0.1-0.1,0.1-0.2,0.2C89.8,94.8,89.8,94.7,89.9,94.6z M89.9,94.6L89.9,94.6C89.9,94.6,89.9,94.6,89.9,94.6
				C89.9,94.6,89.9,94.6,89.9,94.6z M90,94.4c0,0-0.1,0.1-0.1,0.1C89.9,94.5,90,94.5,90,94.4z M90.2,94.3c-0.1,0-0.2,0.1-0.2,0.2
				C90.1,94.4,90.1,94.4,90.2,94.3z M90.2,94.2C90.2,94.2,90.2,94.2,90.2,94.2C90.2,94.3,90.2,94.2,90.2,94.2z M90.3,94.1
				C90.3,94.1,90.2,94.1,90.3,94.1C90.3,94.2,90.3,94.1,90.3,94.1z M90.4,94c0,0-0.1,0.1-0.1,0.1L90.4,94z M90.4,93.9
				C90.4,94,90.4,94,90.4,93.9C90.4,94,90.4,94,90.4,93.9z M90.5,93.9C90.4,93.9,90.4,93.9,90.5,93.9C90.4,93.9,90.4,93.9,90.5,93.9
				z M90.6,93.8c-0.1,0-0.1,0.1-0.1,0.1C90.5,93.9,90.6,93.8,90.6,93.8z M90.7,93.6C90.6,93.6,90.6,93.6,90.7,93.6
				C90.6,93.6,90.7,93.6,90.7,93.6z M90.7,93.5c0,0-0.1,0.1-0.1,0.1C90.7,93.5,90.7,93.5,90.7,93.5z M90.9,93.3L90.9,93.3L90.9,93.3
				C90.9,93.3,90.9,93.3,90.9,93.3z M90.9,93.1c0,0-0.1,0.1-0.1,0.1C90.9,93.2,90.9,93.2,90.9,93.1z M91.1,93C91.1,93,91,93,91.1,93
				C91.1,93,91.1,93,91.1,93z M91.1,92.9C91.1,92.9,91.1,93,91.1,92.9C91.1,93,91.1,92.9,91.1,92.9z M91.3,92.7
				c-0.1,0-0.1,0.1-0.1,0.1C91.2,92.8,91.3,92.7,91.3,92.7z M91.3,92.6C91.3,92.6,91.3,92.6,91.3,92.6
				C91.3,92.7,91.3,92.6,91.3,92.6z M91.5,92.4c-0.1,0-0.1,0-0.1,0.1L91.5,92.4z M91.6,92.3L91.6,92.3
				C91.6,92.3,91.6,92.3,91.6,92.3z M91.7,92.1c0,0-0.1,0.1-0.1,0.1C91.7,92.2,91.7,92.2,91.7,92.1z M91.8,92
				c-0.1,0-0.1,0.1-0.1,0.1C91.8,92.1,91.8,92.1,91.8,92z M91.8,91.8c0.1,0,0.1-0.1,0.1-0.2C91.9,91.7,91.9,91.7,91.8,91.8z
				 M92,91.7C92,91.6,92,91.6,92,91.7C92,91.6,92,91.6,92,91.7z M92.1,91.7C92,91.7,92,91.8,92.1,91.7L92.1,91.7z M92.1,91.6
				L92.1,91.6L92.1,91.6C92.1,91.5,92.1,91.5,92.1,91.6z M92.2,91.6C92.2,91.6,92.2,91.6,92.2,91.6C92.2,91.6,92.2,91.6,92.2,91.6z"
				/>
		</g>
	</g>
	<rect x="17.7" y="-0.8" class="st2" width="131.1" height="44"/>
	<text transform="matrix(1 0 0 1 52.7331 10.2028)" class="st0 st3 st4">Brazillian</text>
</g>
<g id="BIKINI_CUT">
	<g id="front_copy">
	</g>
</g>
<g id="FULL_PIECE">
	<g id="front_copy_2">
	</g>
</g>
<g id="HIGH_WAISTED">
	<g id="front_copy_3">
	</g>
</g>
</svg>
