<?xml version="1.0" encoding="utf-8"?>
<!-- Generator: Adobe Illustrator 21.1.0, SVG Export Plug-In . SVG Version: 6.00 Build 0)  -->
<svg version="1.1" xmlns="http://www.w3.org/2000/svg" xmlns:xlink="http://www.w3.org/1999/xlink" x="0px" y="0px"
	 viewBox="0 0 199 223.9" style="enable-background:new 0 0 199 223.9;" xml:space="preserve">
<style type="text/css">
	.st0{display:none;}
	.st1{display:inline;}
	.st2{display:inline;fill:none;stroke:#000000;stroke-miterlimit:10;}
	.st3{fill:none;}
	.st4{font-family:'JustLovelySlantedWide';}
	.st5{font-size:20px;}
</style>
<g id="Layer_1">
</g>
<g id="BOTTOM_BODY" class="st0">
</g>
<g id="BRAZILLIAN_CUT">
	<g id="front">
	</g>
</g>
<g id="BIKINI_CUT">
	<g id="front_copy">
	</g>
</g>
<g id="FULL_PIECE">
	<g id="front_copy_2">
	</g>
</g>
<g id="HIGH_WAISTED">
	<g id="front_copy_3">
	</g>
	<rect x="-113.1" y="-0.8" class="st3" width="131.1" height="44"/>
	<text transform="matrix(1 0 0 1 -85.0612 10.2028)" class="st0 st4 st5">High Waisted</text>
	<g>
		<g>
			<g>
				<g>
					<path d="M51.9,194.6c-1.1-1.6-2.2-3.1-3.2-4.7c-1-1.6-2-3.2-3-4.9c-0.9-1.7-1.8-3.4-2.6-5.1c-0.9-1.7-1.6-3.5-2.3-5.2
						c-2.8-7.1-4.6-14.8-4.8-22.5c0-3.9,0.3-7.8,1.2-11.6c0.4-1.9,1-3.8,1.6-5.6c0.7-1.8,1.5-3.6,2.4-5.3c0.9-1.7,2-3.3,3.1-4.9
						c0.6-0.8,1.2-1.5,1.8-2.2c0.3-0.4,0.7-0.7,1-1l0.3-0.2c0.1-0.1,0.2-0.1,0.2-0.2l0.5-0.5c1.2-1.4,2.4-2.9,3.2-4.5
						c0.8-1.6,1.3-3.6,0.5-5.3l0.1-0.1c0.4,0.9,0.6,1.8,0.5,2.8c-0.1,1-0.4,1.9-0.7,2.8c-0.8,1.7-1.9,3.3-3.1,4.8
						c-2.7,2.7-4.8,5.8-6.5,9.2c-3.4,6.8-4.8,14.4-4.7,21.9c0.1,7.6,1.8,15,4.4,22.1c2.6,7.1,6.1,13.9,10.1,20.3L51.9,194.6z"/>
				</g>
				<g class="st0">
					<path class="st1" d="M83.4,121.7c1.3,1.1,2.4,2.3,3.4,3.6c1,1.3,2,2.7,2.8,4.1c1.7,2.9,2.9,6,3.9,9.2c1,3.2,1.4,6.5,1.7,9.9
						c0.2,3.3,0.1,6.7-0.3,10c-0.5,3.3-1.1,6.6-2.1,9.8c-0.2,0.8-0.4,1.6-0.7,2.4l-0.8,2.4c-0.5,1.6-1.2,3.1-1.9,4.6
						c-0.7,1.5-1.4,3-2.1,4.5c-0.8,1.4-1.5,2.9-2.4,4.3l-2.6,4.2c-0.9,1.4-1.9,2.7-2.8,4l-0.1-0.1c3.4-5.5,6.6-11.3,9-17.4
						c2.4-6.1,4.3-12.4,5.1-18.9c0.9-6.5,0.6-13.1-1-19.4c-0.8-3.2-1.9-6.2-3.4-9.1c-0.7-1.5-1.6-2.9-2.5-4.2
						c-0.9-1.3-1.9-2.6-3.1-3.8L83.4,121.7z"/>
				</g>
				<g>
					<path d="M60.8,160.1c1.6,2.4,2.2,5.3,2.8,8c0.5,2.8,0.7,5.6,0.9,8.4c0,2.8,0,5.6-0.2,8.4c-0.1,1.4-0.2,2.8-0.4,4.2
						c-0.2,1.4-0.4,2.8-0.6,4.2l-0.1,0c0.2-2.8,0.3-5.6,0.3-8.4c0.1-2.8,0-5.6,0-8.4c-0.1-2.8-0.3-5.6-0.6-8.4
						c-0.2-1.4-0.4-2.8-0.7-4.1C61.7,162.8,61.4,161.4,60.8,160.1L60.8,160.1z"/>
				</g>
				<g>
					<path d="M70.7,160.2c-0.5,1.3-0.8,2.7-1,4c-0.2,1.4-0.4,2.7-0.5,4.1c-0.2,2.8-0.4,5.5-0.5,8.3c-0.1,1.4-0.1,2.8-0.1,4.2
						c0,1.4,0,2.8-0.1,4.2c-0.1,2.8-0.1,5.6-0.3,8.4l-0.1,0c-0.2-2.8-0.3-5.6-0.4-8.4c-0.1-2.8-0.1-5.6,0-8.4
						c0.1-2.8,0.3-5.6,0.7-8.4c0.2-1.4,0.4-2.8,0.8-4.1C69.5,162.8,69.9,161.4,70.7,160.2L70.7,160.2z"/>
				</g>
				<g>
					<path d="M80.6,194.6c0.7-1.5,1.5-2.9,2.3-4.4l2.1-4.4l2-4.4c0.6-1.5,1.2-3,1.8-4.5c2.1-6.1,4.1-12.3,4.7-18.7
						c0.7-6.3,0.6-12.8-0.9-19c-0.8-3.1-1.8-6.1-3.2-9c-1.4-2.9-3.1-5.6-5.2-8l-0.1-0.1c-0.6-0.9-1.1-1.7-1.5-2.6
						c-0.5-0.9-0.9-1.8-1.2-2.8c-0.7-1.9-1.1-3.9-0.8-5.9l0.1,0c-0.2,2,0.4,3.9,1.1,5.8c0.8,1.8,1.7,3.6,2.9,5.2l0,0
						c1.2,1.2,2.2,2.5,3.1,3.8c0.9,1.3,1.8,2.8,2.5,4.2c1.5,2.9,2.7,6,3.5,9.2c1.6,6.4,1.9,13,1.1,19.5c-0.8,6.5-2.7,12.8-5.1,18.9
						c-2.5,6.1-5.6,11.8-9.1,17.4L80.6,194.6z"/>
				</g>
			</g>
			<path class="st0" d="M90.5,132.3c0,0-1.7-1.4-3.3,0c-1.6,1.4-16.5,9.1-17.2,26.6l-0.1,0.1c-3.6-3.9-8.4-0.1-8.4-0.1
				c-0.7-17.4-15.6-25.2-17.2-26.6c-1.6-1.4-3.3,0-3.3,0l1.4-2.4c0,0,20.3-5.3,46,0L90.5,132.3z"/>
			<g id="body_lines_3_">
				<g>
					<path d="M81.1,131.1c-0.7,0.7-1.3,1.4-1.9,2.2c-0.6,0.8-1.1,1.5-1.6,2.4c-0.5,0.8-1,1.6-1.4,2.5c-0.4,0.9-0.8,1.8-1.1,2.7l0,0
						c0.5-1.9,1.3-3.7,2.3-5.3C78.4,133.8,79.6,132.3,81.1,131.1L81.1,131.1z"/>
				</g>
				<g>
					<path d="M49,131c0.8,0.6,1.5,1.2,2.1,2c0.6,0.7,1.2,1.5,1.7,2.3c0.5,0.8,1,1.7,1.3,2.6c0.4,0.9,0.6,1.8,0.8,2.8l0,0
						c-0.5-1.9-1.3-3.6-2.3-5.3C51.7,133.8,50.5,132.3,49,131L49,131z"/>
				</g>
				<g>
					<path d="M73.7,158.5c-0.3,0.8-0.5,1.6-0.7,2.4c-0.2,0.8-0.5,1.5-0.6,2.3c-0.2,0.8-0.4,1.6-0.5,2.4c-0.2,0.8-0.3,1.6-0.5,2.4
						l0,0c0-1.7,0.2-3.3,0.6-4.9C72.3,161.5,72.9,159.9,73.7,158.5L73.7,158.5z"/>
				</g>
				<g>
					<path d="M39.6,147.7c0,0.9,0,1.7,0,2.6c0,0.9,0,1.7,0.1,2.6c0.1,1.7,0.2,3.4,0.5,5.1c0.2,1.7,0.4,3.4,0.7,5.1
						c0.3,1.7,0.6,3.4,0.9,5.1l0,0c-0.5-1.7-0.9-3.3-1.3-5c-0.4-1.7-0.6-3.4-0.9-5.1c-0.2-1.7-0.3-3.4-0.4-5.1
						C39.3,151.1,39.4,149.4,39.6,147.7L39.6,147.7z"/>
				</g>
			</g>
		</g>
		<path d="M60.8,159.3c-0.1-4.8-23.4-16.9-23.4-16.9c2-14,11.7-20.6,14.2-26.6c9.9,3.7,19.8,3.7,29.6-0.3c0,0,12.1,14.8,12.8,26.6
			c0,0-23.1,12.3-23.2,17.1v0.8c0,0-4.4,3-9.9,0V159.3z"/>
		<g id="bottom_1_">
			<g class="st0">
				<g class="st1">
					<path d="M124.7,121.8c-2.1,2.5-3.8,5.3-5,8.3c-1.4,2.9-2.4,6-3.1,9.1c-1.4,6.2-1.7,12.7-0.7,19c0.7,6.4,2.5,12.6,4.7,18.7
						c0.6,1.5,1.2,3,1.8,4.5l2,4.4l2.1,4.4c0.8,1.4,1.5,2.9,2.2,4.4l-0.1,0.1c-3.5-5.5-6.6-11.3-9.1-17.4
						c-2.4-6.1-4.3-12.4-5.1-18.9c-0.8-6.5-0.5-13.2,1.1-19.5c0.8-3.2,2-6.3,3.5-9.2c0.7-1.5,1.6-2.9,2.5-4.2
						c0.9-1.3,1.9-2.6,3.1-3.8L124.7,121.8z"/>
				</g>
				<g class="st1">
					<path d="M160.1,121.7c1.3,1.1,2.4,2.3,3.4,3.6c1,1.3,2,2.7,2.8,4.1c1.7,2.9,2.9,6,3.9,9.2c1,3.2,1.4,6.5,1.7,9.9
						c0.2,3.3,0.1,6.7-0.3,10c-0.5,3.3-1.1,6.6-2.1,9.8c-0.2,0.8-0.4,1.6-0.7,2.4L168,173c-0.5,1.6-1.2,3.1-1.9,4.6
						c-0.7,1.5-1.4,3-2.1,4.5c-0.8,1.4-1.5,2.9-2.4,4.3l-2.6,4.2c-0.9,1.4-1.9,2.7-2.8,4l-0.1-0.1c3.4-5.5,6.6-11.3,9-17.4
						c2.4-6.1,4.3-12.4,5.1-18.9c0.9-6.5,0.6-13.1-1-19.4c-0.8-3.2-1.9-6.2-3.4-9.1c-0.7-1.5-1.6-2.9-2.5-4.2
						c-0.9-1.3-1.9-2.6-3.1-3.8L160.1,121.7z"/>
				</g>
				<g class="st1">
					<path d="M137.5,160.1c1.6,2.4,2.2,5.3,2.8,8c0.5,2.8,0.7,5.6,0.9,8.4c0,2.8,0,5.6-0.2,8.4c-0.1,1.4-0.2,2.8-0.4,4.2
						c-0.2,1.4-0.4,2.8-0.6,4.2l-0.1,0c0.2-2.8,0.3-5.6,0.3-8.4c0.1-2.8,0-5.6,0-8.4c-0.1-2.8-0.3-5.6-0.6-8.4
						c-0.2-1.4-0.4-2.8-0.7-4.1C138.4,162.8,138.1,161.4,137.5,160.1L137.5,160.1z"/>
				</g>
				<g class="st1">
					<path d="M147.4,160.2c-0.5,1.3-0.8,2.7-1,4c-0.2,1.4-0.4,2.7-0.5,4.1c-0.2,2.8-0.4,5.5-0.5,8.3c-0.1,1.4-0.1,2.8-0.1,4.2
						c0,1.4,0,2.8-0.1,4.2c-0.1,2.8-0.1,5.6-0.3,8.4l-0.1,0c-0.2-2.8-0.3-5.6-0.4-8.4c-0.1-2.8-0.1-5.6,0-8.4
						c0.1-2.8,0.3-5.6,0.7-8.4c0.2-1.4,0.4-2.8,0.8-4.1C146.2,162.8,146.6,161.4,147.4,160.2L147.4,160.2z"/>
				</g>
			</g>
			<g>
				<g>
					<path d="M128.7,194.6c-1.1-1.6-2.2-3.1-3.2-4.7c-1-1.6-2-3.2-3-4.9c-0.9-1.7-1.8-3.4-2.6-5.1c-0.9-1.7-1.6-3.5-2.3-5.2
						c-2.8-7.1-4.6-14.8-4.8-22.5c0-3.9,0.3-7.8,1.2-11.6c0.4-1.9,1-3.8,1.6-5.6c0.7-1.8,1.5-3.6,2.4-5.3c0.9-1.7,2-3.3,3.1-4.9
						c0.6-0.8,1.2-1.5,1.8-2.2c0.3-0.4,0.7-0.7,1-1l0.3-0.2c0.1-0.1,0.2-0.1,0.2-0.2l0.5-0.5c1.2-1.4,2.4-2.9,3.2-4.5
						c0.8-1.6,1.3-3.6,0.5-5.3l0.1-0.1c0.4,0.9,0.6,1.8,0.5,2.8c-0.1,1-0.4,1.9-0.7,2.8c-0.8,1.7-1.9,3.3-3.1,4.8
						c-2.7,2.7-4.8,5.8-6.5,9.2c-3.4,6.8-4.8,14.4-4.7,21.9c0.1,7.6,1.8,15,4.4,22.1c2.6,7.1,6.1,13.9,10.1,20.3L128.7,194.6z"/>
				</g>
				<g class="st0">
					<path class="st1" d="M160.3,121.7c1.3,1.1,2.4,2.3,3.4,3.6c1,1.3,2,2.7,2.8,4.1c1.7,2.9,2.9,6,3.9,9.2c1,3.2,1.4,6.5,1.7,9.9
						c0.2,3.3,0.1,6.7-0.3,10c-0.5,3.3-1.1,6.6-2.1,9.8c-0.2,0.8-0.4,1.6-0.7,2.4l-0.8,2.4c-0.5,1.6-1.2,3.1-1.9,4.6
						c-0.7,1.5-1.4,3-2.1,4.5c-0.8,1.4-1.5,2.9-2.4,4.3l-2.6,4.2c-0.9,1.4-1.9,2.7-2.8,4l-0.1-0.1c3.4-5.5,6.6-11.3,9-17.4
						c2.4-6.1,4.3-12.4,5.1-18.9c0.9-6.5,0.6-13.1-1-19.4c-0.8-3.2-1.9-6.2-3.4-9.1c-0.7-1.5-1.6-2.9-2.5-4.2
						c-0.9-1.3-1.9-2.6-3.1-3.8L160.3,121.7z"/>
				</g>
				<g>
					<path d="M137.6,160.1c1.6,2.4,2.2,5.3,2.8,8c0.5,2.8,0.7,5.6,0.9,8.4c0,2.8,0,5.6-0.2,8.4c-0.1,1.4-0.2,2.8-0.4,4.2
						c-0.2,1.4-0.4,2.8-0.6,4.2l-0.1,0c0.2-2.8,0.3-5.6,0.3-8.4c0.1-2.8,0-5.6,0-8.4c-0.1-2.8-0.3-5.6-0.6-8.4
						c-0.2-1.4-0.4-2.8-0.7-4.1C138.6,162.8,138.2,161.4,137.6,160.1L137.6,160.1z"/>
				</g>
				<g>
					<path d="M147.5,160.2c-0.5,1.3-0.8,2.7-1,4c-0.2,1.4-0.4,2.7-0.5,4.1c-0.2,2.8-0.4,5.5-0.5,8.3c-0.1,1.4-0.1,2.8-0.1,4.2
						c0,1.4,0,2.8-0.1,4.2c-0.1,2.8-0.1,5.6-0.3,8.4l-0.1,0c-0.2-2.8-0.3-5.6-0.4-8.4c-0.1-2.8-0.1-5.6,0-8.4
						c0.1-2.8,0.3-5.6,0.7-8.4c0.2-1.4,0.4-2.8,0.8-4.1C146.4,162.8,146.7,161.4,147.5,160.2L147.5,160.2z"/>
				</g>
				<g>
					<path d="M157.4,194.6c0.7-1.5,1.5-2.9,2.3-4.4l2.1-4.4l2-4.4c0.6-1.5,1.2-3,1.8-4.5c2.1-6.1,4.1-12.3,4.7-18.7
						c0.7-6.3,0.6-12.8-0.9-19c-0.8-3.1-1.8-6.1-3.2-9c-1.4-2.9-3.1-5.6-5.2-8l-0.1-0.1c-0.6-0.9-1.1-1.7-1.5-2.6
						c-0.5-0.9-0.9-1.8-1.2-2.8c-0.7-1.9-1.1-3.9-0.8-5.9l0.1,0c-0.2,2,0.4,3.9,1.1,5.8c0.8,1.8,1.7,3.6,2.9,5.2l0,0
						c1.2,1.2,2.2,2.5,3.1,3.8c0.9,1.3,1.8,2.8,2.5,4.2c1.5,2.9,2.7,6,3.5,9.2c1.6,6.4,1.9,13,1.1,19.5c-0.8,6.5-2.7,12.8-5.1,18.9
						c-2.5,6.1-5.6,11.8-9.1,17.4L157.4,194.6z"/>
				</g>
			</g>
			<g>
				<path d="M157,163.1c-1.9,0.2-4-0.2-5.8-0.9c-1.8-0.8-3.5-2-4.9-3.4c-2.8-3-4.3-7-4.3-11.1c0.1-4.1,1.5-8.2,4.3-11.1
					c1.4-1.5,3.1-2.7,4.9-3.4c1.9-0.7,3.9-1.1,5.8-0.9v0.1c-3.9,0-7.6,1.8-10.2,4.7c-2.6,2.9-3.9,6.7-3.9,10.6
					c0,3.8,1.4,7.7,3.9,10.6c2.5,2.9,6.3,4.8,10.2,4.7V163.1z"/>
			</g>
			<g>
				<path d="M128.6,163c1.9-0.2,3.8-0.7,5.4-1.6c1.7-0.9,3.1-2.1,4.3-3.5c2.3-2.8,3.6-6.5,3.6-10.2c0.1-3.7-1.2-7.3-3.6-10.2
					c-1.2-1.4-2.6-2.6-4.3-3.5c-1.6-0.9-3.5-1.4-5.4-1.6v-0.1c3.9,0,7.7,1.8,10.3,4.7c2.6,2.9,4,6.8,4,10.7c0,3.9-1.4,7.8-4,10.7
					c-2.6,2.9-6.4,4.8-10.3,4.7V163z"/>
			</g>
			<path d="M170.4,141.2c-4,6-4.6,7.7-23.1,18.2c-4.6-3.9-9.9,0-9.9,0c-19-10.7-22.5-19.2-22.5-19.2c0.5-8.2,10.1-19.6,11.9-21.4
				c0,0,13-5.5,32.9,0C162.1,122.1,169.3,131.2,170.4,141.2z"/>
			<g class="st0">
				<g class="st1">
					<path d="M119.2,129.9c1.9-0.6,3.8-1,5.6-1.3c1.9-0.3,3.8-0.6,5.7-0.9c3.9-0.4,7.7-0.7,11.6-0.7c3.9,0.1,7.8,0.2,11.6,0.7
						c1.9,0.2,3.8,0.6,5.7,0.9c1.9,0.4,3.8,0.8,5.7,1.3c-3.8-0.5-7.6-1.1-11.5-1.4c-3.8-0.3-7.7-0.5-11.5-0.5
						c-3.8-0.1-7.7,0.1-11.5,0.4C126.8,128.7,123,129.2,119.2,129.9z"/>
				</g>
				<g class="st1">
					<path d="M138.9,158.2c0.3-0.6,0.8-1.2,1.4-1.6c0.6-0.4,1.3-0.7,2.1-0.7c0.8,0,1.5,0.2,2.1,0.6c0.3,0.2,0.5,0.5,0.8,0.7
						c0.2,0.3,0.4,0.6,0.6,0.9c-0.3-0.2-0.6-0.3-0.9-0.5c-0.3-0.1-0.6-0.3-0.9-0.4c-0.6-0.2-1.2-0.3-1.7-0.3
						C141.2,157,140.1,157.5,138.9,158.2z"/>
				</g>
			</g>
		</g>
		<g>
			<path d="M33.6,93.9l-0.2,0.6c0,0,0,0.1,0,0.1c0,0,0,0,0.1,0c0.1,0,0.1,0,0.1,0c0.2-0.1,0.3-0.1,0.5-0.2c0.3-0.2,0.7-0.3,1.1-0.5
				c0.4-0.2,0.9-0.4,1.4-0.6c0,0,0.1,0,0.2-0.1c0.1,0,0.1-0.1,0.2-0.2c0-0.1,0-0.2,0.1-0.2c0.2-0.6,0.3-1.1,0.5-1.7
				c0.1-0.5,0.3-0.9,0.5-1.3c0.3-0.7,0.6-1.4,1-2.1c0.1-0.2,0.3-0.4,0.4-0.6c0,0,0.1-0.1,0.1-0.1c0.2,0.1,0.4,0.2,0.5,0.3
				c0,0,0.1,0.1,0.1,0.2c0,0,0,0.1-0.1,0.1c0,0.2-0.1,0.4-0.2,0.5c-0.2,0.6-0.5,1.1-0.7,1.6c-0.2,0.5-0.5,1-0.6,1.5
				c0,0.2-0.1,0.5-0.3,0.7c-0.1,0.3-0.1,0.5-0.2,0.7l0,0c0,0,0,0.1,0,0.1l0.1,0c0.1,0,0.2,0,0.3-0.1c0.6-0.1,1.2-0.2,1.8-0.3
				c0.4,0,0.7,0,1.1-0.1c0.2,0,0.3,0.1,0.4,0.2c0,0,0.1,0.1,0.1,0.2c0,0,0,0.1-0.1,0.1c0,0-0.1,0-0.2,0c-0.4,0-0.7,0.1-1.1,0.1
				c-0.6,0.1-1.2,0.2-1.8,0.4c-0.3,0.1-0.5,0.1-0.8,0.2c-0.1,0-0.2,0.1-0.2,0.2c0,0.2-0.1,0.4-0.2,0.6c-0.1,0.3-0.1,0.4-0.2,0.7
				l-0.2,0.7c-0.1,0.3-0.2,0.6-0.3,0.9c0,0.1,0,0.1-0.1,0.2c0,0.2-0.1,0.3-0.1,0.5c0,0.2-0.1,0.4-0.1,0.5c-0.2,0.6-0.3,1.1-0.4,1.8
				c-0.1,0.4-0.1,0.8-0.1,1.2c-0.1,0.5-0.1,0.9-0.1,1.3l0,0.7c0,0.4,0,0.8,0.2,1.1l0.2,0.4c0,0,0.1,0.1,0.1,0.2c0,0,0,0.1,0,0.2
				c-0.1,0-0.1,0.1-0.2,0.1c-0.2-0.1-0.4-0.2-0.5-0.4c-0.3-0.4-0.5-0.8-0.5-1.2c-0.1-0.4-0.1-0.8-0.1-1.2c0-0.2,0-0.5,0.1-0.7
				c0-0.3,0-0.5,0.1-0.7c0.1-0.8,0.2-1.6,0.4-2.4c0-0.5,0.2-1.1,0.3-1.5c0.1-0.3,0.1-0.6,0.2-0.8c0.1-0.2,0.2-0.5,0.3-0.9
				c0-0.2,0.1-0.4,0.2-0.6l0,0c0-0.1-0.1-0.1-0.1-0.1l0,0c-0.4,0.2-0.8,0.4-1.2,0.5c-0.6,0.3-1.1,0.5-1.6,0.8
				c-0.1,0-0.1,0.1-0.2,0.1c-0.2,0.1-0.3,0.2-0.4,0.5c0,0.4-0.1,0.8-0.2,1.2c-0.1,0.5-0.2,0.9-0.4,1.4c-0.1,0.3-0.2,0.5-0.3,0.8
				c-0.2,0.6-0.5,1.1-0.8,1.8c-0.2,0.4-0.5,0.8-0.8,1c-0.3,0.3-0.6,0.4-0.9,0.6c-0.1,0-0.2,0-0.3,0.1c-0.1,0-0.2,0-0.3,0
				c-0.3,0-0.7-0.1-0.9-0.3c-0.3-0.1-0.5-0.2-0.7-0.4c-0.3-0.3-0.4-0.6-0.4-0.9c0-0.1,0-0.2,0-0.3c0.1-0.4,0.2-0.7,0.4-1
				c0.3-0.5,0.7-0.9,1.1-1.3c0.2-0.1,0.3-0.2,0.4-0.4c0,0,0,0,0.1-0.1c0.6-0.6,1.3-1.2,2.1-1.7c0.2-0.2,0.4-0.4,0.7-0.5
				c0.1-0.1,0.3-0.2,0.3-0.4c0-0.2,0.1-0.5,0.2-0.7c0.1-0.2,0.1-0.4,0.1-0.6c0.1-0.3,0.1-0.5,0.1-0.7c0.1-0.3,0.1-0.5,0.2-0.7
				c0-0.1,0.1-0.3,0.1-0.5c0.1-0.5,0.3-1,0.3-1.6c0-0.1,0-0.1,0-0.2c0-0.1,0-0.2-0.1-0.2c0,0,0,0,0-0.1c0-0.1,0.1-0.2,0.1-0.2l0.1,0
				c0.3,0,0.5,0.2,0.6,0.4c0.1,0.2,0,0.5,0.1,0.7c0,0.5-0.1,1.1-0.2,1.7C33.7,93.2,33.6,93.5,33.6,93.9z M27.7,99.9
				c-0.1,0.1-0.1,0.1-0.1,0.2c-0.1,0,0,0.1-0.1,0.1c0,0,0,0.1-0.1,0.1l-0.1,0.3c0,0,0,0,0,0.1l0,0l0,0l0,0c0.2-0.5,0.5-0.9,0.8-1.4
				c0.1,0,0.1,0,0.1-0.1c-0.1,0-0.1,0.1-0.1,0.1C27.9,99.6,27.8,99.8,27.7,99.9z M27.6,101.4c0,0.1,0,0.3,0.1,0.3
				c0.1,0.3,0.3,0.4,0.6,0.5c0.1,0.1,0.3,0.1,0.4,0c0.1,0,0.2,0,0.3-0.1c0.2-0.1,0.4-0.3,0.5-0.4c0.3-0.3,0.5-0.6,0.7-0.9l0.4-0.7
				c0.2-0.5,0.4-1,0.6-1.5c0.1-0.3,0.2-0.6,0.3-0.9l0.2-0.9c0.1,0,0.1-0.1,0-0.1c0,0,0-0.1,0-0.1c0,0,0,0,0,0l0,0c0,0-0.1,0-0.1,0.1
				c-0.3,0.2-0.7,0.5-1,0.8c-0.3,0.3-0.7,0.6-1,0.9c-0.4,0.3-0.7,0.7-1.1,1.1c-0.2,0.2-0.4,0.6-0.5,0.9c-0.1,0.2-0.2,0.5-0.3,0.7
				L27.6,101.4z M27.6,100.5L27.6,100.5L27.6,100.5L27.6,100.5z M27.7,100.3L27.7,100.3C27.7,100.3,27.7,100.3,27.7,100.3
				C27.7,100.3,27.7,100.3,27.7,100.3z M27.8,100.3c0.1-0.1,0.1-0.1,0.1-0.3C27.8,100.1,27.8,100.2,27.8,100.3
				C27.7,100.3,27.8,100.3,27.8,100.3z M28,99.8c-0.1,0-0.1,0.1-0.1,0.2C27.9,100,28,99.9,28,99.8z M28.1,99.7
				c-0.1,0-0.1,0.1-0.1,0.2C28.1,99.8,28.1,99.7,28.1,99.7z M28.4,99.4c-0.1,0.1-0.2,0.1-0.2,0.2C28.3,99.6,28.3,99.5,28.4,99.4z
				 M28.5,98.9c-0.2,0.1-0.2,0.2-0.2,0.3C28.4,99.1,28.5,99,28.5,98.9z M28.7,99c-0.1,0.1-0.2,0.1-0.2,0.3
				C28.6,99.2,28.7,99.1,28.7,99z M29.5,98.3C29.5,98.3,29.5,98.3,29.5,98.3L29.5,98.3z M29.5,98.3C29.5,98.3,29.5,98.3,29.5,98.3
				L29.5,98.3z M30.6,101c-0.1,0-0.1,0.1-0.1,0.1L30.6,101z M31.4,99.4c0.2-0.6,0.4-1.1,0.6-1.7c0,0,0-0.1,0-0.2c0,0,0,0,0,0.1
				c-0.2,0.5-0.3,1-0.5,1.5c-0.2,0.6-0.5,1.2-0.8,1.8c0,0.1,0,0.1,0,0.1c0.1,0,0.1-0.1,0.1-0.1C31,100.4,31.3,99.9,31.4,99.4z
				 M31.9,99c-0.1,0.2-0.2,0.4-0.3,0.6c-0.2,0.5-0.4,0.9-0.7,1.3c0,0.1,0,0.1-0.1,0.2c0.1,0,0.1-0.1,0.1-0.1c0-0.1,0.1-0.1,0.1-0.2
				c0.4-0.6,0.6-1.2,0.8-1.8C32,99,32,99,31.9,99c0.1-0.1,0.1-0.1,0.1-0.1C32,98.9,31.9,98.9,31.9,99z M30.9,100.1L30.9,100.1
				C30.9,100.1,30.8,100.1,30.9,100.1L30.9,100.1z M31,99.9C31,99.9,31,99.9,31,99.9L31,99.9z M31.7,98c0,0,0,0.1,0,0.1l0,0
				c-0.2,0.5-0.4,1.1-0.6,1.5c0,0,0,0.1-0.1,0.2c0.1-0.1,0.1-0.1,0.1-0.2c0.2-0.5,0.4-1,0.6-1.5L31.7,98z M31.8,97.9
				C31.8,97.9,31.8,97.9,31.8,97.9c-0.1,0-0.1,0-0.1,0.1C31.7,98,31.7,98,31.8,97.9z M31.8,97.7C31.8,97.7,31.8,97.7,31.8,97.7
				L31.8,97.7L31.8,97.7z M32,98.8L32,98.8L32,98.8C32,98.8,32,98.9,32,98.8L32,98.8z M31.9,97.4L31.9,97.4
				C31.8,97.5,31.9,97.5,31.9,97.4C31.9,97.5,31.9,97.5,31.9,97.4L31.9,97.4z M32.1,97.3C32.1,97.3,32,97.4,32.1,97.3L32.1,97.3
				C32,97.4,32.1,97.4,32.1,97.3L32.1,97.3z"/>
			<path d="M39.6,95.7l0-0.1C39.5,95.7,39.5,95.7,39.6,95.7C39.5,95.8,39.5,95.7,39.6,95.7C39.5,95.8,39.5,95.8,39.6,95.7
				c0,0.1,0,0.1,0,0.2c-0.3,0.5-0.5,0.9-0.6,1.4c0,0.1-0.1,0.3-0.1,0.5c0.1,0,0.1-0.1,0.1-0.2c0.1-0.4,0.3-0.8,0.5-1.2
				c0.1-0.2,0.4-0.5,0.4-0.8c0.1-0.1,0.1-0.1,0.1-0.2c0-0.1,0-0.1,0-0.1c0.1,0,0.1,0.1,0.2,0.1l0,0c0,0,0,0,0,0c0,0,0,0,0,0
				c0.1,0,0.1,0,0.1,0c0,0.1,0,0.1-0.1,0.2c-0.1,0.3-0.2,0.6-0.4,0.9c-0.1,0.5-0.4,1-0.5,1.6c-0.1,0.4-0.2,0.7-0.2,1.1l0,0.3
				c0,0,0,0,0.1,0c0.1,0,0.2-0.1,0.2-0.1c0.3-0.3,0.6-0.5,0.9-0.9c0.3-0.4,0.6-0.7,1-1c0.3-0.3,0.5-0.6,0.8-0.9
				c0.4-0.4,0.7-0.8,1-1.1l0.1-0.2c0,0.1,0.1,0.1,0.1,0.2l0,0c0,0,0,0.1,0,0.1c0,0.2-0.2,0.4-0.4,0.7c-0.1,0-0.2,0.1-0.2,0.2l0,0
				c-0.3,0.3-0.5,0.5-0.7,0.8c-0.4,0.5-0.8,0.9-1.2,1.3c-0.1,0.2-0.3,0.4-0.5,0.6c-0.1,0.1-0.2,0.2-0.3,0.4l-0.4,0.3
				c-0.1,0-0.2,0.1-0.3,0.1c-0.1,0-0.2,0-0.2,0c-0.1,0-0.2,0-0.3-0.1c-0.1,0-0.2-0.1-0.3-0.1c-0.1-0.1-0.2-0.2-0.2-0.3
				c-0.1-0.2-0.2-0.4-0.2-0.6c0-0.5,0-0.9,0.2-1.4c0-0.3,0.1-0.6,0.2-0.9L39,96c0.1-0.2,0.3-0.4,0.5-0.6c0-0.1,0.2-0.1,0.2-0.1
				c0,0.1,0,0.1,0,0.1c0,0,0,0,0,0.1c0,0,0,0.1,0,0.1l0,0l0,0c0,0,0,0,0,0C39.7,95.6,39.7,95.7,39.6,95.7z M38.6,97.7
				C38.7,97.7,38.7,97.7,38.6,97.7C38.7,97.7,38.7,97.7,38.6,97.7L38.6,97.7z M38.7,97.5C38.7,97.6,38.7,97.6,38.7,97.5
				c0,0.1,0,0.1,0,0.1C38.7,97.7,38.7,97.6,38.7,97.5C38.7,97.6,38.7,97.6,38.7,97.5z M38.7,97.4C38.7,97.5,38.7,97.5,38.7,97.4
				C38.7,97.5,38.7,97.5,38.7,97.4z M38.8,97.8C38.8,97.8,38.8,97.8,38.8,97.8l0,0.1C38.8,97.9,38.8,97.9,38.8,97.8L38.8,97.8z
				 M38.8,97.3c0,0-0.1,0,0,0.1C38.8,97.4,38.8,97.3,38.8,97.3z M38.8,97.2C38.8,97.2,38.8,97.2,38.8,97.2l0,0.1
				C38.8,97.3,38.8,97.2,38.8,97.2C38.8,97.2,38.8,97.2,38.8,97.2z M39,96.7c-0.1,0.1-0.2,0.3-0.2,0.5C38.9,97,39,96.9,39,96.7z
				 M39.1,96.6C39,96.6,39,96.7,39.1,96.6C39.1,96.7,39.1,96.6,39.1,96.6z M39.1,96.5L39.1,96.5C39.1,96.6,39.1,96.6,39.1,96.5
				C39.1,96.6,39.1,96.5,39.1,96.5z M39.3,96c-0.1,0.1-0.2,0.3-0.3,0.5C39.3,96.4,39.3,96.2,39.3,96z M39.4,95.9c0,0-0.1,0-0.1,0.1
				C39.4,96,39.4,96,39.4,95.9z M39.5,95.8C39.4,95.8,39.4,95.8,39.5,95.8c-0.1,0.1,0,0.1,0,0.1C39.5,95.9,39.5,95.8,39.5,95.8z
				 M40.1,99.5C40.1,99.5,40,99.5,40.1,99.5c0,0,0,0.1,0,0.1C40,99.6,40.1,99.6,40.1,99.5C40,99.5,40.1,99.5,40.1,99.5z M39.7,95.5
				c-0.1,0-0.1,0.1-0.1,0.2C39.6,95.6,39.7,95.6,39.7,95.5C39.7,95.5,39.7,95.5,39.7,95.5z M40.3,99.3c-0.1,0-0.1,0.1-0.2,0.2
				C40.2,99.4,40.2,99.4,40.3,99.3z M39.8,95.4C39.8,95.4,39.8,95.4,39.8,95.4C39.8,95.4,39.8,95.4,39.8,95.4
				C39.8,95.4,39.8,95.4,39.8,95.4C39.8,95.4,39.9,95.3,39.8,95.4L39.8,95.4L39.8,95.4C39.9,95.3,39.8,95.3,39.8,95.4z M40.4,99
				c-0.1,0-0.1,0.1-0.1,0.2C40.4,99.1,40.5,99.1,40.4,99L40.4,99z M40.4,98.9C40.4,98.8,40.4,98.8,40.4,98.9L40.4,98.9
				C40.5,98.8,40.5,98.8,40.4,98.9C40.5,98.8,40.4,98.8,40.4,98.9z M40.5,99C40.5,99,40.5,99,40.5,99L40.5,99
				C40.5,99,40.5,99,40.5,99z M40.6,98.8c-0.1,0-0.1,0.1-0.1,0.1C40.6,98.9,40.6,98.9,40.6,98.8z M40.5,98.7c0,0,0.1-0.1,0.1-0.1
				c0,0,0,0,0,0C40.5,98.6,40.5,98.7,40.5,98.7z M40.6,98.6C40.6,98.6,40.7,98.6,40.6,98.6C40.7,98.5,40.7,98.5,40.6,98.6L40.6,98.6
				L40.6,98.6z M40.8,98.6l-0.1,0.2C40.7,98.7,40.8,98.7,40.8,98.6z M41.1,93.6c-0.1,0.1-0.1,0.1-0.2,0.2c0,0-0.1,0.1,0,0.1
				c0,0,0,0.1,0,0.1c-0.1,0.1-0.1,0.1-0.1,0.2c-0.1,0-0.1,0-0.1,0c0,0,0-0.1-0.1-0.1l0-0.1c0,0-0.1,0-0.2-0.1c0-0.1-0.1,0-0.2-0.1
				c-0.1,0-0.1,0-0.1-0.1c0.1-0.2,0.1-0.4,0.3-0.6c0,0,0.1,0,0.1-0.1c0,0,0.1,0,0.1,0c0.1,0,0.2,0,0.3,0.1c0.1,0,0.2,0.1,0.2,0.2
				C41.1,93.5,41.1,93.6,41.1,93.6z M40.8,98.5L40.8,98.5L40.8,98.5C40.8,98.6,40.8,98.6,40.8,98.5z M41,98.4
				c-0.1,0-0.1,0.1-0.1,0.1C40.9,98.5,41,98.5,41,98.4z M40.8,98.4C40.8,98.3,40.9,98.3,40.8,98.4L40.8,98.4L40.8,98.4
				C40.9,98.3,40.8,98.3,40.8,98.4z M40.9,98.2C40.9,98.2,40.9,98.2,40.9,98.2L40.9,98.2C41,98.2,40.9,98.2,40.9,98.2z M41.1,98.4
				L41.1,98.4C41,98.3,41,98.4,41.1,98.4L41.1,98.4C41,98.4,41,98.4,41.1,98.4z M41,98.2C41,98.1,41.1,98.1,41,98.2
				c0.1,0,0.1-0.1,0.1-0.1C41.1,98.1,41.1,98.1,41,98.2C41,98.1,41,98.1,41,98.2L41,98.2z M41.2,98.2c-0.1,0-0.1,0.1-0.1,0.2
				C41.1,98.3,41.2,98.3,41.2,98.2z M40.5,93.5L40.5,93.5C40.5,93.5,40.5,93.4,40.5,93.5C40.5,93.4,40.5,93.5,40.5,93.5L40.5,93.5z
				 M41.1,98.1c0.1,0,0.1-0.1,0.2-0.2C41.2,97.9,41.1,98,41.1,98.1z M40.7,93.4L40.7,93.4L40.7,93.4L40.7,93.4l-0.1,0
				c-0.1,0-0.1,0-0.1,0.1l0.1,0c-0.1,0-0.1,0.1-0.1,0.1c0,0,0,0,0,0.1C40.7,93.5,40.7,93.5,40.7,93.4z M41.3,98.1
				C41.3,98.1,41.3,98.1,41.3,98.1c0,0.1-0.1,0.1-0.1,0.1c0,0,0,0,0,0C41.3,98.1,41.3,98.1,41.3,98.1L41.3,98.1z M41.4,97.9
				C41.4,97.9,41.4,97.9,41.4,97.9C41.4,97.9,41.4,97.9,41.4,97.9z M41.6,97.6L41.6,97.6C41.6,97.7,41.6,97.7,41.6,97.6
				C41.6,97.7,41.6,97.7,41.6,97.6L41.6,97.6z M41.8,97.3C41.8,97.3,41.8,97.2,41.8,97.3L41.8,97.3L41.8,97.3L41.8,97.3z M42.1,97
				C42,97,42,97,42,97.1l-0.1,0.1C42,97.1,42.1,97,42.1,97z M42.1,97.2C42,97.2,42.1,97.2,42.1,97.2C42,97.3,42,97.3,42,97.3
				C42,97.3,42,97.3,42.1,97.2L42.1,97.2z M42.1,97.1C42.1,97.1,42.1,97.1,42.1,97.1L42.1,97.1z M42.2,97C42.2,97,42.2,97,42.2,97
				C42.2,97,42.2,97,42.2,97z M42.2,96.8L42.2,96.8C42.2,96.9,42.2,96.9,42.2,96.8z M42.4,96.8c-0.1,0-0.1,0.1-0.2,0.2
				C42.4,96.9,42.4,96.9,42.4,96.8z M42.3,96.7L42.3,96.7l0,0.1C42.3,96.8,42.3,96.8,42.3,96.7C42.3,96.7,42.3,96.7,42.3,96.7z
				 M42.7,96.4c-0.1,0-0.1,0.1-0.2,0.2C42.6,96.5,42.6,96.5,42.7,96.4z M42.9,96.3c-0.1,0-0.1,0.1-0.1,0.1
				C42.9,96.4,42.9,96.4,42.9,96.3L42.9,96.3z M42.9,96.1c-0.1,0-0.1,0.1-0.1,0.1c-0.1,0-0.1,0-0.1,0C42.8,96.2,42.9,96.2,42.9,96.1
				z M43.1,95.8C43,95.9,43,95.9,43,96C43,96,43.1,95.9,43.1,95.8z M43.1,96.1C43,96.1,43,96.1,43.1,96.1L43.1,96.1z M43.2,96
				C43.1,96,43.1,96,43.2,96C43.1,96,43.1,96,43.2,96L43.2,96z M43.3,95.6c-0.1,0-0.1,0.1-0.1,0.1l0,0.1
				C43.2,95.7,43.3,95.7,43.3,95.6z"/>
			<path d="M40.9,104.3c0.3-0.6,0.6-1.1,1-1.6c0.2-0.4,0.5-0.8,0.8-1.1c0.2-0.3,0.4-0.6,0.7-0.9c0.3-0.4,0.7-0.9,1.1-1.3
				c0.5-0.6,1-1.1,1.6-1.6c0.1-0.1,0.2-0.2,0.3-0.4c0-0.1,0-0.2,0-0.3c0.1-0.5,0.1-0.9,0.2-1.4l0-0.1c0,0,0-0.1,0-0.1
				c0,0,0-0.1,0-0.1l0,0c0,0,0,0.1-0.1,0.1l-1,1.2c-0.4,0.4-0.7,0.8-1.1,1.2c-0.3,0.2-0.5,0.4-0.9,0.6c-0.1,0.1-0.2,0.1-0.3,0.1
				c-0.1,0-0.2,0-0.3,0c-0.3-0.1-0.4-0.2-0.6-0.4c0-0.1-0.1-0.2-0.1-0.3c0-0.1,0-0.1,0-0.2c0.1-0.4,0.2-0.7,0.4-1.1l0.1-0.3l0.5-0.7
				c0.2-0.3,0.5-0.5,0.8-0.7c0.2-0.2,0.5-0.3,0.7-0.3c0.2,0,0.4,0,0.5,0.1c0.2,0.1,0.3,0.2,0.4,0.4c0,0,0,0,0,0.1c0,0,0,0.1,0,0.1
				c0,0,0,0-0.1,0l0,0c-0.1,0-0.2-0.1-0.3-0.2c-0.1,0-0.1-0.1-0.2-0.1c-0.1,0-0.1,0-0.1,0.1c-0.3,0.2-0.6,0.4-0.8,0.7
				c-0.2,0.2-0.3,0.4-0.5,0.7c-0.2,0.4-0.4,0.7-0.6,1.1c0,0.1,0,0.2-0.1,0.3l0,0c0,0,0,0.1,0.1,0.1c0,0,0,0,0.1,0
				c0.1,0,0.2-0.1,0.2-0.1c0.5-0.3,0.9-0.7,1.3-1.1l1-1.1l0.9-1.1c0.1-0.1,0.2-0.1,0.3-0.1c0,0,0.1,0,0.1,0l0.2,0
				c0.3,0,0.4,0.2,0.5,0.4c0,0.1,0,0.2,0,0.3c0,0.4,0,0.8,0,1.3c0,0.1,0,0.2,0,0.2c0,0,0,0,0,0l0,0l1-0.5c0.4-0.2,0.8-0.5,1.1-0.7
				c0.1,0,0.2,0,0.2,0c0.1,0,0.1,0.1,0.2,0.1l0,0c0,0,0,0.1-0.1,0.1l-0.2,0.1c-0.5,0.3-1,0.7-1.4,1c-0.2,0.1-0.7,0.4-0.8,0.5
				c-0.2,0.1-0.2,0.2-0.2,0.3L47.2,98c-0.1,0.6-0.1,1.2-0.2,1.9c0,0.3-0.1,0.7-0.2,1c0,0.3-0.2,0.6-0.2,0.9c0,0.2-0.1,0.5-0.2,0.7
				c-0.1,0.5-0.4,1-0.6,1.5c-0.3,0.6-0.6,1.1-1,1.6c-0.4,0.6-1,1.1-1.7,1.4c-0.3,0.2-0.7,0.3-1.1,0.4c0,0-0.1,0-0.1,0
				c-0.1,0-0.2,0-0.3,0c-0.6-0.2-1-0.6-1.1-1.1c0-0.1,0-0.1,0-0.2c0-0.1,0-0.2,0-0.4C40.6,105.3,40.7,104.8,40.9,104.3z M46.1,98.4
				C46.1,98.4,46.1,98.4,46.1,98.4L46.1,98.4c-0.1,0-0.1,0-0.1,0l-0.4,0.4l-0.4,0.4c-0.3,0.4-0.7,0.8-0.9,1.1l-0.7,0.9
				c-0.4,0.5-0.8,1.1-1.1,1.6c-0.2,0.4-0.5,0.8-0.7,1.2c-0.3,0.5-0.5,1-0.6,1.6c-0.1,0.2-0.1,0.3-0.1,0.5c0,0.1,0,0.3,0.1,0.4
				c0,0.1,0.1,0.2,0.1,0.3c0.1,0.1,0.2,0.1,0.3,0.1c0,0,0.1,0,0.1,0c0.3-0.1,0.4-0.1,0.6-0.2c0.4-0.2,0.7-0.5,1.1-0.8
				c0.3-0.3,0.6-0.7,0.8-1c0.2-0.4,0.4-0.7,0.5-1c0.3-0.6,0.5-1.2,0.7-1.8c0.2-0.6,0.3-1.2,0.5-1.8c0.1-0.4,0.2-0.9,0.2-1.3
				L46.1,98.4z M41.4,104.2C41.4,104.2,41.4,104.2,41.4,104.2L41.4,104.2z M41.4,104.1C41.4,104.1,41.4,104.1,41.4,104.1
				C41.4,104.1,41.4,104.2,41.4,104.1C41.4,104.2,41.4,104.1,41.4,104.1z M41.5,103.9L41.5,103.9L41.5,103.9
				C41.5,103.9,41.5,103.9,41.5,103.9L41.5,103.9z M41.6,103.8c0,0-0.1,0.1-0.1,0.1C41.6,103.9,41.6,103.8,41.6,103.8z M41.7,103.6
				c-0.1,0-0.1,0.1-0.1,0.1C41.6,103.7,41.6,103.7,41.7,103.6z M42.4,102.4c0.1-0.1,0.1-0.1,0.1-0.2L42.4,102.4l-0.1,0.1
				c0,0,0,0,0,0l0,0l-0.1,0.1c0,0,0,0.1,0,0.1c-0.1,0-0.1,0.1-0.1,0.1l0,0.1c-0.1,0-0.1,0.1-0.1,0.1l-0.2,0.2c0,0,0,0,0,0.1
				c0,0,0,0,0,0l0,0.2c0,0,0.1-0.1,0.1-0.1L42.4,102.4z M43.7,100.5C43.7,100.5,43.7,100.5,43.7,100.5l-0.1,0.1c0,0,0,0.1,0,0.1
				l-0.1,0.1c0,0,0,0.1,0,0.1l-0.2,0.1l0,0l-0.1,0.1c0,0,0,0.1,0,0.1l-0.1,0.1l0,0l0,0l-0.1,0.1c0,0-0.1,0,0,0l0,0l0,0.1l-0.1,0.1
				c0,0,0,0,0,0c0,0,0,0,0,0c0,0,0,0.1,0,0.1l0,0l0,0c0,0,0,0,0,0l-0.1,0.1c0,0,0,0,0,0s0,0,0,0l-0.2,0.2l0.1,0c0,0,0,0.1,0,0.1
				l0.1-0.1c0.1-0.1,0.2-0.2,0.3-0.4c0.1-0.2,0.3-0.4,0.4-0.6c0.1-0.1,0.2-0.2,0.2-0.3c0.1,0,0.1-0.1,0.1-0.2
				c0.1-0.2,0.3-0.3,0.4-0.5c0.1,0,0.1-0.1,0.1-0.2c-0.1,0-0.1,0.1-0.2,0.2C43.9,100.3,43.8,100.3,43.7,100.5
				C43.7,100.4,43.7,100.4,43.7,100.5L43.7,100.5C43.7,100.4,43.7,100.5,43.7,100.5z M42.7,102.4c0,0,0-0.1,0-0.1
				C42.7,102.3,42.7,102.3,42.7,102.4L42.7,102.4L42.7,102.4z M44.4,105.1c-0.1,0.1-0.2,0.2-0.2,0.3c-0.1,0-0.2,0.1-0.1,0.2
				c0.1,0,0.1,0,0.1-0.1c0,0.1-0.1,0.3-0.3,0.4c-0.1,0.1-0.1,0.1-0.1,0.2l0.2-0.1c0.3-0.3,0.6-0.7,0.8-1.1c0,0,0.1-0.1,0.1-0.1
				C44.7,104.9,44.5,105,44.4,105.1c0.1,0.1,0,0.2-0.1,0.2L44.4,105.1z M43.3,101.1C43.3,101.1,43.2,101.1,43.3,101.1
				C43.2,101.1,43.2,101.1,43.3,101.1L43.3,101.1z M43.3,101.4c0,0,0.1-0.1,0.1-0.1L43.3,101.4z M43.4,101.2
				C43.4,101.2,43.5,101.2,43.4,101.2C43.4,101.2,43.4,101.2,43.4,101.2z M44.1,106.1c0,0,0.1-0.1,0.1-0.1c0.2-0.2,0.3-0.4,0.5-0.6
				c0.1,0,0-0.1,0-0.1c0,0,0,0-0.1,0.1l-0.5,0.7L44.1,106.1z M43.6,101c-0.1,0-0.1,0.1-0.1,0.2C43.6,101.1,43.6,101,43.6,101z
				 M43.1,96.4c-0.1,0-0.1,0.1-0.1,0.1C43,96.5,43,96.4,43.1,96.4z M43.1,96.3c0,0,0,0.1,0,0.1C43.1,96.3,43.1,96.3,43.1,96.3z
				 M43.7,100.8C43.7,100.9,43.7,100.9,43.7,100.8C43.7,100.9,43.7,100.9,43.7,100.8z M43.6,95.3l-0.1,0.1l-0.1,0c0,0,0,0.1-0.1,0.1
				c0,0,0,0-0.1,0c0,0,0,0.1,0,0.1c-0.1,0.1-0.1,0.1-0.1,0.1l0.1,0l-0.1,0.2c-0.1,0.1-0.1,0.1-0.1,0.2c0,0,0-0.1,0.1-0.1l0.5-0.7
				l0.3-0.4c0,0,0,0,0,0l0,0l-0.2,0.2c-0.1,0.1-0.2,0.1-0.2,0.2C43.6,95.4,43.6,95.3,43.6,95.3z M43.9,100.7c0,0-0.1,0-0.1,0.1
				C43.8,100.8,43.8,100.7,43.9,100.7z M44.5,105c-0.1,0-0.1,0.1-0.1,0.1C44.4,105.1,44.4,105,44.5,105z M44,100.5
				c-0.1,0-0.1,0.1-0.1,0.2C44,100.6,44,100.6,44,100.5z M44.5,104.9c0,0,0,0.1,0,0.1C44.5,105,44.5,104.9,44.5,104.9z M44.5,104.9
				c0,0,0.1-0.1,0.1-0.1C44.5,104.8,44.5,104.8,44.5,104.9z M44.1,100.3c-0.1,0-0.1,0.1-0.1,0.2C44.1,100.5,44.1,100.4,44.1,100.3z
				 M44.6,104.8C44.6,104.7,44.6,104.7,44.6,104.8C44.6,104.7,44.6,104.7,44.6,104.8C44.6,104.7,44.6,104.7,44.6,104.8L44.6,104.8z
				 M44.3,100.2c-0.1,0-0.1,0.1-0.1,0.2C44.2,100.3,44.3,100.2,44.3,100.2z M43.7,95.8c0,0,0-0.1,0.1-0.1L43.7,95.8L43.7,95.8
				L43.7,95.8z M44.2,100c0.1,0,0.2-0.1,0.2-0.2C44.3,99.8,44.2,99.9,44.2,100z M44.9,104.4c0,0.1-0.2,0.2-0.1,0.3
				C44.8,104.7,44.9,104.5,44.9,104.4L44.9,104.4L44.9,104.4z M44.4,100c-0.1,0-0.1,0.1-0.1,0.2C44.4,100.1,44.4,100,44.4,100z
				 M44.2,95.2l-0.1,0.1c-0.1,0.1-0.1,0.1-0.2,0.2c-0.1,0-0.1,0.1-0.1,0.2c0.1,0,0.1-0.1,0.1-0.2C44,95.5,44.1,95.4,44.2,95.2
				C44.2,95.3,44.2,95.2,44.2,95.2L44.2,95.2z M44.4,99.8c0.1,0,0.1-0.1,0.1-0.2c0.1-0.1,0.1-0.1,0.2-0.2c-0.1,0.1-0.2,0.1-0.2,0.2
				C44.5,99.6,44.4,99.7,44.4,99.8z M44.6,99.7c-0.1,0-0.1,0.1-0.1,0.2C44.5,99.9,44.6,99.8,44.6,99.7z M46.1,94.9L46.1,94.9
				C46.2,94.9,46.2,94.9,46.1,94.9L46,95l0,0c0,0,0,0-0.1,0l-0.1,0.1l0.1,0c0,0,0,0.1,0,0.1l-0.2,0.1c0,0,0,0,0,0s0,0,0,0
				c0,0,0,0-0.1,0c0,0,0,0,0,0l0,0c0,0-0.1,0.1-0.1,0.1c0,0,0,0,0,0c0,0,0,0,0,0l-0.1,0.1l0,0c0,0.1-0.1,0.1-0.1,0.2c0,0,0,0,0,0
				l0,0c0,0,0,0,0,0c0,0,0,0,0,0c-0.1,0.1-0.1,0.1-0.2,0.2c0,0,0,0,0,0l0,0l0,0c0,0,0,0,0,0c-0.1,0.1-0.1,0.1-0.1,0.2
				c-0.1,0-0.1,0.1-0.1,0.2c-0.1,0.1-0.3,0.2-0.3,0.4c0,0,0,0,0,0l-0.3,0.3c0,0,0,0,0,0l0,0c0.1-0.1,0.3-0.2,0.3-0.3l0.1-0.1
				c0.2-0.1,0.3-0.2,0.4-0.3c0-0.1,0.1-0.2,0.2-0.3c0.2-0.3,0.5-0.6,0.7-0.9l0.1-0.2c0.1,0,0.1-0.1,0.2-0.2c0.1-0.1,0.1-0.1,0.2-0.2
				c0,0,0.1-0.1,0.2-0.2l0,0c0,0,0,0,0,0c0,0,0,0-0.1,0c0,0,0,0,0,0l0,0c0,0,0,0,0,0s0,0,0,0l0,0c0,0,0,0.1,0,0.1l-0.1,0.1
				c0,0,0,0,0,0S46.2,94.8,46.1,94.9C46.2,94.8,46.2,94.9,46.1,94.9z M44.7,99.6c0,0-0.1,0.1-0.1,0.1L44.7,99.6z M44.7,99.4
				c0.1,0,0.2-0.1,0.2-0.2C44.8,99.2,44.7,99.2,44.7,99.4z M44.5,97.2c0.2-0.1,0.2-0.2,0.3-0.3C44.7,96.9,44.6,97,44.5,97.2z
				 M44.9,99.3C44.9,99.4,44.9,99.4,44.9,99.3C44.9,99.4,44.9,99.4,44.9,99.3z M45,99.1c0.1-0.1,0.2-0.1,0.2-0.2
				C45.1,98.9,45,99,45,99.1z M45.2,99c-0.1,0-0.1,0.1-0.1,0.2C45.2,99.2,45.2,99.1,45.2,99z M44.8,96.8
				C44.8,96.8,44.9,96.8,44.8,96.8L44.8,96.8z M44.9,96.8c0.1-0.1,0.2-0.1,0.2-0.2C45,96.6,44.9,96.7,44.9,96.8z M45.4,98.6
				c0.1,0,0.1-0.1,0.1-0.1C45.4,98.5,45.4,98.6,45.4,98.6z M45.2,96.5c0.1-0.1,0.1-0.1,0.1-0.2C45.2,96.3,45.2,96.4,45.2,96.5z
				 M45.4,96.2c0.1,0,0.1-0.1,0.1-0.2C45.4,96.1,45.4,96.2,45.4,96.2z M45.8,98.4c0.1,0,0.1-0.1,0.1-0.2
				C45.9,98.3,45.8,98.3,45.8,98.4z M45.6,96c0.1,0,0.1-0.1,0.1-0.2C45.6,95.9,45.6,95.9,45.6,96z M45.8,95.8c0.1,0,0.1-0.1,0.1-0.2
				C45.8,95.6,45.8,95.7,45.8,95.8z M46,95.5c0.1,0,0.1-0.1,0.1-0.2C46.1,95.4,46,95.5,46,95.5z M46.2,95.3c0.1,0,0.2-0.1,0.2-0.2
				C46.3,95.1,46.2,95.2,46.2,95.3z M46.5,94.9c0,0,0,0.1-0.1,0.1C46.5,95,46.5,94.9,46.5,94.9L46.5,94.9L46.5,94.9z"/>
			<path d="M56.9,95.2L56.9,95.2c0,0.2-0.1,0.2-0.1,0.3c-0.4,0.5-0.8,1-1.2,1.5c-0.4,0.5-0.8,0.9-1.1,1.1c-0.2,0.1-0.4,0.2-0.5,0.2
				c-0.2,0-0.3,0-0.6-0.1c-0.1,0-0.1,0-0.1,0c-0.2-0.1-0.3-0.2-0.4-0.4c0-0.1-0.1-0.2,0-0.4l0-0.4c0-0.1,0-0.1,0-0.2
				c0-0.3,0.1-0.6,0.1-0.8c0.1-0.4,0.1-0.8,0.3-1.2c0-0.2,0.1-0.3,0.1-0.5c0,0,0,0,0,0c0,0,0,0-0.1,0l0,0c0,0,0,0,0,0
				c-0.2,0.1-0.3,0.3-0.4,0.5c-0.3,0.3-0.6,0.7-0.8,1.1c-0.2,0.3-0.4,0.6-0.6,1c-0.3,0.5-0.6,1-0.7,1.4c-0.1,0.2-0.2,0.4-0.2,0.7
				c0,0,0,0.1,0,0.1c0,0.1-0.1,0.1-0.2,0.1c0,0-0.1,0-0.1,0c0,0-0.1,0-0.1,0l0,0c-0.1,0-0.1,0-0.2-0.1c0,0-0.1,0-0.2-0.1
				c-0.1,0-0.2-0.1-0.2-0.2c0-0.3,0.1-0.5,0.1-0.8c0-0.1,0-0.2,0-0.3c0-0.2,0.1-0.5,0.1-0.7l0-0.1c0-0.3,0.1-0.6,0.1-1l0-0.1
				c0-0.3,0.2-0.6,0.2-0.9c0,0,0-0.1,0-0.1c0.1-0.3,0.1-0.6,0.2-0.8c0.2-0.7,0.4-1.3,0.6-2c0.1-0.3,0.1-0.6,0.3-0.9
				c0.1-0.3,0.2-0.5,0.3-0.7c0.1-0.3,0.2-0.5,0.4-0.8c0.2-0.2,0.3-0.5,0.5-0.7c0.1-0.1,0.2-0.2,0.2-0.2c0.1-0.1,0.1-0.1,0.2-0.1
				c0,0,0.1,0,0.1,0c0.1,0,0.2,0,0.4,0.1c0.1,0,0.2,0.2,0.2,0.2c0,0.1,0,0.2-0.1,0.3c-0.1,0.3-0.2,0.6-0.4,0.9
				c-0.2,0.5-0.5,1-0.6,1.6c-0.2,0.4-0.4,0.8-0.6,1.2c0,0.1-0.1,0.3-0.1,0.4c-0.1,0.2-0.1,0.4-0.2,0.6c0,0.2-0.1,0.5-0.2,0.8
				c-0.1,0.4-0.2,0.8-0.2,1.2c0,0.1-0.1,0.1-0.1,0.2l0,0.1c0,0,0,0,0,0c0,0,0.1,0,0.1,0l0,0c0.4-0.5,0.7-1,1.1-1.5
				c0.3-0.4,0.6-0.7,1-1c0,0,0.1-0.1,0.1-0.1c0,0,0.1-0.1,0.2-0.1c0.4,0,0.7,0.1,0.7,0.4c0,0.1,0,0.1,0,0.2c0,0.1,0,0.2,0,0.2
				c-0.1,0.5-0.2,0.9-0.3,1.3l-0.1,0.6l0,0.7c0,0.2,0,0.5,0,0.8c0,0,0,0.1,0,0.1c0,0,0,0,0.1,0c0.2-0.1,0.3-0.2,0.5-0.3
				c0.2-0.2,0.6-0.6,0.9-0.9c0.3-0.3,0.5-0.6,0.8-0.9c0.1-0.1,0.2-0.3,0.4-0.5c0,0,0.1-0.1,0.1-0.1l0,0l0,0.1c0,0,0,0,0,0.1
				c-0.2,0.2-0.3,0.4-0.4,0.5c0,0-0.1,0.1-0.1,0.1c0.1,0,0.1-0.1,0.2-0.2c0.2-0.2,0.3-0.3,0.4-0.6c0,0,0.1-0.1,0.1-0.1l0,0
				C56.8,95.2,56.8,95.2,56.9,95.2C56.9,95.2,56.9,95.2,56.9,95.2L56.9,95.2C56.9,95.2,56.9,95.2,56.9,95.2z M50.9,97.3
				c-0.1,0.1-0.1,0.1-0.1,0.1l0,0l0,0C50.8,97.4,50.9,97.4,50.9,97.3z M50.8,97C50.8,97,50.8,97,50.8,97L50.8,97L50.8,97z
				 M51.1,96.4L51.1,96.4c0,0,0,0.1,0,0.1c0,0,0,0.1-0.1,0.1l0,0l0,0c0,0-0.1,0.1,0,0.1l-0.1,0.2c0,0,0,0.1,0,0.1c0,0,0-0.1,0.1-0.1
				c0.2-0.2,0.3-0.5,0.4-0.7c0,0,0-0.1,0-0.1c0,0,0.1-0.1,0.1-0.1c0.1-0.1,0.2-0.2,0.2-0.3c0,0,0-0.1,0-0.1c0.1-0.1,0.2-0.1,0.2-0.2
				l-0.1,0c0,0,0,0,0,0c0,0,0,0,0,0l0,0c0,0,0,0-0.1,0l0,0.1c0,0,0,0-0.1,0c0,0,0,0,0,0l0,0c-0.1,0-0.1,0.1-0.1,0.1l0,0c0,0,0,0,0,0
				l0,0.1c0,0,0,0.1,0,0.1l-0.1,0c0,0,0,0.1,0,0.1c0,0-0.1,0.1-0.1,0.1c0,0,0,0,0,0c0,0,0,0,0,0L51.1,96.4L51.1,96.4z M50.9,97.2
				C50.9,97.2,50.9,97.3,50.9,97.2L50.9,97.2z M51,97.2L51,97.2L51,97.2C51,97.2,51,97.2,51,97.2z M50.9,96.7L50.9,96.7
				C50.9,96.7,50.9,96.7,50.9,96.7z M51.1,96.5C51,96.6,51,96.5,51.1,96.5L51.1,96.5L51.1,96.5z M51.1,96.9L51.1,96.9L51.1,96.9
				C51.1,96.9,51.1,96.9,51.1,96.9z M51.2,96.8C51.2,96.8,51.1,96.9,51.2,96.8L51.2,96.8z M51.2,96.8C51.2,96.8,51.2,96.7,51.2,96.8
				C51.2,96.7,51.2,96.8,51.2,96.8z M51.2,96.7L51.2,96.7C51.2,96.7,51.2,96.7,51.2,96.7z M51.3,96.7L51.3,96.7
				C51.2,96.7,51.3,96.7,51.3,96.7z M51.6,96.2L51.6,96.2C51.5,96.2,51.6,96.2,51.6,96.2z M51.6,96.1L51.6,96.1
				C51.6,96.2,51.6,96.1,51.6,96.1z M51.7,96C51.7,96,51.7,96,51.7,96C51.6,96,51.6,96,51.7,96C51.6,96,51.6,96,51.7,96L51.7,96z
				 M52.7,89.6c0,0,0.1-0.2,0.1-0.3c0,0,0,0,0,0l-0.1,0c-0.2,0.1-1.4,3.7-1.4,3.7C51.3,92.9,52.7,89.6,52.7,89.6z M52,95.2L52,95.2
				C52,95.2,52,95.2,52,95.2c-0.1,0-0.1,0-0.1,0l0,0l0,0c0,0,0,0.1,0,0.1l0,0.1C52,95.4,52,95.3,52,95.2z M52,95.5
				C51.9,95.6,51.9,95.6,52,95.5L52,95.5z M52,95.5C52,95.5,52,95.5,52,95.5C52,95.5,52,95.5,52,95.5z M52.1,95.1L52.1,95.1
				L52.1,95.1L52.1,95.1L52,95.2C52.1,95.2,52.1,95.1,52.1,95.1z M52.1,95.3C52.1,95.4,52.1,95.4,52.1,95.3L52.1,95.3L52.1,95.3z
				 M52.2,95C52.1,95,52.1,95.1,52.2,95c0.1,0,0.1,0,0.1-0.1C52.2,95,52.1,95,52.2,95z M52.2,95.3C52.1,95.3,52.2,95.3,52.2,95.3
				C52.1,95.3,52.1,95.3,52.2,95.3z M52.3,95.1C52.3,95.1,52.3,95.2,52.3,95.1C52.3,95.2,52.3,95.1,52.3,95.1z M52.4,94.8l-0.1,0.1
				l0,0.1C52.3,94.9,52.4,94.9,52.4,94.8z M52.4,94.8c0.1,0,0.1-0.1,0.1-0.2l0,0c0,0,0,0,0,0c0,0,0,0,0,0l0,0
				C52.3,94.7,52.4,94.7,52.4,94.8L52.4,94.8z M52.4,94.7c0.1,0,0.1-0.1,0.1-0.1C52.5,94.6,52.5,94.6,52.4,94.7z M52.5,94.8
				C52.5,94.9,52.5,94.9,52.5,94.8C52.5,94.9,52.5,94.9,52.5,94.8z M52.7,94.7c-0.1,0-0.1,0.1-0.1,0.1
				C52.6,94.8,52.7,94.8,52.7,94.7z M52.7,94.5c0,0,0.1-0.1,0.1-0.2C52.7,94.3,52.7,94.4,52.7,94.5z M52.8,94.5
				C52.8,94.5,52.8,94.5,52.8,94.5c-0.1,0.1-0.1,0.1-0.1,0.1C52.7,94.6,52.7,94.6,52.8,94.5C52.8,94.5,52.8,94.5,52.8,94.5z
				 M52.8,94.3c0.1-0.1,0.2-0.1,0.2-0.2C52.9,94.1,52.9,94.2,52.8,94.3z M53,94.3l-0.1,0.1C52.9,94.4,52.9,94.4,53,94.3z M53,94.3
				C53,94.3,52.9,94.3,53,94.3L53,94.3C52.9,94.3,53,94.3,53,94.3z M53.1,94.2C53,94.3,53,94.3,53.1,94.2C53,94.3,53,94.3,53.1,94.2
				L53.1,94.2z M52.4,89C52.4,89,52.4,89,52.4,89C52.4,89,52.4,89,52.4,89z M53.1,94C53.1,94,53.1,94,53.1,94L53.1,94z M53.2,94
				c-0.1,0-0.1,0.1-0.1,0.1C53.2,94.2,53.2,94.1,53.2,94z M52.5,89.1C52.5,89.1,52.5,89.1,52.5,89.1L52.5,89.1z M52.5,89
				C52.5,89,52.6,89,52.5,89L52.5,89C52.6,89,52.5,89,52.5,89z M52.6,89.1L52.6,89.1C52.6,89.1,52.6,89,52.6,89.1
				C52.6,89,52.6,89,52.6,89.1z M53.2,94C53.3,94,53.3,94,53.2,94L53.2,94C53.3,94,53.3,94,53.2,94C53.3,94,53.2,94,53.2,94z
				 M53.2,93.9C53.3,93.9,53.3,93.8,53.2,93.9C53.3,93.8,53.3,93.8,53.2,93.9l0.1-0.1C53.3,93.8,53.3,93.8,53.2,93.9
				C53.3,93.8,53.2,93.9,53.2,93.9z M55.4,96.8C55.4,96.8,55.4,96.8,55.4,96.8C55.4,96.8,55.4,96.8,55.4,96.8z M55.5,97
				C55.5,97,55.5,97,55.5,97C55.5,97,55.5,97,55.5,97z M55.7,96.4c-0.1,0.1-0.1,0.2-0.2,0.2C55.6,96.6,55.7,96.5,55.7,96.4z
				 M55.8,96.6c-0.1,0-0.1,0.1-0.1,0.1L55.8,96.6z M55.9,96.3c-0.1,0-0.2,0.1-0.2,0.1C55.8,96.4,55.9,96.4,55.9,96.3z M55.9,96.5
				L55.9,96.5c-0.1,0-0.1,0.1-0.1,0.1C55.9,96.5,55.8,96.5,55.9,96.5z M56.1,96.1c-0.1,0.1-0.1,0.2-0.2,0.2
				C56,96.2,56,96.1,56.1,96.1z M56,96.3c-0.1,0,0,0.1,0,0.1C56,96.4,56,96.4,56,96.3z M56.1,96.2L56,96.3
				C56.1,96.3,56.1,96.2,56.1,96.2z M56.1,95.9c-0.1,0.1-0.1,0.1-0.1,0.1C56.1,96,56.1,96,56.1,95.9z M56.2,96
				c-0.1,0-0.1,0.1-0.1,0.1C56.2,96.1,56.2,96.1,56.2,96z M56.3,95.9L56.3,95.9L56.3,95.9C56.3,95.9,56.3,95.9,56.3,95.9z
				 M56.6,95.7c-0.1,0.1-0.2,0.2-0.3,0.2C56.4,95.9,56.6,95.8,56.6,95.7z M56.6,95.6C56.6,95.6,56.6,95.6,56.6,95.6
				C56.6,95.6,56.6,95.6,56.6,95.6L56.6,95.6z"/>
			<path d="M70.4,85.6C70.4,85.6,70.4,85.7,70.4,85.6c-0.1,0.1-0.1,0-0.1,0c0,0-0.1-0.1-0.1-0.1c0-0.1,0.1-0.2,0.2-0.2
				c0,0,0-0.1,0.1-0.1l0,0l0.4,0c0.2,0,0.3,0.1,0.3,0.2c0,0.1,0,0.2,0,0.3l0,0.3c0,0.1,0,0.2,0,0.4c0,0.5-0.1,1.1-0.2,1.6
				c-0.1,0.4-0.2,0.8-0.3,1.1c-0.1,0.4-0.2,0.8-0.3,1.1c-0.1,0.4-0.2,0.9-0.4,1.3c-0.1,0.3-0.2,0.6-0.3,0.9c-0.1,0.5-0.3,1-0.5,1.5
				c-0.1,0.4-0.3,0.8-0.5,1.2l-0.4,0.9c-0.1,0.3-0.3,0.6-0.4,0.8c-0.1,0.3-0.3,0.5-0.5,0.7c-0.1,0.2-0.2,0.3-0.4,0.5
				c-0.1,0.1-0.2,0.2-0.3,0.3c-0.1,0.1-0.2,0.2-0.3,0.2c-0.1,0-0.1,0-0.2,0c-0.1,0-0.2,0-0.3,0c-0.3,0-0.5-0.1-0.8-0.2
				c-0.1,0-0.2-0.1-0.2-0.2c-0.1-0.1-0.2-0.4-0.3-0.5c-0.1-0.4-0.1-0.7-0.1-1.1l0-0.8c0-0.1,0-0.1,0-0.2c0-0.6,0.2-1.3,0.3-2
				c0.1-0.5,0.2-1,0.2-1.5c0.1-0.1,0.1-0.3,0.2-0.4c0.1-0.4,0.2-0.8,0.2-1.2c0.1-0.1,0-0.1,0.1-0.1l0,0l-0.1,0c0,0.1,0,0.1,0,0.1
				c-0.3,0.4-0.5,0.8-0.8,1.3c-0.2,0.3-0.5,0.7-0.7,1.1c-0.2,0.4-0.5,0.8-0.8,1.2l0,0.1c-0.1,0.2-0.2,0.3-0.3,0.5
				c-0.2,0.2-0.3,0.5-0.5,0.8c-0.3,0.6-0.7,1.2-1,1.8c-0.2,0.3-0.4,0.7-0.6,1c-0.1,0.2-0.2,0.4-0.4,0.5c-0.1,0.1-0.1,0.1-0.2,0.1
				c-0.1,0-0.1,0-0.2,0l-0.1,0l-0.3,0c-0.1-0.1-0.2-0.1-0.4-0.1c-0.1,0-0.2-0.1-0.2-0.1c-0.1-0.1-0.2-0.3-0.2-0.4l0,0
				c0-0.1,0-0.2,0-0.3c0-0.2,0-0.4,0-0.7l0-0.2l0.1-0.2c0.1-0.3,0.1-0.7,0.2-1c0.1-0.3,0.2-0.6,0.2-1c0.1-0.2,0.1-0.4,0.2-0.6
				c0-0.2,0.1-0.4,0.2-0.6l0,0c0.1-0.4,0.2-0.7,0.3-1c0.1-0.1,0.1-0.2,0.2-0.3l0-0.1l0.2-0.6c0.2-0.5,0.4-1,0.6-1.5
				c0.1-0.1,0.1-0.3,0.2-0.4c0.1-0.3,0.4-0.6,0.5-1l0.6-1.2c0.1-0.1,0.1-0.2,0.2-0.2c0-0.1,0.1-0.1,0.1-0.1c0,0,0,0,0.1,0.1
				c0.1,0,0.1,0,0.1,0c0.2,0,0.2,0,0.3,0.1c0,0,0,0.1,0.1,0.1c0,0,0,0.1,0,0.1l0,0.1c0,0.3-0.3,0.5-0.4,0.8c0,0.1,0,0.1-0.1,0.1
				l-0.5,1.6c-0.2,0.5-0.3,0.9-0.5,1.4c-0.1,0.5-0.3,1-0.5,1.5c-0.2,0.6-0.3,1.5-0.5,1.8c-0.1,0.4-0.1,0.7-0.2,1
				c-0.1,0.3-0.2,1-0.3,1.4c0,0,0,0,0,0.1l0,0.1l0.1,0c0,0,0.1-0.1,0.1-0.2c0.2-0.3,0.6-0.9,0.8-1.2c0,0,0-0.1,0.1-0.2
				c0.2-0.3,0.4-0.6,0.5-0.8l0,0c0.3-0.3,0.4-0.6,0.6-0.8l0.4-0.6c0-0.1,0.1-0.2,0.1-0.2c0.2-0.3,0.4-0.6,0.6-0.9
				c0.1-0.3,0.3-0.6,0.6-1c0.1-0.2,0.2-0.4,0.4-0.6c0.1-0.2,0.1-0.3,0.2-0.5c0.1-0.2,0.2-0.3,0.3-0.4c0.1-0.2,0.2-0.4,0.3-0.6
				c0.2-0.2,0.3-0.5,0.4-0.7c0.2-0.2,0.4-0.5,0.6-0.8c0,0,0-0.1,0.1-0.1c0,0,0.1,0,0.1,0c0.1,0,0.3,0,0.4,0c0,0,0,0,0.1,0
				c0,0,0,0.1,0.2,0.1c0,0,0.1,0.1,0.1,0.1c0,0,0,0,0,0.1c0,0.1,0,0.2,0,0.3c-0.2,0.4-0.2,0.8-0.4,1.2c-0.1,0.4-0.1,0.7-0.2,1
				c-0.2,0.5-0.2,1-0.2,1.5c-0.1,0.4-0.2,0.9-0.2,1.3c-0.1,0.5-0.2,0.9-0.2,1.3c-0.1,0.5-0.2,0.9-0.2,1.4c0,0.2,0,0.4,0,0.6
				c0,0.2,0,0.3,0,0.4l0,0.1c0,0.1,0,0.2,0,0.3c0,0.1,0.2,0.4,0.2,0.6c0,0,0,0.1,0.1,0c0,0,0.1,0,0.1-0.1c0.2-0.1,0.3-0.3,0.4-0.5
				c0.3-0.3,0.5-0.6,0.6-0.8c0.3-0.5,0.6-1,0.9-1.6c0.3-0.7,0.5-1.4,0.8-2.2c0.2-0.6,0.4-1.3,0.6-1.9c0.2-0.5,0.3-1,0.5-1.5
				c0.2-0.5,0.2-1.1,0.4-1.5c0.2-0.6,0.3-1.2,0.4-1.8l0-0.1c0-0.1,0-0.2,0-0.3c0,0,0-0.1,0-0.1c0,0,0-0.1,0-0.1c0,0,0,0,0,0l-0.1,0
				c-0.1,0-0.1,0-0.1-0.1L70.4,85.6L70.4,85.6z M59.3,98C59.3,98,59.3,98,59.3,98L59.3,98C59.3,98,59.2,98,59.3,98L59.3,98z
				 M61.9,88.9l-0.1,0.2c-0.1,0.1-0.1,0.2-0.2,0.4c-0.2,0.6-0.5,1.3-0.7,1.9c-0.3,0.8-0.6,1.6-0.8,2.5c-0.1,0.3-0.2,0.5-0.2,0.7
				c-0.1,0.6-0.3,1.2-0.4,1.7c0,0.4-0.1,0.9-0.1,1.4c0,0.1,0,0.2,0.1,0.2c0,0,0-0.1,0-0.1c0-0.8,0.2-1.5,0.4-2.2
				c0-0.4,0.2-0.8,0.2-1.2c0.2-0.5,0.3-0.9,0.4-1.4l0.8-2.1c0.2-0.5,0.4-1,0.6-1.5C61.7,89.3,61.9,89.2,61.9,88.9
				c0.1-0.1,0.2-0.2,0.2-0.4c0.1,0,0.1-0.1,0.1-0.1l0-0.1c0,0-0.1,0.1-0.1,0.2C62,88.6,61.9,88.8,61.9,88.9z M62.5,87.8
				c0,0.1,0,0.2-0.1,0.2c-0.2,0.3-0.4,0.7-0.5,1c-0.4,1.1-0.9,2.1-1.2,3.2c-0.2,0.5-0.4,1-0.5,1.6l-0.5,2.3c-0.1,0.7-0.3,1.3-0.2,2
				l0,0c0,0,0,0,0,0.1c0.1,0,0.1-0.1,0.1-0.1c0-0.2,0-0.3,0-0.5c0.1-0.4,0.1-0.8,0.2-1.2c0.1-0.6,0.2-1.1,0.3-1.7
				c0.2-0.6,0.4-1.2,0.6-1.9c0.3-0.8,0.4-1.6,0.8-2.4c0.2-0.4,0.3-0.8,0.5-1.2c0.2-0.5,0.5-1,0.7-1.6c0.1-0.1,0.1-0.1,0.1-0.2l0,0
				c0,0,0,0,0,0c0,0,0,0-0.1,0c0,0,0,0,0,0c0,0,0,0,0,0c0,0-0.1,0-0.1,0.1c0,0,0,0,0,0c-0.1,0-0.1,0.1-0.1,0.2
				c-0.1,0-0.1,0.1-0.1,0.1C62.4,87.8,62.5,87.7,62.5,87.8L62.5,87.8z M61.3,96.4c0.1-0.1,0.1-0.1,0.1-0.2l0,0
				C61.4,96.2,61.3,96.3,61.3,96.4L61.3,96.4z M61.7,95.8c-0.1,0.1-0.1,0.1-0.1,0.3C61.6,96,61.7,95.9,61.7,95.8z M61.7,96.3
				L61.7,96.3c0.1,0,0.1,0,0-0.1C61.7,96.2,61.7,96.2,61.7,96.3z M61.7,95.8C61.7,95.8,61.7,95.8,61.7,95.8
				C61.7,95.8,61.7,95.8,61.7,95.8z M61.7,95.8c0.1-0.1,0.2-0.2,0.2-0.3C61.8,95.5,61.8,95.6,61.7,95.8L61.7,95.8z M61.8,96L61.8,96
				c0.1,0,0.2-0.1,0.2-0.2C61.9,95.9,61.8,95.9,61.8,96z M62,95.4C62,95.4,61.9,95.4,62,95.4C62,95.4,62,95.4,62,95.4
				c0.1-0.1,0.2-0.2,0.2-0.4C62.1,95.1,62,95.2,62,95.4L62,95.4z M62.2,95.5c-0.1,0.1-0.2,0.2-0.2,0.3
				C62.1,95.7,62.2,95.6,62.2,95.5L62.2,95.5z M62.2,95.4L62.2,95.4c0.1-0.1,0.1-0.1,0.2-0.3C62.3,95.2,62.2,95.3,62.2,95.4z
				 M62.2,95l0.3-0.3l0,0C62.3,94.7,62.2,94.8,62.2,95C62.2,94.9,62.2,95,62.2,95z M62.7,94.8c-0.1,0.1-0.2,0.2-0.2,0.3l0,0
				c0,0,0,0,0,0C62.6,95,62.6,94.9,62.7,94.8z M62.5,94.6c0.1-0.1,0.2-0.2,0.2-0.4l0,0C62.6,94.3,62.6,94.3,62.5,94.6
				C62.5,94.5,62.5,94.5,62.5,94.6z M62.9,94.4c-0.1,0.1-0.2,0.2-0.2,0.4C62.8,94.6,62.9,94.5,62.9,94.4L62.9,94.4z M65.8,89
				L65.8,89c0,0.1,0,0.2-0.1,0.3l0,0c0,0,0,0-0.1,0.1l0,0.1c0,0,0,0,0,0l0,0.1c0,0,0,0,0.1,0c0,0.1-0.1,0.2-0.2,0.2c0,0,0,0-0.1,0
				l0,0.1l-0.1,0l0.1,0c0,0.1-0.1,0.1-0.1,0.2c0,0,0,0,0,0c0,0,0,0,0,0c0,0,0,0.1-0.1,0.1c0,0,0,0,0.1,0c0,0.1-0.1,0.2-0.2,0.3l0,0
				c0,0,0,0,0,0c0,0,0,0,0,0.1c0,0,0,0,0.1,0c0,0.1-0.1,0.3-0.3,0.4l0,0.1c-0.1,0.1-0.2,0.2-0.2,0.4c0,0-0.1,0.1-0.1,0.2
				c0,0-0.1,0.1,0,0.1c0,0,0,0,0,0c-0.2,0.4-0.4,0.7-0.7,1c-0.1,0.4-0.4,0.7-0.6,1L62.8,94c0,0.1,0,0.1,0,0.1
				c0.1-0.1,0.2-0.3,0.3-0.4c0.1-0.2,0.3-0.5,0.5-0.7c0.1-0.2,0.2-0.4,0.4-0.6c0.1-0.3,0.3-0.5,0.5-0.9c0.2-0.3,0.4-0.5,0.5-0.9
				c0.2-0.3,0.3-0.5,0.5-0.8c0.2-0.2,0.4-0.5,0.6-0.9c0.1,0,0-0.1,0.1-0.2c0,0,0,0-0.1,0c0,0-0.1,0-0.1,0
				C65.9,88.9,65.9,88.9,65.8,89C65.8,88.9,65.8,88.9,65.8,89L65.8,89z M62.9,94.4c0.1-0.1,0.3-0.2,0.2-0.3
				C63,94.1,62.9,94.2,62.9,94.4z M62.2,88.2c-0.1,0.1-0.1,0.1-0.1,0.2C62.2,88.3,62.2,88.3,62.2,88.2L62.2,88.2z M62.3,88
				c-0.1,0-0.1,0.1-0.1,0.2C62.3,88.1,62.3,88,62.3,88z M62.4,87.8c0,0.1,0,0.1,0,0.2l0,0C62.4,88,62.4,87.9,62.4,87.8L62.4,87.8z
				 M63.7,93.1l0.8-1.2c0,0,0-0.1,0-0.1c0.2-0.2,0.2-0.4,0.4-0.7c0.2-0.2,0.3-0.6,0.5-0.8c0.1,0,0-0.1,0.1-0.1
				c0.1-0.2,0.2-0.4,0.3-0.5c0,0,0,0-0.1,0c-0.1,0.2-0.2,0.4-0.3,0.5c-0.1,0.1-0.2,0.2-0.2,0.2c-0.2,0.3-0.4,0.6-0.6,0.9
				c-0.1,0.1-0.2,0.3-0.2,0.5c-0.2,0.2-0.3,0.4-0.4,0.6c-0.2,0.3-0.4,0.7-0.6,1c-0.1,0.1-0.2,0.3-0.3,0.5c0,0,0,0,0,0l0,0.1
				c0.1-0.2,0.2-0.3,0.3-0.4C63.5,93.5,63.6,93.3,63.7,93.1z M64.9,95.8C65,95.7,65,95.7,64.9,95.8C65,95.7,65,95.7,64.9,95.8
				C64.9,95.7,64.9,95.7,64.9,95.8L64.9,95.8z M65,95.6C65,95.6,65,95.6,65,95.6C65,95.6,65,95.6,65,95.6C65,95.5,65,95.6,65,95.6
				C65,95.6,65,95.6,65,95.6C65,95.6,65,95.6,65,95.6z M65.1,96.4L65.1,96.4L65.1,96.4C65.1,96.4,65.1,96.4,65.1,96.4L65.1,96.4z
				 M65,95.4L65,95.4C65,95.4,65,95.4,65,95.4C65,95.4,65,95.4,65,95.4L65,95.4z M65.1,96.1L65.1,96.1c0,0.1,0,0.1,0,0.1
				C65.1,96.2,65.1,96.1,65.1,96.1z M65.5,93.2c0,0.1,0,0.1,0,0.2l0,0c-0.2,0.8-0.3,1.6-0.3,2.3c0,0.1,0,0.1,0,0.2l0,0.1
				c0-0.1,0.1-0.3,0.1-0.5c0.1-0.7,0.2-1.5,0.3-2.2C65.5,93.3,65.6,93.3,65.5,93.2l0.1-0.2L65.5,93.2z M65.1,95.1c0-0.1,0-0.1,0-0.2
				C65,95.1,65,95.1,65.1,95.1c0,0.1,0,0.1,0,0.2C65.1,95.3,65.1,95.2,65.1,95.1z M65.3,93.4c0,0-0.1,0.1-0.1,0.1
				c0,0.4-0.1,0.8-0.2,1.2l0,0.2c0,0,0.1,0,0.1-0.1c0.1-0.5,0.1-0.9,0.2-1.4C65.3,93.5,65.3,93.4,65.3,93.4
				C65.4,93.4,65.4,93.4,65.3,93.4c0.1-0.1,0-0.1,0-0.2C65.3,93.3,65.3,93.3,65.3,93.4C65.3,93.3,65.3,93.4,65.3,93.4z M64.7,90.8
				C64.7,90.8,64.7,90.8,64.7,90.8C64.7,90.8,64.7,90.8,64.7,90.8L64.7,90.8z M65.6,93C65.6,93,65.6,93,65.6,93c0-0.1,0-0.1,0-0.2
				L65.6,93z M65.6,92.8L65.6,92.8C65.6,92.8,65.6,92.8,65.6,92.8L65.6,92.8z M65.6,92.5L65.6,92.5C65.6,92.5,65.6,92.5,65.6,92.5
				C65.6,92.5,65.6,92.5,65.6,92.5z M65.6,92.4C65.6,92.4,65.7,92.4,65.6,92.4L65.6,92.4z M68,96.2c0.1-0.2,0.2-0.4,0.3-0.6
				c0.3-0.6,0.5-1.1,0.7-1.7c0.1-0.1,0.1-0.2,0.2-0.3l0.3-0.8c0-0.1,0.1-0.1,0.1-0.2l0,0c0,0,0-0.1,0-0.2c0,0,0,0,0,0.1
				c0,0,0,0,0,0.1c-0.1,0-0.1,0.1-0.1,0.2c0,0.2-0.1,0.3-0.1,0.5c0,0.1-0.1,0.2-0.1,0.2l0-0.1c0,0-0.1,0-0.1,0.1
				c0,0.1,0,0.1-0.1,0.1c0,0,0,0.1,0,0.1l0,0.1c0,0.1,0,0.1,0,0.1l0,0.1c0,0-0.1,0,0,0.1l0,0.1c-0.1,0-0.1,0.1-0.1,0.1l0,0
				c0,0-0.1,0.1,0,0.1c0,0,0,0,0,0c0,0-0.1,0.1,0,0.1c0,0,0,0,0,0c0,0-0.1,0.1,0,0.1l-0.1,0c0,0,0,0,0,0.1l0,0c0,0,0,0,0,0.1l0,0
				c0,0.1-0.1,0.1-0.1,0.2l0,0.1c0,0,0,0.1,0,0.1c0,0-0.1,0.1,0,0.1l0,0c0,0-0.1,0-0.1,0.1c0,0,0,0.1,0,0.1l0,0.1
				c-0.1,0-0.1,0-0.1,0.1c0,0,0,0.1,0,0.1l0,0l0,0c0,0,0,0.1-0.1,0.1c0,0,0,0.1,0,0.1c0,0.1-0.1,0.1-0.1,0.2c0,0.1-0.1,0.2-0.1,0.3
				l0,0c0,0.1-0.1,0.2-0.1,0.2l0,0c0.1-0.1,0.1-0.2,0.1-0.3C67.9,96.3,68,96.3,68,96.2z M67.9,96.7L67.9,96.7c0.1,0,0.1-0.1,0.1-0.1
				C68,96.6,67.9,96.7,67.9,96.7z M68.3,96.2c0.1-0.2,0.2-0.4,0.2-0.6c-0.2,0.2-0.3,0.4-0.3,0.6l0,0L68,96.5
				c0.1-0.1,0.1-0.1,0.1-0.2C68.2,96.3,68.2,96.2,68.3,96.2z M68.5,95.7c0.1-0.2,0.2-0.3,0.2-0.4c0,0,0-0.1,0-0.1
				C68.6,95.3,68.5,95.5,68.5,95.7z M68.7,95.1L68.7,95.1c0.2,0,0.2-0.1,0.2-0.2C68.7,95,68.7,95.1,68.7,95.1z M68.8,94.9
				C68.8,94.9,68.9,94.9,68.8,94.9c0-0.1,0-0.1,0-0.1C68.8,94.9,68.8,94.9,68.8,94.9z M68.8,94.8c0.1-0.1,0.1-0.2,0.1-0.3
				C68.9,94.6,68.8,94.7,68.8,94.8z M69.3,92.3C69.4,92.3,69.4,92.3,69.3,92.3L69.3,92.3z M69.5,92.3L69.5,92.3
				C69.5,92.4,69.5,92.4,69.5,92.3C69.5,92.3,69.5,92.3,69.5,92.3C69.5,92.3,69.5,92.3,69.5,92.3z M69.5,92.1
				c0.1-0.2,0.2-0.4,0.2-0.6l0-0.1c0,0,0,0,0-0.1c0,0,0,0.1-0.1,0.1l-0.1,0.2c0,0-0.1-0.1-0.1-0.1c0,0,0,0,0,0l0,0c0,0,0,0.1,0,0.1
				c0,0,0,0.1,0,0.1c0,0,0,0,0,0l0,0l0,0C69.5,92.1,69.5,92.1,69.5,92.1L69.5,92.1z M69.5,92.2C69.5,92.2,69.5,92.3,69.5,92.2
				C69.5,92.3,69.5,92.2,69.5,92.2z M69.8,90.9L69.8,90.9C69.8,90.9,69.8,90.9,69.8,90.9c-0.1,0-0.1,0.1-0.1,0.2c0.1,0,0.1,0,0.1,0
				c0,0,0,0.1,0,0.2c0-0.1,0.1-0.3,0.1-0.4c0,0,0,0,0-0.1c0,0,0,0-0.1,0C69.9,90.8,69.9,90.8,69.8,90.9z M69.8,91.2L69.8,91.2
				C69.9,91.2,69.9,91.2,69.8,91.2C69.8,91.2,69.8,91.2,69.8,91.2z M70,90.5c-0.1,0,0,0.1-0.1,0.1C70,90.6,70,90.6,70,90.5L70,90.5z
				 M70,90.5C70,90.5,70,90.5,70,90.5C70,90.5,70,90.5,70,90.5z M70,90.4L70,90.4C70.1,90.4,70.1,90.4,70,90.4
				C70.1,90.4,70,90.4,70,90.4z M70.1,90.3C70.1,90.3,70.1,90.3,70.1,90.3C70.1,90.3,70.1,90.2,70.1,90.3
				C70.1,90.2,70.1,90.3,70.1,90.3z M70.1,90c0.1,0,0.1,0,0-0.1C70.1,90,70.1,90,70.1,90z M70.2,89.8C70.2,89.9,70.2,89.9,70.2,89.8
				L70.2,89.8z M70.3,89.8L70.3,89.8L70.3,89.8L70.3,89.8z M70.3,89.6C70.3,89.6,70.3,89.6,70.3,89.6C70.3,89.6,70.3,89.6,70.3,89.6
				z M70.3,89.5L70.3,89.5L70.3,89.5L70.3,89.5z M70.5,88.8L70.5,88.8L70.5,88.8L70.5,88.8z M70.5,85.5
				C70.5,85.5,70.6,85.5,70.5,85.5L70.5,85.5C70.5,85.4,70.5,85.5,70.5,85.5C70.5,85.5,70.5,85.5,70.5,85.5
				C70.5,85.5,70.5,85.5,70.5,85.5C70.5,85.5,70.5,85.5,70.5,85.5z"/>
			<path d="M78.9,91.6c0.1,0,0.1,0.1,0.2,0.1c0,0,0,0,0,0.1c0,0.1-0.1,0.3-0.1,0.4c-0.5,0.7-0.9,1.4-1.4,2.1
				c-0.2,0.3-0.4,0.6-0.6,0.9l-0.6,0.6c-0.3,0.2-0.5,0.3-0.7,0.3c-0.2,0-0.3,0-0.5-0.1c-0.4-0.1-0.7-0.3-0.9-0.6
				C74.1,95.2,74,95,74,94.7c0-0.1,0-0.2,0-0.3c0-0.1,0-0.1,0-0.2c0.1-0.7,0.2-1.4,0.4-2c0.1-0.1,0.1-0.3,0.2-0.4l0,0
				c-0.2,0.1-0.2,0.2-0.2,0.3l-0.9,1.5c-0.2,0.4-0.5,0.8-0.8,1.2c-0.2,0.2-0.4,0.4-0.6,0.7c-0.1,0.2-0.3,0.3-0.5,0.3
				c-0.1,0-0.1,0-0.1,0c-0.1,0-0.2,0-0.3,0c-0.3,0-0.5-0.2-0.7-0.4c-0.2-0.1-0.2-0.3-0.2-0.4c0,0,0-0.1,0-0.1c0-0.1,0-0.2,0-0.3
				c0-0.4,0.1-0.8,0.2-1.1c0.1-0.3,0.3-0.7,0.4-1c0.2-0.4,0.5-0.8,0.8-1.2c0-0.1,0-0.1,0.1-0.2c0.2-0.2,0.3-0.3,0.5-0.5
				c0.1,0,0.1-0.1,0.2-0.1c0,0,0.1,0,0.2,0c0.3,0,0.8,0,1.1,0.3c0.1,0.1,0.1,0.2,0.2,0.3c0,0,0,0.1,0.1,0.1c0,0.1,0,0.1-0.1,0.2
				c0,0,0,0-0.1,0c0,0-0.1,0-0.1,0l-0.4-0.2c0,0,0,0-0.1,0c0,0,0,0-0.1,0l-0.3,0.3c-0.2,0.2-0.3,0.5-0.5,0.7
				c-0.3,0.6-0.5,1.1-0.7,1.7c-0.1,0.2-0.1,0.5-0.2,0.7c0,0.1,0,0.2,0,0.2c0,0,0,0.1,0,0.1l0,0c0,0,0.1,0,0.1,0
				c0.4-0.4,0.7-0.8,1-1.3c0.5-0.7,0.9-1.3,1.4-2c0.3-0.4,0.7-0.9,1-1.4l0.4-0.6c0.1-0.1,0.1-0.1,0.1-0.1c0,0,0.1,0,0.2,0
				c0.1,0,0.2,0,0.3,0.1c0.1,0.1,0.2,0.1,0.2,0.2c0,0,0,0.1,0,0.1l-0.3,0.7c-0.2,0.8-0.5,1.5-0.7,2.3c-0.1,0.3-0.2,0.7-0.2,1
				c0,0.2,0,0.4,0,0.7c0,0.2,0,0.3,0,0.5c0,0.2,0.1,0.3,0.1,0.4c0.1,0.1,0.2,0.1,0.3,0.1l0.1,0c0.1,0,0.2,0,0.2-0.1
				c0.1-0.2,0.3-0.3,0.5-0.5c0.4-0.5,0.8-0.9,1.2-1.5c0.3-0.4,0.6-0.9,0.9-1.3c0.1-0.1,0.1-0.3,0.2-0.4l0.2-0.1c0,0,0,0,0.1,0
				c0,0,0,0,0.1,0C78.9,91.6,78.8,91.7,78.9,91.6C78.9,91.6,78.9,91.6,78.9,91.6z M71.8,91.9L71.7,92c-0.3,0.5-0.6,1.2-0.8,1.8
				c-0.1,0.1-0.1,0.1-0.1,0.2c0,0,0,0.1,0,0.1c-0.1,0-0.1,0.1-0.1,0.1c0,0,0,0,0,0.1c0,0,0,0,0,0c0,0,0,0,0,0c0,0,0,0,0-0.1
				c0.1,0,0.1-0.1,0.1-0.2C71,94,71,94,71,93.9c0.2-0.6,0.4-1.1,0.7-1.6C71.8,92.1,71.8,92,71.8,91.9c0.1,0,0.1-0.1,0.2-0.2
				C71.9,91.7,71.8,91.8,71.8,91.9z M70.9,93.5C70.9,93.5,70.9,93.5,70.9,93.5C70.9,93.5,70.9,93.5,70.9,93.5z M71,93.2
				C71,93.1,71,93.1,71,93.2C71,93.1,71,93.1,71,93.2L71,93.2z M71.5,93.3C71.5,93.3,71.5,93.2,71.5,93.3L71.5,93.3z M71.6,93
				c0,0,0,0.1,0,0.1C71.6,93.1,71.6,93,71.6,93z M71.7,92.9L71.7,92.9C71.6,92.9,71.6,92.9,71.7,92.9C71.7,92.9,71.7,92.9,71.7,92.9
				z M71.8,92.7c-0.1,0-0.1,0.1-0.1,0.2C71.8,92.8,71.8,92.7,71.8,92.7z M71.9,92.5c-0.1,0-0.1,0.1,0,0.1
				C71.9,92.6,71.9,92.6,71.9,92.5z M72,92.2c-0.1,0.1-0.1,0.1-0.1,0.2l0,0.1C71.9,92.5,72,92.4,72,92.2z M72,92.2
				c0.1,0,0.1-0.1,0.1-0.1l0-0.1c0.1,0,0.1-0.1,0.1-0.2c-0.1,0-0.1,0.1-0.1,0.2C72,92.1,72,92.2,72,92.2z M72.1,91.5
				c0,0-0.1,0.1-0.1,0.2l0,0C72.1,91.6,72.1,91.6,72.1,91.5z M72.4,91.6c-0.1,0-0.1,0.1-0.1,0.2C72.4,91.7,72.4,91.7,72.4,91.6z
				 M77.8,93.3C77.8,93.3,77.8,93.3,77.8,93.3L77.8,93.3z M78.3,92.7C78.2,92.7,78.2,92.7,78.3,92.7C78.2,92.7,78.2,92.7,78.3,92.7
				L78.3,92.7z M78.5,92.2C78.5,92.2,78.6,92.2,78.5,92.2C78.5,92.2,78.5,92.2,78.5,92.2L78.5,92.2z M78.6,92.1
				C78.6,92.1,78.6,92.1,78.6,92.1C78.6,92.1,78.6,92.1,78.6,92.1L78.6,92.1z M78.8,91.7L78.8,91.7C78.8,91.8,78.8,91.8,78.8,91.7
				L78.8,91.7z"/>
			<path d="M79.3,90.7l0-0.1C79.2,90.6,79.2,90.7,79.3,90.7C79.2,90.7,79.2,90.7,79.3,90.7C79.2,90.7,79.2,90.7,79.3,90.7
				c0,0.1,0,0.1,0,0.2c-0.3,0.5-0.5,0.9-0.6,1.4c0,0.1-0.1,0.3-0.1,0.5c0.1,0,0.1-0.1,0.1-0.2c0.1-0.4,0.3-0.8,0.5-1.2
				c0.1-0.2,0.4-0.5,0.4-0.8c0.1-0.1,0.1-0.1,0.1-0.2c0-0.1,0-0.1,0-0.1c0.1,0,0.1,0.1,0.2,0.1l0,0c0,0,0,0,0,0c0,0,0,0,0,0
				c0.1,0,0.1,0,0.1,0c0,0.1,0,0.1-0.1,0.2c-0.1,0.3-0.2,0.6-0.4,0.9c-0.1,0.5-0.4,1-0.5,1.6c-0.1,0.4-0.2,0.7-0.2,1.1l0,0.3
				c0,0,0,0,0.1,0c0.1,0,0.2-0.1,0.2-0.1c0.3-0.3,0.6-0.5,0.9-0.9c0.3-0.4,0.6-0.7,1-1c0.3-0.3,0.5-0.6,0.8-0.9
				c0.4-0.4,0.7-0.8,1-1.1l0.1-0.2c0,0.1,0.1,0.1,0.1,0.2l0,0c0,0,0,0.1,0,0.1c0,0.2-0.2,0.4-0.4,0.7c-0.1,0-0.2,0.1-0.2,0.2l0,0
				c-0.3,0.3-0.5,0.5-0.7,0.8c-0.4,0.5-0.8,0.9-1.2,1.3c-0.1,0.2-0.3,0.4-0.5,0.6c-0.1,0.1-0.2,0.2-0.3,0.4l-0.4,0.3
				c-0.1,0-0.2,0.1-0.3,0.1c-0.1,0-0.2,0-0.2,0c-0.1,0-0.2,0-0.3-0.1c-0.1,0-0.2-0.1-0.3-0.1c-0.1-0.1-0.2-0.2-0.2-0.3
				c-0.1-0.2-0.2-0.4-0.2-0.6c0-0.5,0-0.9,0.2-1.4c0-0.3,0.1-0.6,0.2-0.9l0.4-0.8c0.1-0.2,0.3-0.4,0.5-0.6c0-0.1,0.2-0.1,0.2-0.1
				c0,0.1,0,0.1,0,0.1c0,0,0,0,0,0.1c0,0,0,0.1,0,0.1l0,0l0,0c0,0,0,0,0,0C79.4,90.6,79.4,90.7,79.3,90.7z M78.3,92.7
				C78.4,92.7,78.4,92.7,78.3,92.7C78.4,92.6,78.4,92.7,78.3,92.7L78.3,92.7z M78.4,92.5C78.4,92.5,78.4,92.5,78.4,92.5
				c0,0.1,0,0.1,0,0.1C78.4,92.6,78.4,92.6,78.4,92.5C78.4,92.5,78.4,92.5,78.4,92.5z M78.4,92.4C78.4,92.4,78.4,92.4,78.4,92.4
				C78.4,92.4,78.4,92.4,78.4,92.4z M78.5,92.8C78.5,92.8,78.5,92.8,78.5,92.8l0,0.1C78.5,92.9,78.5,92.9,78.5,92.8L78.5,92.8z
				 M78.5,92.2c0,0-0.1,0,0,0.1C78.5,92.4,78.5,92.3,78.5,92.2z M78.5,92.1C78.5,92.2,78.5,92.2,78.5,92.1l0,0.1
				C78.5,92.2,78.5,92.2,78.5,92.1C78.5,92.1,78.5,92.2,78.5,92.1z M78.7,91.7c-0.1,0.1-0.2,0.3-0.2,0.5
				C78.6,92,78.7,91.9,78.7,91.7z M78.8,91.6C78.7,91.6,78.7,91.6,78.8,91.6C78.8,91.6,78.8,91.6,78.8,91.6z M78.8,91.5L78.8,91.5
				C78.8,91.6,78.8,91.6,78.8,91.5C78.8,91.5,78.8,91.5,78.8,91.5z M79,91c-0.1,0.1-0.2,0.3-0.3,0.5C79,91.3,79,91.2,79,91z
				 M79.1,90.9c0,0-0.1,0-0.1,0.1C79.1,91,79.1,90.9,79.1,90.9z M79.2,90.8C79.1,90.8,79.1,90.8,79.2,90.8c-0.1,0.1,0,0.1,0,0.1
				C79.2,90.9,79.2,90.8,79.2,90.8z M79.8,94.5C79.8,94.5,79.7,94.5,79.8,94.5c0,0,0,0.1,0,0.1C79.7,94.5,79.8,94.5,79.8,94.5
				C79.7,94.5,79.8,94.5,79.8,94.5z M79.4,90.4c-0.1,0-0.1,0.1-0.1,0.2C79.3,90.5,79.4,90.5,79.4,90.4
				C79.4,90.5,79.4,90.5,79.4,90.4z M80,94.3c-0.1,0-0.1,0.1-0.2,0.2C79.9,94.4,79.9,94.4,80,94.3z M79.5,90.3
				C79.5,90.3,79.5,90.3,79.5,90.3C79.5,90.4,79.5,90.4,79.5,90.3C79.5,90.4,79.5,90.4,79.5,90.3C79.5,90.3,79.6,90.3,79.5,90.3
				L79.5,90.3L79.5,90.3C79.6,90.3,79.5,90.3,79.5,90.3z M80.1,94c-0.1,0-0.1,0.1-0.1,0.2C80.1,94.1,80.2,94.1,80.1,94L80.1,94z
				 M80.1,93.8C80.1,93.8,80.1,93.8,80.1,93.8L80.1,93.8C80.2,93.8,80.2,93.8,80.1,93.8C80.2,93.8,80.1,93.8,80.1,93.8z M80.2,93.9
				C80.2,94,80.2,94,80.2,93.9L80.2,93.9C80.2,94,80.2,94,80.2,93.9z M80.3,93.8c-0.1,0-0.1,0.1-0.1,0.1
				C80.3,93.9,80.3,93.9,80.3,93.8z M80.2,93.7c0,0,0.1-0.1,0.1-0.1c0,0,0,0,0,0C80.2,93.6,80.2,93.6,80.2,93.7z M80.3,93.5
				C80.3,93.5,80.4,93.5,80.3,93.5C80.4,93.5,80.4,93.5,80.3,93.5L80.3,93.5L80.3,93.5z M80.5,93.6l-0.1,0.2
				C80.4,93.7,80.5,93.6,80.5,93.6z M80.8,88.6c-0.1,0.1-0.1,0.1-0.2,0.2c0,0-0.1,0.1,0,0.1c0,0,0,0.1,0,0.1
				c-0.1,0.1-0.1,0.1-0.1,0.2c-0.1,0-0.1,0-0.1,0c0,0,0-0.1-0.1-0.1l0-0.1c0,0-0.1,0-0.2-0.1c0-0.1-0.1,0-0.2-0.1
				c-0.1,0-0.1,0-0.1-0.1c0.1-0.2,0.1-0.4,0.3-0.6c0,0,0.1,0,0.1-0.1c0,0,0.1,0,0.1,0c0.1,0,0.2,0,0.3,0.1c0.1,0,0.2,0.1,0.2,0.2
				C80.8,88.5,80.8,88.6,80.8,88.6z M80.5,93.5L80.5,93.5L80.5,93.5C80.5,93.5,80.5,93.5,80.5,93.5z M80.7,93.3
				c-0.1,0-0.1,0.1-0.1,0.1C80.6,93.5,80.7,93.4,80.7,93.3z M80.5,93.3C80.5,93.3,80.6,93.3,80.5,93.3L80.5,93.3L80.5,93.3
				C80.6,93.3,80.5,93.3,80.5,93.3z M80.6,93.2C80.6,93.2,80.6,93.2,80.6,93.2L80.6,93.2C80.7,93.1,80.6,93.2,80.6,93.2z M80.8,93.3
				L80.8,93.3C80.7,93.3,80.7,93.3,80.8,93.3L80.8,93.3C80.7,93.3,80.7,93.3,80.8,93.3z M80.7,93.1C80.7,93.1,80.8,93.1,80.7,93.1
				c0.1,0,0.1-0.1,0.1-0.1C80.8,93,80.8,93,80.7,93.1C80.7,93.1,80.7,93.1,80.7,93.1L80.7,93.1z M80.9,93.1c-0.1,0-0.1,0.1-0.1,0.2
				C80.8,93.3,80.9,93.2,80.9,93.1z M80.2,88.5L80.2,88.5C80.2,88.4,80.2,88.4,80.2,88.5C80.2,88.4,80.2,88.4,80.2,88.5L80.2,88.5z
				 M80.8,93c0.1,0,0.1-0.1,0.2-0.2C80.9,92.9,80.8,92.9,80.8,93z M80.4,88.4L80.4,88.4L80.4,88.4L80.4,88.4l-0.1,0
				c-0.1,0-0.1,0-0.1,0.1l0.1,0c-0.1,0-0.1,0.1-0.1,0.1c0,0,0,0,0,0.1C80.4,88.5,80.4,88.4,80.4,88.4z M81,93C81,93.1,81,93.1,81,93
				c0,0.1-0.1,0.1-0.1,0.1c0,0,0,0,0,0C81,93.1,81,93.1,81,93L81,93z M81.1,92.9C81.1,92.9,81.1,92.9,81.1,92.9
				C81.1,92.9,81.1,92.9,81.1,92.9z M81.3,92.6L81.3,92.6C81.3,92.6,81.3,92.6,81.3,92.6C81.3,92.6,81.3,92.6,81.3,92.6L81.3,92.6z
				 M81.5,92.3C81.5,92.2,81.6,92.2,81.5,92.3L81.5,92.3L81.5,92.3L81.5,92.3z M81.8,91.9c-0.1,0-0.1,0.1-0.1,0.1l-0.1,0.1
				C81.7,92,81.8,92,81.8,91.9z M81.8,92.2C81.7,92.2,81.8,92.2,81.8,92.2c-0.1,0.1-0.1,0.1-0.1,0.1C81.7,92.3,81.7,92.2,81.8,92.2
				L81.8,92.2z M81.8,92.1C81.8,92.1,81.8,92.1,81.8,92.1L81.8,92.1z M81.9,92C81.9,91.9,81.9,91.9,81.9,92
				C81.9,91.9,81.9,91.9,81.9,92z M81.9,91.8L81.9,91.8C81.9,91.8,81.9,91.8,81.9,91.8z M82.1,91.8c-0.1,0-0.1,0.1-0.2,0.2
				C82.1,91.9,82.1,91.8,82.1,91.8z M82,91.6L82,91.6l0,0.1C82,91.7,82,91.7,82,91.6C82,91.7,82,91.7,82,91.6z M82.4,91.3
				c-0.1,0-0.1,0.1-0.2,0.2C82.3,91.5,82.3,91.4,82.4,91.3z M82.6,91.3c-0.1,0-0.1,0.1-0.1,0.1C82.6,91.4,82.6,91.3,82.6,91.3
				L82.6,91.3z M82.6,91c-0.1,0-0.1,0.1-0.1,0.1c-0.1,0-0.1,0-0.1,0C82.5,91.2,82.6,91.1,82.6,91z M82.8,90.8
				c-0.1,0-0.1,0.1-0.1,0.2C82.7,90.9,82.8,90.9,82.8,90.8z M82.8,91C82.7,91.1,82.7,91.1,82.8,91L82.8,91z M82.9,90.9
				C82.8,90.9,82.8,91,82.9,90.9C82.8,91,82.8,90.9,82.9,90.9L82.9,90.9z M83,90.6c-0.1,0-0.1,0.1-0.1,0.1l0,0.1
				C82.9,90.7,83,90.6,83,90.6z"/>
			<path d="M83.4,91.2c0,0.1-0.1,0.1-0.1,0.2c0,0,0,0.1,0,0.1c0,0.1,0,0.2,0.1,0.3c0.1,0.1,0.1,0.2,0.2,0.3c0.2,0.2,0.2,0.3,0.5,0.4
				c0.3,0.3,0.5,0.6,0.7,1c0,0,0,0.1,0,0.1c0,0.1,0,0.1,0.1,0.1c0,0,0.1,0,0.1,0c0-0.1,0.2-0.1,0.2-0.2c0.4-0.4,0.8-0.6,1.3-0.9
				c0.3-0.3,0.7-0.5,1.1-0.7c0.1,0,0.1,0,0.2,0c0.1,0,0.2,0,0.3,0.1c0,0,0,0.1,0,0.1c0,0-0.1,0.1-0.1,0.1c-0.1,0-0.1,0.1-0.2,0.1
				c-0.4,0.2-0.9,0.6-1.2,0.9c-0.5,0.4-0.9,0.6-1.4,1c0,0,0,0,0,0l0,0c0,0,0,0-0.1,0.1c-0.1,0.1-0.3,0.1-0.4,0.3c0,0.1,0,0.1,0,0.2
				l0,0.2c-0.1,0.2-0.2,0.5-0.4,0.8c-0.2,0.3-0.5,0.6-0.9,0.9c0,0.1-0.1,0.1-0.2,0.1c0,0-0.1,0-0.1,0c-0.2,0.1-0.3,0.1-0.4,0.1
				c-0.4,0-0.6-0.1-0.7-0.4c0.1-0.3,0.3-0.6,0.4-0.8c0.2-0.2,0.8-0.5,1-0.7c0.1-0.2,0.3-0.2,0.4-0.4c0-0.1,0-0.2,0-0.3
				c0-0.6-0.1-1-0.6-1.3c-0.3-0.2-0.4-0.3-0.6-0.5c-0.1-0.1-0.1-0.2-0.2-0.3c-0.1-0.1-0.1-0.2-0.1-0.4c0,0,0-0.1,0-0.2
				c0,0,0-0.1,0-0.1l0.1-0.2c0.1-0.1,0.1-0.3,0.1-0.4c0.3-0.5,0.6-0.9,1-1.3c0.5-0.5,1-0.8,1.7-1l0.5-0.1c0.4,0,1.3,0.2,1.3,0.7
				c0,0,0,0,0,0.1c0,0.3-0.2,0.8-0.3,0.9c-0.1,0.2-0.4,0.3-0.6,0.3c-0.1,0-0.1,0-0.1,0c0,0,0.1-0.1,0-0.1c0,0,0,0,0,0c0,0,0,0,0,0
				c0,0,0,0,0-0.1c0-0.2,0.1-0.3,0.2-0.6l0,0c0,0,0,0,0,0c0,0-0.1,0-0.1,0c0-0.2-0.3-0.3-0.5-0.3c-0.4,0.1-0.9,0.4-1.3,1
				C83.8,90.2,83.6,90.7,83.4,91.2z M82.7,95.5c0.1,0,0.3,0,0.4-0.1C83,95.5,82.9,95.5,82.7,95.5l-0.2,0l0,0L82.7,95.5z M82.8,90.4
				C82.8,90.4,82.8,90.4,82.8,90.4L82.8,90.4z M83.8,95.4C83.8,95.4,83.7,95.4,83.8,95.4c-0.1,0-0.1,0-0.1,0
				c-0.1,0.1-0.1,0.1-0.1,0.2l0,0l0,0c0,0,0,0,0,0c0,0,0.1-0.1,0.1-0.1C83.6,95.5,83.6,95.5,83.8,95.4z M83.3,90
				c-0.1,0.2-0.3,0.3-0.4,0.5l0,0.2c0.2-0.3,0.4-0.5,0.5-0.8C83.4,89.9,83.4,89.9,83.3,90z M83.5,90.3c0,0,0.1-0.2,0.2-0.3
				C83.5,90.1,83.5,90.2,83.5,90.3C83.4,90.3,83.5,90.3,83.5,90.3z M83.6,90L83.6,90C83.7,90,83.7,90,83.6,90
				C83.7,90,83.6,90,83.6,90C83.6,90,83.6,90,83.6,90z"/>
			<path d="M94.1,84.5C94.1,84.6,94.1,84.6,94.1,84.5c-0.2,0.2-1.7,0.7-1.9,0.7l-1.6,0.6c-0.1,0-0.2,0-0.3,0.1
				c-0.1,0-0.2,0.1-0.2,0.2c0,0.1-0.1,0.2-0.1,0.3c-0.1,0.3-0.3,1.3-0.4,1.6l-0.3,1c0,0,0,0.1,0,0.1c-0.1,0.4-0.2,0.7-0.3,1.1
				c-0.1,0.3-0.1,0.6-0.2,0.9c-0.1,0.5-0.4,1.7-0.4,2.2c0,0.1,0,0.1,0,0.2c0,0.1,0,0.2,0,0.3c-0.1,0-0.1,0.1-0.1,0.1c0,0,0,0,0,0
				c0,0.2,0,0.4-0.1,0.7c-0.1,0.2-0.2,0.5-0.2,0.7c0,0,0,0,0,0c0,0.1,0,0.1-0.1,0.2c-0.1,0-0.3,1.4-0.3,1.4c-0.1,0-0.1,0-0.2-0.1
				c0,0,0,0,0-0.1c-0.1,0-0.1-0.1-0.2-0.1c-0.1,0-0.1-0.2,0-0.3c0-0.4,0.1-1.1,0-1.3c0,0,0,0,0,0c0-0.2,0-0.4,0.1-0.6
				c0-0.1,0-0.2,0-0.2c0-0.1,0-0.1,0-0.2l0.2-1c0-0.1,0-0.2,0-0.2c0.1-0.5,0.3-1.5,0.4-1.9l0.1-0.5l0,0l0.1-0.9c0,0,0,0,0,0s0,0,0,0
				l0,0c0.1-0.2,0.2-0.5,0.2-0.7c0,0,0,0,0-0.1c0-0.1,0.1-0.2,0.1-0.3c0-0.1,0-0.1,0.1-0.2c0-0.1,0.1-0.3,0.1-0.4
				c0-0.1,0.2-0.9,0.2-1c0,0,0,0,0,0c0-0.1,0-0.1-0.1-0.1l0,0l-1.4,0.4c0,0-0.1,0-0.1,0c-0.1,0-0.2,0-0.3-0.1c0,0,0-0.1-0.1-0.1
				c0,0,0,0,0,0c0,0,0-0.1,0-0.1c0,0,0.1-0.1,0.1-0.1c0.1-0.1,0.4-0.2,0.6-0.3c0.4-0.2,1.5-0.4,1.6-0.8c0.2-0.6,0.3-1.1,0.6-1.7
				c0.1-0.3,0.3-0.6,0.4-0.8c0-0.1,0.2-0.2,0.3-0.3c0.1-0.1,0.1-0.1,0.2-0.1c0,0,0,0,0,0c0.1,0,0.1,0,0.2,0c0,0,0,0-0.1,0.1
				c0,0,0,0,0.1,0l0,0l0.1,0c0,0,0,0,0,0l0,0c0,0,0,0,0,0c-0.1,0.1-0.1,0.1-0.2,0.2c0,0,0.1,0,0.1-0.1c0.1,0,0.1-0.1,0.1-0.1
				c0,0,0.1,0,0.1,0c0,0,0,0,0,0.1c0,0,0,0.1,0.1,0.1c0.1,0,0.1,0,0.1,0c0,0,0,0,0,0.1c0,0.1-0.1,0.2-0.1,0.4l-0.5,1.4
				c-0.1,0.3-0.1,0.4-0.2,0.6l0,0.1c0,0,0,0.1,0.1,0.1c0,0,0,0,0.1,0c0.1,0,0.2,0,0.3-0.1c0.4-0.1,1.1-0.4,3.1-0.8
				C94,84.5,94.1,84.5,94.1,84.5C94.1,84.5,94.1,84.5,94.1,84.5z"/>
			<path d="M96.2,89.8c0,0.9-1.1,1.7-1.1,1.8c0,0,0,0,0.1,0l0,0c-0.3,0.4-0.8,0.9-1.1,1.3c-0.4,0.4-0.9,0.8-1.5,1
				c-0.2,0.1-0.4,0.1-0.6,0.2c-0.3,0-0.6,0-0.8-0.1c-0.3-0.2-0.6-0.3-0.8-0.6c-0.1-0.1-0.1-0.3-0.2-0.4c0-0.1,0-0.2,0-0.3
				c0-0.1,0-0.2,0-0.3l0-0.5c0.1-0.3,0.1-0.5,0.2-0.7l0-0.1c0,0,0.1,0,0.1-0.1c0,0,0-0.1,0-0.1c0,0,0,0,0,0l0.1-0.1
				c0.1,0,0.1-0.1,0.2-0.2c0.1-0.3,0.2-0.5,0.4-0.8c0.2-0.3,0.4-0.6,0.7-0.9c0.2-0.2,0.4-0.4,0.6-0.6c0.1-0.1,0.2-0.2,0.4-0.2
				c0.1,0,0.3-0.1,0.3-0.1c0.3,0,0.5,0,0.8,0.1c0.3,0.1,0.4,0.3,0.4,0.6c0,0,0,0,0,0.1c0,0.2-0.1,0.4-0.2,0.6
				c-0.2,0.3-0.4,0.7-0.7,0.9c-0.4,0.3-0.8,0.6-1.2,0.7L91.8,91c-0.1,0-0.2,0.1-0.2,0.2l-0.2,1.6c0,0,0,0.1,0,0.1
				c0,0.1,0,0.3,0.1,0.4c0,0.1,0.1,0.2,0.3,0.1l0.2,0c0.4-0.1,0.8-0.3,1.2-0.6c0.3-0.3,0.7-0.6,1-0.9c0.2-0.2,0.6-0.5,0.8-0.7
				c0.3-0.3,0.5-0.6,0.8-1c0.1-0.2,0.3-0.5,0.4-0.7C96.2,89.6,96.2,89.7,96.2,89.8z M91.1,90.2C91.1,90.2,91.1,90.2,91.1,90.2
				C91.1,90.2,91.1,90.2,91.1,90.2L91.1,90.2z M91.3,89.9c-0.1,0.1-0.1,0.2-0.1,0.3C91.2,90.1,91.3,90,91.3,89.9z M92.4,88.7
				L92.4,88.7L92.4,88.7c-0.1,0-0.2,0.1-0.3,0.2c-0.3,0.3-0.5,0.7-0.7,1.1c-0.1,0.1-0.1,0.3-0.2,0.4l0.1-0.2c0-0.1,0.1-0.2,0.2-0.2
				C91.7,89.5,92,89.1,92.4,88.7z M91.3,89.9c0.1,0,0.1-0.1,0.1-0.1C91.3,89.8,91.3,89.8,91.3,89.9z M91.4,89.8
				c0.1-0.1,0.2-0.2,0.2-0.4c0,0,0.1-0.1,0-0.1c-0.1,0-0.1,0.1-0.1,0.1C91.4,89.5,91.4,89.6,91.4,89.8z M91.6,89.3
				c0.1,0,0.1-0.1,0.1-0.2C91.7,89.2,91.7,89.2,91.6,89.3z M91.9,89c-0.1,0-0.1,0.1-0.1,0.1L91.9,89z M92,89.7
				C92,89.6,92,89.6,92,89.7C92,89.6,92,89.6,92,89.7L92,89.7z M93.2,88.6C93,88.7,93,88.8,92.8,89c-0.3,0.4-0.5,0.7-0.7,1.1
				c0,0,0,0,0,0.1l0,0c0,0,0,0,0.1,0c0.1-0.1,0.2-0.1,0.3-0.2c0.3-0.3,0.6-0.6,0.8-0.9c0.1-0.2,0.2-0.3,0.2-0.5l0,0c0,0,0-0.1-0.1,0
				L93.2,88.6L93.2,88.6z M91.9,89c0,0,0-0.1,0-0.1L91.9,89z M92.1,89.5c0,0-0.1,0-0.1,0.1C92.1,89.6,92.1,89.5,92.1,89.5z
				 M92.7,88.7C92.7,88.7,92.7,88.7,92.7,88.7c-0.3,0.3-0.5,0.5-0.6,0.8c0,0,0.1,0,0.1-0.1C92.4,89.2,92.6,88.9,92.7,88.7L92.7,88.7
				z M93.4,89.3c0,0,0,0.1,0,0.1L93.4,89.3c0,0.2,0,0.2-0.1,0.3c0,0-0.1,0.1-0.1,0.1l0,0c0,0,0,0,0,0c0,0,0.1-0.1,0.1-0.1
				c0.1-0.1,0.2-0.2,0.2-0.3c0.1-0.1,0.1-0.1,0.1-0.2c-0.1,0,0,0.1-0.1,0.1C93.5,89.2,93.5,89.2,93.4,89.3
				C93.5,89.2,93.5,89.2,93.4,89.3C93.5,89.2,93.5,89.2,93.4,89.3C93.5,89.2,93.4,89.2,93.4,89.3z M93.4,89.8
				C93.4,89.8,93.4,89.8,93.4,89.8C93.4,89.8,93.4,89.8,93.4,89.8z M93.5,89.7c0.1-0.1,0.2-0.2,0.2-0.3
				C93.6,89.5,93.5,89.6,93.5,89.7z M93.7,89.4C93.7,89.4,93.7,89.4,93.7,89.4C93.7,89.4,93.7,89.4,93.7,89.4
				C93.7,89.4,93.7,89.4,93.7,89.4z M94.3,92.1c0,0,0.1-0.1,0.2-0.1L94.3,92.1L94.3,92.1L94.3,92.1z M94.6,92.1L94.6,92.1
				C94.5,92.2,94.6,92.1,94.6,92.1C94.6,92.1,94.6,92.1,94.6,92.1z M94.7,91.8c0,0,0,0.1,0,0.1L94.7,91.8z M94.8,91.9
				c0,0-0.1,0-0.1,0.1C94.8,92,94.8,92,94.8,91.9z M94.9,91.8c0,0-0.1,0-0.1,0.1C94.8,91.9,94.8,91.9,94.9,91.8z M95,91.5
				c-0.1,0.1-0.2,0.1-0.2,0.2C94.9,91.7,94.9,91.6,95,91.5z M95,91.6c-0.1,0-0.1,0.1-0.2,0.2C94.9,91.8,95,91.7,95,91.6z M95.1,91.3
				C95,91.3,95,91.4,95,91.5C95,91.5,95.1,91.4,95.1,91.3z M95.1,91.5c0,0,0,0,0,0.1L95.1,91.5z M95.3,91.1c-0.1,0-0.1,0.1-0.1,0.2
				C95.2,91.3,95.3,91.2,95.3,91.1z M95.5,90.8c-0.1,0.1-0.2,0.2-0.3,0.3C95.4,91.1,95.5,90.9,95.5,90.8z M95.4,91.1
				c0,0-0.1,0.1-0.1,0.1L95.4,91.1z M95.4,91.1c0,0,0.1-0.1,0.1-0.1L95.4,91.1z M95.5,90.8c0,0,0-0.1,0-0.1l0,0L95.5,90.8L95.5,90.8
				z M95.6,90.7c0.1,0,0.1-0.1,0.1-0.1l-0.1,0L95.6,90.7z M95.7,90.5L95.7,90.5c0.1-0.1,0.2-0.1,0.2-0.3
				C95.8,90.3,95.7,90.4,95.7,90.5z M96,90.2C96,90.2,95.9,90.2,96,90.2L96,90.2L96,90.2L96,90.2c0,0,0,0-0.1,0.1
				C96,90.2,96,90.2,96,90.2z"/>
			<path d="M95.3,91.4c0-0.4,0.1-0.7,0.2-1.1c0.1-0.4,0.3-0.7,0.5-1.1c0.2-0.3,0.4-0.5,0.6-0.8c0.2-0.3,0.6-0.5,1-0.5
				c0.1,0,0.2,0,0.3,0c0.3,0,0.5,0.1,0.7,0.3c0,0,0.1,0.1,0.1,0c0,0,0,0,0.1,0c0.2-0.2,0.3-0.5,0.5-0.7c0.2-0.4,0.4-0.7,0.7-1l0.6-1
				l0.8-1.2c0.2-0.4,0.4-0.8,0.6-1.2c0.2-0.4,0.4-1,0.6-1.3l0.2-0.3l0.1-0.1c0,0,0.1,0,0.1,0c0,0,0,0,0.1,0l0.2,0.1c0,0,0.1,0,0.1,0
				c0,0,0.1,0,0.1,0c0,0,0,0.1,0,0.1c0.1,0,0.1,0.1,0.1,0.1c0,0,0,0.1,0,0.1l-0.2,0.5l-0.4,1.1l-0.1,0.4c0,0,0,0-0.1,0
				c-0.1,0.5-0.3,1-0.4,1.5c0,0.1,0,0.2,0,0.2c-0.2,0.5-0.3,1-0.4,1.5l-0.3,1c-0.1,0.6-0.2,1.3-0.4,1.9c-0.2,0.6-0.3,1.3-0.4,1.9
				c0,0.4-0.1,0.8-0.2,1.1c0,0.3,0,0.6-0.1,0.9c0,0.2,0,0.5,0,0.8c0,0.1,0,0.2,0.1,0.3c0,0,0.1,0.1,0.1,0.1c0,0.1,0,0.1-0.1,0.2
				c-0.1,0-0.1,0.1-0.2,0.1c0,0-0.1,0-0.1,0c-0.3-0.2-0.5-0.5-0.6-0.9l0-0.2c0-0.2,0-0.4,0-0.5c0-0.2,0-0.4,0-0.6l0.1-1.2
				c0-0.4,0.1-0.8,0.2-1.2c0-0.3,0.1-0.5,0.1-0.8L100,89l0.2-1.1c0.1-0.3,0.2-0.7,0.2-1l0.1-0.3c0-0.1,0.1-0.2,0.1-0.4l0-0.1
				c0,0,0,0,0-0.1c0,0-0.1,0-0.1,0c-0.2,0.3-0.4,0.6-0.5,0.9c-0.3,0.4-0.5,0.9-0.8,1.3c-0.3,0.5-0.6,1-0.9,1.5
				c-0.3,0.6-0.7,1.1-1.1,1.7c-0.1,0.2-0.3,0.3-0.4,0.4c-0.1,0.1-0.2,0.1-0.3,0.2c-0.1,0-0.2,0.1-0.2,0.1c-0.1,0-0.3,0-0.5-0.1
				L95.5,92c-0.2-0.1-0.2-0.2-0.2-0.4L95.3,91.4z M95.6,90.7C95.6,90.7,95.6,90.7,95.6,90.7c0,0.1,0,0.1,0,0.1L95.6,90.7L95.6,90.7z
				 M95.7,90.6c0,0,0-0.1,0-0.1C95.6,90.5,95.6,90.6,95.7,90.6C95.6,90.6,95.6,90.7,95.7,90.6C95.6,90.7,95.6,90.7,95.7,90.6z
				 M96.7,88.8c-0.1,0.1-0.1,0.1-0.2,0.2c-0.2,0.4-0.4,0.7-0.6,1.1c-0.1,0.3-0.2,0.5-0.3,0.8l0,0.1l0,0l0.1-0.1
				c0.2-0.7,0.5-1.3,0.8-1.9L96.7,88.8z M95.6,90.5c0.1,0,0.1-0.1,0.1-0.2C95.6,90.4,95.6,90.5,95.6,90.5z M95.8,90.2
				c0,0-0.1,0.1-0.1,0.2c0,0,0,0,0,0C95.8,90.3,95.8,90.2,95.8,90.2z M95.9,90C95.9,90,95.9,89.9,95.9,90c-0.1,0-0.1,0.1-0.1,0.2
				C95.9,90.1,95.9,90,95.9,90z M95.9,89.8C95.9,89.9,95.9,89.9,95.9,89.8C95.9,89.9,95.9,89.9,95.9,89.8z M96.1,89.6
				c-0.1,0.1-0.2,0.2-0.1,0.3C96,89.8,96,89.7,96.1,89.6z M96.2,91.5C96.2,91.5,96.2,91.5,96.2,91.5L96.2,91.5
				c0.1,0,0.2-0.1,0.2-0.1c0.3-0.3,0.5-0.6,0.8-1c0.2-0.4,0.5-0.7,0.7-1.1c0.2-0.2,0.3-0.4,0.4-0.6c0,0,0,0,0-0.1c0,0,0,0,0-0.1
				l-0.2-0.2c-0.1-0.1-0.1-0.1-0.2-0.1c0,0-0.1,0-0.1,0c-0.1,0-0.2,0.1-0.2,0.1c-0.2,0.1-0.3,0.3-0.4,0.5c-0.2,0.4-0.4,0.7-0.6,1.1
				c-0.2,0.4-0.3,0.8-0.4,1.2C96.2,91.3,96.2,91.4,96.2,91.5C96.2,91.5,96.2,91.5,96.2,91.5z M96.1,90.5L96.1,90.5
				C96.1,90.5,96.1,90.5,96.1,90.5C96.1,90.5,96.1,90.5,96.1,90.5z M96.2,90.3c-0.1,0-0.1,0.1-0.1,0.1
				C96.2,90.4,96.2,90.4,96.2,90.3z M96.1,89.5C96.1,89.5,96.1,89.6,96.1,89.5C96.1,89.6,96.1,89.6,96.1,89.5z M96.3,90.2
				c0.2-0.4,0.4-0.8,0.6-1.2c0,0,0.1-0.1,0.1-0.2c-0.1,0-0.1,0.1-0.2,0.2C96.5,89.4,96.4,89.8,96.3,90.2c0,0-0.1,0,0,0.1L96.3,90.2z
				 M96.2,89.3C96.2,89.4,96.2,89.4,96.2,89.3C96.2,89.4,96.2,89.4,96.2,89.3z M97.3,90.8c0,0,0.1-0.1,0-0.1
				C97.3,90.7,97.3,90.8,97.3,90.8z M97.4,90.9c0.1,0,0.1-0.1,0.1-0.1C97.4,90.8,97.4,90.9,97.4,90.9z M97.5,90.6
				C97.5,90.6,97.5,90.6,97.5,90.6C97.4,90.5,97.5,90.6,97.5,90.6z M97.5,90.5c0.1,0,0.1-0.1,0.1-0.2C97.5,90.4,97.5,90.5,97.5,90.5
				z M97.6,90.8c0.1,0,0.1-0.1,0.1-0.2C97.6,90.7,97.6,90.7,97.6,90.8z M97.6,90.3C97.7,90.3,97.7,90.3,97.6,90.3
				C97.6,90.2,97.6,90.3,97.6,90.3z M97.7,90.6c0.1,0,0.1-0.1,0.1-0.1C97.7,90.5,97.7,90.6,97.7,90.6z M97.7,90.2
				c0,0,0.1-0.1,0.1-0.1C97.7,90.1,97.7,90.1,97.7,90.2z M97.8,90.3c0,0-0.1,0.1-0.1,0.1c0,0,0,0,0,0C97.8,90.5,97.8,90.4,97.8,90.3
				z M97.8,90c0.1,0,0.1-0.1,0.1-0.1C97.8,90,97.8,90,97.8,90z M97.8,90.3c0,0,0.1-0.1,0.1-0.1C97.9,90.2,97.8,90.3,97.8,90.3z
				 M97.9,89.9c0.1,0,0.1-0.1,0.1-0.2C97.9,89.8,97.9,89.9,97.9,89.9z M97.9,90.2C98,90.1,98,90.1,97.9,90.2
				C97.9,90.1,97.9,90.1,97.9,90.2z M98,90.1c0.1,0,0.1-0.1,0.1-0.1C98,90,98,90,98,90.1z M98,89.8c0.1-0.1,0.1-0.1,0.2-0.2
				C98,89.6,98,89.7,98,89.8z M98.1,89.9c0.1,0,0.1-0.1,0.1-0.1C98.1,89.9,98.1,89.9,98.1,89.9z M98.1,89.5c0.1,0,0.1-0.1,0.1-0.2
				C98.2,89.4,98.1,89.5,98.1,89.5z M98.2,89.8C98.2,89.8,98.2,89.8,98.2,89.8C98.2,89.8,98.2,89.7,98.2,89.8
				C98.2,89.7,98.2,89.7,98.2,89.8z M98.2,89.7c0.1,0,0.1-0.1,0.1-0.1C98.3,89.6,98.2,89.7,98.2,89.7z M98.2,89.4
				c0.1-0.1,0.1-0.1,0.2-0.2C98.3,89.2,98.2,89.3,98.2,89.4z M98.3,89.5C98.3,89.5,98.3,89.5,98.3,89.5
				C98.4,89.5,98.4,89.5,98.3,89.5C98.4,89.5,98.3,89.5,98.3,89.5z M98.4,89.5c0,0,0-0.1,0.1-0.1C98.4,89.3,98.4,89.4,98.4,89.5z
				 M98.4,89C98.4,89,98.4,89.1,98.4,89c0,0.1,0,0.1,0,0.1C98.4,89.1,98.4,89.1,98.4,89z M98.4,89c0.1-0.1,0.2-0.1,0.2-0.2
				C98.5,88.8,98.5,88.9,98.4,89z M98.5,89.3c0.1,0,0.1-0.1,0.1-0.1C98.5,89.2,98.5,89.3,98.5,89.3z M98.6,89.2c0,0,0-0.1,0-0.1
				C98.6,89.1,98.6,89.2,98.6,89.2z M98.9,88.4c-0.1,0-0.1,0.1-0.1,0.1c-0.1,0.1-0.1,0.1-0.2,0.2c0.1-0.1,0.2-0.1,0.2-0.2
				C98.8,88.5,98.9,88.5,98.9,88.4z M98.6,89.1c0.1,0,0.1-0.1,0.1-0.2C98.6,89,98.6,89,98.6,89.1z M98.7,88.9
				C98.8,88.9,98.8,88.9,98.7,88.9C98.7,88.9,98.7,88.9,98.7,88.9z M98.8,88.9c0.1,0,0.1-0.1,0.1-0.2C98.8,88.7,98.8,88.8,98.8,88.9
				z M98.9,88.7C98.9,88.7,98.9,88.6,98.9,88.7C98.9,88.6,98.9,88.7,98.9,88.7z M98.9,88.4C98.9,88.4,98.9,88.4,98.9,88.4
				c0.1,0,0.1-0.1,0.1-0.2C98.9,88.2,98.9,88.3,98.9,88.4z M98.9,88.6c0.1,0,0.1-0.1,0.1-0.2C99,88.5,98.9,88.6,98.9,88.6z
				 M99.3,87.7c-0.1,0.1-0.1,0.2-0.2,0.2C99,88,99,88,99,88.1c0.1-0.1,0.1-0.1,0.2-0.2C99.3,87.9,99.3,87.8,99.3,87.7z M99,88.5
				C99.1,88.4,99.1,88.4,99,88.5C99,88.4,99,88.4,99,88.5z M99.1,88.4c0,0,0.1-0.1,0.1-0.1C99.1,88.2,99.1,88.3,99.1,88.4z
				 M99.2,88.2c0.1-0.1,0.1-0.2,0.1-0.3C99.2,88.1,99.2,88.1,99.2,88.2z M99.3,88C99.3,88,99.4,88,99.3,88
				C99.3,87.9,99.3,88,99.3,88z M99.3,87.7c0.1,0,0.1-0.1,0.1-0.2C99.3,87.5,99.3,87.6,99.3,87.7z M99.4,87.9c0.1,0,0.1-0.1,0.1-0.1
				C99.4,87.8,99.4,87.8,99.4,87.9z M99.4,87.5c0.1,0,0.1-0.1,0.1-0.1C99.4,87.4,99.4,87.5,99.4,87.5z M99.5,87.7
				C99.5,87.7,99.5,87.7,99.5,87.7C99.5,87.7,99.5,87.7,99.5,87.7C99.5,87.7,99.5,87.7,99.5,87.7C99.5,87.7,99.5,87.7,99.5,87.7z
				 M99.4,87.4c0.1,0,0.1-0.1,0.1-0.1C99.5,87.3,99.4,87.3,99.4,87.4z M99.5,87.7c0.1,0,0.1-0.1,0.1-0.1
				C99.5,87.5,99.5,87.6,99.5,87.7z M99.6,87.3c0.1,0,0.1-0.1,0.1-0.2C99.6,87.1,99.5,87.2,99.6,87.3z M99.6,87.5
				C99.6,87.5,99.6,87.4,99.6,87.5C99.6,87.4,99.6,87.4,99.6,87.5z M99.6,87.4c0.1,0,0.1-0.1,0.1-0.1C99.7,87.3,99.6,87.4,99.6,87.4
				z M99.7,87c0.1-0.1,0.1-0.2,0.1-0.3C99.7,86.9,99.7,86.9,99.7,87z M99.8,87.3C99.8,87.2,99.8,87.2,99.8,87.3
				C99.7,87.2,99.8,87.2,99.8,87.3z M99.8,87.1C99.9,87.1,99.9,87.1,99.8,87.1C99.8,87.1,99.8,87.1,99.8,87.1z M99.8,86.8
				c0.1,0,0.1-0.1,0.1-0.2C99.8,86.7,99.8,86.7,99.8,86.8z M99.9,87C99.9,87,99.9,87,99.9,87C100,87,100,86.9,99.9,87
				C99.9,86.9,99.9,87,99.9,87z M100,86.6C100,86.6,100,86.6,100,86.6C100,86.6,100,86.6,100,86.6z M100,86.9c0.1,0,0.1-0.1,0.1-0.1
				C100,86.8,100,86.8,100,86.9z M100,86.6c0.1,0,0.1-0.1,0.1-0.2C100,86.4,100,86.5,100,86.6z M100.1,86.8c0,0,0.1-0.1,0.1-0.1
				C100.1,86.6,100.1,86.7,100.1,86.8z M100.1,86.4c0.1-0.1,0.1-0.1,0.1-0.2C100.1,86.2,100.1,86.3,100.1,86.4z M100.1,86.6
				C100.2,86.6,100.2,86.6,100.1,86.6C100.1,86.6,100.1,86.6,100.1,86.6z M100.2,86.5c0.1,0,0.1-0.1,0.1-0.1
				C100.2,86.4,100.2,86.5,100.2,86.5z M100.2,86.2c0.1,0,0.1-0.1,0.1-0.2C100.2,86.1,100.2,86.1,100.2,86.2z M100.3,86.4
				c0,0,0-0.1,0-0.1C100.3,86.3,100.3,86.4,100.3,86.4z M100.3,86.3c0,0,0.1-0.1,0.1-0.2C100.4,86.2,100.3,86.2,100.3,86.3z
				 M100.3,86C100.3,86,100.4,86,100.3,86C100.3,86,100.3,86,100.3,86z M100.4,85.9c0.1,0,0.1-0.1,0.1-0.2
				C100.4,85.8,100.4,85.9,100.4,85.9z M100.4,86.1C100.5,86.1,100.5,86.1,100.4,86.1C100.4,86.1,100.4,86.1,100.4,86.1z
				 M100.5,86.1c0.1,0,0.1-0.1,0.1-0.1C100.5,85.9,100.5,86,100.5,86.1z M100.5,85.8c0.1,0,0.1-0.1,0.1-0.2
				C100.5,85.7,100.5,85.7,100.5,85.8z M100.6,85.9c0,0,0-0.1,0-0.1C100.6,85.8,100.6,85.9,100.6,85.9z M100.6,85.6
				C100.6,85.6,100.6,85.6,100.6,85.6C100.6,85.6,100.6,85.6,100.6,85.6C100.6,85.6,100.6,85.6,100.6,85.6
				C100.6,85.6,100.6,85.6,100.6,85.6z M100.6,85.5c0.1,0,0.1-0.1,0.1-0.2C100.6,85.4,100.6,85.5,100.6,85.5z M100.7,85.7
				C100.7,85.7,100.7,85.7,100.7,85.7C100.7,85.7,100.7,85.7,100.7,85.7z M100.7,85.7C100.7,85.7,100.8,85.7,100.7,85.7
				C100.8,85.6,100.7,85.6,100.7,85.7C100.7,85.6,100.7,85.7,100.7,85.7z M100.7,85.4C100.7,85.4,100.8,85.3,100.7,85.4
				C100.7,85.3,100.7,85.3,100.7,85.4z M100.8,85.3C100.8,85.2,100.8,85.2,100.8,85.3C100.8,85.2,100.8,85.2,100.8,85.3z
				 M100.9,85.2c0.1,0,0.1-0.1,0.1-0.2C100.9,85.1,100.9,85.1,100.9,85.2z M101,85C101,85,101,85,101,85C101,85,101,85,101,85
				C101,85,101,85,101,85z"/>
		</g>
	</g>
</g>
</svg>
