<?xml version="1.0" encoding="utf-8"?>
<!-- Generator: Adobe Illustrator 21.1.0, SVG Export Plug-In . SVG Version: 6.00 Build 0)  -->
<svg version="1.1" xmlns="http://www.w3.org/2000/svg" xmlns:xlink="http://www.w3.org/1999/xlink" x="0px" y="0px"
	 viewBox="0 0 199 223.9" style="enable-background:new 0 0 199 223.9;" xml:space="preserve">
<style type="text/css">
	.st0{display:none;}
	.st1{display:inline;}
	.st2{display:inline;fill:none;stroke:#000000;stroke-miterlimit:10;}
	.st3{fill:none;}
	.st4{font-family:'JustLovelySlantedWide';}
	.st5{font-size:20px;}
</style>
<g id="Layer_1">
</g>
<g id="BOTTOM_BODY" class="st0">
</g>
<g id="BRAZILLIAN_CUT">
	<g id="front">
	</g>
</g>
<g id="BIKINI_CUT">
	<g id="front_copy">
	</g>
</g>
<g id="FULL_PIECE">
	<g id="front_copy_2">
		<g class="st0">
			<g class="st1">
				<path d="M-50.7,59.2c1-3.5,9-12,11-17.5c-1.3-4.5-6.8-20.3-7.9-23.6c-10-6.4-6.7-11-5.4-13.4c3.1-3.5,7.5-23.9,7.5-23.9l5.9-2
					c0,0,1,27.9,6.4,32.4h13.6c5.5-4.5,6.4-32.4,6.4-32.4l5.9,2c0,0,4.4,20.4,7.5,23.9c1.3,2.4,5.6,7-4.4,13.4
					c-1.2,3.3-6.9,19.1-8.2,23.6c1.9,5.5,9.2,14.1,10.2,17.5C-2.3,73.4-50.7,73.4-50.7,59.2z"/>
			</g>
		</g>
	</g>
	<g>
		<g>
			<g>
				<g>
					<path d="M52.6,194.6c-4.3-6.2-8.1-12.9-10.9-20c-1.4-3.6-2.6-7.2-3.4-11c-0.8-3.8-1.3-7.6-1.4-11.5c-0.2-7.7,1.2-15.6,4.8-22.6
						c0.9-1.7,1.9-3.4,3-5c0.6-0.8,1.2-1.6,1.8-2.3c0.3-0.4,0.7-0.7,1-1.1l0.3-0.3l0.2-0.2l0.4-0.5c1.2-1.4,2.2-2.9,2.9-4.4
						c0.7-1.6,1-3.2,0.4-4.5l0-0.1l0-0.1c-2-6.4-4.1-12.8-6.2-19.2c-1.1-3.2-2.1-6.4-3.3-9.5c-0.6-1.6-1.2-3.1-1.8-4.7
						c-0.6-1.5-1.3-3.1-2.2-4.5l0.1-0.1c1,1.4,1.7,2.9,2.4,4.5c0.7,1.5,1.3,3.1,2,4.6c1.3,3.1,2.4,6.3,3.6,9.4
						c2.3,6.3,4.5,12.7,6.6,19.1l0,0c0.5,0.9,0.6,1.9,0.5,2.8c-0.1,1-0.4,1.9-0.7,2.8c-0.8,1.8-1.9,3.3-3.1,4.8
						c-2.7,2.7-4.8,5.8-6.5,9.2c-3.4,6.8-4.9,14.4-4.7,21.9c0.1,7.6,1.8,15,4.4,22.1c2.6,7.1,6.1,13.9,10.1,20.3L52.6,194.6z"/>
				</g>
				<g class="st0">
					<path class="st1" d="M84.2,121.7c1.3,1.1,2.4,2.3,3.4,3.6c1,1.3,2,2.7,2.8,4.1c1.7,2.9,2.9,6,3.9,9.2c1,3.2,1.4,6.5,1.7,9.9
						c0.2,3.3,0.1,6.7-0.3,10c-0.5,3.3-1.1,6.6-2.1,9.8c-0.2,0.8-0.4,1.6-0.7,2.4L92,173c-0.5,1.6-1.2,3.1-1.9,4.6
						c-0.7,1.5-1.4,3-2.1,4.5c-0.8,1.4-1.5,2.9-2.4,4.3l-2.6,4.2c-0.9,1.4-1.9,2.7-2.8,4l-0.1-0.1c3.4-5.5,6.6-11.3,9-17.4
						c2.4-6.1,4.3-12.4,5.1-18.9c0.9-6.5,0.6-13.1-1-19.4c-0.8-3.2-1.9-6.2-3.4-9.1c-0.7-1.5-1.6-2.9-2.5-4.2
						c-0.9-1.3-1.9-2.6-3.1-3.8L84.2,121.7z"/>
				</g>
				<g>
					<path d="M61.5,160.1c1.6,2.4,2.2,5.3,2.8,8c0.5,2.8,0.7,5.6,0.9,8.4c0,2.8,0,5.6-0.2,8.4c-0.1,1.4-0.2,2.8-0.4,4.2
						c-0.2,1.4-0.4,2.8-0.6,4.2l-0.1,0c0.2-2.8,0.3-5.6,0.3-8.4c0.1-2.8,0-5.6,0-8.4c-0.1-2.8-0.3-5.6-0.6-8.4
						c-0.2-1.4-0.4-2.8-0.7-4.1C62.5,162.8,62.1,161.4,61.5,160.1L61.5,160.1z"/>
				</g>
				<g>
					<path d="M71.4,160.2c-0.5,1.3-0.8,2.7-1,4c-0.2,1.4-0.4,2.7-0.5,4.1c-0.2,2.8-0.4,5.5-0.5,8.3c-0.1,1.4-0.1,2.8-0.1,4.2
						c0,1.4,0,2.8-0.1,4.2c-0.1,2.8-0.1,5.6-0.3,8.4l-0.1,0c-0.2-2.8-0.3-5.6-0.4-8.4c-0.1-2.8-0.1-5.6,0-8.4
						c0.1-2.8,0.3-5.6,0.7-8.4c0.2-1.4,0.4-2.8,0.8-4.1C70.3,162.8,70.6,161.4,71.4,160.2L71.4,160.2z"/>
				</g>
				<g class="st0">
					<path class="st1" d="M81.3,194.6c0.7-1.5,1.5-2.9,2.3-4.4l2.1-4.4l2-4.4c0.6-1.5,1.2-3,1.8-4.5c2.1-6.1,4.1-12.3,4.7-18.7
						c0.7-6.3,0.6-12.8-0.9-19c-0.8-3.1-1.8-6.1-3.2-9c-1.4-2.9-3.1-5.6-5.2-8l-0.1-0.1c-0.6-0.9-1.1-1.7-1.5-2.6
						c-0.5-0.9-0.9-1.8-1.2-2.8c-0.7-1.9-1.1-3.9-0.8-5.9l0.1,0c-0.2,2,0.4,3.9,1.1,5.8c0.8,1.8,1.7,3.6,2.9,5.2l0,0
						c1.2,1.2,2.2,2.5,3.1,3.8c0.9,1.3,1.8,2.8,2.5,4.2c1.5,2.9,2.7,6,3.5,9.2c1.6,6.4,1.9,13,1.1,19.5c-0.8,6.5-2.7,12.8-5.1,18.9
						c-2.5,6.1-5.6,11.8-9.1,17.4L81.3,194.6z"/>
				</g>
				<g>
					<path d="M81.6,194.6c3.7-6.6,6.9-13.5,9.4-20.5c1.2-3.6,2.2-7.2,2.9-10.8c0.7-3.7,1.1-7.4,1.2-11.1c0.1-7.4-1.4-14.8-4.6-21.4
						c-0.8-1.6-1.7-3.2-2.8-4.7c-0.5-0.7-1.1-1.5-1.6-2.2c-0.3-0.3-0.6-0.7-0.9-1l-0.2-0.2l-0.3-0.3l-0.5-0.6
						c-1.3-1.5-2.4-3.2-3.2-5.1c-0.4-1-0.7-2-0.8-3.1c-0.1-1.1,0.1-2.3,0.7-3.3l-0.1,0.2c1.1-3.2,2.2-6.4,3.4-9.5
						c1.2-3.2,2.3-6.3,3.5-9.5c1.2-3.1,2.5-6.3,3.8-9.4c0.7-1.5,1.4-3.1,2.1-4.6c0.8-1.5,1.5-3,2.5-4.4l0.1,0.1
						c-0.9,1.4-1.7,2.9-2.4,4.4c-0.7,1.5-1.3,3.1-2,4.6c-1.2,3.1-2.4,6.3-3.6,9.4c-2.3,6.3-4.4,12.7-6.5,19.1l0,0l0,0
						c-0.9,1.7-0.5,3.7,0.2,5.4c0.8,1.7,1.8,3.3,3.1,4.7c2.7,2.7,4.9,5.9,6.6,9.2c3.4,6.8,4.9,14.5,4.7,22
						c-0.1,7.6-1.9,15.1-4.5,22.2c-2.7,7.1-6.2,13.9-10.2,20.3L81.6,194.6z"/>
				</g>
			</g>
			<path class="st0" d="M91.2,132.3c0,0-1.7-1.4-3.3,0c-1.6,1.4-16.5,9.1-17.2,26.6l-0.1,0.1c-3.6-3.9-8.4-0.1-8.4-0.1
				c-0.7-17.4-15.6-25.2-17.2-26.6c-1.6-1.4-3.3,0-3.3,0l1.4-2.4c0,0,20.3-5.3,46,0L91.2,132.3z"/>
			<g id="body_lines_2_">
				<g class="st0">
					<path class="st1" d="M81.8,131.1c-0.7,0.7-1.3,1.4-1.9,2.2c-0.6,0.8-1.1,1.5-1.6,2.4c-0.5,0.8-1,1.6-1.4,2.5
						c-0.4,0.9-0.8,1.8-1.1,2.7l0,0c0.5-1.9,1.3-3.7,2.3-5.3C79.1,133.8,80.3,132.3,81.8,131.1L81.8,131.1z"/>
				</g>
				<g class="st0">
					<path class="st1" d="M49.7,131c0.8,0.6,1.5,1.2,2.1,2c0.6,0.7,1.2,1.5,1.7,2.3c0.5,0.8,1,1.7,1.3,2.6c0.4,0.9,0.6,1.8,0.8,2.8
						l0,0c-0.5-1.9-1.3-3.6-2.3-5.3C52.4,133.8,51.2,132.3,49.7,131L49.7,131z"/>
				</g>
				<g>
					<path d="M74.5,158.5c-0.3,0.8-0.5,1.6-0.7,2.4c-0.2,0.8-0.5,1.5-0.6,2.3c-0.2,0.8-0.4,1.6-0.5,2.4c-0.2,0.8-0.3,1.6-0.5,2.4
						l0,0c0-1.7,0.2-3.3,0.6-4.9C73,161.5,73.6,159.9,74.5,158.5L74.5,158.5z"/>
				</g>
				<g>
					<path d="M40.3,147.7c0,0.9,0,1.7,0,2.6c0,0.9,0,1.7,0.1,2.6c0.1,1.7,0.2,3.4,0.5,5.1c0.2,1.7,0.4,3.4,0.7,5.1
						c0.3,1.7,0.6,3.4,0.9,5.1l0,0c-0.5-1.7-0.9-3.3-1.3-5c-0.4-1.7-0.6-3.4-0.9-5.1c-0.2-1.7-0.3-3.4-0.4-5.1
						C40,151.1,40.1,149.4,40.3,147.7L40.3,147.7z"/>
				</g>
			</g>
		</g>
		<path d="M61.5,159.3c-0.1-4.8-23.4-16.9-23.4-16.9l4.2-12.1c0,0,25,14,48.4-0.3l4,12.1c0,0-23.1,12.3-23.2,17.1v0.8
			c0,0-4.4,3-9.9,0V159.3z"/>
		<g>
			<g>
				<path d="M65.4,80.2c0.3,1.5,0,3.1-0.9,4.5c-0.8,1.4-2.1,2.4-3.4,3.2c-1.4,0.8-2.8,1.3-4.3,1.5c-0.4,0.1-0.8,0.1-1.1,0.1
					c-0.4,0-0.8,0.1-1.1,0c-0.8,0-1.5-0.1-2.2-0.3v-0.1c2.9,0,5.8-0.7,8.3-2.2c1.3-0.7,2.4-1.7,3.3-2.8c0.9-1.2,1.4-2.6,1.4-4H65.4z
					"/>
			</g>
			<g>
				<path d="M67.9,80.2c0.3,1.5,1.1,2.6,1.9,3.6c0.9,1,2,1.8,3.1,2.5c1.2,0.7,2.5,1.2,3.8,1.7c0.3,0.1,0.7,0.2,1,0.3
					c0.3,0.1,0.7,0.2,1,0.3c0.7,0.2,1.4,0.3,2.1,0.5v0.1c-2.9,0-5.9-0.6-8.4-2.1c-1.3-0.7-2.4-1.7-3.3-2.9c-0.9-1.2-1.4-2.6-1.4-4.1
					H67.9z"/>
			</g>
			<g class="st0">
				<path class="st1" d="M94,9c0,1.5-0.5,2.9-1.4,4.1c-0.9,1.2-2,2.2-3.3,2.9c-2.5,1.5-5.5,2.3-8.5,2.4c-3,0.1-6.1-0.4-8.8-1.9
					c-1.3-0.8-2.6-1.8-3.6-3c-1-1.3-1.6-2.9-1.6-4.6c0-1.7,0.7-3.3,1.6-4.6c1-1.3,2.2-2.3,3.6-3c2.7-1.5,5.8-2,8.8-1.9
					c3,0.1,5.9,0.9,8.5,2.4c1.3,0.8,2.4,1.7,3.3,2.9C93.5,6.1,94,7.6,94,9z M93.9,9c0-1.5-0.5-2.9-1.4-4c-0.9-1.2-2-2.1-3.3-2.8
					c-2.5-1.5-5.5-2.1-8.4-2.1c-2.9,0-5.8,0.7-8.3,2.1c-1.2,0.7-2.4,1.7-3.2,2.8c-0.8,1.2-1.4,2.6-1.4,4c0,1.4,0.5,2.8,1.4,4
					c0.8,1.2,2,2.1,3.2,2.8c2.5,1.5,5.4,2.1,8.3,2.1c2.9,0,5.8-0.6,8.4-2.1c1.3-0.7,2.4-1.7,3.3-2.8C93.4,11.9,93.9,10.5,93.9,9z"/>
			</g>
			<g>
				<path d="M61.5,37.3c-0.2,1.8-0.6,3.5-1.2,5.3c-0.6,1.7-1.3,3.4-2.5,4.9c-0.5,0.7-1.3,1.4-2,1.9c-0.8,0.5-1.7,0.9-2.5,1.2
					c-1.7,0.6-3.4,1.2-5.1,1.7c-3.4,1.1-6.8,2.1-10.2,3.4c-1.7,0.6-3.3,1.3-4.8,2c-0.8,0.4-1.5,0.8-2.1,1.4
					c-0.3,0.3-0.5,0.5-0.6,0.8c-0.1,0.2,0,0.4,0,0.6l0.1,0.3l0,0.1c0,6.1,0.5,12.3,0.6,18.4c0.2,6.2,0.3,12.3,0.2,18.5
					c0,6.2-0.3,12.4-0.7,18.5c-0.1,1.5-0.3,3.1-0.5,4.6c-0.2,1.5-0.4,3.1-0.6,4.6c-0.2,1.5-0.6,3-0.9,4.6c-0.3,1.5-0.8,3-1.2,4.5
					l-0.1,0c1.6-5.9,2.2-12.1,2.6-18.3c0.4-6.2,0.5-12.3,0.5-18.5c0-6.2-0.2-12.3-0.4-18.5L30,70.1c-0.1-3.1-0.2-6.2-0.2-9.3l0,0
					c-0.2-0.4-0.2-0.9-0.1-1.4c0.2-0.4,0.5-0.8,0.8-1.1c0.7-0.6,1.5-1.1,2.3-1.5c1.6-0.8,3.3-1.5,5-2.1c3.4-1.2,6.8-2.2,10.3-3.2
					c1.7-0.5,3.4-1,5.1-1.6c0.8-0.3,1.7-0.6,2.4-1.1c0.7-0.5,1.4-1.1,2-1.8c1.1-1.4,1.9-3,2.5-4.7C60.7,40.8,61.1,39.1,61.5,37.3
					L61.5,37.3z"/>
			</g>
			<g>
				<path d="M71.8,37.3c0.3,1.8,0.8,3.5,1.5,5.1c0.7,1.6,1.5,3.3,2.6,4.6c0.6,0.7,1.2,1.2,1.9,1.6c0.7,0.4,1.6,0.7,2.4,1
					c1.7,0.6,3.4,1.1,5.1,1.5c3.4,1,6.9,1.9,10.3,3c1.7,0.6,3.4,1.2,5.1,2.1c0.8,0.4,1.7,0.9,2.4,1.6c0.4,0.3,0.8,0.8,1,1.3
					c0.3,0.6,0.2,1.4-0.1,2l0.1-0.4c0,3.1-0.1,6.2-0.2,9.3l-0.3,9.2c-0.2,6.2-0.4,12.3-0.4,18.5c0,6.2-0.1,12.3,0.2,18.5
					c0.3,6.1,0.7,12.3,2.2,18.3l-0.1,0c-1.7-6-2.2-12.1-2.7-18.3c-0.4-6.2-0.5-12.3-0.5-18.5c0-6.2,0.1-12.3,0.3-18.5
					c0.2-6.2,0.5-12.3,0.6-18.5l0,0l0,0c0.2-0.4,0.2-0.8,0.1-1.2c-0.2-0.4-0.5-0.7-0.8-1c-0.7-0.6-1.4-1-2.2-1.5
					c-1.6-0.8-3.3-1.5-5-2.1c-3.4-1.2-6.8-2.2-10.3-3.2c-1.7-0.5-3.4-1-5.1-1.6c-0.8-0.3-1.7-0.6-2.5-1.1c-0.8-0.5-1.5-1.1-2-1.8
					c-1.2-1.4-1.9-3.1-2.5-4.7C72.4,40.9,71.9,39.1,71.8,37.3L71.8,37.3z"/>
			</g>
		</g>
		<g>
			<path d="M93.1,75.9C90,72.4,85.6,52,85.6,52l-5.9-2c0,0-1,27.9-6.4,32.4H59.7C54.2,77.8,53.2,50,53.2,50l-5.9,2
				c0,0-4.4,20.4-7.5,23.9c-1.3,2.4-0.7,7.3,5.4,14.1c1.2,3.3,6.6,18.4,7.9,22.9c-1.9,5.5-10,14.1-11,17.5c0,14.2,48.3,14.2,48.3,0
				c-1-3.5-8.3-12-10.2-17.5c1.3-4.5,7-19.6,8.2-22.9C93.7,84.3,94.3,78.3,93.1,75.9z M69.4,113.3c0,0-2.8,9.2-5,0
				c-2-8.3-3.9-29.3-3.9-29.3h12.9C73.3,83.9,72.8,105.4,69.4,113.3z"/>
		</g>
		<g id="bottom_3_">
			<g>
				<g>
					<path d="M125.4,121.8c-2.1,2.5-3.8,5.3-5,8.3c-1.4,2.9-2.4,6-3.1,9.1c-1.4,6.2-1.7,12.7-0.7,19c0.7,6.4,2.5,12.6,4.7,18.7
						c0.6,1.5,1.2,3,1.8,4.5l2,4.4l2.1,4.4c0.8,1.4,1.5,2.9,2.2,4.4l-0.1,0.1c-3.5-5.5-6.6-11.3-9.1-17.4
						c-2.4-6.1-4.3-12.4-5.1-18.9c-0.8-6.5-0.5-13.2,1.1-19.5c0.8-3.2,2-6.3,3.5-9.2c0.7-1.5,1.6-2.9,2.5-4.2
						c0.9-1.3,1.9-2.6,3.1-3.8L125.4,121.8z"/>
				</g>
				<g>
					<path d="M160.9,121.7c1.3,1.1,2.4,2.3,3.4,3.6c1,1.3,2,2.7,2.8,4.1c1.7,2.9,2.9,6,3.9,9.2c1,3.2,1.4,6.5,1.7,9.9
						c0.2,3.3,0.1,6.7-0.3,10c-0.5,3.3-1.1,6.6-2.1,9.8c-0.2,0.8-0.4,1.6-0.7,2.4l-0.8,2.4c-0.5,1.6-1.2,3.1-1.9,4.6
						c-0.7,1.5-1.4,3-2.1,4.5c-0.8,1.4-1.5,2.9-2.4,4.3l-2.6,4.2c-0.9,1.4-1.9,2.7-2.8,4l-0.1-0.1c3.4-5.5,6.6-11.3,9-17.4
						c2.4-6.1,4.3-12.4,5.1-18.9c0.9-6.5,0.6-13.1-1-19.4c-0.8-3.2-1.9-6.2-3.4-9.1c-0.7-1.5-1.6-2.9-2.5-4.2
						c-0.9-1.3-1.9-2.6-3.1-3.8L160.9,121.7z"/>
				</g>
				<g>
					<path d="M138.2,160.1c1.6,2.4,2.2,5.3,2.8,8c0.5,2.8,0.7,5.6,0.9,8.4c0,2.8,0,5.6-0.2,8.4c-0.1,1.4-0.2,2.8-0.4,4.2
						c-0.2,1.4-0.4,2.8-0.6,4.2l-0.1,0c0.2-2.8,0.3-5.6,0.3-8.4c0.1-2.8,0-5.6,0-8.4c-0.1-2.8-0.3-5.6-0.6-8.4
						c-0.2-1.4-0.4-2.8-0.7-4.1C139.2,162.8,138.8,161.4,138.2,160.1L138.2,160.1z"/>
				</g>
				<g>
					<path d="M148.1,160.2c-0.5,1.3-0.8,2.7-1,4c-0.2,1.4-0.4,2.7-0.5,4.1c-0.2,2.8-0.4,5.5-0.5,8.3c-0.1,1.4-0.1,2.8-0.1,4.2
						c0,1.4,0,2.8-0.1,4.2c-0.1,2.8-0.1,5.6-0.3,8.4l-0.1,0c-0.2-2.8-0.3-5.6-0.4-8.4c-0.1-2.8-0.1-5.6,0-8.4
						c0.1-2.8,0.3-5.6,0.7-8.4c0.2-1.4,0.4-2.8,0.8-4.1C147,162.8,147.3,161.4,148.1,160.2L148.1,160.2z"/>
				</g>
			</g>
			<g>
				<path d="M157.7,163.1c-1.9,0.2-4-0.2-5.8-0.9c-1.8-0.8-3.5-2-4.9-3.4c-2.8-3-4.3-7-4.3-11.1c0.1-4.1,1.5-8.2,4.3-11.1
					c1.4-1.5,3.1-2.7,4.9-3.4c1.9-0.7,3.9-1.1,5.8-0.9v0.1c-3.9,0-7.6,1.8-10.2,4.7c-2.6,2.9-3.9,6.7-3.9,10.6
					c0,3.8,1.4,7.7,3.9,10.6c2.5,2.9,6.3,4.8,10.2,4.7V163.1z"/>
			</g>
			<g>
				<path d="M129.3,163c1.9-0.2,3.8-0.7,5.4-1.6c1.7-0.9,3.1-2.1,4.3-3.5c2.3-2.8,3.6-6.5,3.6-10.2c0.1-3.7-1.2-7.3-3.6-10.2
					c-1.2-1.4-2.6-2.6-4.3-3.5c-1.6-0.9-3.5-1.4-5.4-1.6v-0.1c3.9,0,7.7,1.8,10.3,4.7c2.6,2.9,4,6.8,4,10.7c0,3.9-1.4,7.8-4,10.7
					c-2.6,2.9-6.4,4.8-10.3,4.7V163z"/>
			</g>
			<path d="M170.8,140.5c-4,6-4.2,8.5-22.7,18.9c-4.6-3.9-9.9,0-9.9,0c-19-10.7-21.7-18.9-21.7-18.9l3.8-11.8c0,0,20.5-5.3,46.2,0
				L170.8,140.5z"/>
			<g class="st0">
				<g class="st1">
					<path d="M119.9,129.9c1.9-0.6,3.8-1,5.6-1.3c1.9-0.3,3.8-0.6,5.7-0.9c3.9-0.4,7.7-0.7,11.6-0.7c3.9,0.1,7.8,0.2,11.6,0.7
						c1.9,0.2,3.8,0.6,5.7,0.9c1.9,0.4,3.8,0.8,5.7,1.3c-3.8-0.5-7.6-1.1-11.5-1.4c-3.8-0.3-7.7-0.5-11.5-0.5
						c-3.8-0.1-7.7,0.1-11.5,0.4C127.6,128.7,123.7,129.2,119.9,129.9z"/>
				</g>
				<g class="st1">
					<path d="M139.6,158.2c0.3-0.6,0.8-1.2,1.4-1.6c0.6-0.4,1.3-0.7,2.1-0.7c0.8,0,1.5,0.2,2.1,0.6c0.3,0.2,0.5,0.5,0.8,0.7
						c0.2,0.3,0.4,0.6,0.6,0.9c-0.3-0.2-0.6-0.3-0.9-0.5c-0.3-0.1-0.6-0.3-0.9-0.4c-0.6-0.2-1.2-0.3-1.7-0.3
						C142,157,140.8,157.5,139.6,158.2z"/>
				</g>
			</g>
		</g>
		<g>
			<path d="M41.6,15.5l0.6-0.1c0.2,0,0.4,0,0.5,0c0.2,0,0.4,0.1,0.6,0.3l0.1,0.1c0.1,0.1,0.1,0.2,0.1,0.4l0,0.1c0,0,0,0.1,0,0.1
				c0,0.1,0,0.1-0.1,0.2c-0.1,0.2-0.3,0.3-0.5,0.4c-0.1,0-0.1,0-0.2,0c0,0,0,0,0-0.1c0,0,0,0,0,0c0,0,0,0,0.1,0l0,0c0,0,0,0,0,0
				c0,0-0.1,0-0.1,0c0,0,0,0,0,0c0,0,0,0,0-0.1l0,0c0,0,0,0,0-0.1c0,0,0,0,0,0l-0.1,0c-0.1-0.1-0.2-0.1-0.3-0.1l-0.2,0
				c-0.1,0-0.2,0-0.3,0.1l-0.2,0c-0.2,0.1-0.4,0.1-0.7,0.2c-0.2,0.1-0.5,0.1-0.7,0.2c-0.2,0-0.3,0.1-0.5,0.1c-0.2,0-0.4,0.2-0.6,0.2
				c-0.3,0.1-0.7,0.2-1,0.3c-0.3,0.1-0.6,0.2-0.9,0.4c-0.5,0.2-1,0.4-1.5,0.7l-0.7,0.4c-0.4,0.2-0.9,0.5-1.3,0.7
				c-0.2,0.1-0.3,0.3-0.6,0.4c-0.3,0.3-0.6,0.6-0.9,0.9c-0.2,0.3-0.4,0.5-0.6,0.8c0,0.1-0.1,0.2-0.1,0.3c-0.1,0.1-0.1,0.2-0.1,0.2
				c0,0-0.1,0-0.1,0.1c0,0-0.1,0-0.1-0.1c-0.1-0.1-0.1-0.2-0.2-0.3c0,0,0,0,0-0.1c-0.1-0.1-0.1-0.2-0.1-0.3c0-0.1,0-0.2,0.1-0.3
				c0-0.1,0.1-0.2,0.2-0.3c0.1-0.2,0.3-0.5,0.4-0.7c0.1-0.1,0.2-0.2,0.3-0.3c0.2-0.2,0.3-0.3,0.4-0.4c0.1-0.1,0.2-0.2,0.3-0.2
				c0.2-0.1,0.4-0.3,0.6-0.5c0.3-0.2,0.6-0.4,0.9-0.6c0.1-0.1,0.3-0.2,0.4-0.2c0.2-0.1,0.4-0.2,0.6-0.4c0.3-0.1,0.6-0.3,0.8-0.4
				c0.2-0.1,0.4-0.2,0.6-0.2c0.2-0.1,0.5-0.2,0.8-0.3c0.2-0.1,0.5-0.2,0.7-0.3c0.4-0.1,0.8-0.2,1.1-0.4l1-0.3c0.1,0,0.1,0,0.1-0.1
				C41.1,15.6,41.4,15.5,41.6,15.5z M33.6,25.1L33.6,25.1c-0.1,0-0.1,0-0.1,0c0,0,0,0,0,0c0.1-0.2,0.4-0.4,0.6-0.6l0.1-0.1
				c0.1-0.1,0.2-0.1,0.2-0.2l0.3-1.4c0.1-0.3,0.2-0.5,0.3-0.8l0.3-1.1c0.1-0.4,0.2-0.8,0.3-1.1l0.1-0.5c0,0,0.1-0.1,0.1-0.1
				c0,0,0-0.1,0.1-0.1l0,0c0.2,0,0.3,0,0.4,0.1c0.1,0,0.1,0.1,0.1,0.2c0,0.1,0,0.1,0,0.2l0,0.2c0,0.3-0.1,0.6-0.1,0.9
				c-0.1,0.3-0.1,0.6-0.2,0.8c-0.1,0.4-0.2,0.8-0.3,1.2l-0.2,0.6c0,0.1,0,0.1,0,0.1c0,0,0,0.1,0,0.1l0,0c0,0,0.1,0,0.2-0.1
				c0.2-0.1,0.4-0.2,0.6-0.3c0.4-0.2,0.7-0.3,1.1-0.4c0.2-0.1,0.3-0.1,0.4-0.1c0.2,0,0.4,0.1,0.4,0.2c0.1,0,0.1,0.1,0.2,0.1
				c0.1,0.1,0.1,0.2,0.1,0.3c0,0.2,0,0.2-0.2,0.3c0,0-0.1,0-0.1,0s0,0-0.1-0.1c0,0,0,0,0-0.1l0-0.1c-0.1,0-0.1-0.1-0.2-0.1
				c0,0-0.1,0-0.1,0c0,0-0.1,0-0.1,0c-0.2,0-0.3,0.1-0.5,0.2c-0.6,0.3-1.2,0.6-1.8,0.9c-0.3,0.2-0.3,0.2-0.3,0.4
				c-0.1,0.4-0.2,0.9-0.3,1.3c-0.1,0.2-0.1,0.3-0.2,0.4c-0.2,0.7-0.3,1.4-0.4,2.2c-0.1,0.3-0.1,0.6-0.2,0.9c0,0.1,0,0.2,0,0.4l0,0.2
				c0,0.1,0,0.1,0,0.2c0,0.1,0.1,0.1,0.2,0.2c0.1,0,0.1,0.1,0.2,0.1c0,0,0,0.1,0,0.1l0,0c0,0.1-0.1,0.1-0.1,0.1l-0.1,0
				c-0.1,0-0.2,0-0.3,0c-0.2,0-0.3-0.1-0.5-0.2c-0.1,0-0.2-0.1-0.2-0.3c-0.1-0.1-0.1-0.2-0.1-0.4c0-0.4,0-0.7,0-1.1
				c0-0.1,0-0.2,0.1-0.3c0-0.4,0.1-0.8,0.2-1.3c0-0.4,0.2-0.8,0.3-1.2l0.2-0.8c0,0,0-0.1,0-0.1l0,0c0,0,0-0.1,0-0.1l0,0
				c-0.1,0-0.1,0-0.1,0c-0.1,0-0.2,0-0.3,0c0,0-0.1,0,0,0c0,0,0,0,0,0L33.6,25.1z M35.2,18.3c-0.6,0.3-1.2,0.7-1.7,1.1
				c-0.4,0.3-0.8,0.6-1.1,1c-0.1,0.1-0.2,0.2-0.3,0.4c0,0,0.1,0,0.1-0.1c0.1-0.1,0.1-0.2,0.2-0.2c0.4-0.4,0.9-0.8,1.4-1.1
				C34.3,19,34.8,18.6,35.2,18.3c0.2,0,0.2-0.1,0.3-0.1l0,0C35.4,18.3,35.2,18.3,35.2,18.3z M32.3,20.4c-0.1,0-0.1,0.1-0.1,0.1
				C32.2,20.5,32.2,20.5,32.3,20.4z M32.6,20.1c-0.1,0-0.2,0.1-0.2,0.1C32.5,20.3,32.5,20.2,32.6,20.1z M33.7,29.1
				C33.7,29.2,33.7,29.2,33.7,29.1L33.7,29.1L34,28c0.1-0.6,0.2-1.1,0.4-1.7l0.3-1.2l0-0.1l0,0c0,0-0.1,0-0.1,0.1
				c-0.1,0.3-0.1,0.5-0.2,0.8c-0.1,0.6-0.3,1.2-0.4,1.8l-0.2,1.1L33.7,29.1z M33.7,28.4c0,0-0.1,0.1-0.1,0.1c0,0,0,0.1,0,0.1
				c0,0,0,0,0,0L33.7,28.4z M33.7,28.4C33.7,28.4,33.8,28.4,33.7,28.4l0-0.1l0,0C33.7,28.4,33.7,28.4,33.7,28.4z M32.7,20
				c0,0-0.1,0.1-0.1,0.1C32.7,20.1,32.7,20,32.7,20z M32.8,20.4c0,0-0.1,0.1-0.1,0.1C32.7,20.5,32.7,20.5,32.8,20.4z M33.8,28.1
				C33.8,28,33.8,28,33.8,28.1L33.8,28.1C33.8,28.1,33.8,28.1,33.8,28.1z M32.9,20.2c0.1,0,0.1-0.1,0.1-0.1c0.3-0.2,0.5-0.4,0.8-0.6
				c0.3-0.2,0.6-0.4,0.8-0.5c0.1,0,0.2,0,0.2-0.1c-0.1,0-0.2,0-0.3,0.1l-0.9,0.6C33.4,19.8,33.2,20,32.9,20.2
				C33,20.2,32.9,20.2,32.9,20.2c-0.1,0-0.1,0.1-0.2,0.1C32.8,20.4,32.9,20.3,32.9,20.2z M32.8,19.8c0,0-0.1,0-0.1,0.1
				C32.8,19.9,32.8,19.9,32.8,19.8z M33.8,27.8L33.8,27.8L33.8,27.8l0-0.1C33.8,27.7,33.8,27.7,33.8,27.8
				C33.8,27.8,33.8,27.8,33.8,27.8z M33.9,27.6L33.9,27.6L33.9,27.6L33.9,27.6C33.9,27.6,33.9,27.6,33.9,27.6z M33.6,25.1
				c0,0,0.1,0,0.1-0.1C33.6,25.1,33.6,25.1,33.6,25.1z M33.9,27.3C33.9,27.3,33.9,27.3,33.9,27.3c0,0.1,0,0.1,0,0.2L33.9,27.3z
				 M33,19.7C32.9,19.7,32.9,19.7,33,19.7C32.9,19.8,32.9,19.8,33,19.7z M33.8,25c-0.1,0-0.1,0-0.1,0.1C33.7,25,33.8,25,33.8,25z
				 M34,27.1C34,27.1,34,27.1,34,27.1L34,27.1C34,27.1,34,27.1,34,27.1C34,27.1,34,27.2,34,27.1L34,27.1z M34,26.8c0,0,0,0.1,0,0.1
				l0,0C34,26.9,34,26.8,34,26.8z M33,19.6L33,19.6C33,19.7,33,19.7,33,19.6z M34,26.8C34.1,26.7,34.1,26.7,34,26.8l0-0.1
				c0,0,0,0,0,0L34,26.8z M34.1,24.8L34.1,24.8c-0.1,0-0.2,0.1-0.3,0.2C33.9,25,34,24.9,34.1,24.8z M33.1,19.6
				C33.1,19.6,33.1,19.6,33.1,19.6L33.1,19.6z M34.1,26.4c0,0,0,0.1,0,0.1c0,0,0,0,0,0C34.1,26.4,34.1,26.4,34.1,26.4z M34.1,26.4
				c0.1-0.2,0.2-0.3,0.2-0.4C34.2,26,34.2,26.2,34.1,26.4z M33.3,19.5C33.3,19.5,33.2,19.5,33.3,19.5C33.2,19.5,33.3,19.5,33.3,19.5
				z M34,25.1L34,25.1L34,25.1L34,25.1z M34.3,25.8C34.3,25.8,34.3,25.8,34.3,25.8L34.3,25.8l0,0.1C34.3,25.9,34.3,25.8,34.3,25.8z
				 M34.4,25.5c-0.1,0.1-0.1,0.1-0.1,0.1c0,0,0,0,0,0C34.4,25.6,34.4,25.5,34.4,25.5z M34.4,25.5c0,0,0-0.1,0-0.1l0,0
				C34.4,25.4,34.4,25.4,34.4,25.5z M34.5,25.1L34.5,25.1C34.4,25.2,34.4,25.2,34.5,25.1C34.4,25.2,34.5,25.2,34.5,25.1
				C34.4,25.2,34.5,25.1,34.5,25.1z M34.7,23.9L34.7,23.9C34.7,24,34.7,24,34.7,23.9L34.7,23.9L34.7,23.9z M34.8,23.7
				C34.8,23.7,34.8,23.7,34.8,23.7L34.8,23.7C34.8,23.7,34.8,23.7,34.8,23.7L34.8,23.7z M34.8,23.7C34.8,23.7,34.8,23.6,34.8,23.7
				l0.1-0.2C34.8,23.6,34.8,23.6,34.8,23.7z M34.9,23.9C34.9,23.9,34.9,23.9,34.9,23.9C34.9,23.9,34.9,23.9,34.9,23.9L34.9,23.9
				c0.2-0.6,0.3-1.1,0.4-1.7l0-0.1l0,0c0,0,0,0,0,0.1c-0.1,0.4-0.2,0.7-0.2,1C35,23.4,34.9,23.6,34.9,23.9z M34.9,23.3
				c-0.1,0.1,0,0.1-0.1,0.2C34.9,23.4,34.9,23.4,34.9,23.3L34.9,23.3z M34.9,23.3L34.9,23.3L34.9,23.3
				C34.9,23.3,34.9,23.3,34.9,23.3L34.9,23.3C34.9,23.3,34.9,23.3,34.9,23.3z M35.1,22.7L35.1,22.7L35.1,22.7L35.1,22.7L35.1,22.7z
				 M37.5,23.3L37.5,23.3c-0.1,0-0.2,0-0.2,0c-0.2,0.1-0.4,0.2-0.5,0.3c-0.4,0.2-0.8,0.4-1.1,0.6c0,0-0.1,0.1-0.2,0.1c0,0,0,0,0,0
				l0.1,0c0,0,0.1-0.1,0.2-0.1c0.2-0.1,0.4-0.2,0.6-0.3c0.4-0.2,0.8-0.4,1.2-0.6C37.5,23.3,37.5,23.3,37.5,23.3z M37,23.3
				c-0.5,0.2-0.9,0.4-1.4,0.6c0,0-0.1,0.1-0.1,0.1l0,0l0,0l0.2-0.1C36.1,23.7,36.6,23.5,37,23.3c0.1,0,0.2,0,0.2,0
				C37.1,23.2,37,23.2,37,23.3z M35,18.9c0.1-0.1,0.3-0.2,0.5-0.3c0,0,0-0.1,0-0.1l0,0C35.3,18.6,35.1,18.7,35,18.9
				C34.9,18.9,34.9,18.9,35,18.9L35,18.9z M35.5,18.3C35.5,18.2,35.5,18.2,35.5,18.3C35.5,18.2,35.5,18.2,35.5,18.3
				C35.5,18.2,35.5,18.2,35.5,18.3z M35.6,18.5C35.6,18.5,35.6,18.5,35.6,18.5C35.6,18.5,35.6,18.5,35.6,18.5z M35.7,18.1
				C35.6,18.1,35.6,18.2,35.7,18.1C35.6,18.2,35.6,18.2,35.7,18.1C35.7,18.2,35.7,18.2,35.7,18.1z M35.8,18.4c0,0-0.1,0-0.1,0.1
				C35.7,18.4,35.7,18.4,35.8,18.4z M35.8,18.1c-0.1,0-0.1,0-0.1,0.1C35.7,18.1,35.7,18.1,35.8,18.1C35.7,18.1,35.8,18.1,35.8,18.1z
				 M35.9,18.3c0,0-0.1,0-0.1,0.1C35.8,18.4,35.9,18.4,35.9,18.3z M36,18c-0.1,0-0.1,0-0.1,0.1L36,18C35.9,18.1,35.9,18.1,36,18z
				 M36,18.3c0,0-0.1,0-0.1,0.1C35.9,18.3,36,18.3,36,18.3z M36.1,17.9c-0.1,0-0.1,0-0.1,0.1L36.1,17.9C36,18,36.1,18,36.1,17.9z
				 M36.2,18.2L36.2,18.2c-0.1,0-0.2,0-0.2,0.1C36.1,18.2,36.1,18.2,36.2,18.2z M36.2,17.8c-0.1,0-0.1,0-0.1,0.1
				C36.1,17.9,36.2,17.9,36.2,17.8z M36.3,18.1L36.3,18.1c-0.1,0-0.1,0-0.1,0.1C36.3,18.2,36.3,18.2,36.3,18.1z M36.3,17.8
				C36.3,17.8,36.2,17.8,36.3,17.8C36.3,17.8,36.3,17.8,36.3,17.8z M36.4,18.1C36.4,18.1,36.3,18.1,36.4,18.1L36.4,18.1z M36.4,17.8
				L36.4,17.8L36.4,17.8C36.4,17.7,36.3,17.8,36.4,17.8L36.4,17.8z M37.2,23.2c0,0,0.1,0,0.2-0.1C37.3,23.1,37.3,23.1,37.2,23.2
				C37.2,23.1,37.2,23.2,37.2,23.2z M36.5,18C36.5,18,36.5,18,36.5,18L36.5,18C36.5,18,36.5,18.1,36.5,18L36.5,18z M37.5,23
				l-0.1,0.1C37.4,23.1,37.4,23.1,37.5,23C37.4,23.1,37.5,23.1,37.5,23z M36.8,17.9L36.8,17.9L36.8,17.9
				C36.8,17.9,36.8,17.9,36.8,17.9z M37.6,23C37.6,23,37.6,23,37.6,23C37.6,23,37.6,23,37.6,23L37.6,23z M38.1,11.6l0-0.1l0,0
				C38.1,11.5,38.1,11.5,38.1,11.6z M38.1,11.5L38.1,11.5C38.1,11.5,38.1,11.5,38.1,11.5L38.1,11.5z M43.2,16.6L43.2,16.6
				C43.2,16.6,43.2,16.6,43.2,16.6L43.2,16.6z M43.3,16.5C43.3,16.5,43.2,16.5,43.3,16.5C43.3,16.6,43.3,16.6,43.3,16.5z"/>
			<path d="M46.6,23.1L46.6,23.1c0.1-0.3,0.3-0.5,0.4-0.5c0,0,0.1,0,0.1,0.1c0,0.1,0,0.2-0.1,0.4l-0.1,0.1c-0.4,0.5-0.8,1.1-1.2,1.7
				c-0.3,0.4-0.6,0.9-0.9,1.3c-0.2,0.3-0.5,0.6-0.7,0.8l-0.2,0.2c-0.1,0.1-0.2,0.2-0.3,0.2c-0.1,0-0.2,0-0.3,0
				c-0.1,0-0.2-0.1-0.4-0.1c-0.1,0-0.1-0.1-0.1-0.2c-0.1-0.2-0.2-0.3-0.2-0.5c-0.1-0.3-0.1-0.6-0.1-0.9c0-0.4,0-0.9,0.1-1.4
				c0.1-0.1,0.1-0.2,0.1-0.4c0,0,0,0,0,0c0,0-0.1,0,0,0c-0.2,0.2-0.3,0.4-0.4,0.6c-0.3,0.3-0.4,0.6-0.6,1c-0.1,0.3-0.3,0.5-0.5,0.8
				c-0.2,0.3-0.4,0.6-0.6,0.9c-0.1,0.1-0.2,0.3-0.4,0.4c0,0-0.1,0.1-0.2,0.1c0,0-0.1,0-0.1,0c-0.3,0-0.5-0.1-0.8-0.3
				c-0.1,0-0.2-0.1-0.3-0.3c0-0.2-0.1-0.5-0.1-0.7c0-0.2,0-0.4,0.1-0.6c0.1-0.2,0.1-0.3,0.1-0.5c0.1-0.5,0.3-1,0.6-1.5
				c0.1-0.3,0.3-0.5,0.4-0.7c0.1-0.1,0.1-0.1,0.1-0.2c0.1-0.1,0.1-0.2,0.2-0.2c0.1,0,0.1,0,0.2,0c0,0,0,0.1,0.1,0.1c0,0,0.1,0,0.1,0
				c0,0,0,0,0,0c0,0,0,0,0.1,0c0,0,0.1,0.1,0.1,0.1c0.1,0,0.1,0,0.1,0.1l0,0c0,0.1,0,0.2,0,0.2c0,0.1-0.1,0.3-0.1,0.4
				c-0.1,0.3-0.3,0.7-0.4,1.1c-0.2,0.4-0.3,0.8-0.4,1.2c0,0.2-0.1,0.3-0.1,0.5l0,0.2c0,0,0,0,0,0.1c0,0,0,0,0.1,0c0,0,0,0,0.1,0
				c0.1-0.1,0.2-0.3,0.3-0.4l0.7-0.9l0.8-1.2c0.3-0.4,0.6-0.8,0.9-1.2c0.2-0.2,0.3-0.4,0.4-0.6c0-0.1,0.1-0.3,0.2-0.5
				c0-0.1,0-0.1,0.1-0.2c0,0,0.1-0.1,0.1-0.1c0,0,0,0,0.1,0l0.1,0c0,0,0,0,0,0c0,0,0.1,0,0.1,0l0.1,0c0.1,0,0.1,0,0.2,0.1
				c0,0,0,0,0,0c0.1,0.1,0.2,0.5,0.2,0.7c0,0.2-0.2,0.1-0.3,0.4c-0.1,0.4-0.2,0.8-0.3,1.2c-0.1,0.1-0.2,0.3-0.2,0.5
				c-0.1,0.3-0.2,0.7-0.2,1c0,0.2-0.1,0.4-0.1,0.6c0,0.2,0,0.5,0,0.7c0,0,0,0.1,0.1,0.1c0,0,0,0.1,0.1,0.1l0,0c0,0,0,0,0.1,0
				c0.1-0.2,0.3-0.4,0.4-0.5c0.4-0.6,0.9-1,1.2-1.5l0.8-1.1l0.5-0.5c0,0-0.1,0.1,0,0.1l0,0C46.5,23.3,46.6,23.2,46.6,23.1
				C46.6,23.1,46.6,23.1,46.6,23.1z M39,26.2C39,26.2,39,26.2,39,26.2L39,26.2C39,26.2,39,26.2,39,26.2L39,26.2z M39,26L39,26
				C39,26.1,39,26.1,39,26c0.1-0.1,0-0.1,0-0.1C39,26,39,26,39,26z M39.1,25.8c0.1-0.5,0.2-0.9,0.4-1.4c0,0,0-0.1,0-0.2
				c0,0-0.1,0-0.1,0.1C39.3,24.8,39.1,25.3,39.1,25.8L39,25.9L39.1,25.8z M40.3,23.1c0-0.1,0-0.1,0-0.1c0,0,0,0,0,0c0,0,0,0,0,0
				l-0.1,0c-0.2,0.3-0.3,0.7-0.5,1c-0.2,0.4-0.4,0.9-0.5,1.3c-0.1,0.3-0.1,0.6-0.1,1l0,0c0,0,0,0,0,0l0,0c0-0.1,0.1-0.2,0.1-0.3
				C39.5,25,39.9,24.1,40.3,23.1z M39.7,25.5C39.7,25.5,39.7,25.5,39.7,25.5C39.7,25.5,39.7,25.5,39.7,25.5
				C39.7,25.5,39.7,25.5,39.7,25.5L39.7,25.5z M39.5,24.3c0,0,0.1-0.1,0.1-0.1C39.6,24.2,39.5,24.2,39.5,24.3z M39.7,25.4
				C39.7,25.4,39.7,25.4,39.7,25.4L39.7,25.4L39.7,25.4z M39.8,25.2C39.7,25.2,39.8,25.2,39.8,25.2C39.7,25.2,39.8,25.2,39.8,25.2
				C39.8,25.2,39.8,25.2,39.8,25.2L39.8,25.2z M39.6,24.2c0,0,0.1-0.1,0-0.1C39.6,24.1,39.6,24.1,39.6,24.2z M39.8,25
				c0,0,0,0.1,0,0.2C39.8,25.1,39.8,25.1,39.8,25z M39.7,24C39.7,24,39.7,24,39.7,24c0.1-0.1,0-0.1,0-0.1C39.7,24,39.7,24,39.7,24
				L39.7,24z M39.9,24.7c-0.1,0.1-0.1,0.2-0.1,0.3C39.9,24.9,39.9,24.9,39.9,24.7C39.9,24.8,39.9,24.8,39.9,24.7z M39.7,23.9
				c0,0,0.1-0.1,0-0.1C39.7,23.9,39.7,23.9,39.7,23.9L39.7,23.9z M39.9,24.6l0,0.1C39.9,24.7,40,24.6,39.9,24.6
				c0.1-0.1,0.2-0.3,0.3-0.5c0.1-0.3,0.2-0.6,0.3-0.9l0.1-0.2l0,0l-0.1,0c0,0,0,0,0,0C40.3,23.6,40.1,24.1,39.9,24.6z M41.2,25.5
				C41.2,25.5,41.2,25.5,41.2,25.5C41.1,25.5,41.2,25.5,41.2,25.5z M41.4,25.2c0.1-0.1,0.1-0.1,0.1-0.2
				C41.4,25.1,41.3,25.2,41.4,25.2z M41.5,25.4L41.5,25.4c-0.1,0-0.1,0.1-0.1,0.1C41.4,25.5,41.5,25.4,41.5,25.4z M41.6,25.2
				c-0.1,0-0.1,0.1-0.1,0.2C41.5,25.3,41.6,25.3,41.6,25.2z M41.5,24.9L41.5,24.9C41.5,25,41.5,24.9,41.5,24.9
				C41.5,24.9,41.5,24.9,41.5,24.9z M41.6,25.1L41.6,25.1C41.6,25.1,41.6,25.1,41.6,25.1L41.6,25.1C41.6,25.2,41.6,25.1,41.6,25.1z
				 M41.6,24.8c0.1,0,0.1-0.1,0.1-0.2C41.6,24.7,41.6,24.7,41.6,24.8z M41.7,24.9C41.7,24.9,41.7,25,41.7,24.9
				C41.7,25,41.7,24.9,41.7,24.9z M41.7,24.6L41.7,24.6C41.8,24.6,41.8,24.6,41.7,24.6l0.1-0.1C41.7,24.5,41.7,24.5,41.7,24.6z
				 M41.9,24.7c-0.1,0-0.1,0.1-0.1,0.2C41.9,24.8,41.9,24.7,41.9,24.7z M41.9,24.4c0,0,0-0.1,0-0.1C41.9,24.3,41.9,24.4,41.9,24.4z
				 M42,24.5L42,24.5c-0.1,0-0.1,0.1-0.1,0.1C42,24.6,42,24.6,42,24.5z M42,24.2c0.1,0,0.1-0.1,0.1-0.2C42,24.1,42,24.2,42,24.2z
				 M42.1,24c0.1,0,0.1-0.1,0.1-0.2C42.1,23.9,42.1,24,42.1,24z M42.3,23.8c0,0,0.1-0.1,0-0.1C42.3,23.7,42.3,23.8,42.3,23.8z
				 M42.4,23.5C42.4,23.6,42.4,23.6,42.4,23.5C42.5,23.6,42.5,23.6,42.4,23.5C42.5,23.5,42.4,23.5,42.4,23.5
				C42.4,23.5,42.4,23.5,42.4,23.5z M42.5,23.6C42.5,23.7,42.5,23.7,42.5,23.6L42.5,23.6z M42.6,23.2c-0.1,0-0.1,0.1-0.1,0.2
				C42.6,23.3,42.6,23.3,42.6,23.2z M42.8,24.7L42.8,24.7L42.8,24.7L42.8,24.7z M42.9,24.9L42.9,24.9C42.8,24.9,42.9,24.9,42.9,24.9
				L42.9,24.9C42.9,24.8,42.9,24.9,42.9,24.9z M42.9,24.7l0-0.1C42.9,24.7,42.9,24.7,42.9,24.7C42.9,24.8,42.9,24.8,42.9,24.7
				C42.9,24.8,42.9,24.8,42.9,24.7z M42.8,24.2C42.8,24.2,42.8,24.3,42.8,24.2C42.8,24.2,42.9,24.2,42.8,24.2L42.8,24.2L42.8,24.2z
				 M42.9,24.2c0.1-0.1,0.1-0.1,0.1-0.2C42.9,24,42.9,24.1,42.9,24.2z M43,24.4c0.1-0.5,0.2-1,0.4-1.5c0-0.1,0.1-0.2,0-0.2
				c-0.1,0-0.1,0.1-0.1,0.2c0,0.2-0.1,0.5-0.2,0.7C43,23.8,43,24.1,43,24.4c-0.1,0.1-0.1,0.2-0.1,0.2C43,24.5,43,24.4,43,24.4z
				 M42.9,23.9C42.9,23.9,42.9,24,42.9,23.9C43,24,43,23.9,42.9,23.9C43,23.9,43,23.9,42.9,23.9C42.9,23.9,42.9,23.9,42.9,23.9z
				 M43,23.8L43,23.8c0-0.1,0-0.1,0-0.1L43,23.8L43,23.8z M43,23.5L43,23.5L43,23.5L43,23.5C43,23.5,43,23.5,43,23.5z M43.1,23.5
				L43.1,23.5L43.1,23.5L43.1,23.5C43.1,23.4,43.1,23.5,43.1,23.5z M43.1,23.2C43.1,23.2,43.1,23.2,43.1,23.2
				C43.1,23.2,43.1,23.2,43.1,23.2L43.1,23.2z M43.1,23.2c0,0,0.1-0.1,0.1-0.2C43.1,23.1,43.1,23.1,43.1,23.2z M43.5,22.6L43.5,22.6
				L43.5,22.6C43.5,22.5,43.5,22.6,43.5,22.6z M44.3,26C44.3,25.9,44.4,25.9,44.3,26C44.3,25.9,44.3,25.9,44.3,26z M44.6,25.8
				L44.6,25.8c0.1,0,0.1,0,0.1-0.1C44.7,25.7,44.6,25.7,44.6,25.8z M44.8,25.5C44.8,25.5,44.8,25.5,44.8,25.5L44.8,25.5
				C44.8,25.5,44.8,25.5,44.8,25.5z M44.9,25.4C44.9,25.4,44.9,25.4,44.9,25.4L44.9,25.4C44.9,25.3,44.9,25.4,44.9,25.4z M45,25.3
				c0.1-0.1,0.1-0.1,0.1-0.1C45,25.2,45,25.2,45,25.3z M45.1,25.1C45.1,25.1,45.1,25.1,45.1,25.1C45.1,25.1,45.1,25.1,45.1,25.1
				L45.1,25.1z M45.2,25C45.2,25,45.3,25,45.2,25C45.2,24.9,45.2,25,45.2,25z M45.3,24.9L45.3,24.9c0.1,0,0.1,0,0.1-0.1
				C45.3,24.8,45.3,24.8,45.3,24.9z M45.4,25.1C45.3,25,45.4,25,45.4,25.1C45.3,25,45.3,25,45.4,25.1z M45.4,24.7
				C45.4,24.7,45.4,24.7,45.4,24.7C45.4,24.7,45.4,24.7,45.4,24.7C45.4,24.8,45.4,24.8,45.4,24.7z M45.4,24.7c0.1,0,0.1-0.1,0.1-0.1
				C45.4,24.6,45.4,24.6,45.4,24.7z M45.6,24.5C45.6,24.5,45.6,24.5,45.6,24.5C45.6,24.5,45.6,24.5,45.6,24.5z M45.7,24.6
				C45.6,24.6,45.6,24.7,45.7,24.6C45.6,24.7,45.7,24.6,45.7,24.6z M45.6,24.4C45.7,24.4,45.7,24.3,45.6,24.4l0-0.1
				C45.6,24.4,45.6,24.4,45.6,24.4z M45.7,24.6C45.7,24.5,45.7,24.5,45.7,24.6C45.7,24.5,45.7,24.5,45.7,24.6z M45.7,24.3
				c0.1,0,0.2-0.1,0.2-0.1C45.7,24.2,45.7,24.2,45.7,24.3z M45.9,24.4C45.9,24.4,45.9,24.4,45.9,24.4C45.9,24.4,45.9,24.4,45.9,24.4
				z M45.8,24.1c0.1,0,0.1-0.1,0.1-0.1C45.9,24.1,45.8,24.1,45.8,24.1z M45.9,24.3C46,24.3,45.9,24.3,45.9,24.3L45.9,24.3
				C45.9,24.3,45.9,24.3,45.9,24.3C45.9,24.3,45.9,24.3,45.9,24.3z M46,24C46,24,46,24,46,24c0-0.1,0-0.1,0-0.1
				C45.9,23.9,45.9,24,46,24z M46,23.9C46,23.9,46.1,23.8,46,23.9C46,23.8,46,23.9,46,23.9z M46,24.1c0.1,0,0.1-0.1,0.1-0.1
				C46.1,24,46.1,24,46,24.1z M46.2,23.6c-0.1,0-0.1,0.1-0.1,0.2C46.1,23.8,46.2,23.7,46.2,23.6z M46.2,23.9
				C46.2,23.8,46.2,23.8,46.2,23.9C46.2,23.8,46.2,23.8,46.2,23.9z M46.3,23.6C46.2,23.6,46.2,23.6,46.3,23.6L46.3,23.6z M46.4,23.4
				c0,0-0.1,0.1-0.1,0.1c0,0,0,0,0,0.1C46.3,23.5,46.3,23.5,46.4,23.4z M46.4,23.3c0,0,0,0,0,0.1C46.4,23.4,46.4,23.4,46.4,23.3z
				 M46.4,23.6C46.4,23.6,46.5,23.6,46.4,23.6C46.4,23.6,46.4,23.6,46.4,23.6z M46.4,23.2C46.4,23.2,46.5,23.2,46.4,23.2L46.4,23.2z
				 M46.5,23.1L46.5,23.1C46.6,23.1,46.6,23.1,46.5,23.1L46.5,23.1z M46.5,23.4C46.6,23.4,46.6,23.3,46.5,23.4
				C46.6,23.4,46.5,23.4,46.5,23.4z M46.6,23.1C46.6,23.1,46.6,23,46.6,23.1L46.6,23.1z M46.6,23.3C46.6,23.3,46.6,23.3,46.6,23.3
				L46.6,23.3z M46.7,23.3C46.7,23.2,46.8,23.2,46.7,23.3C46.7,23.2,46.7,23.2,46.7,23.3z M46.8,23.1C46.8,23.1,46.8,23.1,46.8,23.1
				C46.8,23.1,46.8,23.1,46.8,23.1z"/>
			<path d="M52.9,27.2c-0.3,0-0.6,0-0.8,0c-0.3,0-0.4-0.1-0.7-0.4c-0.1-0.1-0.3-0.2-0.4-0.5c0-0.1,0-0.2-0.1-0.3
				c0-0.1-0.1-0.1-0.1-0.2c0,0,0-0.1-0.1-0.1c0-0.1,0-0.1,0-0.2c0-0.2-0.2-0.9-0.2-1.1c0,0,0-0.1,0-0.1c0-0.1-0.1-0.3-0.1-0.5
				c-0.6,1.1-1.1,1.7-1.9,2.7c-0.3,0.3-1.2,1-1.7,1.1l0,0c0,0,0,0,0,0l-0.1,0c-0.3-0.1-0.5-0.1-0.8-0.6c-0.2-0.4-0.2-0.7-0.2-1.2
				c0-1.6,0.3-3.1,0.6-4.8c0.3-1,1.4-5.2,2.5-5.3l0,0c0,0,0.1,0,0.2-0.1c0.1,0,0.2,0,0.3,0.1c0,0,0.1-0.1,0.1-0.1c0,0,0,0.1,0.1,0.2
				l0,0.2c0,0.4-0.1,1.1-0.1,1.2l-0.4,1.1c0,0-0.4,1.3-0.4,1.3c0,0-0.5,1.6-0.5,1.6c0,0-0.7,2.3-0.7,2.3l-0.2,0.3c0,0,0,0.1,0,0.1
				c-0.1,0.5-0.3,0.9-0.3,1.6c0,0.2-0.1,0.4-0.1,0.6c0,0.5,0.1,0.8,0.1,0.8c0,0,0,0.1,0,0.1c0,0,0.1,0,0.1,0c0.4-0.1,0.9-0.4,1.3-1
				c0.5-0.6,1-1.2,1.4-1.9l0.6-0.9l0-0.1c0-0.1,0-0.3,0-0.5l0-0.1c0-0.5,0.1-1,0.2-1.5c0-0.2,0.1-0.4,0.1-0.5c0-0.5,0.2-1.1,0.3-1.6
				c0.2-0.9,0.4-1.7,0.8-2.5c0.2-0.6,0.4-1.1,0.7-1.6c0.3-0.5,0.4-0.9,0.8-1.2c0.2-0.2,0.4-0.4,0.6-0.6c0.1-0.1,0.3-0.1,0.4-0.2
				c0.1,0,0.2,0,0.2,0c0.1,0,0.1,0,0.2,0c0.4,0.1,0.6,0.4,0.6,0.8c0,0.3-0.1,0.6-0.1,0.9c-0.1,0.5-0.2,0.9-0.3,1.4
				c-0.1,0.3-0.2,0.6-0.3,0.9l-0.6,1.6l-0.1,0.1c-0.2,0.5-0.4,1.1-0.7,1.6c-0.1,0.3-0.3,0.6-0.4,0.9c-0.4,0.8-0.7,1.5-1.1,2.3
				c0,0.1-0.1,0.2-0.1,0.3c-0.1,0.2-0.3,0.6-0.3,0.8c0,0.2,0,0.3,0,0.5c0,0.1,0,0.2,0.1,0.4c0,0.2,0.1,0.6,0.2,0.8
				c0.2,0.3,0.5,0.7,1,0.6c0,0,0.1,0,0.2-0.1c0.3-0.1,0.3-0.1,0.6-0.3c0.1-0.1,0.2-0.1,0.2-0.2c0.1,0,0.2,0.1,0.2,0.2
				c0,0.2-0.1,0.4-0.4,0.7C53.4,27.1,53.2,27.2,52.9,27.2z M46.8,21.5c-0.3,1-0.4,2.2-0.5,3.2c0,0.1,0,0.3-0.1,0.4c0,0,0.1,0,0,0.1
				c0,0,0,0,0,0c0-0.1,0.2-1.7,0.2-1.9C46.7,22.5,46.8,22.3,46.8,21.5c0.3-0.8,0.4-1.2,0.6-2.2c0-0.1,0.1-0.1,0.1-0.2l0-0.1
				c-0.1,0.1-0.2,0.2-0.2,0.3L46.8,21.5z M49.3,16.7c0,0,0.1-0.2,0.1-0.3c0,0-0.1,0-0.2-0.1c-0.4,0-1.8,4.6-1.8,5.5
				c0,0.1,0,0.1,0,0.1l-0.4,1.3C47.2,23.3,49.3,16.7,49.3,16.7z M47.6,18.8c0-0.1,0.4-1,0.3-1.2C47.9,17.8,47.6,18.6,47.6,18.8
				L47.6,18.8z M53.8,15.1c-0.1,0.2-0.3,0.5-0.4,0.8c-0.3,0.7-0.5,1.5-0.8,2.3l-0.4,1.8c-0.1,0.5-0.2,0.9-0.2,1.3
				c0,0.2-0.3,1.1-0.3,1.2c0,0,0,0,0,0l0,0l0.1-0.1c0.2-0.4,0.7-1.5,0.9-1.9c0.4-0.9,0.8-1.8,1.2-2.8c0.2-0.6,0.4-1.2,0.6-1.7
				c0.1-0.5,0.3-1,0.3-1.4l0.2-0.9l0-0.2c0,0-0.1-0.1-0.1-0.1c0,0,0,0,0,0c-0.1,0-0.1,0.1-0.1,0.1C54.3,14,54.1,14.6,53.8,15.1z
				 M51.6,19.4c-0.1,0.2-0.1,0.4-0.1,0.5l0,0C51.6,19.8,51.6,19.6,51.6,19.4z M52,22.6C52,22.6,51.9,22.6,52,22.6
				C52,22.6,52,22.6,52,22.6z M51.5,18.9c0,0,0,0.1-0.1,0.2C51.5,19.1,51.5,19,51.5,18.9z M51.5,18.9c0,0,0.1-0.1,0-0.1L51.5,18.9z
				 M52,22.4L52,22.4L52,22.4C52.1,22.4,52,22.4,52,22.4C52,22.4,52,22.4,52,22.4z M52.7,16.1c0.3-0.7,0.6-1.2,0.9-1.9
				c0,0,0.1-0.1,0.1-0.2l0,0l0,0c-0.1,0.1-0.2,0.2-0.2,0.3c-0.1,0.2-0.2,0.4-0.3,0.6c-0.3,0.7-0.6,1.4-0.9,2.1
				c-0.2,0.6-0.3,1.3-0.6,1.9c0,0.1,0,0.2,0,0.3l0,0.1c0-0.1,0-0.2,0.1-0.3C52,18,52.3,17.1,52.7,16.1z M52.1,22.2
				C52.1,22.2,52.1,22.2,52.1,22.2C52.1,22.3,52.1,22.2,52.1,22.2z M52.1,22.1C52.1,22.1,52.2,22.1,52.1,22.1
				C52.2,22,52.1,22.1,52.1,22.1z M51.8,18C51.8,18.1,51.8,18.1,51.8,18c0,0.1,0.1,0,0.1-0.2l0-0.1C51.8,17.9,51.8,18,51.8,18z
				 M51.9,17.8C51.9,17.7,51.9,17.7,51.9,17.8C51.9,17.7,51.9,17.7,51.9,17.8z M51.9,17.6C52,17.6,52,17.6,51.9,17.6c0,0,0,0,0-0.1
				C52,17.5,51.9,17.5,51.9,17.6z M52,17.4c0,0,0-0.1,0-0.1C52,17.3,52,17.4,52,17.4z M52.6,21.6C52.6,21.6,52.6,21.6,52.6,21.6
				C52.6,21.6,52.6,21.6,52.6,21.6z M52,17.3c0.1,0,0.1-0.1,0.1-0.2C52,17.2,52,17.2,52,17.3z M52.1,17.1L52.1,17.1
				C52.1,17.1,52.1,17.1,52.1,17.1L52.1,17.1C52.1,17.1,52.1,17.1,52.1,17.1z M52.7,21.4c0.1,0,0.1-0.1,0.1-0.2
				C52.7,21.3,52.7,21.4,52.7,21.4z M52.1,17c0,0,0.1-0.1,0.1-0.1C52.1,16.9,52.1,16.9,52.1,17z M52.8,20.7c-0.1,0-0.1,0.1-0.1,0.1
				C52.8,20.8,52.9,20.8,52.8,20.7z M52.2,16.9c0.1,0,0-0.1,0-0.1C52.2,16.8,52.2,16.8,52.2,16.9z M52.2,16.7c0.1,0,0.1-0.1,0.1-0.1
				C52.3,16.6,52.3,16.6,52.2,16.7z M52.9,20.5c0,0,0,0.1,0,0.1C52.9,20.6,52.9,20.6,52.9,20.5z M53,20.8
				C52.9,20.8,52.9,20.8,53,20.8L53,20.8z M52.3,16.4C52.4,16.4,52.4,16.4,52.3,16.4C52.3,16.4,52.3,16.4,52.3,16.4z M53,20.3
				c-0.1,0-0.1,0.1-0.1,0.2C53,20.5,53,20.4,53,20.3z M52.4,16.3C52.4,16.3,52.4,16.3,52.4,16.3l0-0.1
				C52.4,16.2,52.4,16.2,52.4,16.3z M52.5,16.2C52.5,16.1,52.5,16.1,52.5,16.2C52.5,16.1,52.5,16.1,52.5,16.2z M53.1,20.2L53.1,20.2
				C53.1,20.2,53,20.2,53.1,20.2C53.1,20.3,53.1,20.3,53.1,20.2z M52.5,16.1L52.5,16.1C52.5,16.1,52.5,16,52.5,16.1
				C52.5,16,52.5,16.1,52.5,16.1z M53.2,19.9c-0.1,0.1-0.1,0.2-0.1,0.2C53.2,20.1,53.2,20.1,53.2,19.9z M52.7,16.7
				c0,0.1,0,0.1,0,0.2C52.7,16.9,52.7,16.8,52.7,16.7z M52.8,16.6c-0.1,0-0.1,0.1-0.1,0.2C52.7,16.7,52.7,16.7,52.8,16.6z
				 M52.6,15.8c0-0.1,0-0.1,0-0.1C52.6,15.7,52.6,15.8,52.6,15.8z M53.2,19.8c0,0.1,0,0.1,0,0.1C53.2,19.9,53.2,19.9,53.2,19.8z
				 M52.8,16.5C52.8,16.5,52.8,16.5,52.8,16.5C52.8,16.6,52.8,16.5,52.8,16.5z M53.3,19.6c-0.1,0-0.1,0.1-0.1,0.2
				C53.3,19.7,53.3,19.7,53.3,19.6z M52.9,16.3c0,0,0,0-0.1,0.2C52.9,16.5,52.9,16.4,52.9,16.3z M53.3,19.4c0,0,0,0.1,0,0.1
				C53.4,19.5,53.4,19.5,53.3,19.4z M52.9,16.2c0,0-0.1,0,0,0.1C52.9,16.3,52.9,16.3,52.9,16.2z M53.4,19.3L53.4,19.3
				c0,0,0,0-0.1,0.1C53.4,19.4,53.4,19.4,53.4,19.3z M53.5,19.7L53.5,19.7l0,0.1C53.4,19.8,53.4,19.7,53.5,19.7
				C53.4,19.7,53.4,19.7,53.5,19.7z M53.7,14.5c-0.1,0.1-0.1,0.2-0.2,0.3c-0.2,0.2-0.3,0.4-0.3,0.6c-0.1,0.1-0.1,0.2-0.1,0.4
				C53,15.9,52.9,16,53,16.1l0,0.1c0.1-0.1,0.1-0.2,0.2-0.4c0.1-0.1,0.1-0.2,0.1-0.4c0.1-0.2,0.2-0.4,0.3-0.6
				C53.6,14.8,53.6,14.7,53.7,14.5c0.1,0,0.2-0.1,0.2-0.3l0,0C53.8,14.3,53.7,14.4,53.7,14.5z M53.5,19.1c-0.1,0.1-0.1,0.1-0.1,0.2
				C53.5,19.2,53.5,19.2,53.5,19.1z M53.5,19.5L53.5,19.5C53.5,19.5,53.5,19.5,53.5,19.5L53.5,19.5z M52.9,15.1
				C52.9,15.1,52.9,15.1,52.9,15.1C52.9,15.1,52.9,15.1,52.9,15.1z M53.5,19.1C53.5,19,53.6,19,53.5,19.1C53.5,19,53.5,19,53.5,19.1
				z M53.6,18.8c0,0,0,0.1,0,0.1C53.6,18.9,53.6,18.8,53.6,18.8z M53.7,18.7C53.6,18.7,53.6,18.7,53.7,18.7
				C53.7,18.7,53.7,18.7,53.7,18.7z M53.7,19L53.7,19L53.7,19L53.7,19z M53.8,18.5L53.8,18.5L53.8,18.5c-0.1,0-0.1,0-0.1,0.1
				C53.7,18.6,53.8,18.6,53.8,18.5z M53.9,18.3c-0.1,0-0.1,0.1-0.1,0.2C53.8,18.4,53.9,18.4,53.9,18.3z M53.9,18.3c0,0,0-0.1,0-0.1
				C53.9,18.2,53.9,18.3,53.9,18.3z M54,18.1c0,0,0,0.1,0,0.1C54,18.1,54,18.1,54,18.1z M54,17.9c0,0-0.1,0.1-0.1,0.1
				C54,18,54,18,54,17.9z M54,17.9c0,0,0-0.1,0-0.2C54,17.8,54,17.8,54,17.9z M54.1,17.6L54.1,17.6C54.1,17.6,54.1,17.6,54.1,17.6
				L54.1,17.6C54.1,17.7,54.1,17.7,54.1,17.6z M54.3,17.2c-0.1,0.1-0.1,0.2-0.2,0.4C54.2,17.5,54.2,17.4,54.3,17.2z M54.5,16.6
				C54.5,16.6,54.5,16.6,54.5,16.6c0,0,0,0.1,0,0.1L54.5,16.6z"/>
			<path d="M58.6,26.9c0,0.2,0.1,0.4,0.2,0.7c0,0,0,0.1,0,0.1c0,0,0,0,0,0.1c0,0.1-0.1,0.1-0.1,0.1c-0.1,0-0.1,0-0.1,0
				c0,0,0,0-0.1,0l0,0c-0.1-0.1-0.2-0.1-0.4-0.1c-0.1,0-0.1-0.1-0.2-0.2c-0.1-0.2-0.2-0.4-0.2-0.7c0,0,0,0,0-0.1
				c0-0.2,0-0.3,0.1-0.6c0-0.2,0-0.4,0.1-0.6c0-0.1,0-0.1,0-0.2c0.1-0.3,0.1-0.7,0.2-0.9c0-0.2,0.1-0.5,0.1-0.6l0.3-1.4
				c0.1-0.3,0.1-0.5,0.2-0.9c0-0.2,0.1-0.5,0.2-0.7c0-0.1,0-0.1,0.1-0.2c0-0.1,0-0.1,0-0.2l0-0.1c0.1-0.3,0.1-0.5,0.2-0.7
				c0.1-0.3,0.1-0.5,0.1-0.7c0.1-0.1,0.1-0.2,0.1-0.3c0.1-0.3,0.1-0.6,0.2-0.9c0-0.1,0-0.2,0-0.2c0.1-0.6,0.3-1.1,0.4-1.7
				c0,0,0-0.1,0-0.1c0,0,0,0,0-0.1c0,0,0,0-0.1,0c0,0-0.1,0-0.1,0.1c-0.3,0.2-0.6,0.4-0.9,0.7c-0.3,0.3-0.6,0.6-0.9,1
				c-0.3,0.2-0.5,0.5-0.7,0.8c-0.1,0.3-0.3,0.6-0.4,0.8c-0.1,0.1-0.1,0.3-0.2,0.5c0,0,0,0.1-0.1,0.2c0,0,0,0.1,0,0.1s0,0-0.1,0
				c-0.1,0-0.1,0-0.1-0.1c-0.1-0.1-0.2-0.3-0.2-0.4c0-0.1,0-0.1,0-0.2c0-0.4,0.2-0.8,0.4-1.1c0.2-0.3,0.3-0.5,0.5-0.8c0,0,0,0,0.1,0
				c0.2-0.2,0.4-0.5,0.7-0.8c0.3-0.3,0.7-0.6,1-0.9c0.3-0.2,0.6-0.5,0.9-0.6c0,0,0.1-0.1,0.1-0.1c0.2-0.1,0.4-0.2,0.5-0.4
				c0,0,0.1-0.1,0.1-0.1c0,0,0,0,0,0c0,0,0.1,0,0.1,0c0.1,0,0.1,0,0.2-0.1c0.3-0.1,0.7-0.3,1-0.4c0.3-0.1,0.5-0.1,0.7-0.2
				c0.1,0,0.2,0,0.2,0c0.1,0,0.3,0,0.4-0.1c0.6-0.1,1.1-0.1,1.6,0.1c0.3,0.1,0.5,0.2,0.8,0.4c0.2,0.2,0.4,0.4,0.6,0.7
				c0.2,0.2,0.2,0.4,0.2,0.7l0,0c0,0.1,0,0.2,0,0.3c0,0.2,0,0.4-0.1,0.5c0,0.2-0.1,0.4-0.2,0.6c0,0.1,0,0.1,0.2,0.1
				c0.1,0,0.3-0.1,0.5-0.1c0.1,0,0.1,0,0.1,0c0.1,0.1,0.1,0.1,0.2,0.1c0,0,0,0.1,0.1,0.1c0,0,0,0,0,0c0,0,0,0,0.1,0.1
				c0,0,0.1,0,0.1,0.1c0,0-0.1,0-0.1,0.1c-0.1,0-0.2,0.1-0.3,0.1c-0.3,0.1-0.6,0.3-0.9,0.3c-0.1,0-0.1,0.1-0.2,0.2l-0.3,0.5
				c-0.3,0.5-0.5,0.9-0.9,1.3c-0.2,0.2-0.4,0.4-0.6,0.6c-0.2,0.3-0.5,0.5-0.8,0.7c-0.3,0.2-0.5,0.4-0.7,0.6
				c-0.3,0.2-0.6,0.4-0.7,0.5c-0.2,0.1-0.4,0.2-0.5,0.3c-0.4,0.2-0.7,0.3-1.2,0.4c-0.3,0-0.5,0-0.7-0.1c0,0,0,0,0,0
				c0,0-0.1-0.1-0.1-0.1c-0.1,0.1-0.1,0.1-0.1,0.1c-0.1,0.4-0.2,0.7-0.3,1.2c-0.1,0.5-0.2,1-0.3,1.5c-0.1,0.3-0.1,0.7-0.2,1
				c0,0.3-0.1,0.6-0.1,1C58.6,26.8,58.6,26.8,58.6,26.9L58.6,26.9z M58,26.2C58,26.2,58,26.2,58,26.2l0,0.2c0,0,0,0,0-0.1L58,26.2z
				 M59.2,20.2c-0.1,0.4-0.2,0.8-0.3,1.2c-0.1,0.6-0.3,1.2-0.4,1.8c-0.1,0.3-0.1,0.5-0.2,0.8c0,0.3-0.1,0.7-0.2,1
				c0,0.2-0.1,0.5-0.1,0.8l0,0.1c0,0,0,0,0,0c0-0.1,0.1-0.2,0-0.3c0-0.2,0.1-0.5,0.1-0.8c0.1-0.3,0.1-0.6,0.2-1
				c0.1-0.3,0.1-0.6,0.1-0.8c0.1-0.6,0.3-1.1,0.4-1.7c0.1-0.5,0.2-1.1,0.3-1.7c0.2-0.6,0.3-1.2,0.5-1.8c0-0.1,0-0.2,0-0.2
				c-0.1,0-0.1,0.2-0.1,0.3C59.5,18.7,59.3,19.5,59.2,20.2z M60.2,16.7c-0.1,0.3-0.2,0.5-0.2,0.8c-0.1,0.4-0.2,0.9-0.3,1.3
				c-0.2,0.8-0.5,1.7-0.6,2.6c-0.1,0.4-0.2,0.9-0.3,1.4c-0.2,0.8-0.4,1.6-0.5,2.4l0,0.3c0,0.1,0,0.3-0.1,0.5l0,0.6l0,0.1
				c0,0,0,0,0,0c0,0,0-0.1,0-0.1c0.1-0.2,0.1-0.3,0.1-0.4c0-0.3,0.1-0.6,0.1-0.8c0.1-0.4,0.2-0.8,0.3-1.2l0.4-2
				c0.2-0.5,0.2-1,0.3-1.5c0.1-0.6,0.3-1.2,0.4-1.8c0.1-0.5,0.3-1.2,0.4-1.7c0-0.1,0.1-0.3,0.1-0.5C60.2,16.6,60.2,16.7,60.2,16.7z
				 M58.5,25.6L58.5,25.6C58.5,25.6,58.5,25.5,58.5,25.6L58.5,25.6z M57.4,17.2C57.4,17.2,57.4,17.2,57.4,17.2
				C57.4,17.2,57.4,17.2,57.4,17.2z M57.6,17c-0.1,0-0.1,0.1-0.1,0.2C57.5,17.1,57.6,17.1,57.6,17z M58.7,25
				C58.7,25,58.7,25,58.7,25L58.7,25L58.7,25z M58.7,24.6L58.7,24.6c0-0.1,0.1-0.2,0.1-0.3l-0.1,0C58.7,24.3,58.7,24.4,58.7,24.6
				C58.7,24.5,58.7,24.5,58.7,24.6L58.7,24.6z M59,15.4C59,15.4,59,15.5,59,15.4c-0.2,0.1-0.2,0.1-0.2,0.2c0,0,0,0,0,0
				c0,0,0,0-0.1,0.1c-0.1,0-0.2,0.1-0.2,0.1c0,0-0.1,0-0.1,0c0,0,0,0,0,0.1c0,0,0,0,0,0c-0.1,0-0.1,0-0.1,0.1
				c-0.1,0.1-0.2,0.2-0.4,0.4l0,0.1c0.1,0,0.1-0.1,0.2-0.1c-0.1,0-0.1,0.1-0.1,0.1c-0.1,0.1-0.2,0.2-0.2,0.2c0,0.1-0.1,0.1-0.1,0.2
				c0.1-0.1,0.1-0.2,0.2-0.2c0.3-0.3,0.6-0.7,1-0.9c0.4-0.3,0.8-0.7,1.2-0.9c0.1-0.1,0.1-0.1,0.1-0.1L60,14.8
				c-0.2,0.1-0.4,0.3-0.6,0.4c-0.1,0.1-0.2,0.2-0.2,0.2l0,0C59.1,15.3,59.1,15.4,59,15.4L59,15.4z M57.7,16.7
				C57.7,16.7,57.7,16.7,57.7,16.7C57.7,16.7,57.7,16.7,57.7,16.7z M58.8,24C58.8,24.1,58.8,24.1,58.8,24
				C58.8,24.1,58.8,24.1,58.8,24L58.8,24z M58.9,23.7L58.9,23.7L58.9,23.7L58.9,23.7z M58.9,23.6L58.9,23.6
				C58.9,23.5,58.9,23.5,58.9,23.6L58.9,23.6z M59,23.3C58.9,23.3,58.9,23.3,59,23.3L59,23.3L59,23.3L59,23.3z M59,23.1L59,23.1
				C59,23.1,59,23.1,59,23.1L59,23.1z M59.1,22.8c0,0,0,0,0,0.1l0,0L59.1,22.8z M59.1,22.7L59.1,22.7L59.1,22.7
				C59.1,22.7,59.1,22.7,59.1,22.7C59.1,22.7,59.1,22.7,59.1,22.7L59.1,22.7z M58.6,16.3c0.2-0.1,0.4-0.3,0.5-0.5
				c0.3-0.2,0.6-0.4,0.8-0.6c0.1,0,0.1-0.1,0.1-0.1c-0.1,0-0.1,0-0.2,0.1c-0.4,0.3-0.8,0.6-1.1,0.9c-0.2,0.1-0.3,0.2-0.4,0.4
				c0,0,0,0,0,0c0,0,0,0,0.1,0C58.5,16.4,58.5,16.4,58.6,16.3z M59.2,22.2C59.2,22.2,59.2,22.2,59.2,22.2L59.2,22.2
				C59.2,22.2,59.2,22.2,59.2,22.2L59.2,22.2z M59.2,21.9L59.2,21.9C59.2,21.9,59.2,21.9,59.2,21.9C59.2,21.9,59.3,22,59.2,21.9
				C59.2,21.9,59.2,21.9,59.2,21.9L59.2,21.9z M64.4,18.1c-0.1,0-0.1,0-0.1,0.1c-0.4,0.2-0.8,0.4-1.2,0.7c-0.5,0.3-1,0.6-1.4,1
				c-0.3,0.2-0.6,0.4-0.8,0.7c-0.1,0.1-0.3,0.2-0.4,0.4c0,0-0.1,0-0.1,0c-0.1,0.1-0.2,0.2-0.3,0.3C60,21.4,60,21.4,60,21.5
				c0,0-0.1,0-0.1,0.1c0,0,0.1,0.1,0.1,0c0.2-0.1,0.3-0.1,0.5-0.2c0.2-0.1,0.5-0.2,0.7-0.4c0.2-0.1,0.4-0.3,0.7-0.5
				c0.4-0.3,0.9-0.7,1.3-1.1c0.1-0.1,0.2-0.2,0.3-0.3c0,0,0-0.1,0.1-0.1c0.1-0.2,0.2-0.2,0.3-0.4C64.2,18.6,64.3,18.4,64.4,18.1
				C64.5,18.2,64.5,18.2,64.4,18.1C64.4,18.1,64.4,18.1,64.4,18.1z M60.3,20.2c-0.2,0.1-0.3,0.2-0.3,0.3l0,0c0,0,0,0,0,0.1
				c0,0,0,0.1,0,0.1c0,0-0.1,0-0.1,0.1c0,0,0.1,0,0.1,0c0.2-0.1,0.3-0.3,0.4-0.4c0.4-0.3,0.7-0.6,1.2-1c0.3-0.2,0.6-0.3,0.8-0.6
				c0,0,0.1-0.1,0.1-0.1c-0.1,0.1-0.1,0.1-0.2,0.1c-0.4,0.3-0.8,0.5-1.2,0.8c-0.1,0.1-0.2,0.2-0.3,0.2l0-0.1c0,0-0.1,0.1-0.1,0.1
				c0,0,0,0,0,0c-0.1,0-0.1,0-0.1,0.1c0,0-0.2,0-0.2,0.1L60.3,20.2z M59.8,19.8c0,0,0-0.1,0-0.1l0,0l0,0
				C59.8,19.8,59.8,19.8,59.8,19.8L59.8,19.8z M62.6,14.2c-0.3,0.1-0.7,0.2-1,0.4c-0.1,0.1-0.2,0.1-0.2,0.3l-0.3,1
				c0,0.1-0.1,0.2-0.1,0.3c-0.1,0.6-0.3,1.2-0.5,1.7c-0.2,0.7-0.3,1.4-0.5,2.1l0,0c0,0,0,0,0,0.1l0,0c0.1-0.1,0.1-0.1,0.2-0.1
				c0.3-0.3,0.7-0.6,1-0.8c0.4-0.3,0.7-0.5,1.1-0.7c0,0,0.1,0,0.1-0.1c0.3-0.2,0.6-0.4,0.9-0.6c0.5-0.3,1.1-0.6,1.7-0.8
				c0.1-0.1,0.2-0.1,0.2-0.2c0.1-0.1,0.1-0.2,0.1-0.3c0.1-0.3,0.2-0.7,0.4-1c0-0.1,0-0.2,0.1-0.4c0,0-0.1-0.1,0-0.2c0,0,0-0.1,0-0.1
				c0,0,0-0.1,0-0.1c0-0.1-0.1-0.3-0.1-0.4c0-0.2-0.1-0.3-0.4-0.4c-0.3-0.1-0.6-0.2-0.9-0.2c-0.3,0-0.6,0-0.9,0
				C63.2,14,62.9,14.1,62.6,14.2z M59.9,17.5c-0.1,0-0.1,0.1-0.1,0.2C59.8,17.6,59.8,17.6,59.9,17.5z M60.7,20.3
				c-0.1,0.2-0.3,0.3-0.4,0.5c0,0,0.1,0,0.1,0c0.2-0.2,0.4-0.4,0.6-0.6c0.4-0.3,0.8-0.6,1.2-0.9c0.1-0.1,0.2-0.1,0.3-0.2
				c-0.1,0-0.3,0.1-0.4,0.2C61.6,19.6,61.1,19.9,60.7,20.3z M59.9,17.4C59.9,17.4,59.9,17.3,59.9,17.4
				C59.9,17.3,59.8,17.4,59.9,17.4C59.8,17.4,59.8,17.4,59.9,17.4C59.9,17.4,59.9,17.4,59.9,17.4z M59.9,17.2
				C59.9,17.2,59.9,17.2,59.9,17.2C59.9,17.2,59.9,17.2,59.9,17.2C59.9,17.1,59.9,17.1,59.9,17.2C59.9,17.1,59.9,17.1,59.9,17.2z
				 M59.9,17.1c0.1-0.1,0-0.1,0.1-0.2C59.9,16.9,59.9,17,59.9,17.1z M60,16.8L60,16.8L60,16.8L60,16.8L60,16.8z M60.1,16.4
				L60.1,16.4C60.1,16.4,60.1,16.4,60.1,16.4L60.1,16.4z M60.3,16.4C60.3,16.4,60.3,16.4,60.3,16.4l0,0.1
				C60.3,16.5,60.3,16.5,60.3,16.4L60.3,16.4z M61.7,21.3C61.6,21.3,61.6,21.3,61.7,21.3C61.6,21.3,61.6,21.3,61.7,21.3z M63.5,19.7
				c-0.2,0.1-0.3,0.2-0.4,0.3c0,0,0,0-0.1,0c-0.1,0.1-0.2,0.1-0.2,0.2l0.1,0c-0.1,0.1-0.1,0.1-0.2,0.2c-0.4,0.2-0.7,0.5-1,0.7
				c0,0-0.1,0-0.1,0.1c0.1-0.1,0.2-0.1,0.3-0.1c0.4-0.3,0.8-0.6,1.2-0.9c0.4-0.3,0.6-0.6,0.9-0.9c0.1-0.1,0.3-0.3,0.4-0.5
				c0,0,0.1,0,0.1-0.1L64.3,19c-0.1,0.1-0.2,0.2-0.3,0.3l0-0.1c-0.1,0.1-0.2,0.2-0.4,0.4C63.6,19.5,63.6,19.6,63.5,19.7
				C63.6,19.6,63.5,19.6,63.5,19.7z M62,21.3c0,0-0.1,0.1-0.1,0.1C61.9,21.4,62,21.4,62,21.3c0.2,0,0.4-0.2,0.5-0.3
				c0.3-0.2,0.6-0.4,0.8-0.7c0.2-0.1,0.5-0.4,0.6-0.6c0.1-0.1,0.2-0.1,0.2-0.3c-0.3,0.2-0.5,0.4-0.8,0.7C62.9,20.6,62.5,21,62,21.3z
				 M62.8,18.8c-0.1,0-0.3,0.1-0.4,0.3C62.5,19,62.7,18.9,62.8,18.8z M62.4,18.8c0.2-0.1,0.3-0.1,0.4-0.2
				C62.7,18.6,62.5,18.6,62.4,18.8z M62.8,20.3c0,0-0.1,0-0.1,0.1C62.8,20.4,62.8,20.4,62.8,20.3z M62.8,18.8
				C62.8,18.8,62.8,18.8,62.8,18.8C62.8,18.8,62.8,18.8,62.8,18.8z M62.8,18.5C62.8,18.5,62.9,18.5,62.8,18.5
				C62.9,18.5,62.8,18.5,62.8,18.5z M63.2,18.5c-0.1,0.1-0.2,0.1-0.4,0.3C63,18.7,63.1,18.6,63.2,18.5z M63,18.4
				C63,18.4,63,18.4,63,18.4C63,18.4,63,18.4,63,18.4z M63.4,18.4L63.4,18.4C63.4,18.4,63.4,18.4,63.4,18.4L63.4,18.4z M64,19.1
				C64,19.1,64.1,19.1,64,19.1L64,19.1z M64.2,19c0.1-0.1,0.1-0.1,0.2-0.3C64.3,18.8,64.2,18.9,64.2,19z M64.6,18.7
				c0.1,0,0.1-0.1,0.1-0.2C64.6,18.5,64.6,18.6,64.6,18.7z"/>
			<path d="M67.2,19.6l0-0.1C67.2,19.5,67.1,19.6,67.2,19.6C67.2,19.6,67.2,19.6,67.2,19.6C67.2,19.7,67.2,19.7,67.2,19.6
				c0,0.1,0,0.1,0,0.2c-0.3,0.5-0.5,0.9-0.6,1.4c0,0.1-0.1,0.3-0.1,0.5c0.1,0,0.1-0.1,0.1-0.2c0.1-0.4,0.3-0.8,0.5-1.3
				c0.1-0.2,0.3-0.6,0.4-0.8c0.1-0.1,0.1-0.1,0.1-0.2c0-0.1,0-0.1,0-0.1c0.1,0,0.1,0.1,0.2,0.1l0,0c0,0,0,0,0,0c0,0,0,0,0,0
				c0.1,0,0.1,0,0.1,0c0,0.1,0,0.1-0.1,0.2c-0.1,0.3-0.2,0.6-0.3,0.9c-0.1,0.5-0.3,1-0.4,1.6c-0.1,0.4-0.2,0.7-0.2,1.1l0,0.3
				c0,0,0,0,0.1,0c0.1,0,0.2-0.1,0.2-0.1c0.3-0.3,0.6-0.5,0.9-0.9c0.3-0.4,0.6-0.7,0.9-1c0.3-0.3,0.5-0.6,0.8-0.9
				c0.4-0.4,0.7-0.8,1-1.1l0.1-0.2c0,0.1,0.1,0.1,0.1,0.2l0,0c0,0,0,0.1,0,0.1c0,0.2-0.2,0.4-0.3,0.7c-0.1,0.1-0.2,0.1-0.2,0.2l0,0
				c-0.3,0.3-0.5,0.5-0.7,0.8c-0.4,0.5-0.8,0.9-1.1,1.4c-0.1,0.2-0.3,0.4-0.5,0.6c-0.1,0.1-0.2,0.2-0.3,0.4L67.4,24
				c-0.1,0.1-0.2,0.1-0.3,0.1c-0.1,0-0.2,0-0.2,0c-0.1,0-0.2,0-0.3-0.1c-0.1,0-0.2,0-0.3-0.1c-0.1-0.1-0.2-0.2-0.2-0.3
				c-0.1-0.2-0.2-0.4-0.2-0.6c0-0.5,0-0.9,0.2-1.4c0-0.3,0.1-0.6,0.2-0.9l0.4-0.8c0.1-0.2,0.3-0.4,0.5-0.6c0-0.1,0.1-0.1,0.2-0.1
				c0,0.1,0,0.1,0,0.1c0,0,0,0,0,0.1c0,0,0,0.1,0,0.1l0,0l0,0c0,0,0,0,0,0C67.4,19.5,67.3,19.6,67.2,19.6z M66.3,21.6
				C66.3,21.6,66.3,21.6,66.3,21.6C66.3,21.6,66.3,21.6,66.3,21.6L66.3,21.6z M66.4,21.4C66.3,21.5,66.4,21.5,66.4,21.4
				c0,0.1,0,0.1,0,0.1C66.4,21.5,66.4,21.5,66.4,21.4C66.4,21.5,66.4,21.4,66.4,21.4z M66.4,21.3C66.4,21.4,66.4,21.4,66.4,21.3
				C66.4,21.4,66.4,21.4,66.4,21.3z M66.5,21.7C66.5,21.7,66.5,21.7,66.5,21.7l0,0.1C66.5,21.8,66.5,21.8,66.5,21.7L66.5,21.7z
				 M66.5,21.2c0,0-0.1,0,0,0.1C66.5,21.3,66.5,21.2,66.5,21.2z M66.5,21.1C66.5,21.1,66.5,21.1,66.5,21.1l0,0.1
				C66.5,21.2,66.5,21.1,66.5,21.1C66.5,21.1,66.5,21.1,66.5,21.1z M66.7,20.6c-0.1,0.1-0.2,0.3-0.2,0.5
				C66.6,20.9,66.7,20.8,66.7,20.6z M66.7,20.5C66.7,20.5,66.7,20.6,66.7,20.5C66.7,20.6,66.7,20.5,66.7,20.5z M66.7,20.4L66.7,20.4
				C66.7,20.5,66.8,20.5,66.7,20.4C66.8,20.4,66.7,20.4,66.7,20.4z M67,19.9c-0.1,0.1-0.2,0.3-0.3,0.5C66.9,20.3,67,20.1,67,19.9z
				 M67.1,19.8c0,0-0.1,0-0.1,0.1C67,19.9,67.1,19.9,67.1,19.8z M67.1,19.7C67.1,19.7,67.1,19.7,67.1,19.7c-0.1,0.1,0,0.1,0,0.1
				C67.1,19.8,67.1,19.7,67.1,19.7z M67.8,23.4C67.8,23.4,67.8,23.4,67.8,23.4c0,0,0,0.1,0,0.1C67.7,23.5,67.8,23.5,67.8,23.4
				C67.8,23.4,67.8,23.4,67.8,23.4z M67.3,19.4c-0.1,0-0.1,0.1-0.1,0.2C67.3,19.5,67.4,19.5,67.3,19.4
				C67.4,19.4,67.4,19.4,67.3,19.4z M68,23.2c-0.1,0-0.1,0.1-0.2,0.2C67.9,23.3,67.9,23.3,68,23.2z M67.5,19.2
				C67.5,19.2,67.5,19.3,67.5,19.2C67.5,19.3,67.4,19.3,67.5,19.2C67.4,19.3,67.4,19.3,67.5,19.2C67.5,19.2,67.5,19.2,67.5,19.2
				L67.5,19.2L67.5,19.2C67.5,19.2,67.5,19.2,67.5,19.2z M68.2,22.9c-0.1,0-0.1,0.1-0.1,0.2C68.1,23,68.2,23,68.2,22.9L68.2,22.9z
				 M68.1,22.7C68.1,22.7,68.1,22.7,68.1,22.7L68.1,22.7C68.2,22.7,68.2,22.7,68.1,22.7C68.2,22.7,68.1,22.7,68.1,22.7z M68.2,22.8
				C68.2,22.9,68.2,22.9,68.2,22.8L68.2,22.8C68.2,22.9,68.2,22.9,68.2,22.8z M68.3,22.7c-0.1,0-0.1,0.1-0.1,0.1
				C68.3,22.8,68.3,22.8,68.3,22.7z M68.2,22.6c0,0,0.1-0.1,0.1-0.1c0,0,0,0,0,0C68.2,22.5,68.2,22.5,68.2,22.6z M68.3,22.4
				C68.3,22.4,68.4,22.4,68.3,22.4C68.4,22.4,68.4,22.4,68.3,22.4L68.3,22.4L68.3,22.4z M68.5,22.5l-0.1,0.2
				C68.4,22.6,68.5,22.6,68.5,22.5z M68.7,17.5c-0.1,0.1-0.1,0.1-0.2,0.2c0,0,0,0.1,0,0.1c0,0,0,0.1,0,0.1c-0.1,0.1-0.1,0.1-0.1,0.2
				c-0.1,0-0.1,0-0.1,0c0,0,0-0.1-0.1-0.1l0-0.1c0,0-0.1,0-0.2-0.1c0-0.1-0.1,0-0.2-0.1c-0.1,0-0.1,0-0.1-0.1c0-0.2,0.1-0.4,0.3-0.6
				c0,0,0.1-0.1,0.1-0.1c0,0,0.1,0,0.1,0c0.1,0,0.2,0,0.3,0.1c0.1,0,0.2,0.1,0.2,0.2C68.7,17.4,68.7,17.5,68.7,17.5z M68.5,22.4
				L68.5,22.4L68.5,22.4C68.5,22.4,68.5,22.4,68.5,22.4z M68.7,22.3c-0.1,0-0.1,0.1-0.1,0.1C68.6,22.4,68.7,22.3,68.7,22.3z
				 M68.5,22.2C68.5,22.2,68.6,22.2,68.5,22.2L68.5,22.2L68.5,22.2C68.6,22.2,68.5,22.2,68.5,22.2z M68.6,22.1
				C68.6,22.1,68.6,22.1,68.6,22.1L68.6,22.1C68.7,22,68.6,22.1,68.6,22.1z M68.8,22.2L68.8,22.2C68.7,22.2,68.7,22.2,68.8,22.2
				L68.8,22.2C68.7,22.3,68.7,22.3,68.8,22.2z M68.7,22C68.7,22,68.8,22,68.7,22c0.1-0.1,0.1-0.1,0.1-0.1
				C68.8,21.9,68.8,21.9,68.7,22C68.7,22,68.7,22,68.7,22L68.7,22z M68.9,22c-0.1,0.1-0.1,0.1-0.1,0.2C68.8,22.2,68.9,22.1,68.9,22z
				 M68.1,17.4L68.1,17.4C68.1,17.3,68.1,17.3,68.1,17.4C68.1,17.3,68.1,17.3,68.1,17.4L68.1,17.4z M68.8,21.9
				c0.1,0,0.1-0.1,0.2-0.2C68.9,21.8,68.8,21.8,68.8,21.9z M68.4,17.3L68.4,17.3L68.4,17.3L68.4,17.3l-0.1,0c-0.1,0-0.1,0-0.1,0.1
				l0.1,0c-0.1,0-0.1,0.1-0.1,0.1c0,0,0,0,0,0.1C68.3,17.4,68.3,17.4,68.4,17.3z M69,21.9C69,22,69,22,69,21.9
				c0,0.1-0.1,0.1-0.1,0.1c0,0,0,0,0,0C69,22,69,22,69,21.9L69,21.9z M69.1,21.8C69.1,21.8,69,21.8,69.1,21.8
				C69,21.8,69.1,21.8,69.1,21.8z M69.3,21.5L69.3,21.5C69.3,21.5,69.3,21.5,69.3,21.5C69.3,21.5,69.3,21.5,69.3,21.5L69.3,21.5z
				 M69.5,21.2C69.5,21.1,69.5,21.1,69.5,21.2L69.5,21.2L69.5,21.2L69.5,21.2z M69.8,20.8c-0.1,0-0.1,0.1-0.1,0.1L69.6,21
				C69.7,20.9,69.7,20.9,69.8,20.8z M69.7,21.1C69.7,21.1,69.7,21.1,69.7,21.1c-0.1,0.1-0.1,0.1-0.1,0.1
				C69.7,21.2,69.7,21.1,69.7,21.1L69.7,21.1z M69.8,21C69.8,21,69.8,21,69.8,21L69.8,21z M69.9,20.9C69.9,20.8,69.9,20.8,69.9,20.9
				C69.9,20.8,69.9,20.8,69.9,20.9z M69.9,20.7L69.9,20.7C69.9,20.7,69.9,20.7,69.9,20.7z M70.1,20.6c-0.1,0-0.1,0.1-0.2,0.2
				C70.1,20.8,70.1,20.7,70.1,20.6z M70,20.5L70,20.5l0,0.1C70,20.6,70,20.6,70,20.5C70,20.6,70,20.6,70,20.5z M70.4,20.2
				c-0.1,0-0.1,0.1-0.2,0.2C70.3,20.4,70.3,20.3,70.4,20.2z M70.6,20.1c-0.1,0-0.1,0.1-0.1,0.1C70.5,20.2,70.6,20.2,70.6,20.1
				L70.6,20.1z M70.6,19.9c-0.1,0-0.1,0.1-0.1,0.1c-0.1,0-0.1,0-0.1,0C70.5,20.1,70.6,20,70.6,19.9z M70.8,19.7
				c-0.1,0.1-0.1,0.1-0.1,0.2C70.7,19.8,70.8,19.8,70.8,19.7z M70.8,19.9C70.7,19.9,70.7,20,70.8,19.9L70.8,19.9z M70.8,19.8
				C70.8,19.8,70.8,19.8,70.8,19.8C70.8,19.8,70.8,19.8,70.8,19.8L70.8,19.8z M70.9,19.4c-0.1,0-0.1,0.1-0.1,0.1l0,0.1
				C70.9,19.6,70.9,19.5,70.9,19.4z"/>
			<path d="M75.6,19.7c0,0.9-1,1.7-1,1.8c0,0,0,0,0.1,0l0,0c-0.3,0.4-0.8,0.9-1.1,1.3c-0.4,0.4-0.9,0.8-1.5,1
				c-0.2,0.1-0.4,0.1-0.6,0.2c-0.3,0-0.6,0-0.8-0.1c-0.3-0.2-0.6-0.3-0.8-0.6c-0.1-0.1-0.1-0.3-0.2-0.4c0-0.1,0-0.2,0-0.3
				c0-0.1,0-0.2,0-0.3l0-0.5c0.1-0.3,0.1-0.5,0.2-0.7l0-0.1c0,0,0.1,0,0.1-0.1c0,0,0-0.1-0.1-0.1c0,0,0,0,0,0l0.1-0.1
				c0.1,0,0.1-0.1,0.2-0.2c0.1-0.3,0.2-0.5,0.4-0.8c0.2-0.3,0.4-0.6,0.7-0.9c0.2-0.2,0.4-0.4,0.6-0.6c0.1-0.1,0.2-0.2,0.4-0.2
				c0.1,0,0.3-0.1,0.3-0.1c0.3,0,0.5,0,0.8,0.1c0.3,0.1,0.4,0.3,0.4,0.6c0,0,0,0,0,0.1c0,0.2-0.1,0.4-0.2,0.6
				c-0.2,0.3-0.4,0.7-0.7,0.9c-0.4,0.3-0.8,0.6-1.2,0.7l-0.3,0.1c-0.1,0-0.2,0.1-0.2,0.2l-0.2,1.6c0,0,0,0.1,0,0.1
				c0,0.1,0,0.3,0.1,0.4c0,0.1,0.1,0.2,0.3,0.1l0.2,0c0.4-0.1,0.8-0.3,1.2-0.6c0.3-0.3,0.7-0.6,1-0.9c0.2-0.2,0.6-0.5,0.8-0.7
				c0.3-0.3,0.5-0.6,0.8-1c0.1-0.2,0.3-0.5,0.4-0.7C75.6,19.5,75.6,19.6,75.6,19.7z M70.6,20.2C70.6,20.2,70.6,20.2,70.6,20.2
				C70.6,20.2,70.6,20.2,70.6,20.2L70.6,20.2z M70.7,19.8c-0.1,0.1-0.1,0.2-0.1,0.3C70.7,20.1,70.7,19.9,70.7,19.8z M71.8,18.6
				L71.8,18.6L71.8,18.6c-0.1,0-0.2,0.1-0.3,0.2c-0.3,0.3-0.5,0.7-0.7,1.1c-0.1,0.1-0.1,0.3-0.2,0.4l0.1-0.2c0-0.1,0.1-0.2,0.1-0.2
				C71.2,19.5,71.5,19.1,71.8,18.6z M70.7,19.8c0.1,0,0.1-0.1,0.1-0.1C70.8,19.8,70.8,19.8,70.7,19.8z M70.8,19.7
				c0.1-0.1,0.2-0.2,0.2-0.4c0,0,0.1-0.1,0-0.1c-0.1,0-0.1,0.1-0.1,0.1C70.9,19.5,70.9,19.6,70.8,19.7z M71.1,19.3
				c0.1,0,0.1-0.1,0.1-0.2C71.2,19.1,71.1,19.2,71.1,19.3z M71.3,19c-0.1,0-0.1,0.1-0.1,0.1L71.3,19z M71.4,19.6
				C71.5,19.6,71.5,19.6,71.4,19.6C71.5,19.6,71.4,19.6,71.4,19.6L71.4,19.6z M72.7,18.5c-0.2,0.1-0.3,0.2-0.4,0.4
				c-0.3,0.4-0.5,0.7-0.7,1.1c0,0,0,0,0,0.1l0,0c0,0,0,0,0.1,0c0.1-0.1,0.2-0.1,0.3-0.2c0.3-0.3,0.6-0.6,0.8-1
				c0.1-0.2,0.2-0.3,0.2-0.5l0,0c0,0,0-0.1-0.1,0L72.7,18.5L72.7,18.5z M71.4,18.9c0,0,0-0.1,0-0.1L71.4,18.9z M71.6,19.4
				c0,0-0.1,0-0.1,0.1C71.6,19.5,71.6,19.5,71.6,19.4z M72.2,18.6C72.2,18.6,72.1,18.6,72.2,18.6c-0.3,0.3-0.5,0.5-0.6,0.8
				c0,0,0.1,0,0.1-0.1C71.8,19.1,72,18.9,72.2,18.6L72.2,18.6z M72.9,19.2c0,0,0,0.1,0,0.1L72.9,19.2c0,0.2,0,0.2-0.1,0.3
				c0,0-0.1,0.1-0.1,0.1l0,0c0,0,0,0,0,0c0,0,0.1-0.1,0.1-0.1c0.1-0.1,0.2-0.2,0.2-0.3c0.1-0.1,0.1-0.1,0.1-0.2
				c-0.1,0,0,0.1-0.1,0.1C73,19.2,72.9,19.2,72.9,19.2C72.9,19.2,72.9,19.2,72.9,19.2C72.9,19.2,72.9,19.1,72.9,19.2
				C72.9,19.1,72.9,19.2,72.9,19.2z M72.9,19.7C72.9,19.7,72.9,19.7,72.9,19.7C72.9,19.7,72.9,19.7,72.9,19.7z M72.9,19.7
				c0.1-0.1,0.2-0.2,0.2-0.3C73,19.4,73,19.5,72.9,19.7z M73.1,19.3C73.2,19.3,73.2,19.3,73.1,19.3C73.2,19.3,73.2,19.3,73.1,19.3
				C73.2,19.3,73.2,19.3,73.1,19.3z M73.8,22c0,0,0.1-0.1,0.2-0.1L73.8,22L73.8,22L73.8,22z M74.1,22L74.1,22
				C74.1,22.1,74.1,22,74.1,22C74.1,22,74.1,22,74.1,22z M74.2,21.7c0,0,0,0.1,0,0.1L74.2,21.7z M74.3,21.8c0,0-0.1,0.1-0.1,0.1
				C74.3,21.9,74.3,21.9,74.3,21.8z M74.4,21.7c0,0-0.1,0.1-0.1,0.1C74.3,21.8,74.3,21.8,74.4,21.7z M74.5,21.4
				c-0.1,0.1-0.2,0.1-0.2,0.2C74.4,21.6,74.4,21.5,74.5,21.4z M74.5,21.6c-0.1,0.1-0.1,0.1-0.2,0.2C74.4,21.7,74.5,21.6,74.5,21.6z
				 M74.6,21.2c-0.1,0.1-0.1,0.1-0.2,0.2C74.5,21.4,74.6,21.3,74.6,21.2z M74.6,21.4c0,0,0,0,0,0.1L74.6,21.4z M74.8,21
				c-0.1,0-0.1,0.1-0.1,0.2C74.7,21.2,74.8,21.1,74.8,21z M75,20.7c-0.1,0.1-0.2,0.2-0.3,0.3C74.9,21,74.9,20.8,75,20.7z M74.9,21
				c0,0-0.1,0.1-0.1,0.1L74.9,21z M74.9,21c0,0,0.1-0.1,0.1-0.1L74.9,21z M75,20.7c0,0,0-0.1,0-0.1l0,0L75,20.7L75,20.7z M75.1,20.6
				c0.1,0,0.1-0.1,0.1-0.1l-0.1,0L75.1,20.6z M75.2,20.4L75.2,20.4c0.1-0.1,0.2-0.1,0.2-0.3C75.3,20.2,75.2,20.3,75.2,20.4z
				 M75.4,20.1C75.4,20.1,75.4,20.1,75.4,20.1L75.4,20.1L75.4,20.1L75.4,20.1c0,0,0,0-0.1,0.1C75.4,20.1,75.4,20.1,75.4,20.1z"/>
			<path d="M80.9,18c0.1,0,0.1,0,0.1,0l0,0.1l-0.3,0.5c-0.6,1-1.4,1.9-2.2,2.8c-0.2,0.3-0.6,0.6-0.9,1c-0.4,0.4-0.9,0.8-1.4,1
				c-0.2,0.1-0.3,0.1-0.5,0.1c-0.1,0-0.2,0-0.4,0c-0.4-0.1-0.7-0.3-0.9-0.6c-0.1-0.2-0.1-0.5-0.2-0.7c0-0.1,0-0.2,0-0.4l0.1-0.3
				c0-0.2,0-0.3,0.1-0.5c0.1-0.4,0.3-0.8,0.4-1.2l0.4-0.6c0.2-0.4,0.5-0.8,0.9-1.2c0.2-0.2,0.3-0.3,0.6-0.5c0-0.1,0.2-0.1,0.2-0.1
				c0.1,0,0.2-0.1,0.3-0.1c0.2,0,0.4,0,0.6,0c0.3,0.1,0.5,0.2,0.6,0.5l0.1,0.2l0,0.2c0,0-0.1,0.1-0.1,0.1c-0.1,0-0.1,0-0.2-0.1
				c-0.1-0.1-0.3-0.1-0.4-0.2c0,0,0,0,0-0.1c0,0-0.1-0.1-0.2-0.1c0,0-0.1,0-0.1,0.1c-0.2,0.1-0.3,0.2-0.4,0.3c-0.5,0.4-0.7,1-1,1.5
				c-0.2,0.3-0.3,0.7-0.5,1.1c-0.1,0.3-0.2,0.6-0.2,0.8c0,0.1-0.1,0.1-0.1,0.2c0,0.1,0,0.3,0,0.4c0,0.2,0,0.3,0.1,0.5l0,0
				c0,0.1,0.1,0.1,0.1,0.1l0.1,0l0.2-0.1c0.7-0.3,1.3-0.8,1.8-1.3l0.8-0.8c0.5-0.6,1-1.2,1.4-1.8l0.7-1c0-0.1,0.1-0.1,0.1-0.1
				C80.8,17.9,80.8,17.9,80.9,18C80.9,18,80.9,18,80.9,18z M75.2,20.2C75.2,20.2,75.2,20.2,75.2,20.2C75.2,20.2,75.2,20.2,75.2,20.2
				z M75.3,20.1L75.3,20.1C75.3,20.1,75.3,20.1,75.3,20.1C75.3,20.1,75.3,20.1,75.3,20.1z M76.6,18.2c-0.1,0-0.1,0.1-0.1,0.1
				l-0.3,0.4c-0.4,0.5-0.6,1.1-0.9,1.6l0,0.1c0,0,0,0,0,0c0,0,0,0,0,0c0-0.1,0.1-0.1,0.1-0.2c0.2-0.5,0.5-1,0.8-1.4l0.3-0.4
				L76.6,18.2z M75.5,19.7c-0.1,0.1-0.2,0.2-0.2,0.3C75.4,19.9,75.5,19.8,75.5,19.7z M75.6,19.4c-0.1,0.1-0.1,0.2-0.1,0.2l0,0
				C75.6,19.6,75.6,19.5,75.6,19.4z M75.7,19.3c-0.1,0-0.1,0.1-0.1,0.1C75.7,19.4,75.7,19.4,75.7,19.3z M75.7,19.3c0,0,0-0.1,0-0.1
				C75.7,19.2,75.7,19.3,75.7,19.3z M75.9,19.1c0,0-0.1,0.1-0.1,0.1C75.8,19.2,75.8,19.1,75.9,19.1z M75.9,19.1c0,0,0-0.1,0-0.1
				C75.8,19,75.8,19,75.9,19.1z M75.9,19c0.1,0,0.1-0.1,0.1-0.1C75.9,18.9,75.9,18.9,75.9,19z M76.1,19.6
				C76.1,19.6,76.1,19.5,76.1,19.6C76.1,19.5,76.1,19.5,76.1,19.6L76.1,19.6z M76.7,18.6c-0.2,0.3-0.4,0.5-0.6,0.8c0,0,0,0.1,0,0.1
				c0,0,0.1-0.1,0.1-0.1C76.3,19.1,76.5,18.8,76.7,18.6c0.1,0,0.1-0.1,0.1-0.1l0.2-0.2l0,0l0,0c-0.1,0.1-0.1,0.1-0.2,0.2
				C76.7,18.5,76.7,18.5,76.7,18.6z M76,18.8c0,0,0.1-0.1,0-0.1L76,18.8z M78.6,21c-0.1,0-0.1,0.1-0.2,0.2
				C78.5,21.1,78.6,21,78.6,21z M78.7,21.1C78.7,21.1,78.7,21.1,78.7,21.1C78.7,21.1,78.7,21.1,78.7,21.1L78.7,21.1z M78.8,20.8
				C78.7,20.8,78.7,20.9,78.8,20.8C78.7,20.9,78.7,20.8,78.8,20.8z M78.9,20.5c-0.1,0-0.1,0.1-0.1,0.2
				C78.9,20.7,78.9,20.6,78.9,20.5z M79.1,20.4c-0.1,0-0.1,0-0.1,0.1C79,20.4,79.1,20.4,79.1,20.4z M79.3,20.2
				c-0.1,0-0.2,0.1-0.2,0.1C79.2,20.3,79.3,20.2,79.3,20.2z M79.4,20c0,0,0,0.1,0,0.1C79.4,20.1,79.4,20,79.4,20z M79.4,20.3
				c0,0,0-0.1,0-0.1C79.4,20.2,79.4,20.3,79.4,20.3z M79.6,19.8c-0.1,0-0.1,0.1-0.1,0.2C79.6,19.9,79.6,19.9,79.6,19.8z M79.6,20
				C79.6,20,79.6,20.1,79.6,20L79.6,20z M79.8,19.6c-0.1,0-0.1,0.1-0.2,0.2C79.7,19.7,79.8,19.7,79.8,19.6z M79.6,20
				c0.1-0.1,0.2-0.1,0.2-0.2C79.7,19.8,79.7,19.9,79.6,20z M79.8,19.8c0.1,0,0.1-0.1,0.1-0.1C79.8,19.7,79.8,19.8,79.8,19.8z
				 M79.9,19.4c-0.1,0.1-0.1,0.1-0.1,0.1C79.8,19.6,79.8,19.5,79.9,19.4z M80,19.3c-0.1,0-0.1,0.1-0.1,0.2C80,19.4,80,19.4,80,19.3z
				 M80,19.5C80,19.6,80,19.6,80,19.5L80,19.5z M80.1,19.5c0,0,0.1-0.1,0.1-0.1L80.1,19.5z M80.1,19.2c0,0,0,0.1,0,0.1
				C80.1,19.3,80.1,19.2,80.1,19.2z M80.3,18.9c-0.2,0.1-0.2,0.2-0.3,0.3C80.2,19.1,80.2,19,80.3,18.9z M80.4,18.7
				c-0.1,0-0.1,0.1-0.1,0.1C80.4,18.8,80.4,18.8,80.4,18.7z M80.4,19.1c0.1,0,0.1-0.1,0.1-0.1L80.4,19.1z M80.5,18.6
				c-0.1,0-0.1,0.1-0.1,0.1C80.5,18.7,80.5,18.7,80.5,18.6z M80.6,18.5c0,0-0.1,0.1-0.1,0.1C80.5,18.6,80.6,18.5,80.6,18.5z
				 M80.7,18.2c0,0,0,0.1,0,0.1C80.7,18.3,80.7,18.3,80.7,18.2z M80.8,18.1c0,0-0.1,0.1-0.1,0.1C80.8,18.2,80.8,18.2,80.8,18.1z
				 M80.8,18.5l0.1-0.1l0,0l0,0L80.8,18.5z"/>
			<path d="M85.6,18.3c0,0.9-1,1.7-1,1.8c0,0,0,0,0.1,0l0,0c-0.3,0.4-0.8,0.9-1.1,1.3c-0.4,0.4-0.9,0.8-1.5,1
				c-0.2,0.1-0.4,0.1-0.6,0.2c-0.3,0-0.6,0-0.8-0.1c-0.3-0.2-0.7-0.3-0.8-0.6c-0.1-0.1-0.1-0.3-0.2-0.4c0-0.1,0-0.2,0-0.3
				c0-0.1,0-0.2,0-0.3l0-0.5c0.1-0.3,0.1-0.5,0.2-0.7l0-0.1c0,0,0.1,0,0.1-0.1c0,0,0-0.1,0-0.1c0,0,0,0,0,0l0.1-0.1
				c0.1,0,0.1-0.1,0.2-0.2c0.1-0.3,0.2-0.5,0.4-0.8c0.2-0.3,0.4-0.6,0.7-0.9c0.2-0.2,0.4-0.4,0.6-0.6c0.1-0.1,0.2-0.2,0.4-0.2
				c0.1,0,0.3-0.1,0.3-0.1c0.3,0,0.5,0,0.8,0.1c0.3,0.1,0.4,0.3,0.4,0.6c0,0,0,0,0,0.1c0,0.2-0.1,0.4-0.2,0.6
				c-0.2,0.3-0.4,0.7-0.7,0.9c-0.4,0.3-0.8,0.6-1.2,0.7l-0.3,0.1c-0.1,0-0.2,0.1-0.2,0.2l-0.2,1.6c0,0,0,0.1,0,0.1
				c0,0.1,0,0.3,0.1,0.4c0,0.1,0.1,0.2,0.3,0.1l0.2,0c0.4-0.1,0.8-0.3,1.2-0.6c0.3-0.3,0.7-0.6,1-0.9c0.2-0.2,0.6-0.5,0.8-0.7
				c0.3-0.3,0.5-0.6,0.8-1c0.1-0.2,0.3-0.5,0.4-0.7C85.6,18.1,85.6,18.2,85.6,18.3z M80.6,18.8C80.6,18.8,80.6,18.8,80.6,18.8
				C80.6,18.7,80.6,18.8,80.6,18.8L80.6,18.8z M80.7,18.4c-0.1,0.1-0.1,0.2-0.1,0.3C80.7,18.7,80.7,18.5,80.7,18.4z M81.8,17.2
				L81.8,17.2L81.8,17.2c-0.1,0-0.2,0.1-0.3,0.2c-0.3,0.3-0.5,0.7-0.7,1.1c-0.1,0.1-0.1,0.3-0.2,0.4l0.1-0.2c0-0.1,0.1-0.2,0.1-0.2
				C81.2,18.1,81.4,17.7,81.8,17.2z M80.7,18.4c0.1,0,0.1-0.1,0.1-0.1C80.7,18.4,80.7,18.4,80.7,18.4z M80.8,18.3
				c0.1-0.1,0.2-0.2,0.2-0.4c0,0,0.1-0.1,0-0.1C81,17.9,81,17.9,81,18C80.9,18.1,80.8,18.2,80.8,18.3z M81.1,17.9
				c0.1,0,0.1-0.1,0.1-0.2C81.1,17.7,81.1,17.8,81.1,17.9z M81.3,17.6c-0.1,0-0.1,0.1-0.1,0.1L81.3,17.6z M81.4,18.2
				C81.4,18.2,81.4,18.2,81.4,18.2C81.4,18.2,81.4,18.2,81.4,18.2L81.4,18.2z M82.7,17.1c-0.2,0.1-0.3,0.2-0.4,0.4
				c-0.3,0.4-0.5,0.7-0.7,1.1c0,0,0,0,0,0.1l0,0c0,0,0,0,0.1,0c0.1-0.1,0.2-0.1,0.3-0.2c0.3-0.3,0.6-0.6,0.8-1
				c0.1-0.2,0.2-0.3,0.2-0.5l0,0c0,0,0-0.1-0.1,0L82.7,17.1L82.7,17.1z M81.4,17.5c0,0,0-0.1,0-0.1L81.4,17.5z M81.5,18
				c0,0-0.1,0-0.1,0.1C81.6,18.1,81.5,18.1,81.5,18z M82.2,17.2C82.1,17.2,82.1,17.2,82.2,17.2c-0.3,0.3-0.5,0.5-0.6,0.8
				c0,0,0.1,0,0.1-0.1C81.8,17.7,82,17.5,82.2,17.2L82.2,17.2z M82.8,17.8c0,0,0,0.1,0,0.1L82.8,17.8c0,0.2,0,0.2-0.1,0.3
				c0,0-0.1,0.1-0.1,0.1l0,0c0,0,0,0,0,0c0,0,0.1-0.1,0.1-0.1c0.1-0.1,0.2-0.2,0.2-0.3c0.1-0.1,0.1-0.1,0.1-0.2
				c-0.1,0,0,0.1-0.1,0.1C82.9,17.7,82.9,17.7,82.8,17.8C82.9,17.8,82.9,17.8,82.8,17.8C82.9,17.7,82.9,17.7,82.8,17.8
				C82.9,17.7,82.9,17.8,82.8,17.8z M82.9,18.3C82.9,18.3,82.8,18.3,82.9,18.3C82.8,18.3,82.9,18.3,82.9,18.3z M82.9,18.3
				c0.1-0.1,0.2-0.2,0.2-0.3C83,18,82.9,18.1,82.9,18.3z M83.1,17.9C83.1,17.9,83.1,17.9,83.1,17.9C83.2,17.9,83.2,17.9,83.1,17.9
				C83.1,17.9,83.1,17.9,83.1,17.9z M83.8,20.6c0,0,0.1-0.1,0.2-0.1L83.8,20.6L83.8,20.6L83.8,20.6z M84.1,20.6L84.1,20.6
				C84,20.7,84.1,20.6,84.1,20.6C84.1,20.6,84.1,20.6,84.1,20.6z M84.1,20.3c0,0,0,0.1,0,0.1L84.1,20.3z M84.2,20.4
				c0,0-0.1,0.1-0.1,0.1C84.2,20.5,84.3,20.5,84.2,20.4z M84.3,20.3c0,0-0.1,0.1-0.1,0.1C84.3,20.4,84.3,20.4,84.3,20.3z M84.4,20
				c-0.1,0.1-0.2,0.1-0.2,0.2C84.4,20.2,84.4,20.1,84.4,20z M84.5,20.1c-0.1,0.1-0.1,0.1-0.2,0.2C84.4,20.3,84.4,20.2,84.5,20.1z
				 M84.6,19.8c-0.1,0.1-0.1,0.1-0.2,0.2C84.5,20,84.6,19.9,84.6,19.8z M84.6,20c0,0,0,0,0,0.1L84.6,20z M84.7,19.6
				c-0.1,0-0.1,0.1-0.1,0.2C84.7,19.8,84.7,19.7,84.7,19.6z M85,19.3c-0.1,0.1-0.2,0.2-0.3,0.3C84.9,19.5,84.9,19.4,85,19.3z
				 M84.9,19.6c0,0-0.1,0.1-0.1,0.1L84.9,19.6z M84.9,19.6c0,0,0.1-0.1,0.1-0.1L84.9,19.6z M85,19.3c0,0,0-0.1,0-0.1l0,0L85,19.3
				L85,19.3z M85.1,19.2c0.1,0,0.1-0.1,0.1-0.1l-0.1,0L85.1,19.2z M85.2,19L85.2,19c0.1-0.1,0.2-0.1,0.2-0.3
				C85.3,18.8,85.2,18.9,85.2,19z M85.4,18.7C85.4,18.6,85.4,18.6,85.4,18.7L85.4,18.7L85.4,18.7L85.4,18.7c0,0,0,0-0.1,0.1
				C85.4,18.7,85.4,18.7,85.4,18.7z"/>
		</g>
	</g>
</g>
<g id="HIGH_WAISTED">
	<g id="front_copy_3">
		<g class="st0">
			<g class="st1">
				<path d="M181.1,160.1c0.9,0.1,1.7,0.3,2.6,0.3c0.8,0.1,1.6,0.2,2.4,0.2c0.8,0,1.6,0,2.4-0.1c0.8-0.1,1.6-0.2,2.5-0.4l0.1,0.1
					c-1.5,0.9-3.2,1.4-5,1.4c-0.9,0-1.7-0.1-2.6-0.4C182.6,161,181.8,160.6,181.1,160.1L181.1,160.1z"/>
			</g>
			<g class="st1">
				<path d="M162.4,130.3c1.9,0.8,3.8,1.6,5.8,2.2c1.9,0.7,3.9,1.2,5.9,1.7c4,0.9,8,1.5,12.1,1.6c2,0.1,4.1,0,6.1-0.2
					c2-0.2,4-0.6,6-1c2-0.5,3.9-1,5.8-1.8c1.9-0.7,3.8-1.6,5.7-2.5l0.1,0.1c-3.5,2.1-7.4,3.8-11.4,4.9c-2,0.6-4,0.9-6.1,1.2
					c-2.1,0.2-4.1,0.3-6.2,0.3c-4.1-0.1-8.3-0.7-12.2-1.8C169.8,133.9,165.9,132.4,162.4,130.3L162.4,130.3z"/>
			</g>
		</g>
	</g>
	<rect x="139.1" y="-0.8" class="st3" width="131.1" height="44"/>
	<text transform="matrix(1 0 0 1 167.1769 10.2028)" class="st0 st4 st5">High Waisted</text>
</g>
</svg>
