<?xml version="1.0" encoding="utf-8"?>
<!-- Generator: Adobe Illustrator 21.1.0, SVG Export Plug-In . SVG Version: 6.00 Build 0)  -->
<svg version="1.1" xmlns="http://www.w3.org/2000/svg" xmlns:xlink="http://www.w3.org/1999/xlink" x="0px" y="0px"
	 viewBox="0 0 199 223.9" style="enable-background:new 0 0 199 223.9;" xml:space="preserve">
<style type="text/css">
	.st0{display:none;}
	.st1{display:inline;}
	.st2{fill:none;}
	.st3{font-family:'JustLovelySlantedWide';}
	.st4{font-size:20px;}
	.st5{display:inline;fill:none;stroke:#000000;stroke-miterlimit:10;}
</style>
<g id="Layer_1">
</g>
<g id="BOTTOM_BODY" class="st0">
	<g class="st1">
		<g>
			<path d="M10.4,54.6c-2,2.3-3.6,5-4.8,7.8c-1.2,2.8-2.1,5.7-2.6,8.7c-0.4,3-0.8,6-0.7,9c0.1,3,0.4,6,1,9c1,6,2.9,11.8,5.2,17.5
				c0.6,1.4,1.1,2.9,1.8,4.3c0.7,1.4,1.3,2.8,2,4.2c0.7,1.4,1.3,2.8,2,4.2c0.7,1.4,1.4,2.7,2.1,4.1l-0.1,0.1
				c-3.3-5.3-6.3-10.7-8.8-16.4C5,101.4,3,95.5,1.9,89.4c-1.1-6.1-1.3-12.4,0-18.5c1.3-6,3.9-12,8.4-16.3L10.4,54.6z"/>
		</g>
		<g>
			<path d="M49.5,54.5c1.3,1,2.3,2.1,3.3,3.3c1,1.2,1.9,2.5,2.7,3.9c1.5,2.8,2.6,5.8,3.4,8.9c1.5,6.2,1.2,12.7,0.3,18.9
				c-0.6,3.1-1.4,6.2-2.4,9.1c-0.5,1.5-1.1,3-1.6,4.4c-0.6,1.5-1.2,2.9-1.9,4.3c-1.4,2.8-2.9,5.6-4.4,8.3c-0.8,1.3-1.7,2.6-2.5,3.9
				c-0.9,1.3-1.8,2.6-2.7,3.8l-0.1-0.1c3.3-5.3,6.3-10.7,8.7-16.4c2.5-5.7,4.4-11.6,5.5-17.7c1.1-6.1,1.3-12.4,0.1-18.4
				c-1.3-6-3.9-11.9-8.3-16.3L49.5,54.5z"/>
		</g>
		<g>
			<path d="M25.2,89c1.6,2.4,2.2,5.3,2.8,8c0.5,2.8,0.7,5.6,0.9,8.4c0,2.8,0,5.6-0.2,8.4c-0.1,1.4-0.2,2.8-0.4,4.2
				c-0.2,1.4-0.4,2.8-0.6,4.2l-0.1,0c0.2-2.8,0.3-5.6,0.3-8.4c0.1-2.8,0-5.6,0-8.4c-0.1-2.8-0.3-5.6-0.6-8.4
				c-0.2-1.4-0.4-2.8-0.7-4.1C26.1,91.6,25.8,90.2,25.2,89L25.2,89z"/>
		</g>
		<g>
			<path d="M35.1,89c-0.5,1.3-0.8,2.7-1,4c-0.2,1.4-0.4,2.7-0.5,4.1c-0.2,2.8-0.4,5.5-0.5,8.3c-0.1,1.4-0.1,2.8-0.1,4.2
				c0,1.4,0,2.8-0.1,4.2c-0.1,2.8-0.1,5.6-0.3,8.4l-0.1,0c-0.2-2.8-0.3-5.6-0.4-8.4c-0.1-2.8-0.1-5.6,0-8.4c0.1-2.8,0.3-5.6,0.7-8.4
				c0.2-1.4,0.4-2.8,0.8-4.1C33.9,91.6,34.3,90.2,35.1,89L35.1,89z"/>
		</g>
	</g>
	<g class="st1">
		<path d="M58.9,76.5c0,3.9-1.3,7.8-3.9,10.8c-2.5,3-6.3,5-10.3,5.1c-4,0.1-8.1-1.7-10.8-4.7c-2.7-3-4.2-7.1-4.3-11.2
			c0-4.1,1.5-8.1,4.3-11.2c2.7-3,6.8-4.8,10.8-4.7c4,0.1,7.8,2.1,10.3,5.1C57.6,68.7,58.9,72.6,58.9,76.5z M58.8,76.5
			c0-3.9-1.4-7.7-4-10.6c-2.5-2.9-6.3-4.7-10.2-4.7c-3.9,0-7.6,1.8-10.2,4.7c-2.6,2.9-3.9,6.7-3.9,10.6c0,3.8,1.4,7.7,3.9,10.6
			c2.5,2.9,6.3,4.7,10.2,4.7c3.9,0,7.6-1.8,10.2-4.7C57.4,84.2,58.8,80.4,58.8,76.5z"/>
	</g>
	<g class="st1">
		<path d="M2.2,76.5c0,3.9,1.5,7.7,4,10.5c2.6,2.8,6.3,4.5,10.1,4.4c3.8-0.1,7.3-2,9.6-4.8c2.4-2.8,3.7-6.5,3.6-10.1
			c0-3.7-1.2-7.4-3.6-10.1c-2.3-2.8-5.9-4.7-9.6-4.8c-3.7-0.1-7.5,1.5-10.1,4.4C3.6,68.8,2.2,72.6,2.2,76.5z M2.1,76.5
			c0-3.9,1.4-7.8,4-10.7c2.5-2.9,6.4-4.8,10.3-4.8c3.9,0,7.7,1.8,10.3,4.8c2.6,2.9,4,6.8,4,10.7c0,3.9-1.4,7.8-4,10.7
			c-2.6,2.9-6.4,4.8-10.3,4.8c-3.9,0-7.7-1.8-10.3-4.8C3.5,84.3,2.1,80.4,2.1,76.5z"/>
	</g>
</g>
<g id="BRAZILLIAN_CUT">
	<g id="front">
	</g>
</g>
<g id="BIKINI_CUT">
	<g id="front_copy">
		<g class="st0">
			<g class="st1">
				<path d="M3.9,160.1c0.9,0.1,1.7,0.3,2.6,0.3c0.8,0.1,1.6,0.2,2.4,0.2c0.8,0,1.6,0,2.4-0.1c0.8-0.1,1.6-0.2,2.5-0.4l0.1,0.1
					c-1.5,0.9-3.2,1.4-5,1.4c-0.9,0-1.7-0.1-2.6-0.4C5.4,161,4.6,160.6,3.9,160.1L3.9,160.1z"/>
			</g>
			<g class="st1">
				<path d="M-14.9,130.3c1.9,0.8,3.8,1.6,5.8,2.2c1.9,0.7,3.9,1.2,5.9,1.7c4,0.9,8,1.5,12.1,1.6c2,0.1,4.1,0,6.1-0.2
					c2-0.2,4-0.6,6-1c2-0.5,3.9-1,5.8-1.8c1.9-0.7,3.8-1.6,5.7-2.5l0.1,0.1c-3.5,2.1-7.4,3.8-11.4,4.9c-2,0.6-4,0.9-6.1,1.2
					c-2.1,0.2-4.1,0.3-6.2,0.3c-4.1-0.1-8.3-0.7-12.2-1.8C-7.4,133.9-11.3,132.4-14.9,130.3L-14.9,130.3z"/>
			</g>
		</g>
	</g>
	<rect x="-38.1" y="-0.8" class="st2" width="131.1" height="44"/>
	<text transform="matrix(1 0 0 1 8.4693 10.2028)" class="st0 st3 st4">Bikini</text>
	<g>
		<g>
			<g>
				<g>
					<path d="M50.3,194.6c-1.1-1.6-2.2-3.1-3.2-4.7c-1-1.6-2-3.2-3-4.9c-0.9-1.7-1.8-3.4-2.6-5.1c-0.9-1.7-1.6-3.5-2.3-5.2
						c-2.8-7.1-4.6-14.8-4.8-22.5c0-3.9,0.3-7.8,1.2-11.6c0.4-1.9,1-3.8,1.6-5.6c0.7-1.8,1.5-3.6,2.4-5.3c0.9-1.7,2-3.3,3.1-4.9
						c0.6-0.8,1.2-1.5,1.8-2.2c0.3-0.4,0.7-0.7,1-1l0.3-0.2c0.1-0.1,0.2-0.1,0.2-0.2l0.5-0.5c1.2-1.4,2.4-2.9,3.2-4.5
						c0.8-1.6,1.3-3.6,0.5-5.3l0.1-0.1c0.4,0.9,0.6,1.8,0.5,2.8c-0.1,1-0.4,1.9-0.7,2.8c-0.8,1.7-1.9,3.3-3.1,4.8
						c-2.7,2.7-4.8,5.8-6.5,9.2c-3.4,6.8-4.8,14.4-4.7,21.9c0.1,7.6,1.8,15,4.4,22.1c2.6,7.1,6.1,13.9,10.1,20.3L50.3,194.6z"/>
				</g>
				<g class="st0">
					<path class="st1" d="M81.8,121.7c1.3,1.1,2.4,2.3,3.4,3.6c1,1.3,2,2.7,2.8,4.1c1.7,2.9,2.9,6,3.9,9.2c1,3.2,1.4,6.5,1.7,9.9
						c0.2,3.3,0.1,6.7-0.3,10c-0.5,3.3-1.1,6.6-2.1,9.8c-0.2,0.8-0.4,1.6-0.7,2.4l-0.8,2.4c-0.5,1.6-1.2,3.1-1.9,4.6
						c-0.7,1.5-1.4,3-2.1,4.5c-0.8,1.4-1.5,2.9-2.4,4.3l-2.6,4.2c-0.9,1.4-1.9,2.7-2.8,4l-0.1-0.1c3.4-5.5,6.6-11.3,9-17.4
						c2.4-6.1,4.3-12.4,5.1-18.9c0.9-6.5,0.6-13.1-1-19.4c-0.8-3.2-1.9-6.2-3.4-9.1c-0.7-1.5-1.6-2.9-2.5-4.2
						c-0.9-1.3-1.9-2.6-3.1-3.8L81.8,121.7z"/>
				</g>
				<g>
					<path d="M59.2,160.1c1.6,2.4,2.2,5.3,2.8,8c0.5,2.8,0.7,5.6,0.9,8.4c0,2.8,0,5.6-0.2,8.4c-0.1,1.4-0.2,2.8-0.4,4.2
						c-0.2,1.4-0.4,2.8-0.6,4.2l-0.1,0c0.2-2.8,0.3-5.6,0.3-8.4c0.1-2.8,0-5.6,0-8.4c-0.1-2.8-0.3-5.6-0.6-8.4
						c-0.2-1.4-0.4-2.8-0.7-4.1C60.1,162.8,59.8,161.4,59.2,160.1L59.2,160.1z"/>
				</g>
				<g>
					<path d="M69.1,160.2c-0.5,1.3-0.8,2.7-1,4c-0.2,1.4-0.4,2.7-0.5,4.1c-0.2,2.8-0.4,5.5-0.5,8.3c-0.1,1.4-0.1,2.8-0.1,4.2
						c0,1.4,0,2.8-0.1,4.2c-0.1,2.8-0.1,5.6-0.3,8.4l-0.1,0c-0.2-2.8-0.3-5.6-0.4-8.4c-0.1-2.8-0.1-5.6,0-8.4
						c0.1-2.8,0.3-5.6,0.7-8.4c0.2-1.4,0.4-2.8,0.8-4.1C67.9,162.8,68.3,161.4,69.1,160.2L69.1,160.2z"/>
				</g>
				<g>
					<path d="M79,194.6c0.7-1.5,1.5-2.9,2.3-4.4l2.1-4.4l2-4.4c0.6-1.5,1.2-3,1.8-4.5c2.1-6.1,4.1-12.3,4.7-18.7
						c0.7-6.3,0.6-12.8-0.9-19c-0.8-3.1-1.8-6.1-3.2-9c-1.4-2.9-3.1-5.6-5.2-8l-0.1-0.1c-0.6-0.9-1.1-1.7-1.5-2.6
						c-0.5-0.9-0.9-1.8-1.2-2.8c-0.7-1.9-1.1-3.9-0.8-5.9l0.1,0c-0.2,2,0.4,3.9,1.1,5.8c0.8,1.8,1.7,3.6,2.9,5.2l0,0
						c1.2,1.2,2.2,2.5,3.1,3.8c0.9,1.3,1.8,2.8,2.5,4.2c1.5,2.9,2.7,6,3.5,9.2c1.6,6.4,1.9,13,1.1,19.5c-0.8,6.5-2.7,12.8-5.1,18.9
						c-2.5,6.1-5.6,11.8-9.1,17.4L79,194.6z"/>
				</g>
			</g>
			<path class="st0" d="M88.9,132.3c0,0-1.7-1.4-3.3,0c-1.6,1.4-16.5,9.1-17.2,26.6l-0.1,0.1c-3.6-3.9-8.4-0.1-8.4-0.1
				c-0.7-17.4-15.6-25.2-17.2-26.6c-1.6-1.4-3.3,0-3.3,0l1.4-2.4c0,0,20.3-5.3,46,0L88.9,132.3z"/>
			<g id="body_lines_1_">
				<g>
					<path d="M79.5,131.1c-0.7,0.7-1.3,1.4-1.9,2.2c-0.6,0.8-1.1,1.5-1.6,2.4c-0.5,0.8-1,1.6-1.4,2.5c-0.4,0.9-0.8,1.8-1.1,2.7l0,0
						c0.5-1.9,1.3-3.7,2.3-5.3C76.8,133.8,78,132.3,79.5,131.1L79.5,131.1z"/>
				</g>
				<g>
					<path d="M47.4,131c0.8,0.6,1.5,1.2,2.1,2c0.6,0.7,1.2,1.5,1.7,2.3c0.5,0.8,1,1.7,1.3,2.6c0.4,0.9,0.6,1.8,0.8,2.8l0,0
						c-0.5-1.9-1.3-3.6-2.3-5.3C50,133.8,48.8,132.3,47.4,131L47.4,131z"/>
				</g>
				<g>
					<path d="M72.1,158.5c-0.3,0.8-0.5,1.6-0.7,2.4c-0.2,0.8-0.5,1.5-0.6,2.3c-0.2,0.8-0.4,1.6-0.5,2.4c-0.2,0.8-0.3,1.6-0.5,2.4
						l0,0c0-1.7,0.2-3.3,0.6-4.9C70.7,161.5,71.2,159.9,72.1,158.5L72.1,158.5z"/>
				</g>
				<g>
					<path d="M38,147.7c0,0.9,0,1.7,0,2.6c0,0.9,0,1.7,0.1,2.6c0.1,1.7,0.2,3.4,0.5,5.1c0.2,1.7,0.4,3.4,0.7,5.1
						c0.3,1.7,0.6,3.4,0.9,5.1l0,0c-0.5-1.7-0.9-3.3-1.3-5c-0.4-1.7-0.6-3.4-0.9-5.1c-0.2-1.7-0.3-3.4-0.4-5.1
						C37.7,151.1,37.7,149.4,38,147.7L38,147.7z"/>
				</g>
			</g>
		</g>
		<path d="M59.1,159.3c-0.1-4.8-20.1-25.8-20.1-25.8l1.4-3.2c0,0,24.5,14,47.9-0.3l1.3,3.1c0,0-20.4,21.3-20.5,26.1v0.8
			c0,0-4.4,3-9.9,0V159.3z"/>
		<g id="bottom_4_">
			<g>
				<g>
					<path d="M123.1,121.8c-2.1,2.5-3.8,5.3-5,8.3c-1.4,2.9-2.4,6-3.1,9.1c-1.4,6.2-1.7,12.7-0.7,19c0.7,6.4,2.5,12.6,4.7,18.7
						c0.6,1.5,1.2,3,1.8,4.5l2,4.4l2.1,4.4c0.8,1.4,1.5,2.9,2.2,4.4l-0.1,0.1c-3.5-5.5-6.6-11.3-9.1-17.4
						c-2.4-6.1-4.3-12.4-5.1-18.9c-0.8-6.5-0.5-13.2,1.1-19.5c0.8-3.2,2-6.3,3.5-9.2c0.7-1.5,1.6-2.9,2.5-4.2
						c0.9-1.3,1.9-2.6,3.1-3.8L123.1,121.8z"/>
				</g>
				<g>
					<path d="M158.5,121.7c1.3,1.1,2.4,2.3,3.4,3.6c1,1.3,2,2.7,2.8,4.1c1.7,2.9,2.9,6,3.9,9.2c1,3.2,1.4,6.5,1.7,9.9
						c0.2,3.3,0.1,6.7-0.3,10c-0.5,3.3-1.1,6.6-2.1,9.8c-0.2,0.8-0.4,1.6-0.7,2.4l-0.8,2.4c-0.5,1.6-1.2,3.1-1.9,4.6
						c-0.7,1.5-1.4,3-2.1,4.5c-0.8,1.4-1.5,2.9-2.4,4.3l-2.6,4.2c-0.9,1.4-1.9,2.7-2.8,4l-0.1-0.1c3.4-5.5,6.6-11.3,9-17.4
						c2.4-6.1,4.3-12.4,5.1-18.9c0.9-6.5,0.6-13.1-1-19.4c-0.8-3.2-1.9-6.2-3.4-9.1c-0.7-1.5-1.6-2.9-2.5-4.2
						c-0.9-1.3-1.9-2.6-3.1-3.8L158.5,121.7z"/>
				</g>
				<g>
					<path d="M135.9,160.1c1.6,2.4,2.2,5.3,2.8,8c0.5,2.8,0.7,5.6,0.9,8.4c0,2.8,0,5.6-0.2,8.4c-0.1,1.4-0.2,2.8-0.4,4.2
						c-0.2,1.4-0.4,2.8-0.6,4.2l-0.1,0c0.2-2.8,0.3-5.6,0.3-8.4c0.1-2.8,0-5.6,0-8.4c-0.1-2.8-0.3-5.6-0.6-8.4
						c-0.2-1.4-0.4-2.8-0.7-4.1C136.8,162.8,136.5,161.4,135.9,160.1L135.9,160.1z"/>
				</g>
				<g>
					<path d="M145.8,160.2c-0.5,1.3-0.8,2.7-1,4c-0.2,1.4-0.4,2.7-0.5,4.1c-0.2,2.8-0.4,5.5-0.5,8.3c-0.1,1.4-0.1,2.8-0.1,4.2
						c0,1.4,0,2.8-0.1,4.2c-0.1,2.8-0.1,5.6-0.3,8.4l-0.1,0c-0.2-2.8-0.3-5.6-0.4-8.4c-0.1-2.8-0.1-5.6,0-8.4
						c0.1-2.8,0.3-5.6,0.7-8.4c0.2-1.4,0.4-2.8,0.8-4.1C144.6,162.8,145,161.4,145.8,160.2L145.8,160.2z"/>
				</g>
			</g>
			<g>
				<path d="M155.3,163.1c-1.9,0.2-4-0.2-5.8-0.9c-1.8-0.8-3.5-2-4.9-3.4c-2.8-3-4.3-7-4.3-11.1c0.1-4.1,1.5-8.2,4.3-11.1
					c1.4-1.5,3.1-2.7,4.9-3.4c1.9-0.7,3.9-1.1,5.8-0.9v0.1c-3.9,0-7.6,1.8-10.2,4.7c-2.6,2.9-3.9,6.7-3.9,10.6
					c0,3.8,1.4,7.7,3.9,10.6c2.5,2.9,6.3,4.8,10.2,4.7V163.1z"/>
			</g>
			<g>
				<path d="M127,163c1.9-0.2,3.8-0.7,5.4-1.6c1.7-0.9,3.1-2.1,4.3-3.5c2.3-2.8,3.6-6.5,3.6-10.2c0.1-3.7-1.2-7.3-3.6-10.2
					c-1.2-1.4-2.6-2.6-4.3-3.5c-1.6-0.9-3.5-1.4-5.4-1.6v-0.1c3.9,0,7.7,1.8,10.3,4.7c2.6,2.9,4,6.8,4,10.7c0,3.9-1.4,7.8-4,10.7
					c-2.6,2.9-6.4,4.8-10.3,4.7V163z"/>
			</g>
			<path d="M165.6,132.3c-9.1,9-16.6,19.2-19.9,27.1c-4.6-3.9-9.9,0-9.9,0c-8.1-16.4-19.7-27.1-19.7-27.1l1.4-2.4
				c0,0,20.8-5.3,46.6,0L165.6,132.3z"/>
			<g class="st0">
				<g class="st1">
					<path d="M117.6,129.9c1.9-0.6,3.8-1,5.6-1.3c1.9-0.3,3.8-0.6,5.7-0.9c3.9-0.4,7.7-0.7,11.6-0.7c3.9,0.1,7.8,0.2,11.6,0.7
						c1.9,0.2,3.8,0.6,5.7,0.9c1.9,0.4,3.8,0.8,5.7,1.3c-3.8-0.5-7.6-1.1-11.5-1.4c-3.8-0.3-7.7-0.5-11.5-0.5
						c-3.8-0.1-7.7,0.1-11.5,0.4C125.2,128.7,121.4,129.2,117.6,129.9z"/>
				</g>
				<g class="st1">
					<path d="M137.3,158.2c0.3-0.6,0.8-1.2,1.4-1.6c0.6-0.4,1.3-0.7,2.1-0.7c0.8,0,1.5,0.2,2.1,0.6c0.3,0.2,0.5,0.5,0.8,0.7
						c0.2,0.3,0.4,0.6,0.6,0.9c-0.3-0.2-0.6-0.3-0.9-0.5c-0.3-0.1-0.6-0.3-0.9-0.4c-0.6-0.2-1.2-0.3-1.7-0.3
						C139.6,157,138.5,157.5,137.3,158.2z"/>
				</g>
			</g>
		</g>
		<g>
			<path d="M31.7,96.4L31.7,96.4c0.1-0.4,0.2-0.7,0.3-1.1c0.2-0.4,0.3-0.7,0.4-1.1l0.4-1.1c0.1-0.4,0.2-0.7,0.4-1
				c0.1-0.3,0.1-0.5,0.2-0.7c0.1,0,0.1-0.1,0.1-0.1l0-0.1c0.2-0.2,0.2-0.4,0.3-0.7c0.2-0.4,0.3-0.8,0.5-1.3c0.1-0.1,0.2-0.1,0.3-0.1
				c0,0,0,0,0.1,0c0.3,0,0.3,0.2,0.3,0.3c0,0.1,0,0.1,0,0.1l0,0.1c0,0.1-0.1,0.2-0.1,0.2c-0.2,0.6-0.3,1.1-0.6,1.8l0,0.1
				c0,0,0,0.1,0,0.1c0,0,0.1,0,0.1,0l0.2-0.2c0.2-0.3,0.5-0.4,0.7-0.7c0.4-0.4,0.9-0.8,1.4-1.2c0.3-0.3,0.7-0.4,1.1-0.6
				c0.2-0.1,0.4-0.2,0.6-0.3c0.2-0.1,0.4-0.1,0.5-0.2c0.1,0,0.2,0,0.3,0c0.4,0,0.6,0.1,0.9,0.3c0.2,0.2,0.3,0.5,0.3,0.7
				c0,0.1,0,0.2,0,0.2c-0.2,0.8-0.7,1.5-1.2,2.2c-0.6,0.7-1.3,1.4-1.9,2.1c-0.2,0.2-0.4,0.4-0.6,0.5c-0.1,0.1-0.1,0.1-0.2,0.2
				c0,0,0,0,0,0l0,0c0.1,0,0.2,0,0.3-0.1l0.6,0c0.5,0,1,0.1,1.3,0.3c0.5,0.2,0.7,0.6,0.8,1c0.1,0.3,0.1,0.5,0.1,0.8
				c0,0.1,0,0.2-0.1,0.2c0,0.5-0.2,1-0.4,1.5c-0.2,0.4-0.5,0.8-0.8,1.2c-0.4,0.5-0.9,1-1.4,1.4c-0.4,0.4-0.8,0.7-1.3,1l-1,0.4
				c-0.2,0-0.4,0.1-0.5,0.1c-0.2,0-0.3,0-0.5,0c-0.7-0.2-1.1-0.6-1.3-1.1c0-0.3-0.1-0.5,0-0.8c0-0.3,0.1-0.6,0.2-0.8
				c0.2-0.5,0.5-1,0.9-1.5c0.4-0.4,0.7-0.6,1.1-0.8c0.1,0,0.1-0.1,0.2-0.1c0,0,0.1,0,0.2,0c0,0,0.1,0,0.1,0c0.1,0,0.1,0,0.1,0.1
				c0,0,0,0,0,0c0,0,0.1,0,0.1,0c0,0,0,0,0,0c0,0,0,0,0,0c0,0-0.1,0.1-0.1,0.1c-0.2,0.1-0.5,0.4-0.8,0.6c-0.3,0.3-0.5,0.6-0.7,0.9
				c-0.1,0.1-0.1,0.2-0.1,0.3c-0.2,0.4-0.3,0.8-0.3,1.2c0,0.3,0,0.6,0.2,0.9c0.1,0.1,0.1,0.2,0.2,0.3c0,0,0.1,0,0.2,0l0.1,0
				c0.4-0.1,0.7-0.3,1-0.5c0.3-0.2,0.6-0.4,0.9-0.6c0.5-0.4,1-0.8,1.4-1.3c0.2-0.2,0.4-0.4,0.6-0.7c0.3-0.4,0.6-0.8,0.7-1.3
				c0,0,0,0,0-0.1c0.2-0.3,0.2-0.5,0.2-0.7c0-0.3,0-0.6,0-0.9c-0.1-0.4-0.2-0.5-0.6-0.5c-0.1,0-0.3,0-0.4,0c-0.4,0-0.7,0.1-1,0.3
				c-0.6,0.2-1.1,0.5-1.7,0.8c-0.2,0.1-0.2,0.1-0.3,0.2c-0.1,0-0.2,0.1-0.2,0.1c-0.1,0-0.1,0-0.1,0c0,0-0.1-0.1-0.1-0.1
				c0-0.1-0.1-0.2-0.2-0.2c0,0-0.1-0.1-0.1-0.1s0-0.1,0.1-0.1l0.3-0.3c0.4-0.4,0.8-0.7,1.2-1.1c0.2-0.2,0.4-0.4,0.6-0.6
				c0.7-0.6,1.3-1.3,2-2c0.4-0.5,0.9-1.1,1.2-1.6c0.2-0.3,0.3-0.5,0.4-0.8l0-0.4c0-0.1-0.1-0.1-0.2-0.1l0,0c-0.2,0-0.4,0.1-0.6,0.1
				c-0.5,0.2-0.9,0.5-1.4,0.8c-0.3,0.2-0.5,0.4-0.7,0.6c-0.4,0.3-0.8,0.7-1.2,1.1c-0.2,0.1-0.4,0.3-0.5,0.5
				c-0.5,0.4-0.8,0.9-1.2,1.3c-0.1,0.2-0.3,0.3-0.3,0.5c-0.1,0.2-0.1,0.4-0.1,0.6c-0.1,0.2-0.2,0.4-0.2,0.6l-0.5,1.5
				c-0.1,0.1-0.1,0.3-0.1,0.4c0,0.1-0.1,0.2-0.1,0.2c-0.2,0.6-0.4,1.2-0.6,1.8c0,0.1,0,0.2-0.1,0.3l-0.2,0.5
				c-0.1,0.3-0.3,0.6-0.2,0.9l0,0c0,0.1,0,0.2-0.1,0.3c-0.1,0.2-0.2,0.4-0.2,0.6l0,0c-0.1,0.4-0.2,0.7-0.3,1.1c0,0.1,0,0.2-0.1,0.3
				c0,0.1-0.1,0.1-0.1,0.2c0,0-0.1,0.1-0.1,0.1l0,0c0,0-0.1,0-0.1-0.1c0,0,0,0,0,0c0,0-0.1,0-0.1,0c-0.1,0-0.1,0-0.1-0.1
				c0,0-0.1-0.1-0.1,0l-0.1,0c-0.1,0-0.2,0-0.2-0.1c0-0.1,0-0.2,0.1-0.3l0.2-1c0,0,0,0,0-0.1c0.1-0.3,0.2-0.7,0.3-1l0-0.1
				c0-0.1,0-0.2,0-0.3c0.1-0.1,0-0.2,0.1-0.3c0-0.1,0.1-0.3,0.1-0.4c0,0,0-0.1,0-0.1c0-0.1,0.2-0.3,0.2-0.4c0.1-0.2,0.1-0.4,0.1-0.5
				c0-0.2,0.1-0.4,0.2-0.6c0.1-0.2,0.1-0.4,0.2-0.6c0-0.2,0.2-0.4,0.2-0.7C31.5,97,31.7,96.7,31.7,96.4z M32,97.1
				C32,97.1,32,97.1,32,97.1c-0.1,0.1-0.1,0.1,0,0.2c0,0,0,0,0,0L32,97.1z M33.2,99.4c-0.1,0-0.1,0.1-0.1,0.1l0,0.1l0,0c0,0,0,0,0,0
				c0.2-0.2,0.3-0.4,0.5-0.7l0.1-0.2c-0.1,0-0.1,0.1-0.1,0.1C33.5,99,33.4,99.2,33.2,99.4z M33.6,99.2L33.6,99.2
				c0,0,0.1-0.1,0.1-0.1C33.7,99.2,33.7,99.2,33.6,99.2C33.6,99.2,33.6,99.2,33.6,99.2z M33.8,99c-0.1,0.1-0.2,0.1-0.1,0.2
				C33.7,99.1,33.8,99.1,33.8,99z M33.8,98.7c0,0,0.1-0.1,0.1-0.1C33.9,98.6,33.8,98.6,33.8,98.7z M34,98.7
				c-0.1,0.1-0.2,0.2-0.2,0.2C33.9,98.9,34,98.8,34,98.7z M34.1,92.8L34.1,92.8L34.1,92.8L34.1,92.8L34.1,92.8z M34.1,92.8
				c0.2-0.1,0.2-0.2,0.3-0.3c-0.1,0-0.2,0.1-0.2,0.1C34.2,92.7,34.2,92.7,34.1,92.8z M34.5,92.4c-0.1,0-0.1,0-0.1,0.1
				C34.5,92.5,34.5,92.5,34.5,92.4z M34.6,92.2c0,0-0.1,0.1,0,0.2L34.6,92.2l0.8-0.7c0,0,0-0.1,0.1-0.1c0.2-0.1,0.4-0.3,0.5-0.4
				c0.1,0,0.2-0.1,0.2-0.2c0.2-0.1,0.3-0.2,0.5-0.4c0,0,0.1,0,0.1,0c0.1-0.1,0.3-0.1,0.4-0.3l0,0c-0.2,0.1-0.3,0.2-0.4,0.3
				c0,0-0.1,0-0.1,0c-0.1,0-0.2,0.1-0.2,0.1c-0.1,0.1-0.1,0.1-0.2,0.2c-0.1,0-0.1,0.1-0.1,0.1L36,90.8c0,0,0,0.1,0,0.1
				c0,0-0.1,0-0.1,0c0,0,0,0,0,0c0,0-0.1,0-0.1,0l0.1,0c-0.1,0.1-0.1,0.1-0.2,0.2c0,0.1-0.1,0.1-0.1,0.2c0,0,0,0,0,0c0,0,0,0-0.1,0
				l0.1,0c0,0,0,0.1,0,0.1l-0.1,0.1c0,0-0.1,0.1-0.1,0.1L35,91.8c0,0,0,0,0,0l0,0c-0.1,0-0.1,0-0.1,0.1c0,0.1-0.1,0.1-0.1,0.1
				c0,0,0-0.1,0-0.1L34.7,92c0,0,0.1,0,0.1,0.1c-0.1,0-0.1,0-0.1,0.1C34.6,92.1,34.6,92.2,34.6,92.2z M34.7,92
				C34.7,92,34.7,92,34.7,92c-0.1,0.1,0,0.1,0,0.1C34.7,92.1,34.7,92,34.7,92z M34.9,91.9L34.9,91.9C34.9,91.8,34.9,91.8,34.9,91.9
				C34.9,91.8,34.9,91.8,34.9,91.9z M36.7,94.1c0,0,0-0.1,0-0.1C36.7,94,36.7,94.1,36.7,94.1C36.7,94.1,36.7,94.1,36.7,94.1
				c0,0.1-0.1,0.1-0.2,0.2c0,0-0.1,0-0.1,0l-0.1,0.1c0,0,0-0.1,0-0.1c0,0,0,0.1-0.1,0.1l0.1,0c-0.1,0.1-0.1,0.1-0.2,0.2L36,94.8l0,0
				l-0.1,0.1l0-0.1l0,0.1l0,0l-0.1,0.2c0,0-0.1,0-0.2,0.1c-0.1,0.1-0.1,0.2-0.3,0.3c0,0-0.1,0-0.1,0.1l0,0.1c0,0,0,0,0,0l0.1,0
				c0.2-0.2,0.4-0.3,0.5-0.5c0.2-0.1,0.3-0.3,0.4-0.4c0.2-0.1,0.3-0.2,0.4-0.4c0.3-0.2,0.5-0.5,0.8-0.7l0-0.1
				c0.2-0.1,0.2-0.1,0.2-0.2c-0.1,0-0.2,0.1-0.3,0.2c0,0,0,0.1,0,0.1c0,0-0.1,0.1-0.2,0.1c0,0,0,0.1-0.1,0.1c0,0-0.1,0.1-0.1,0.1
				c0,0-0.1,0.1-0.1,0.1L36.7,94.1z M35,91.8C35,91.8,35.1,91.7,35,91.8C35,91.7,35,91.7,35,91.8L35,91.8z M36,94.8
				C35.9,94.7,35.9,94.7,36,94.8C35.9,94.8,36,94.8,36,94.8z M36.1,95.1C36,95.1,36,95.1,36.1,95.1L36.1,95.1z M36.1,95.1
				c0.1,0,0.1-0.1,0.1-0.1C36.1,95,36.1,95,36.1,95.1z M36.3,94.8c-0.1,0-0.1,0.1-0.2,0.1C36.3,94.9,36.3,94.9,36.3,94.8L36.3,94.8z
				 M36,90.8L36,90.8C36,90.8,36,90.8,36,90.8L36,90.8z M36.4,94.4C36.4,94.4,36.4,94.4,36.4,94.4c0,0-0.1,0-0.1,0
				C36.3,94.4,36.4,94.4,36.4,94.4z M36.5,94.7c0,0,0.1,0,0.1-0.1C36.5,94.6,36.5,94.7,36.5,94.7z M36.2,90.7
				C36.2,90.7,36.2,90.7,36.2,90.7C36.2,90.7,36.2,90.7,36.2,90.7L36.2,90.7z M36.2,91c0.1,0,0.1,0,0.1-0.1L36.2,91z M37.5,100.2
				c0.3-0.3,0.7-0.8,0.9-1.1c0,0,0-0.1,0-0.1l0,0l-0.1,0C38.4,99,38.3,99,38.3,99c-0.4,0.5-0.8,1-1.2,1.4c0,0-0.1,0.1-0.1,0.2
				c0.1,0,0.1,0,0.2-0.1C37.3,100.4,37.4,100.3,37.5,100.2z M37.2,100.8c0,0,0,0.1-0.1,0.1C37.2,100.9,37.2,100.9,37.2,100.8z
				 M36.6,94.6C36.7,94.5,36.7,94.5,36.6,94.6L36.6,94.6z M36.4,90.5C36.4,90.5,36.4,90.5,36.4,90.5C36.4,90.5,36.4,90.5,36.4,90.5
				L36.4,90.5z M38.3,99.6C38.4,99.6,38.4,99.6,38.3,99.6l0.1-0.1c0,0,0,0,0,0s0,0-0.1,0C38.3,99.5,38.3,99.6,38.3,99.6
				c-0.3,0.3-0.6,0.7-0.9,1c-0.1,0.1-0.1,0.1-0.1,0.2c0.1,0,0.1,0,0.1-0.1C37.7,100.4,38.1,100,38.3,99.6z M36.5,90.8
				C36.5,90.8,36.4,90.9,36.5,90.8L36.5,90.8z M36.7,94L36.7,94c0.1,0,0.1-0.1,0.1-0.1L36.7,94z M36.8,94.4c0,0,0.1-0.1,0.1-0.1
				C36.8,94.3,36.8,94.4,36.8,94.4z M36.9,93.9C36.9,93.9,36.9,93.9,36.9,93.9C36.9,93.9,36.9,93.9,36.9,93.9z M36.9,90.5
				c-0.2,0-0.2,0.1-0.3,0.2C36.7,90.7,36.9,90.6,36.9,90.5z M36.9,94.3c0,0,0.1-0.1,0.1-0.1C37,94.2,36.9,94.3,36.9,94.3z M37,94.2
				C37,94.2,37,94.2,37,94.2C37,94.2,37,94.2,37,94.2z M37.2,94c0.1,0,0.1-0.1,0.1-0.1L37.2,94z M37.7,99.7L37.7,99.7
				C37.7,99.7,37.7,99.7,37.7,99.7z M37.9,99.4c-0.1,0-0.2,0.1-0.1,0.2C37.8,99.6,37.9,99.5,37.9,99.4z M37.4,90.2
				c-0.1,0-0.3,0.1-0.2,0.2C37.2,90.3,37.3,90.3,37.4,90.2z M37.1,90.1C37.2,90.1,37.2,90.1,37.1,90.1c0.3-0.1,0.4-0.2,0.6-0.4
				C37.5,89.7,37.3,89.9,37.1,90.1C37.2,90.1,37.1,90.1,37.1,90.1z M37.9,99.4c0.1,0,0.1-0.1,0.1-0.2C37.9,99.3,37.9,99.4,37.9,99.4
				z M38.1,99.2L38.1,99.2C38.1,99.2,38.1,99.2,38.1,99.2C38,99.2,38,99.2,38.1,99.2L38.1,99.2z M37.7,93.2c-0.1,0-0.1,0.1-0.1,0.1
				C37.6,93.3,37.7,93.2,37.7,93.2z M37.8,93.1c-0.1,0-0.1,0-0.1,0.1C37.8,93.2,37.8,93.1,37.8,93.1z M37.9,92.9
				c0,0-0.1,0.1-0.1,0.1C37.9,93,37.9,93,37.9,92.9z M37.9,92.9c0.1,0,0.1-0.1,0.1-0.1C38,92.8,37.9,92.9,37.9,92.9z M38.1,92.7
				c-0.1,0-0.1,0.1-0.1,0.1C38.1,92.8,38.1,92.8,38.1,92.7z M38.1,92.7C38.2,92.7,38.2,92.7,38.1,92.7
				C38.1,92.6,38.1,92.7,38.1,92.7z M38.2,92.6c0.1-0.1,0.1-0.1,0.1-0.2C38.3,92.5,38.3,92.5,38.2,92.6z"/>
			<path d="M42.3,95.4l0-0.1C42.3,95.3,42.2,95.4,42.3,95.4C42.3,95.4,42.3,95.4,42.3,95.4C42.3,95.4,42.3,95.5,42.3,95.4
				c0,0.1,0,0.1,0,0.2C42,96,41.8,96.5,41.6,97c0,0.1-0.1,0.3-0.1,0.5c0.1,0,0.1-0.1,0.1-0.2c0.2-0.4,0.3-0.8,0.5-1.2
				c0.1-0.2,0.4-0.5,0.5-0.8c0.1-0.1,0.1-0.1,0.1-0.2c0-0.1,0-0.1,0.1-0.1c0.1,0,0.1,0.1,0.2,0.1l0,0c0,0,0,0,0,0s0,0,0,0
				c0.1,0,0.1,0,0.1,0c0,0.1,0,0.1-0.1,0.2c-0.1,0.3-0.2,0.6-0.4,0.9c-0.2,0.5-0.4,1-0.5,1.5c-0.1,0.4-0.2,0.7-0.2,1.1l0,0.3
				c0,0,0,0,0.1,0c0.1,0,0.2-0.1,0.2-0.1c0.3-0.3,0.6-0.5,0.9-0.8c0.3-0.3,0.7-0.7,1-1c0.3-0.3,0.6-0.6,0.9-0.9
				c0.4-0.4,0.7-0.7,1-1.1l0.1-0.1c0,0.1,0.1,0.1,0.1,0.2l0,0c0,0,0,0.1,0,0.1c0,0.2-0.2,0.4-0.4,0.7c-0.1,0-0.2,0.1-0.2,0.2l0,0
				c-0.3,0.3-0.5,0.5-0.8,0.8c-0.4,0.4-0.9,0.9-1.2,1.3c-0.1,0.2-0.3,0.4-0.5,0.6c-0.1,0.1-0.2,0.2-0.3,0.4l-0.4,0.3
				c-0.1,0-0.2,0.1-0.3,0.1c-0.1,0-0.2,0-0.2,0c-0.1,0-0.2,0-0.3-0.1c-0.1,0-0.2-0.1-0.3-0.1c-0.1-0.1-0.2-0.2-0.2-0.3
				c-0.1-0.2-0.2-0.4-0.1-0.6c0-0.5,0.1-0.9,0.3-1.4c0-0.3,0.1-0.6,0.3-0.9l0.5-0.8c0.1-0.2,0.3-0.4,0.5-0.6c0-0.1,0.2-0.1,0.2-0.1
				c0,0.1,0,0.1,0,0.1c0,0,0,0,0,0.1c0,0,0,0.1,0,0.1l0,0l0,0c0,0,0,0,0,0C42.5,95.3,42.5,95.4,42.3,95.4z M41.3,97.4
				C41.3,97.3,41.3,97.3,41.3,97.4C41.3,97.3,41.3,97.3,41.3,97.4L41.3,97.4z M41.4,97.1C41.4,97.2,41.4,97.2,41.4,97.1
				c0,0.1,0,0.1,0,0.1C41.4,97.3,41.4,97.3,41.4,97.1C41.4,97.2,41.4,97.2,41.4,97.1z M41.4,97.1C41.4,97.1,41.4,97.1,41.4,97.1
				C41.4,97.1,41.4,97.1,41.4,97.1z M41.5,97.4C41.5,97.5,41.5,97.5,41.5,97.4l0,0.1C41.5,97.6,41.5,97.5,41.5,97.4L41.5,97.4z
				 M41.5,96.9c0,0-0.1,0,0,0.1C41.5,97,41.5,97,41.5,96.9z M41.5,96.8C41.5,96.8,41.5,96.8,41.5,96.8l0,0.1
				C41.5,96.9,41.6,96.9,41.5,96.8C41.5,96.8,41.5,96.8,41.5,96.8z M41.8,96.4c-0.1,0.1-0.2,0.3-0.2,0.5
				C41.6,96.7,41.7,96.6,41.8,96.4z M41.8,96.3C41.8,96.3,41.8,96.3,41.8,96.3C41.8,96.3,41.8,96.3,41.8,96.3z M41.8,96.2L41.8,96.2
				C41.8,96.3,41.8,96.3,41.8,96.2C41.8,96.2,41.8,96.2,41.8,96.2z M42.1,95.7c-0.2,0.1-0.2,0.3-0.3,0.5
				C42,96.1,42.1,95.9,42.1,95.7z M42.2,95.6c0,0-0.1,0-0.1,0.1C42.1,95.7,42.2,95.7,42.2,95.6z M42.2,95.5
				C42.2,95.5,42.2,95.5,42.2,95.5c-0.1,0.1-0.1,0.1-0.1,0.1C42.2,95.6,42.2,95.5,42.2,95.5z M42.7,99.2
				C42.7,99.2,42.6,99.2,42.7,99.2c0,0-0.1,0.1-0.1,0.1C42.6,99.3,42.6,99.3,42.7,99.2C42.6,99.2,42.7,99.2,42.7,99.2z M42.5,95.2
				c-0.1,0-0.1,0.1-0.1,0.2C42.4,95.3,42.5,95.3,42.5,95.2C42.5,95.2,42.5,95.2,42.5,95.2z M42.9,99c-0.1,0-0.1,0.1-0.2,0.2
				C42.8,99.1,42.8,99.1,42.9,99z M42.6,95C42.6,95,42.6,95.1,42.6,95C42.6,95.1,42.6,95.1,42.6,95C42.6,95.1,42.6,95.1,42.6,95
				C42.6,95,42.7,95,42.6,95L42.6,95L42.6,95C42.7,95,42.6,95,42.6,95z M43.1,98.8c-0.1,0-0.1,0-0.1,0.2
				C43.1,98.9,43.1,98.8,43.1,98.8L43.1,98.8z M43.1,98.6C43.1,98.6,43.1,98.6,43.1,98.6L43.1,98.6C43.1,98.5,43.1,98.5,43.1,98.6
				C43.1,98.5,43.1,98.6,43.1,98.6z M43.1,98.7C43.1,98.7,43.1,98.7,43.1,98.7L43.1,98.7C43.1,98.7,43.1,98.7,43.1,98.7z M43.3,98.6
				c-0.1,0-0.1,0-0.1,0.1C43.2,98.7,43.2,98.6,43.3,98.6z M43.2,98.5c0,0,0.1,0,0.1-0.1c0,0,0,0,0,0C43.2,98.4,43.2,98.4,43.2,98.5z
				 M43.3,98.3C43.3,98.3,43.3,98.3,43.3,98.3C43.3,98.3,43.3,98.2,43.3,98.3L43.3,98.3L43.3,98.3z M43.4,98.3l-0.1,0.2
				C43.4,98.5,43.4,98.4,43.4,98.3z M44,93.4c-0.1,0-0.2,0.1-0.2,0.2c0,0-0.1,0.1,0,0.1c0,0,0,0.1,0,0.1c-0.1,0.1-0.1,0.1-0.1,0.2
				c-0.1,0-0.1,0-0.1,0s0-0.1-0.1-0.1l0-0.1c0,0-0.1,0-0.2-0.1c0-0.1-0.1-0.1-0.1-0.1c-0.1,0-0.1-0.1-0.1-0.1
				c0.1-0.2,0.1-0.4,0.3-0.6c0,0,0.1,0,0.1-0.1c0,0,0.1,0,0.1,0c0.1,0,0.2,0,0.3,0.1c0.1,0,0.2,0.1,0.2,0.2C44,93.3,44,93.4,44,93.4
				z M43.5,98.3L43.5,98.3L43.5,98.3C43.5,98.3,43.5,98.3,43.5,98.3z M43.6,98.1c-0.1,0-0.1,0.1-0.2,0.1
				C43.6,98.2,43.6,98.2,43.6,98.1z M43.5,98.1C43.5,98.1,43.5,98.1,43.5,98.1L43.5,98.1L43.5,98.1C43.5,98.1,43.5,98.1,43.5,98.1z
				 M43.6,97.9C43.6,97.9,43.6,98,43.6,97.9L43.6,97.9C43.6,97.9,43.6,97.9,43.6,97.9z M43.7,98.1L43.7,98.1
				C43.7,98.1,43.7,98.1,43.7,98.1L43.7,98.1C43.7,98.1,43.7,98.1,43.7,98.1z M43.6,97.9C43.7,97.9,43.7,97.9,43.6,97.9
				c0.1,0,0.1-0.1,0.1-0.1C43.7,97.8,43.7,97.8,43.6,97.9C43.7,97.9,43.7,97.9,43.6,97.9L43.6,97.9z M43.9,97.9
				c-0.1,0-0.1,0.1-0.1,0.2C43.8,98.1,43.8,98,43.9,97.9z M43.4,93.2L43.4,93.2C43.4,93.2,43.4,93.2,43.4,93.2
				C43.4,93.2,43.4,93.2,43.4,93.2L43.4,93.2z M43.8,97.8c0.1,0,0.1-0.1,0.2-0.2C43.9,97.7,43.8,97.7,43.8,97.8z M43.6,93.1
				L43.6,93.1L43.6,93.1L43.6,93.1l-0.1,0c-0.1,0-0.1,0-0.1,0l0.1,0c-0.1,0-0.1,0.1-0.1,0.1c0,0,0,0,0,0.1
				C43.6,93.3,43.6,93.2,43.6,93.1z M44,97.8C43.9,97.9,43.9,97.9,44,97.8c-0.1,0.1-0.1,0.1-0.1,0.1c0,0,0,0,0,0
				C43.9,97.9,43.9,97.9,44,97.8L44,97.8z M44.1,97.7C44,97.7,44,97.7,44.1,97.7C44,97.7,44,97.7,44.1,97.7z M44.3,97.4L44.3,97.4
				C44.3,97.5,44.3,97.5,44.3,97.4C44.3,97.5,44.3,97.5,44.3,97.4L44.3,97.4z M44.5,97.1C44.5,97.1,44.6,97,44.5,97.1L44.5,97.1
				L44.5,97.1L44.5,97.1z M44.8,96.8c-0.1,0-0.1,0.1-0.1,0.1l-0.1,0.1C44.7,96.9,44.8,96.8,44.8,96.8z M44.8,97
				C44.8,97,44.8,97,44.8,97c-0.1,0.1-0.1,0.1-0.1,0.1C44.7,97.1,44.7,97.1,44.8,97L44.8,97z M44.8,96.9
				C44.8,96.9,44.8,96.9,44.8,96.9L44.8,96.9z M44.9,96.8C44.9,96.8,44.9,96.8,44.9,96.8C44.9,96.8,44.9,96.8,44.9,96.8z M44.9,96.6
				L44.9,96.6C44.9,96.7,44.9,96.7,44.9,96.6z M45.2,96.6c-0.1,0-0.1,0.1-0.2,0.2C45.1,96.7,45.1,96.7,45.2,96.6z M45.1,96.5
				L45.1,96.5L45,96.6C45,96.6,45,96.6,45.1,96.5C45,96.5,45.1,96.5,45.1,96.5z M45.5,96.2c-0.1,0-0.1,0.1-0.2,0.2
				C45.3,96.3,45.4,96.3,45.5,96.2z M45.6,96.1c-0.1,0-0.1,0.1-0.2,0.1C45.6,96.2,45.7,96.2,45.6,96.1L45.6,96.1z M45.7,95.9
				c-0.1,0-0.1,0.1-0.1,0.1c-0.1,0-0.1,0-0.1,0C45.6,96.1,45.6,96,45.7,95.9z M45.9,95.7c-0.1,0-0.1,0.1-0.1,0.2
				C45.8,95.8,45.9,95.8,45.9,95.7z M45.9,95.9C45.8,95.9,45.8,96,45.9,95.9L45.9,95.9z M45.9,95.8C45.9,95.8,45.9,95.9,45.9,95.8
				C45.9,95.8,45.9,95.8,45.9,95.8L45.9,95.8z M46,95.5c-0.1,0-0.1,0-0.1,0.1l0,0.1C46,95.6,46,95.5,46,95.5z"/>
			<path d="M51.8,99.2C51.8,99.3,51.8,99.3,51.8,99.2C51.8,99.3,51.9,99.2,51.8,99.2c0.1,0,0.2-0.1,0.2-0.1c0,0,0,0,0,0l0,0.1
				c-0.1,0.1-0.2,0.2-0.2,0.3c-0.2,0.2-0.5,0.4-0.7,0.5c-0.3,0.2-0.6,0.2-0.8,0.3c-0.4,0-0.7,0-1-0.1c-0.4-0.1-0.8-0.4-1.2-0.6
				c-0.6-0.4-1-0.9-1.3-1.4c-0.1-0.2-0.3-0.3-0.4-0.5c0,0,0,0,0,0c0,0,0,0-0.1,0c0,0,0,0-0.1,0c0,0,0,0.1,0,0.1
				c-0.3,0.8-0.6,1.7-0.8,2.5c-0.1,0.3-0.2,0.6-0.2,0.9c0,0,0,0.1,0,0.1c0,0.1,0,0.2,0,0.2c-0.1,0.1-0.1,0.1-0.1,0.1
				c0,0-0.1,0-0.1,0c-0.1-0.1-0.2-0.1-0.3-0.2c0,0,0,0,0,0c-0.1,0-0.2-0.1-0.2-0.2c0,0,0-0.1,0-0.1c0,0,0-0.1,0-0.1
				c0-0.2-0.1-0.5-0.1-0.7c0-0.1,0-0.1,0-0.2l0.2-0.7c0-0.3,0.1-0.6,0.2-0.9l0.8-2.4c0.1-0.2,0.1-0.5,0.2-0.7c0.1-0.3,0.2-0.7,0.3-1
				c0.2-0.6,0.4-1.1,0.6-1.7c0.1-0.3,0.2-0.5,0.3-0.8c0.1-0.3,0.2-0.6,0.2-0.9l0.4-1c0.2-0.5,0.4-1.1,0.5-1.5
				c0.1-0.2,0.4-0.2,0.5-0.4c0,0,0-0.1,0.1-0.1c0,0,0.1,0,0.1,0c0.2,0,0.2,0.1,0.4,0.2c0,0.1,0.1,0.1,0.1,0.2c0,0,0,0,0,0.1
				c-0.1,0.2-0.1,0.4-0.2,0.6c-0.2,0.4-0.2,0.7-0.4,1.1c-0.1,0.3-0.2,0.5-0.2,0.8c-0.1,0.3-0.2,0.7-0.2,1C48,92.1,48,92.2,48,92.3
				c-0.2,0.7-0.4,1.4-0.6,2.1c-0.2,0.7-0.4,1.4-0.6,2.1l0,0c0,0.1,0,0.1,0,0.2c0,0,0,0,0,0.1c0,0,0,0,0,0c0.1,0,0.2-0.1,0.2-0.1
				c0.8-0.4,1.6-0.8,2.3-1.3c0.2-0.2,0.5-0.4,0.7-0.5c0.4-0.3,0.7-0.6,1.1-0.9c0.2-0.1,0.4-0.3,0.5-0.5c0-0.1,0.1-0.1,0.2-0.2
				c0,0,0.1,0,0.1,0c0,0,0.1,0,0.1,0.1l0,0l-0.1,0.1c0,0-0.1,0.1-0.1,0.2c-0.1,0.1-0.2,0.1-0.3,0.3c0,0,0,0,0,0.1c0,0,0,0,0.1,0
				c0.1-0.1,0.2-0.2,0.2-0.3c0.1,0,0.2-0.1,0.2-0.2c0,0,0.1-0.1,0.1-0.2c0,0,0,0,0.1,0c0,0,0,0,0,0c0,0,0,0.1,0.1,0.1
				c0,0,0,0.1,0,0.1l-0.1,0.2c-0.1,0.3-0.4,0.5-0.7,0.8c-0.3,0.3-0.8,0.8-1.2,1.1c-0.3,0.2-0.6,0.5-1,0.7c-0.3,0.2-0.7,0.4-1,0.6
				c-0.4,0.2-0.7,0.2-1.1,0.4c-0.1,0-0.1,0-0.1,0.1c0,0,0,0,0,0c0,0,0,0,0,0.1c0,0,0,0.1,0,0.1c0.3,0.3,0.6,0.6,0.8,1
				c0.2,0.2,0.3,0.3,0.5,0.5c0.2,0.3,0.5,0.4,0.8,0.6c0,0,0,0,0,0c0.3,0.1,0.5,0.2,0.8,0.1c0.3,0,0.5-0.1,0.8-0.2l0.3-0.2
				c0.1-0.1,0.3-0.2,0.4-0.3c0.1,0,0.1-0.1,0.2-0.1c0,0,0.1,0,0.1,0.1l0,0c0.1,0,0.1,0,0.1,0c0,0,0,0,0,0c0,0,0,0,0,0.1
				C51.8,99.1,51.8,99.2,51.8,99.2z M51.5,94.2C51.5,94.2,51.5,94.2,51.5,94.2c0.1,0,0.1,0,0.1-0.2C51.5,94.1,51.5,94.1,51.5,94.2z
				 M51.7,93.9C51.7,94,51.7,94,51.7,93.9c0.1,0,0.1,0,0.1-0.1C51.8,93.9,51.7,93.9,51.7,93.9z"/>
			<path d="M53.5,94.5l0-0.1C53.4,94.4,53.4,94.5,53.5,94.5C53.4,94.5,53.4,94.5,53.5,94.5C53.4,94.6,53.5,94.6,53.5,94.5
				c0,0.1,0,0.1,0,0.2c-0.3,0.5-0.5,0.9-0.7,1.4c0,0.1-0.1,0.3-0.1,0.5c0.1,0,0.1-0.1,0.1-0.2c0.2-0.4,0.3-0.8,0.5-1.2
				c0.1-0.2,0.4-0.5,0.5-0.8c0.1-0.1,0.1-0.1,0.1-0.2c0-0.1,0-0.1,0.1-0.1c0.1,0,0.1,0.1,0.2,0.1l0,0c0,0,0,0,0,0c0,0,0,0,0,0
				c0.1,0,0.1,0,0.1,0c0,0.1,0,0.1-0.1,0.2c-0.1,0.3-0.2,0.6-0.4,0.9c-0.2,0.5-0.4,1-0.5,1.5c-0.1,0.4-0.2,0.7-0.2,1.1l0,0.3
				c0,0,0,0,0.1,0c0.1,0,0.2-0.1,0.2-0.1c0.3-0.3,0.6-0.5,0.9-0.8c0.3-0.3,0.7-0.7,1-1c0.3-0.3,0.6-0.6,0.9-0.9
				c0.4-0.4,0.7-0.7,1-1.1l0.1-0.1c0,0.1,0.1,0.1,0.1,0.2l0,0c0,0,0,0.1,0,0.1c0,0.2-0.2,0.4-0.4,0.7c-0.1,0-0.2,0.1-0.2,0.2l0,0
				c-0.3,0.3-0.5,0.5-0.8,0.8c-0.4,0.4-0.9,0.9-1.2,1.3c-0.1,0.2-0.3,0.4-0.5,0.6c-0.1,0.1-0.2,0.2-0.3,0.4l-0.4,0.3
				c-0.1,0-0.2,0.1-0.3,0.1c-0.1,0-0.2,0-0.2,0c-0.1,0-0.2,0-0.2-0.1c-0.1,0-0.2-0.1-0.3-0.1c-0.1-0.1-0.2-0.2-0.2-0.3
				c-0.1-0.2-0.2-0.4-0.1-0.6c0-0.5,0.1-0.9,0.3-1.4c0-0.3,0.1-0.6,0.3-0.9l0.5-0.8c0.1-0.2,0.3-0.4,0.5-0.6c0-0.1,0.2-0.1,0.2-0.1
				c0,0.1,0,0.1,0,0.1c0,0,0,0,0,0.1c0,0,0,0.1,0,0.1l0,0l0,0c0,0,0,0,0,0C53.6,94.4,53.6,94.5,53.5,94.5z M52.4,96.5
				C52.5,96.5,52.5,96.5,52.4,96.5C52.5,96.4,52.5,96.5,52.4,96.5L52.4,96.5z M52.5,96.3C52.5,96.3,52.5,96.3,52.5,96.3
				c0,0.1,0,0.1,0,0.1C52.5,96.4,52.5,96.4,52.5,96.3C52.5,96.3,52.5,96.3,52.5,96.3z M52.5,96.2C52.5,96.2,52.5,96.2,52.5,96.2
				C52.5,96.2,52.5,96.2,52.5,96.2z M52.6,96.6C52.6,96.6,52.6,96.6,52.6,96.6l0,0.1C52.6,96.7,52.6,96.7,52.6,96.6L52.6,96.6z
				 M52.6,96c0,0-0.1,0,0,0.1C52.6,96.2,52.6,96.1,52.6,96z M52.7,95.9C52.6,96,52.6,96,52.7,95.9l0,0.1C52.7,96,52.7,96,52.7,95.9
				C52.7,96,52.7,96,52.7,95.9z M52.9,95.5c-0.1,0.1-0.2,0.3-0.2,0.5C52.8,95.8,52.9,95.7,52.9,95.5z M52.9,95.4
				C52.9,95.4,52.9,95.4,52.9,95.4C52.9,95.5,52.9,95.4,52.9,95.4z M52.9,95.3L52.9,95.3C52.9,95.4,52.9,95.4,52.9,95.3
				C52.9,95.3,52.9,95.3,52.9,95.3z M53.2,94.8c-0.2,0.1-0.2,0.3-0.3,0.5C53.1,95.2,53.2,95,53.2,94.8z M53.3,94.7
				c0,0-0.1,0-0.1,0.1C53.3,94.8,53.3,94.8,53.3,94.7z M53.4,94.6C53.3,94.6,53.3,94.6,53.4,94.6c-0.1,0.1-0.1,0.1-0.1,0.1
				C53.4,94.7,53.4,94.6,53.4,94.6z M53.8,98.3C53.8,98.3,53.8,98.3,53.8,98.3c0,0-0.1,0.1-0.1,0.1C53.7,98.4,53.8,98.4,53.8,98.3
				C53.8,98.3,53.8,98.3,53.8,98.3z M53.6,94.3c-0.1,0-0.1,0.1-0.1,0.2C53.6,94.4,53.6,94.4,53.6,94.3
				C53.6,94.3,53.6,94.3,53.6,94.3z M54,98.1c-0.1,0-0.1,0.1-0.2,0.2C53.9,98.3,54,98.2,54,98.1z M53.8,94.2
				C53.8,94.2,53.8,94.2,53.8,94.2C53.7,94.2,53.7,94.2,53.8,94.2C53.7,94.2,53.7,94.2,53.8,94.2C53.7,94.2,53.8,94.1,53.8,94.2
				L53.8,94.2L53.8,94.2C53.8,94.1,53.8,94.1,53.8,94.2z M54.2,97.9c-0.1,0-0.1,0-0.1,0.2C54.2,98,54.2,98,54.2,97.9L54.2,97.9z
				 M54.2,97.7C54.2,97.7,54.2,97.7,54.2,97.7L54.2,97.7C54.3,97.6,54.2,97.6,54.2,97.7C54.2,97.6,54.2,97.7,54.2,97.7z M54.3,97.8
				C54.3,97.8,54.2,97.9,54.3,97.8L54.3,97.8C54.2,97.9,54.3,97.8,54.3,97.8z M54.4,97.7c-0.1,0-0.1,0-0.1,0.1
				C54.3,97.8,54.4,97.7,54.4,97.7z M54.3,97.6c0,0,0.1,0,0.1-0.1c0,0,0,0,0,0C54.3,97.5,54.3,97.5,54.3,97.6z M54.4,97.4
				C54.4,97.4,54.4,97.4,54.4,97.4C54.5,97.4,54.5,97.4,54.4,97.4L54.4,97.4L54.4,97.4z M54.6,97.4l-0.1,0.2
				C54.5,97.6,54.5,97.5,54.6,97.4z M55.1,92.5c-0.1,0-0.2,0.1-0.2,0.2c0,0-0.1,0.1,0,0.1c0,0,0,0.1,0,0.1c-0.1,0.1-0.1,0.1-0.1,0.2
				c-0.1,0-0.1,0-0.1,0c0,0,0-0.1-0.1-0.1l0-0.1c0,0-0.1,0-0.2-0.1c0-0.1-0.1-0.1-0.1-0.1c-0.1,0-0.1-0.1-0.1-0.1
				c0.1-0.2,0.1-0.4,0.3-0.6c0,0,0.1,0,0.1-0.1c0,0,0.1,0,0.1,0c0.1,0,0.2,0,0.3,0.1c0.1,0,0.2,0.1,0.2,0.2
				C55.1,92.4,55.1,92.5,55.1,92.5z M54.6,97.4L54.6,97.4L54.6,97.4C54.6,97.4,54.6,97.4,54.6,97.4z M54.8,97.3
				c-0.1,0-0.1,0.1-0.2,0.1C54.7,97.4,54.8,97.3,54.8,97.3z M54.6,97.2C54.6,97.2,54.6,97.2,54.6,97.2L54.6,97.2L54.6,97.2
				C54.6,97.2,54.6,97.2,54.6,97.2z M54.7,97.1C54.7,97.1,54.7,97.1,54.7,97.1L54.7,97.1C54.7,97,54.7,97.1,54.7,97.1z M54.8,97.2
				L54.8,97.2C54.8,97.2,54.8,97.2,54.8,97.2L54.8,97.2C54.8,97.3,54.8,97.2,54.8,97.2z M54.8,97C54.8,97,54.8,97,54.8,97
				c0.1,0,0.1-0.1,0.1-0.1C54.9,96.9,54.9,96.9,54.8,97C54.8,97,54.8,97,54.8,97L54.8,97z M55,97.1c-0.1,0-0.1,0.1-0.1,0.2
				C54.9,97.2,55,97.1,55,97.1z M54.5,92.3L54.5,92.3C54.5,92.3,54.5,92.3,54.5,92.3C54.5,92.3,54.5,92.3,54.5,92.3L54.5,92.3z
				 M54.9,96.9c0.1,0,0.1-0.1,0.2-0.2C55,96.8,54.9,96.8,54.9,96.9z M54.7,92.3L54.7,92.3L54.7,92.3L54.7,92.3l-0.1,0
				c-0.1,0-0.1,0-0.1,0l0.1,0c-0.1,0-0.1,0.1-0.1,0.1c0,0,0,0,0,0.1C54.7,92.4,54.7,92.3,54.7,92.3z M55.1,96.9
				C55.1,97,55,97,55.1,96.9C55,97,55,97,55,97.1c0,0,0,0,0,0C55,97,55.1,97,55.1,96.9L55.1,96.9z M55.2,96.8
				C55.2,96.8,55.2,96.8,55.2,96.8C55.2,96.8,55.2,96.8,55.2,96.8z M55.4,96.5L55.4,96.5C55.4,96.6,55.4,96.6,55.4,96.5
				C55.4,96.6,55.4,96.6,55.4,96.5L55.4,96.5z M55.6,96.2C55.6,96.2,55.7,96.1,55.6,96.2L55.6,96.2L55.6,96.2L55.6,96.2z M56,95.9
				c-0.1,0-0.1,0.1-0.1,0.1L55.8,96C55.8,96,55.9,96,56,95.9z M55.9,96.1C55.9,96.1,55.9,96.1,55.9,96.1c-0.1,0.1-0.1,0.1-0.1,0.1
				C55.8,96.2,55.9,96.2,55.9,96.1L55.9,96.1z M56,96C55.9,96,55.9,96.1,56,96L56,96z M56,95.9C56,95.9,56.1,95.9,56,95.9
				C56.1,95.9,56,95.9,56,95.9z M56.1,95.8L56.1,95.8C56.1,95.8,56.1,95.8,56.1,95.8z M56.3,95.7c-0.1,0-0.1,0.1-0.2,0.2
				C56.2,95.9,56.2,95.8,56.3,95.7z M56.2,95.6L56.2,95.6l-0.1,0.1C56.2,95.7,56.2,95.7,56.2,95.6C56.2,95.7,56.2,95.6,56.2,95.6z
				 M56.6,95.3c-0.1,0-0.1,0.1-0.2,0.2C56.4,95.5,56.5,95.4,56.6,95.3z M56.8,95.2c-0.1,0-0.1,0.1-0.2,0.1
				C56.7,95.4,56.8,95.3,56.8,95.2L56.8,95.2z M56.8,95c-0.1,0-0.1,0.1-0.1,0.1c-0.1,0-0.1,0-0.1,0C56.7,95.2,56.8,95.1,56.8,95z
				 M57,94.8c-0.1,0-0.1,0.1-0.1,0.2C56.9,94.9,57,94.9,57,94.8z M57,95C56.9,95.1,56.9,95.1,57,95L57,95z M57.1,94.9
				C57,94.9,57,95,57.1,94.9C57,95,57,94.9,57.1,94.9L57.1,94.9z M57.2,94.6c-0.1,0-0.1,0-0.1,0.1l0,0.1
				C57.1,94.7,57.2,94.6,57.2,94.6z"/>
			<path d="M65.2,94.2L65.2,94.2c0,0.1-0.1,0.1-0.1,0.2c-0.2,0.2-0.3,0.3-0.5,0.6c-0.2,0.2-0.3,0.4-0.5,0.6
				c-0.3,0.4-0.5,0.8-0.8,1.2c-0.4,0.6-0.9,1.2-1.3,1.8c-0.2,0-0.4,0.3-0.6,0.5c-0.2,0.1-0.3,0.2-0.4,0.3c-0.1,0-0.2,0.1-0.2,0.1
				c-0.1,0-0.2,0-0.3-0.1c-0.2,0-0.1,0-0.3-0.1c0-0.1-0.1-0.1-0.2-0.2c-0.1-0.1-0.2-0.3-0.2-0.4c0-0.2-0.1-0.4-0.1-0.6
				c0-0.3,0.1-0.6,0.2-0.9l0.3-1c0-0.1,0.1-0.2,0.1-0.4l0.1-0.2c0.1-0.3,0.3-0.6,0.4-0.9l0.3-0.7l0-0.1l0,0c0,0,0,0-0.1,0
				c-0.2,0.1-0.3,0.2-0.4,0.3c-0.2,0.2-0.4,0.4-0.6,0.7c-0.2,0.3-0.4,0.5-0.6,0.8c-0.5,0.7-0.9,1.4-1.5,2.1
				c-0.1,0.1-0.2,0.2-0.3,0.3c-0.1,0.1-0.2,0.1-0.3,0.1c-0.1,0-0.1,0-0.2,0c-0.1-0.1-0.2-0.1-0.3-0.2c-0.1-0.1-0.1-0.1-0.2-0.1
				c-0.1-0.1-0.2-0.2-0.2-0.3c-0.1-0.2-0.1-0.4-0.1-0.5c0-0.1,0-0.2,0-0.3c0-0.1,0-0.2,0.1-0.3c0-0.1,0-0.1-0.1-0.2c0,0,0-0.1,0-0.1
				c0-0.4,0.3-1,0.5-1.5c0.1-0.2,0.2-0.4,0.3-0.6c0-0.1,0-0.1,0.1-0.2l0.1-0.1c0.1-0.1,0.2-0.1,0.2-0.1c0.1,0,0.1,0,0.1,0
				c0,0,0.1,0,0,0c0,0,0,0,0,0.1c0,0,0,0,0,0l0,0c0,0,0,0,0,0c0,0,0.1,0,0.1-0.1l0.1,0l0,0c0,0-0.1,0.1-0.1,0.1c0,0,0,0,0,0l0.1-0.1
				c0,0,0-0.1,0.1-0.1l0,0l0,0l0,0.1l0,0c0,0,0.1,0,0.1,0c0,0-0.1,0.1-0.1,0.1c0,0.1-0.1,0.1-0.1,0.2c0,0,0,0,0,0l0,0
				c0-0.1,0.1-0.1,0.1-0.2c0,0,0.1,0,0.1,0c0.1,0,0.1,0,0.1,0.1l0,0.2c0,0-0.1,0.1-0.1,0.1c-0.2,0.4-0.4,0.8-0.5,1.2
				c-0.1,0.2-0.1,0.4-0.1,0.7c0,0.2-0.1,0.4-0.2,0.6c0,0.1,0,0.1,0,0.2c0,0,0,0.1,0,0.1c0.1,0,0.1,0,0.1-0.1c0-0.1,0.1-0.1,0.1-0.1
				c0.2-0.3,0.4-0.6,0.7-0.9c0.2-0.3,0.5-0.6,0.7-0.9c0.3-0.4,0.6-0.7,1-1l0.6-0.6c0.1-0.1,0.2-0.1,0.2-0.2c0.1,0,0.1-0.1,0.2-0.1
				c0.1,0,0.1,0,0.1,0l0.1,0c0.2,0,0.3,0,0.5,0.1c0.1,0.1,0.1,0.2,0.1,0.4c0,0.1,0,0.3,0,0.4c-0.1,0.4-0.2,0.8-0.3,1.2
				c-0.1,0.3-0.2,0.6-0.3,0.8c-0.1,0.2-0.2,0.6-0.3,0.8c-0.1,0.3-0.2,0.6-0.3,1c-0.1,0.2-0.1,0.4-0.1,0.7l0,0.1c0,0,0,0,0,0
				c0,0,0,0,0,0c0.1,0,0.2-0.1,0.2-0.1c0.2,0,0.3-0.2,0.4-0.3c0.3-0.4,0.7-0.8,1-1.2c0.5-0.6,1-1.3,1.5-1.9c0.2-0.2,0.4-0.5,0.6-0.7
				c0.2-0.1,0.3-0.3,0.4-0.4c0,0,0.1,0,0.1,0c0,0,0,0,0,0c0.1,0,0.1,0.1,0.1,0.1l0,0l0,0.1L65.2,94.2C65.1,94.2,65.1,94.2,65.2,94.2
				L65.2,94.2L65.2,94.2z M57.5,97.5L57.5,97.5C57.5,97.5,57.5,97.5,57.5,97.5L57.5,97.5z M57.5,97.4L57.5,97.4
				c0.2-0.1,0.2-0.2,0.3-0.2c0.4-0.4,0.6-0.8,0.9-1.1c0.2-0.4,0.5-0.7,0.7-1l0-0.1c-0.1,0-0.1,0.1-0.2,0.2c-0.1,0.1-0.2,0.3-0.4,0.5
				l-0.1,0.1c0,0-0.1,0.1-0.1,0.1c-0.3,0.4-0.6,0.9-0.9,1.3C57.7,97.2,57.6,97.3,57.5,97.4L57.5,97.4z M59.2,95.6
				c-0.2,0.1-0.3,0.3-0.4,0.5c-0.1,0-0.1,0.1-0.1,0.2l0,0c-0.3,0.4-0.7,0.9-0.9,1.3l-0.1,0.1c0.2-0.1,0.2-0.1,0.3-0.2
				c0.2-0.3,0.5-0.6,0.6-0.9c0.1-0.1,0.1-0.2,0.2-0.3c0,0,0.1-0.1,0.1-0.1c0.1-0.1,0.2-0.3,0.3-0.4C59.1,95.7,59.2,95.7,59.2,95.6z
				 M59.6,95c-0.1,0-0.1,0.1-0.2,0.2c0,0-0.1,0.1-0.1,0.2c-0.1,0-0.1,0.1-0.1,0.2c0,0-0.1,0.1-0.1,0.1c0,0,0.1-0.1,0.1-0.1
				c0,0,0.1-0.1,0.1-0.1c0.1,0,0.1-0.1,0.1-0.2C59.6,95.1,59.6,95,59.6,95z M59.5,94.9c0.1,0,0.1-0.1,0.2-0.2
				C59.6,94.7,59.5,94.8,59.5,94.9z M59.9,94.7c-0.1,0.1-0.2,0.1-0.1,0.2C59.8,94.8,59.9,94.7,59.9,94.7z M59.8,94.5L59.8,94.5
				C59.9,94.5,59.9,94.4,59.8,94.5L59.8,94.5L59.8,94.5C59.9,94.4,59.9,94.5,59.8,94.5C59.9,94.5,59.9,94.5,59.8,94.5z M62.2,97.9
				C62.1,98,62,98,62,98.1c-0.1,0-0.1,0.1-0.1,0.2c-0.1,0.1-0.2,0.2-0.3,0.2c-0.1,0-0.1,0.1-0.2,0.1l-0.1,0.1l0,0l0.3-0.3
				c0.1,0,0.3-0.1,0.3-0.2c0.1,0,0.1-0.1,0.2-0.2C62.1,98.1,62.1,98,62.2,97.9z M61.4,98.6c0.1,0,0.2-0.1,0.2-0.2
				c0.3-0.3,0.6-0.7,0.9-1.1l0.8-1.1c0.1-0.1,0.2-0.3,0.3-0.4c0.1-0.1,0.2-0.3,0.3-0.4c0.1-0.1,0.1-0.2,0.2-0.3
				c0.2-0.1,0.3-0.3,0.4-0.4c0,0,0.1-0.1,0.1-0.1c0,0-0.1,0.1-0.1,0.1c-0.1,0-0.1,0-0.1,0.1L64.2,95c0,0-0.1,0.1-0.1,0.1
				c0,0,0,0,0,0L64,95.3l0,0c0,0,0,0,0,0.1c0,0,0,0,0,0.1l-0.1,0l0,0l0,0l0,0c0,0,0,0,0,0c0,0,0,0.1,0,0.1l0,0l-0.1,0.1
				c0,0,0,0.1-0.1,0.1c0,0,0,0-0.1,0c0,0,0,0,0,0.1l0,0l0,0l0,0c-0.1,0.1-0.1,0.1-0.1,0.1c0,0-0.1,0.1-0.1,0.1c0,0,0,0.1-0.1,0.1
				l0,0l0,0c-0.1,0-0.1,0.1-0.1,0.1c0,0,0,0,0,0c0,0,0,0,0,0l-0.1,0.1c0,0,0,0.1-0.1,0.1c0,0,0,0.1-0.1,0.1l0,0c0,0,0,0-0.1,0
				c0,0,0,0-0.1,0l0,0l0,0c0,0,0,0.1-0.1,0.1l-0.1,0.1l-0.1,0l0,0c0,0,0,0.1,0,0.1c0,0,0,0.1-0.1,0.1c0,0,0,0,0,0c0,0,0,0.1-0.1,0.1
				l0,0l-0.1,0.1c0,0,0,0.1,0,0.1l0,0l0,0c0,0,0,0.1-0.1,0.1c0,0,0,0,0,0s0,0,0,0c0,0,0,0,0,0.1l0,0c-0.1,0-0.1,0.1-0.2,0.1l0,0l0,0
				c0,0,0,0.1-0.1,0.1c0,0,0,0,0,0l0,0c0,0-0.1,0.1-0.1,0.1c-0.1,0.1-0.1,0.1-0.2,0.1c0,0-0.1,0.1-0.1,0.1c0,0.1,0,0.1-0.1,0.2
				c0,0-0.1,0.1-0.1,0.1C61.4,98.6,61.4,98.6,61.4,98.6z M61.6,98.3C61.6,98.3,61.6,98.3,61.6,98.3L61.6,98.3z M62.4,97.7
				c-0.1,0-0.1,0.1-0.2,0.2C62.3,97.9,62.4,97.8,62.4,97.7z M62.4,97.6C62.4,97.6,62.4,97.7,62.4,97.6
				C62.4,97.7,62.4,97.6,62.4,97.6z M62.6,97.4c-0.1,0.1-0.1,0.1-0.2,0.2C62.6,97.6,62.6,97.5,62.6,97.4z M62.7,97.3L62.7,97.3
				C62.7,97.3,62.7,97.3,62.7,97.3C62.7,97.3,62.7,97.3,62.7,97.3z M62.7,97.2c0,0-0.1,0.1-0.1,0.1C62.7,97.2,62.7,97.2,62.7,97.2z
				 M63,97c-0.1,0-0.2,0.1-0.2,0.2C62.8,97.2,62.9,97.1,63,97z M63,96.9C63,96.9,63,97,63,96.9C63,97,63,97,63,96.9z M63.1,96.8
				C63,96.9,63,96.9,63.1,96.8C63.1,96.9,63.1,96.9,63.1,96.8z M63.2,96.7c0,0-0.1,0.1-0.1,0.1L63.2,96.7z M63.2,96.7
				C63.1,96.7,63.1,96.7,63.2,96.7C63.2,96.7,63.2,96.7,63.2,96.7z M63.2,96.6C63.2,96.6,63.2,96.6,63.2,96.6
				C63.2,96.6,63.2,96.6,63.2,96.6z M63.3,96.5c-0.1,0-0.1,0.1-0.1,0.1C63.3,96.6,63.3,96.5,63.3,96.5z M63.4,96.3
				C63.4,96.3,63.4,96.4,63.4,96.3C63.4,96.4,63.4,96.3,63.4,96.3z M63.5,96.2c0,0-0.1,0.1-0.1,0.1C63.5,96.3,63.5,96.2,63.5,96.2z
				 M63.6,96L63.6,96L63.6,96C63.6,96,63.6,96,63.6,96z M63.7,95.9c0,0-0.1,0.1-0.1,0.1C63.7,96,63.7,95.9,63.7,95.9z M63.9,95.7
				C63.8,95.7,63.8,95.8,63.9,95.7C63.8,95.8,63.9,95.8,63.9,95.7z M63.9,95.6C63.8,95.7,63.9,95.7,63.9,95.6
				C63.9,95.7,63.9,95.7,63.9,95.6z M64,95.4c-0.1,0-0.1,0.1-0.1,0.1C64,95.5,64.1,95.5,64,95.4z M64.1,95.3
				C64,95.4,64,95.4,64.1,95.3C64.1,95.4,64.1,95.4,64.1,95.3z M64.3,95.1c-0.1,0-0.1,0-0.1,0.1L64.3,95.1z M64.4,95L64.4,95
				C64.4,95.1,64.4,95,64.4,95z M64.5,94.9c0,0-0.1,0.1-0.1,0.1C64.5,95,64.5,95,64.5,94.9z M64.6,94.8c-0.1,0-0.1,0.1-0.1,0.1
				C64.5,94.8,64.6,94.8,64.6,94.8z M64.6,94.5c0.1,0,0.1-0.1,0.1-0.2C64.6,94.5,64.6,94.5,64.6,94.5z M64.7,94.4
				C64.7,94.4,64.8,94.4,64.7,94.4C64.8,94.4,64.7,94.4,64.7,94.4z M64.8,94.4C64.8,94.5,64.8,94.5,64.8,94.4L64.8,94.4z M64.8,94.3
				L64.8,94.3L64.8,94.3C64.9,94.2,64.8,94.3,64.8,94.3z M64.9,94.3C64.9,94.4,64.9,94.4,64.9,94.3C64.9,94.4,64.9,94.4,64.9,94.3z"
				/>
			<path d="M65.4,93.6l0-0.1C65.4,93.5,65.3,93.6,65.4,93.6C65.3,93.6,65.4,93.6,65.4,93.6C65.4,93.6,65.4,93.6,65.4,93.6
				c0,0.1,0,0.1,0,0.2c-0.3,0.5-0.5,0.9-0.7,1.4c0,0.1-0.1,0.3-0.1,0.5c0.1,0,0.1-0.1,0.1-0.2c0.2-0.4,0.3-0.8,0.5-1.2
				c0.1-0.2,0.4-0.5,0.5-0.8c0.1-0.1,0.1-0.1,0.1-0.2c0-0.1,0-0.1,0.1-0.1c0.1,0,0.1,0.1,0.2,0.1l0,0c0,0,0,0,0,0c0,0,0,0,0,0
				c0.1,0,0.1,0,0.1,0c0,0.1,0,0.1-0.1,0.2c-0.1,0.3-0.2,0.6-0.4,0.9c-0.2,0.5-0.4,1-0.5,1.5c-0.1,0.4-0.2,0.7-0.2,1.1l0,0.3
				c0,0,0,0,0.1,0c0.1,0,0.2-0.1,0.2-0.1c0.3-0.3,0.6-0.5,0.9-0.8c0.3-0.3,0.7-0.7,1-1c0.3-0.3,0.6-0.6,0.9-0.9
				c0.4-0.4,0.7-0.7,1-1.1l0.1-0.1c0,0.1,0.1,0.1,0.1,0.2l0,0c0,0,0,0.1,0,0.1c0,0.2-0.2,0.4-0.4,0.7c-0.1,0-0.2,0.1-0.2,0.2l0,0
				c-0.3,0.3-0.5,0.5-0.8,0.8c-0.4,0.4-0.9,0.9-1.2,1.3c-0.1,0.2-0.3,0.4-0.5,0.6c-0.1,0.1-0.2,0.2-0.3,0.4L65.3,98
				c-0.1,0-0.2,0.1-0.3,0.1c-0.1,0-0.2,0-0.2,0c-0.1,0-0.2,0-0.2-0.1c-0.1,0-0.2-0.1-0.3-0.1c-0.1-0.1-0.2-0.2-0.2-0.3
				c-0.1-0.2-0.2-0.4-0.1-0.6c0-0.5,0.1-0.9,0.3-1.4c0-0.3,0.1-0.6,0.3-0.9l0.5-0.8c0.1-0.2,0.3-0.4,0.5-0.6c0-0.1,0.2-0.1,0.2-0.1
				c0,0.1,0,0.1,0,0.1c0,0,0,0,0,0.1c0,0,0,0.1,0,0.1l0,0l0,0c0,0,0,0,0,0C65.6,93.5,65.5,93.6,65.4,93.6z M64.4,95.5
				C64.4,95.5,64.4,95.5,64.4,95.5C64.4,95.5,64.4,95.5,64.4,95.5L64.4,95.5z M64.4,95.3C64.4,95.4,64.4,95.4,64.4,95.3
				c0,0.1,0,0.1,0,0.1C64.5,95.5,64.5,95.4,64.4,95.3C64.5,95.4,64.4,95.4,64.4,95.3z M64.5,95.2C64.4,95.3,64.4,95.3,64.5,95.2
				C64.5,95.3,64.5,95.3,64.5,95.2z M64.5,95.6C64.5,95.6,64.5,95.7,64.5,95.6l0,0.1C64.5,95.7,64.5,95.7,64.5,95.6L64.5,95.6z
				 M64.5,95.1c0,0-0.1,0,0,0.1C64.5,95.2,64.5,95.1,64.5,95.1z M64.6,95C64.6,95,64.6,95,64.6,95l0,0.1C64.6,95.1,64.6,95,64.6,95
				C64.6,95,64.6,95,64.6,95z M64.8,94.5c-0.1,0.1-0.2,0.3-0.2,0.5C64.7,94.8,64.8,94.7,64.8,94.5z M64.9,94.4
				C64.8,94.5,64.8,94.5,64.9,94.4C64.8,94.5,64.9,94.5,64.9,94.4z M64.8,94.3L64.8,94.3C64.9,94.4,64.9,94.4,64.8,94.3
				C64.9,94.4,64.8,94.4,64.8,94.3z M65.2,93.9c-0.2,0.1-0.2,0.3-0.3,0.5C65.1,94.2,65.1,94.1,65.2,93.9z M65.2,93.8
				c0,0-0.1,0-0.1,0.1C65.2,93.9,65.2,93.8,65.2,93.8z M65.3,93.7C65.3,93.7,65.2,93.7,65.3,93.7c-0.1,0.1-0.1,0.1-0.1,0.1
				C65.3,93.8,65.3,93.7,65.3,93.7z M65.7,97.4C65.7,97.4,65.7,97.4,65.7,97.4c0,0-0.1,0.1-0.1,0.1C65.7,97.5,65.7,97.5,65.7,97.4
				C65.7,97.4,65.7,97.4,65.7,97.4z M65.5,93.3c-0.1,0-0.1,0.1-0.1,0.2C65.5,93.4,65.5,93.4,65.5,93.3
				C65.6,93.4,65.6,93.4,65.5,93.3z M65.9,97.2c-0.1,0-0.1,0.1-0.2,0.2C65.8,97.3,65.9,97.3,65.9,97.2z M65.7,93.2
				C65.7,93.2,65.7,93.2,65.7,93.2C65.6,93.3,65.6,93.3,65.7,93.2C65.6,93.3,65.6,93.3,65.7,93.2C65.7,93.2,65.7,93.2,65.7,93.2
				L65.7,93.2L65.7,93.2C65.7,93.2,65.7,93.2,65.7,93.2z M66.1,96.9c-0.1,0-0.1,0-0.1,0.2C66.1,97,66.1,97,66.1,96.9L66.1,96.9z
				 M66.1,96.8C66.1,96.7,66.1,96.7,66.1,96.8L66.1,96.8C66.2,96.7,66.1,96.7,66.1,96.8C66.1,96.7,66.1,96.7,66.1,96.8z M66.2,96.9
				C66.2,96.9,66.1,96.9,66.2,96.9L66.2,96.9C66.2,96.9,66.2,96.9,66.2,96.9z M66.3,96.7c-0.1,0-0.1,0-0.1,0.1
				C66.2,96.8,66.3,96.8,66.3,96.7z M66.2,96.6c0,0,0.1,0,0.1-0.1c0,0,0,0,0,0C66.2,96.5,66.2,96.6,66.2,96.6z M66.3,96.5
				C66.3,96.5,66.4,96.5,66.3,96.5C66.4,96.4,66.4,96.4,66.3,96.5L66.3,96.5L66.3,96.5z M66.5,96.5l-0.1,0.2
				C66.4,96.6,66.4,96.6,66.5,96.5z M67,91.5c-0.1,0-0.2,0.1-0.2,0.2c0,0-0.1,0.1,0,0.1c0,0,0,0.1,0,0.1c-0.1,0.1-0.1,0.1-0.1,0.2
				c-0.1,0-0.1,0-0.1,0c0,0,0-0.1-0.1-0.1l0-0.1c0,0-0.1,0-0.2-0.1c0-0.1-0.1-0.1-0.1-0.1c-0.1,0-0.1-0.1-0.1-0.1
				c0.1-0.2,0.1-0.4,0.3-0.6c0,0,0.1,0,0.1-0.1c0,0,0.1,0,0.1,0c0.1,0,0.2,0,0.3,0.1c0.1,0,0.2,0.1,0.2,0.2C67,91.4,67,91.5,67,91.5
				z M66.5,96.4L66.5,96.4L66.5,96.4C66.5,96.5,66.5,96.5,66.5,96.4z M66.7,96.3c-0.1,0-0.1,0.1-0.2,0.1
				C66.6,96.4,66.7,96.4,66.7,96.3z M66.5,96.3C66.5,96.2,66.6,96.2,66.5,96.3L66.5,96.3L66.5,96.3C66.6,96.2,66.5,96.2,66.5,96.3z
				 M66.7,96.1C66.7,96.1,66.7,96.1,66.7,96.1L66.7,96.1C66.7,96.1,66.7,96.1,66.7,96.1z M66.8,96.3L66.8,96.3
				C66.7,96.3,66.7,96.3,66.8,96.3L66.8,96.3C66.7,96.3,66.7,96.3,66.8,96.3z M66.7,96.1C66.7,96.1,66.8,96.1,66.7,96.1
				c0.1,0,0.1-0.1,0.1-0.1C66.8,96,66.8,96,66.7,96.1C66.7,96,66.7,96.1,66.7,96.1L66.7,96.1z M66.9,96.1c-0.1,0-0.1,0.1-0.1,0.2
				C66.8,96.3,66.9,96.2,66.9,96.1z M66.4,91.4L66.4,91.4C66.4,91.4,66.5,91.3,66.4,91.4C66.4,91.3,66.4,91.4,66.4,91.4L66.4,91.4z
				 M66.8,96c0.1,0,0.1-0.1,0.2-0.2C66.9,95.8,66.9,95.9,66.8,96z M66.7,91.3L66.7,91.3L66.7,91.3L66.7,91.3l-0.1,0
				c-0.1,0-0.1,0-0.1,0l0.1,0c-0.1,0-0.1,0.1-0.1,0.1c0,0,0,0,0,0.1C66.6,91.4,66.6,91.4,66.7,91.3z M67,96C67,96,67,96.1,67,96
				c-0.1,0.1-0.1,0.1-0.1,0.1c0,0,0,0,0,0C67,96.1,67,96,67,96L67,96z M67.1,95.9C67.1,95.9,67.1,95.9,67.1,95.9
				C67.1,95.9,67.1,95.9,67.1,95.9z M67.4,95.6L67.4,95.6C67.4,95.6,67.4,95.6,67.4,95.6C67.4,95.6,67.4,95.6,67.4,95.6L67.4,95.6z
				 M67.5,95.3C67.5,95.2,67.6,95.2,67.5,95.3L67.5,95.3L67.5,95.3L67.5,95.3z M67.9,94.9c-0.1,0-0.1,0.1-0.1,0.1l-0.1,0.1
				C67.8,95.1,67.8,95,67.9,94.9z M67.8,95.2C67.8,95.2,67.8,95.2,67.8,95.2c-0.1,0.1-0.1,0.1-0.1,0.1
				C67.7,95.3,67.8,95.2,67.8,95.2L67.8,95.2z M67.9,95.1C67.8,95.1,67.8,95.1,67.9,95.1L67.9,95.1z M68,95C68,95,68,95,68,95
				C68,95,68,95,68,95z M68,94.8L68,94.8C68,94.8,68,94.8,68,94.8z M68.2,94.8c-0.1,0-0.1,0.1-0.2,0.2
				C68.1,94.9,68.2,94.9,68.2,94.8z M68.1,94.7L68.1,94.7l-0.1,0.1C68.1,94.8,68.1,94.8,68.1,94.7C68.1,94.7,68.1,94.7,68.1,94.7z
				 M68.5,94.4c-0.1,0-0.1,0.1-0.2,0.2C68.4,94.5,68.4,94.5,68.5,94.4z M68.7,94.3c-0.1,0-0.1,0.1-0.2,0.1
				C68.6,94.4,68.7,94.4,68.7,94.3L68.7,94.3z M68.7,94.1c-0.1,0-0.1,0.1-0.1,0.1c-0.1,0-0.1,0-0.1,0C68.6,94.2,68.7,94.2,68.7,94.1
				z M68.9,93.8c-0.1,0-0.1,0.1-0.1,0.2C68.9,94,68.9,93.9,68.9,93.8z M68.9,94.1C68.8,94.1,68.8,94.1,68.9,94.1L68.9,94.1z M69,94
				C69,94,68.9,94,69,94C68.9,94,69,94,69,94L69,94z M69.1,93.6c-0.1,0-0.1,0-0.1,0.1l0,0.1C69.1,93.8,69.1,93.7,69.1,93.6z"/>
		</g>
	</g>
</g>
<g id="FULL_PIECE">
	<g id="front_copy_2">
		<g class="st0">
			<g class="st1">
				<path d="M197.7,59.2c1.9,0.8,3.8,1.6,5.8,2.2c1.9,0.7,3.9,1.2,5.9,1.7c4,0.9,8,1.5,12.1,1.6c2,0.1,4.1,0,6.1-0.2
					c2-0.2,4-0.6,6-1c2-0.5,3.9-1,5.8-1.8c1.9-0.7,3.8-1.6,5.7-2.5l0.1,0.1c-3.5,2.1-7.4,3.8-11.4,4.9c-2,0.6-4,0.9-6.1,1.2
					c-2.1,0.2-4.1,0.3-6.2,0.3c-4.1-0.1-8.3-0.7-12.2-1.8C205.1,62.7,201.2,61.3,197.7,59.2L197.7,59.2z"/>
			</g>
		</g>
		<g class="st0">
			<g class="st1">
				<path d="M197.2,59.2c1-3.5,9-12,11-17.5c-1.3-4.5-6.8-20.3-7.9-23.6c-10-6.4-6.7-11-5.4-13.4c3.1-3.5,7.5-23.9,7.5-23.9l5.9-2
					c0,0,1,27.9,6.4,32.4h13.6c5.5-4.5,6.4-32.4,6.4-32.4l5.9,2c0,0,4.4,20.4,7.5,23.9c1.3,2.4,5.6,7-4.4,13.4
					c-1.2,3.3-6.9,19.1-8.2,23.6c1.9,5.5,9.2,14.1,10.2,17.5C245.5,73.4,197.2,73.4,197.2,59.2z"/>
			</g>
		</g>
	</g>
</g>
<g id="HIGH_WAISTED">
	<g id="front_copy_3">
	</g>
</g>
</svg>
